<svg xmlns="http://www.w3.org/2000/svg" width="17.07" height="16.188" viewBox="0 0 17.07 16.188" class="svg-icon cart ">
    <path d="M16.19 9.121a.892.892 0 0 1-.88.773H5.26l.14.9h9.02a.9.9 0 0 1 0 1.8H4.65a.828.828 0 0 1-.32-.067.5.5 0 0 1-.1-.058 1.3 1.3 0 0 1-.18-.117c-.03-.031-.05-.066-.08-.1a.974.974 0 0 1-.11-.162.622.622 0 0 1-.04-.136.242.242 0 0 1-.04-.112L2.12 1.794H.88a.9.9 0 0 1 0-1.8h2a.888.888 0 0 1 .87.752l.17 1.047H16.2a.88.88 0 0 1 .67.311.926.926 0 0 1 .21.717zm-4.43-1.027h2.78l.25-1.8h-3.03v1.8zm-4.44-4.5h-3.1l.3 1.828a.445.445 0 0 1 .13-.028h2.67v-1.8zm0 2.7H4.66l.3 1.8h2.36v-1.8zm3.55-2.7H8.2v1.8h2.67v-1.8zm0 2.7H8.2v1.8h2.67v-1.8zm.89-2.7v1.8h3.16l.25-1.8h-3.41zm-5.78 9.9a1.35 1.35 0 1 1-1.33 1.35 1.345 1.345 0 0 1 1.33-1.35zm8 0a1.35 1.35 0 1 1-1.33 1.35 1.343 1.343 0 0 1 1.33-1.35z"/>
</svg>
