<svg xmlns="http://www.w3.org/2000/svg" width="48" height="48" viewBox="0 0 48 48" class="svg-icon extra1 ">
    <path d="M9.338 38.79a.945.945 0 1 1 0-1.89h2.625a.945.945 0 1 1 0 1.89H9.338zm6.236-21.36a.959.959 0 0 1-.275-.67.942.942 0 0 1 .275-.67.945.945 0 0 1 1.616.67 1 1 0 0 1-.274.67.992.992 0 0 1-.671.27.97.97 0 0 1-.671-.27zM38.75 48a9.2 9.2 0 0 1-6.436-2.62H.953a.942.942 0 0 1-.945-.94V6.46a.942.942 0 0 1 .945-.94H7.88a.888.888 0 0 1 .231.04V3.37a3.386 3.386 0 0 1 6.772 0v2.16c.017 0 .032-.01.05-.01h17.4c.018 0 .033.01.051.01V3.37a3.386 3.386 0 0 1 6.772 0v2.19a.88.88 0 0 1 .23-.04h6.927a.942.942 0 0 1 .945.94v14.03a.945.945 0 0 1-1.89 0V17.7H21.256a.945.945 0 1 1 0-1.89h24.112V7.4h-5.982a.891.891 0 0 1-.23-.05v2.2a3.386 3.386 0 0 1-6.772 0V7.39c-.018 0-.033.01-.051.01h-17.4c-.018 0-.033-.01-.05-.01v2.16a3.386 3.386 0 0 1-6.772 0v-2.2a.9.9 0 0 1-.231.05H1.9v8.41h9.331a.945.945 0 1 1 0 1.89H1.9v25.8h28.926a9.121 9.121 0 0 1-1.314-4.71H15.837a.945.945 0 1 1 0-1.89h13.87a9.247 9.247 0 0 1 15.661-4.52v-7.46a.945.945 0 0 1 1.89 0V35.2a9.106 9.106 0 0 1 .734 3.59A9.236 9.236 0 0 1 38.75 48zM34.274 9.55a1.5 1.5 0 0 0 2.992 0V3.37a1.5 1.5 0 0 0-2.992 0v6.18zm-24.273 0a1.5 1.5 0 0 0 2.992 0V3.37a1.5 1.5 0 0 0-2.992 0v6.18zM38.75 31.47a7.32 7.32 0 1 0 7.352 7.32 7.341 7.341 0 0 0-7.352-7.32zm-.6 10.81a.961.961 0 0 1-1.336 0l-3.125-3.11a.937.937 0 0 1 0-1.33.953.953 0 0 1 1.337-.01l2.457 2.45 5-4.97a.942.942 0 1 1 1.335 1.33z"/>
</svg>
