<svg xmlns="http://www.w3.org/2000/svg" width="47" height="47" viewBox="0 0 47 47" class="svg-icon extra3 ">
    <path d="M23.5 47A23.5 23.5 0 1 1 39.91 6.68a.902.902 0 0 1-1.26 1.29 21.448 21.448 0 0 0-9.52-5.38c3.8 3.73 6.38 11.17 6.55 20.01h9.47a21.44 21.44 0 0 0-1.56-7.3.903.903 0 1 1 1.67-.69A23.513 23.513 0 0 1 23.5 47zM13.13 22.6h9.47V1.91c-5.09.96-9.25 9.96-9.47 20.69zm9.47 22.49V24.4h-9.47c.22 10.73 4.38 19.73 9.47 20.69zm1.8 0c5.09-.96 9.25-9.96 9.47-20.69H24.4v20.69zm-6.55-.69c-3.79-3.74-6.36-11.17-6.53-20H1.85a21.7 21.7 0 0 0 16 20zm-16-21.8h9.47c.17-8.83 2.74-16.26 6.53-20a21.7 21.7 0 0 0-16 20zM24.4 1.91V22.6h9.47c-.22-10.73-4.38-19.73-9.47-20.69zM35.68 24.4c-.17 8.83-2.74 16.26-6.53 20a21.7 21.7 0 0 0 16-20h-9.47zm6.57-12.77a.927.927 0 0 1-.64-.27.905.905 0 1 1 1.28-1.28.91.91 0 0 1-.64 1.55z"/>
</svg>
