<svg xmlns="http://www.w3.org/2000/svg" width="50" height="47" viewBox="0 0 50 47" class="svg-icon extra4 ">
    <path d="M49.1 42.57h-2.31v2.29a.905.905 0 0 1-1.81 0v-2.29h-2.3a.9.9 0 1 1 0-1.8h2.3v-2.3a.905.905 0 0 1 1.81 0v2.3h2.31a.9.9 0 1 1 0 1.8zm-2.46-10.54a.769.769 0 0 1 .29.19.853.853 0 0 1 .19.3.842.842 0 0 1 .07.35.927.927 0 0 1-.26.62.942.942 0 0 1-.29.2 1.03 1.03 0 0 1-.35.06.9.9 0 0 1-.64-.26.972.972 0 0 1-.19-.29.817.817 0 0 1-.07-.33.894.894 0 0 1 1.25-.84zm2.96-10.95c-.01.01-.01.03-.02.04a.654.654 0 0 1-.17.26L25.49 46.72a.133.133 0 0 0-.05.03 1.429 1.429 0 0 1-.2.14c-.03.01-.05.03-.08.04a.824.824 0 0 1-.31.07h-.02a.928.928 0 0 1-.33-.07c-.03-.01-.05-.03-.08-.04a.9.9 0 0 1-.2-.14c-.01-.01-.04-.02-.05-.03L.24 21.38a.782.782 0 0 1-.17-.26.06.06 0 0 0-.01-.04.918.918 0 0 1-.05-.28c0-.01-.01-.02-.01-.03 0-.03.01-.05.01-.08a.8.8 0 0 1 .05-.21.5.5 0 0 1 .05-.13c.02-.02.02-.06.04-.08L7.24 9.75a.374.374 0 0 0 .07-.06.658.658 0 0 1 .14-.15.251.251 0 0 1 .07-.04.754.754 0 0 1 .13-.06.839.839 0 0 1 .26-.07c.03 0 .06-.02.08-.02h33.67c.03 0 .06.02.09.02a.828.828 0 0 1 .27.07c.05.02.09.05.13.07a1.054 1.054 0 0 1 .11.07.481.481 0 0 1 .09.11c.02.03.05.04.06.06l7.09 10.52a.3.3 0 0 1 .04.08.672.672 0 0 1 .06.12.933.933 0 0 1 .04.22.235.235 0 0 1 .02.08c0 .01-.01.02-.01.03a.918.918 0 0 1-.05.28zm-2.94.59H33.09l-6.31 21.05zm-21.9 21.5l6.44-21.5H17.26zm-2.17-.76l-7.24-20.74H2.99zM2.6 19.87h11.57L8.04 11.8zm7.21-8.72L16 19.29l6.36-8.14H9.81zm8.03 8.72h12.73l-6.37-8.15zm8.21-8.72l6.41 8.21 7.21-8.21H26.05zm15.52.58l-7.16 8.14h12.65zM15.12 4.16a.926.926 0 0 1-.3.2.885.885 0 0 1-.69 0 .926.926 0 0 1-.3-.2 1.065 1.065 0 0 1-.19-.28.834.834 0 0 1-.06-.35.862.862 0 0 1 .06-.35 1.452 1.452 0 0 1 .19-.29 1.023 1.023 0 0 1 .3-.19.929.929 0 0 1 .99.19 1.118 1.118 0 0 1 .19.29.875.875 0 0 1 .07.35.842.842 0 0 1-.07.35 1.065 1.065 0 0 1-.19.28zm-7.8.83H5.01v2.3a.9.9 0 1 1-1.8 0v-2.3H.9a.9.9 0 0 1 0-1.8h2.31V.9a.9.9 0 0 1 1.8 0v2.29h2.31a.9.9 0 0 1 0 1.8zm28.74 39.59a.915.915 0 0 1 .69 0 .877.877 0 0 1 .3.2 1.065 1.065 0 0 1 .19.28.875.875 0 0 1 .07.35.9.9 0 0 1-.26.64 1.426 1.426 0 0 1-.3.2.974.974 0 0 1-.34.06 1.03 1.03 0 0 1-.35-.06 1 1 0 0 1-.29-.2.769.769 0 0 1-.19-.29.842.842 0 0 1-.07-.35.86.86 0 0 1 .26-.63.837.837 0 0 1 .29-.2z"/>
</svg>
