<svg xmlns="http://www.w3.org/2000/svg" width="28.82" height="28.82" viewBox="0 0 28.82 28.82" class="svg-icon insta ">
    <path d="M14.41 28.81a14.4 14.4 0 1 1 14.4-14.4 14.365 14.365 0 0 1-14.4 14.4zm0-25.8a11.4 11.4 0 1 0 11.4 11.4 11.395 11.395 0 0 0-11.4-11.4zm5.7 18.84H8.71a1.741 1.741 0 0 1-1.74-1.74V8.71a1.741 1.741 0 0 1 1.74-1.74h11.16a2.175 2.175 0 0 1 1.98 1.74v11.4a1.824 1.824 0 0 1-1.74 1.74zm-5.7-10.14a2.7 2.7 0 1 0 2.7 2.7 2.689 2.689 0 0 0-2.7-2.7zm5.46-2.22a.44.44 0 0 0-.48-.48h-1.5a.473.473 0 0 0-.48.48v1.5a.516.516 0 0 0 .48.48h1.5a.516.516 0 0 0 .48-.48v-1.5zm-.06 9.36v-5.7h-1.14a4.568 4.568 0 0 1 .18 1.26 4.44 4.44 0 0 1-8.88 0 4.264 4.264 0 0 1 .18-1.26H9.01v5.7a.948.948 0 0 0 .96.96h8.94a.948.948 0 0 0 .96-.96h-.06z"/>
</svg>
