<svg xmlns="http://www.w3.org/2000/svg" width="28.82" height="28.82" viewBox="0 0 28.82 28.82" class="svg-icon vk ">
    <path d="M14.41 28.81a14.4 14.4 0 1 1 14.4-14.4 14.365 14.365 0 0 1-14.4 14.4zm0-25.8a11.4 11.4 0 1 0 11.4 11.4 11.395 11.395 0 0 0-11.4-11.4zm7.2 10.2c-1.8 2.4-1.2 1.8 0 3 1.38 1.38 1.8 2.04 1.8 2.4a1.229 1.229 0 0 1-1.2 1.2h-1.8a1.2 1.2 0 0 1-1.2-.6c-.78-.78-1.8-1.8-2.4-1.8a1.29 1.29 0 0 0-1.2 1.2c0 .36 0 1.2-.6 1.2h-.6c-1.2-.06-2.58-.18-4.68-2.34a19.5 19.5 0 0 1-4.32-7.26c-.06-.24 0-.6.6-.6h1.8a.982.982 0 0 1 1.2.6c1.2 1.8 2.4 4.2 3 4.2s.6-2.4.6-2.4v-1.2c0-.84-1.02-.6-1.2-.6a2.829 2.829 0 0 1 .6-.6 3.514 3.514 0 0 1 1.8-.6h1.8c.9.24.6 1.62.6 3.6 0 .66.06 1.8.6 1.8s.6-.6 1.2-1.8a19.274 19.274 0 0 1 1.8-3c.42-.54 3.48.06 3.6.42s-.72 1.68-1.8 3.18z"/>
</svg>
