<?xml version="1.0" standalone="no"?>
<!DOCTYPE svg PUBLIC "-//W3C//DTD SVG 1.1//EN" "http://www.w3.org/Graphics/SVG/1.1/DTD/svg11.dtd" >
<svg xmlns="http://www.w3.org/2000/svg">
<metadata></metadata>
<defs>
<font id="plumbblack_soft" horiz-adv-x="1138" >
<font-face units-per-em="2048" ascent="1638" descent="-410" />
<missing-glyph horiz-adv-x="454" />
<glyph unicode=" "  horiz-adv-x="454" />
<glyph unicode="&#x09;" horiz-adv-x="454" />
<glyph unicode="&#xa0;" horiz-adv-x="454" />
<glyph unicode="!" horiz-adv-x="749" d="M211 1397v6q0 23 18.5 39t53.5 16h266q35 0 53.5 -16.5t18.5 -38.5v-6l-78 -850q-4 -27 -20.5 -44.5t-51.5 -17.5h-109q-35 0 -51 17.5t-20 44.5zM221 188q0 41 15.5 76t42 61.5t62.5 42t75 15.5t74.5 -15.5t62.5 -41t42 -60t15 -73.5q0 -84 -56 -141.5t-138 -57.5 q-39 0 -75 15.5t-62.5 42t-42 62.5t-15.5 74z" />
<glyph unicode="&#x22;" horiz-adv-x="999" d="M117 1040v357q0 27 18.5 44t52.5 17h158q35 0 53.5 -17.5t18.5 -43.5v-357q0 -27 -18.5 -44t-53.5 -17h-158q-35 0 -53 17.5t-18 43.5zM582 1040v357q0 27 18 44t53 17h158q35 0 53.5 -17.5t18.5 -43.5v-357q0 -27 -18.5 -44t-53.5 -17h-158q-35 0 -53 17.5t-18 43.5z " />
<glyph unicode="#" horiz-adv-x="1460" d="M100 414v174q0 35 17.5 53t44.5 18h108l27 181h-57q-27 0 -44.5 18.5t-17.5 52.5v174q0 35 17.5 53.5t44.5 18.5h108l41 252q4 27 20.5 44t51.5 17h213q33 0 52 -15t19 -38v-8l-40 -252h184l41 252q4 27 20.5 44t50.5 17h213q33 0 52.5 -15t19.5 -38v-8l-41 -252h58 q27 0 44 -18.5t17 -53.5v-174q0 -35 -17.5 -53t-43.5 -18h-109l-27 -181h58q27 0 44 -18t17 -53v-174q0 -35 -17.5 -53.5t-43.5 -18.5h-109l-45 -285q-4 -27 -20.5 -44t-51.5 -17h-213q-33 0 -52 15.5t-19 37.5v8l45 285h-185l-45 -285q-4 -27 -20 -44t-51 -17h-213 q-33 0 -52.5 15.5t-19.5 37.5v8l45 285h-57q-27 0 -44.5 18.5t-17.5 53.5zM627 664h184l27 180h-185z" />
<glyph unicode="$" horiz-adv-x="1296" d="M25 190q0 25 18 43l152 154q14 14 34 14q23 0 37 -14q43 -39 119 -57.5t168 -22.5v271l-80 10q-195 25 -294 130t-99 286q0 104 32.5 184t91 136t137.5 91t171 49v135q0 51 61 52h136q23 0 42 -11.5t19 -40.5v-131q135 -10 224 -46t157 -97q14 -14 14 -37t-14 -41 l-141 -145q-16 -16 -43 -17q-27 0 -37 11q-25 23 -80 38t-121 21v-256l84 -12q205 -29 300 -133t95 -299q0 -104 -32.5 -181t-91 -131.5t-139.5 -89.5t-175 -55v-180q0 -29 -19.5 -40t-41.5 -11h-136q-61 0 -61 51v170q-82 4 -148.5 14t-123 29.5t-104.5 49.5t-97 75 q-14 12 -14 34zM426 1024q0 -94 127 -113v242q-127 -29 -127 -129zM729 313q68 16 97.5 45t29.5 82q0 57 -28.5 85t-98.5 38v-250z" />
<glyph unicode="%" horiz-adv-x="1755" d="M92 991v195q0 129 84 206.5t225 77.5t225.5 -77.5t84.5 -206.5v-195q0 -129 -84 -206.5t-226 -77.5q-141 0 -225 77.5t-84 206.5zM330 999q0 -80 71 -79q72 0 72 79v179q0 80 -72 79q-72 0 -71 -79v-179zM425 16.5q-9 16.5 1 36.5l649 1362q12 27 25.5 35t44.5 8h133 q43 0 52 -16.5t-1 -36.5l-649 -1362q-12 -27 -25.5 -35t-44.5 -8h-133q-43 0 -52 16.5zM1044 272v195q0 129 84 207t226 78q141 0 225 -78t84 -207v-195q0 -129 -84 -206.5t-225 -77.5t-225.5 77.5t-84.5 206.5zM1282 281q0 -80 72 -80t71 80v178q0 80 -71 80q-72 0 -72 -80 v-178z" />
<glyph unicode="&#x26;" horiz-adv-x="1454" d="M100 422q0 135 64.5 223t167.5 162q-78 86 -107.5 153.5t-29.5 153.5q0 164 113.5 260t309.5 96q92 0 169 -25.5t130.5 -72.5t83 -112.5t29.5 -147.5q0 -66 -20.5 -114t-55 -86t-79 -69.5t-91.5 -64.5l172 -198q35 47 46.5 91t13.5 58q4 27 20.5 44.5t50.5 17.5h175 q35 0 53 -15.5t18 -40.5v-6q-10 -88 -40.5 -190.5t-123.5 -204.5l224 -262q14 -16 14 -33q0 -18 -19.5 -28.5t-46.5 -10.5h-251q-45 0 -65.5 19.5t-43.5 41.5l-41 45q-45 -33 -83 -56t-78 -36.5t-86 -19.5t-105 -6q-236 0 -362 112.5t-126 321.5zM424 453q0 49 18.5 81.5 t67.5 69.5l227 -260q-35 -29 -66.5 -41t-72.5 -12q-78 0 -126 45t-48 117zM530 1106q0 82 91 82q43 0 68.5 -22.5t25.5 -61.5q0 -45 -38 -72.5t-69 -50.5q-45 45 -61.5 70.5t-16.5 54.5z" />
<glyph unicode="'" horiz-adv-x="536" d="M117 1040v357q0 27 18.5 44t52.5 17h160q35 0 53.5 -17.5t18.5 -43.5v-357q0 -27 -18.5 -44t-53.5 -17h-160q-35 0 -53 17.5t-18 43.5z" />
<glyph unicode="(" horiz-adv-x="733" d="M147 334v790q0 86 9.5 147.5t34 116t70.5 109.5t120 127q10 10 35 10q29 0 45 -16l141 -145q14 -18 14 -41t-14 -37q-31 -31 -53.5 -58.5t-36.5 -58.5t-21.5 -71t-7.5 -95v-766q0 -55 7.5 -95t21.5 -70.5t36.5 -58.5t53.5 -59q14 -14 14 -36q0 -23 -14 -41l-141 -146 q-16 -16 -45 -16q-25 0 -35 10q-74 72 -120 127t-70.5 109.5t-34 116t-9.5 147.5z" />
<glyph unicode=")" horiz-adv-x="733" d="M117 27q0 23 14 36q31 31 53.5 59t37 58.5t21.5 70.5t7 95v766q0 55 -7 95t-21.5 71t-37 58.5t-53.5 58.5q-14 14 -14 37t14 41l141 145q16 16 45 16q25 0 35 -10q74 -72 120 -127t70.5 -109.5t34 -116t9.5 -147.5v-790q0 -86 -9.5 -147.5t-34 -116t-70.5 -109.5 t-120 -127q-10 -10 -35 -10q-29 0 -45 16l-141 146q-14 18 -14 41z" />
<glyph unicode="*" horiz-adv-x="1036" d="M96 928l215 110l-215 111l115 199l203 -131l-11 241h230l-10 -241l202 131l115 -199l-215 -111l215 -110l-115 -199l-202 131l10 -242h-230l11 242l-203 -131z" />
<glyph unicode="+" d="M88 483v193q0 61 51 61h273v273q0 51 61 51h193q61 0 61 -51v-273h272q51 0 52 -61v-193q0 -61 -52 -61h-272v-272q0 -51 -61 -52h-193q-61 0 -61 52v272h-273q-51 0 -51 61z" />
<glyph unicode="," horiz-adv-x="630" d="M49 -182q0 14 2 22l82 430q10 49 29.5 72t66.5 23h207q66 0 66 -52q0 -20 -13 -55l-133 -393q-14 -43 -32.5 -70.5t-79.5 -27.5h-135q-23 0 -41.5 10t-18.5 41z" />
<glyph unicode="-" horiz-adv-x="872" d="M88 508v192q0 61 51 62h594q51 0 51 -62v-192q0 -61 -51 -62h-594q-51 0 -51 62z" />
<glyph unicode="." horiz-adv-x="630" d="M100 209q0 45 17.5 84t46.5 68.5t67.5 46t83.5 16.5q43 0 83 -16.5t69 -46t46 -67.5t17 -81q0 -92 -61 -155.5t-154 -63.5q-45 0 -83.5 17.5t-67.5 46t-46.5 67.5t-17.5 84z" />
<glyph unicode="/" horiz-adv-x="882" d="M6 -119q0 4 4 21l551 1665q10 29 24.5 36t45.5 7h188q33 0 44 -9.5t11 -23.5q0 -4 -4 -21l-551 -1665q-10 -29 -24 -36t-45 -7h-189q-33 0 -44 9.5t-11 23.5z" />
<glyph unicode="0" d="M100 442v574q0 100 35 184t96.5 143.5t147.5 93t190 33.5t190.5 -33.5t148 -93t96 -143.5t34.5 -184v-574q0 -100 -34.5 -184t-96 -143.5t-147.5 -93t-191 -33.5q-104 0 -190 33.5t-147.5 93t-96.5 143.5t-35 184zM436 440q0 -70 36 -109.5t97 -39.5t97 40t36 109v576 q0 70 -36.5 110.5t-96.5 40.5q-61 0 -97 -41t-36 -110v-576z" />
<glyph unicode="1" d="M184 901v207q0 29 5.5 58.5t35.5 56.5l211 182q23 20 55.5 36.5t61.5 16.5h217q29 0 45 -17.5t16 -43.5v-1336q0 -27 -16 -44t-45 -17h-213q-29 0 -45 17.5t-16 43.5v1039l-232 -201q-33 -29 -57 -29q-23 0 -23 31z" />
<glyph unicode="2" d="M109 0v303l528 574q41 47 57.5 79.5t16.5 73.5q0 66 -35 101.5t-96 35.5q-66 0 -95.5 -32.5t-31.5 -55.5q-2 -27 -19.5 -44t-52.5 -17h-199q-35 0 -53 15.5t-18 39.5q0 16 7 56t23 77q53 125 169 194.5t272 69.5q104 0 189 -31.5t146.5 -89t95.5 -138.5t34 -179 q0 -51 -8.5 -92t-29 -82t-55 -85t-88.5 -101l-348 -369h479q33 0 47.5 -23.5t14.5 -48.5v-159q0 -29 -15.5 -50.5t-46.5 -21.5h-888z" />
<glyph unicode="3" d="M90 397q0 25 18.5 40.5t53.5 15.5h198q35 0 50.5 -19.5t21.5 -42.5q10 -37 39 -68.5t100 -31.5q70 0 110 40t40 111q0 70 -43 114t-113 44q-25 0 -43 18.5t-18 53.5v147q0 23 13 47.5t48 24.5q63 0 101.5 37t38.5 102q0 59 -37 98t-97 39q-59 0 -88.5 -31.5t-33.5 -52.5 q-4 -23 -20.5 -42t-51.5 -19h-199q-35 0 -53.5 15.5t-18.5 39.5q0 18 6.5 54t22.5 75q53 125 168 194.5t268 69.5q102 0 188.5 -32.5t149 -90t97 -137.5t34.5 -174q0 -123 -65 -207q-16 -23 -33.5 -37t-52.5 -38q53 -41 78.5 -68t48.5 -70q41 -78 41 -182q0 -100 -35 -183 t-98.5 -141.5t-152.5 -90t-200 -31.5q-113 0 -207 34.5t-159 100.5q-70 72 -92.5 149.5t-22.5 124.5z" />
<glyph unicode="4" d="M53 254v197q0 37 6.5 60.5t28.5 63.5l416 822q14 29 27.5 45t58.5 16h227q29 0 45.5 -9t16.5 -30q0 -12 -11 -33l-446 -874h235v131q0 27 16.5 44.5t45.5 17.5h196q29 0 45.5 -17.5t16.5 -44.5v-131h59q35 0 48.5 -19.5t13.5 -41.5v-197q0 -35 -18.5 -48t-43.5 -13h-59 v-132q0 -27 -16.5 -44t-45.5 -17h-196q-29 0 -45.5 17.5t-16.5 43.5v132h-542q-25 0 -43.5 13t-18.5 48z" />
<glyph unicode="5" d="M109 397q0 25 18 40.5t53 15.5h199q35 0 51 -19.5t21 -42.5q6 -35 34.5 -67.5t89.5 -32.5q72 0 105 49t33 158t-33 158t-105 49q-41 0 -69.5 -16.5t-50.5 -45.5q-8 -10 -23.5 -26.5t-46.5 -16.5h-195q-25 0 -43 13.5t-18 48.5v735q0 23 13.5 42t47.5 19h766 q35 0 48.5 -19.5t13.5 -41.5v-180q0 -35 -18.5 -48.5t-43.5 -13.5h-522v-225q84 57 203 57q195 0 303.5 -127t108.5 -356q0 -143 -31 -231.5t-105 -159.5q-131 -125 -338 -125q-76 0 -148.5 18.5t-131.5 56t-103.5 95t-66.5 133.5q-10 35 -13 55.5t-3 50.5z" />
<glyph unicode="6" d="M78 451q0 68 14 127q6 27 14.5 53t22.5 60t35.5 79t52.5 111l250 516q14 29 27.5 45t58.5 16h227q29 0 45.5 -9t16.5 -30q0 -12 -11 -33l-253 -499q18 6 34.5 8t38.5 2q86 0 159 -34t126 -92t83 -139t30 -177q0 -104 -35 -190.5t-98.5 -148t-153.5 -95t-199 -33.5 t-198 33.5t-153.5 94t-99 145.5t-34.5 190zM414 457q0 -76 41 -121t108 -45q66 0 108 45t42 117q0 78 -41 124t-109 46t-108.5 -45.5t-40.5 -120.5z" />
<glyph unicode="7" d="M70 987v410q0 27 16 44t45 17h866q31 0 51.5 -16.5t20.5 -44.5v-197q0 -29 -12.5 -67.5t-18.5 -55.5l-399 -1016q-10 -29 -25.5 -45t-60.5 -16h-227q-29 0 -45.5 9t-16.5 30q0 8 10 33l426 1083h-311v-168q0 -27 -16.5 -44t-44.5 -17h-197q-29 0 -45 17.5t-16 43.5z" />
<glyph unicode="8" d="M80 428q0 111 41 183.5t123 138.5q-82 72 -116 138t-34 159q0 92 36 168.5t99.5 134t150.5 89t189 31.5t189.5 -31.5t151 -89t99 -134t35.5 -168.5t-33.5 -158.5t-115.5 -138.5q92 -74 128 -146t36 -174q0 -100 -35 -182t-98.5 -139.5t-154.5 -89t-202 -31.5t-202 31.5 t-154 89t-98 138.5t-35 181zM416 444q0 -63 45 -108t108 -45q61 0 107.5 45t46.5 106q0 66 -44 111t-110 45q-63 0 -108 -45t-45 -109zM430 1028q0 -59 40 -99t99 -40q57 0 98.5 40t41.5 97q0 59 -40 100t-100 41q-59 0 -99 -40t-40 -99z" />
<glyph unicode="9" d="M90 1004q0 104 35 190t98.5 147.5t153.5 95t198 33.5q109 0 198 -33.5t153.5 -94t99.5 -145.5t35 -189q0 -68 -14 -127q-6 -27 -14.5 -53.5t-23 -60.5t-36 -79t-51.5 -110l-250 -517q-14 -29 -27.5 -45t-58.5 -16h-228q-29 0 -45 9t-16 30q0 12 10 33l254 499 q-18 -6 -34.5 -8t-39.5 -2q-86 0 -158.5 34t-125.5 92t-83 140t-30 177zM426 1006q0 -78 41 -124t108 -46q68 0 109 44.5t41 120.5t-41 121t-109 45q-66 0 -107.5 -45t-41.5 -116z" />
<glyph unicode=":" horiz-adv-x="630" d="M100 209q0 45 17.5 84t46.5 68.5t67.5 46t83.5 16.5q43 0 83 -16.5t69 -46t46 -67.5t17 -81q0 -92 -61 -155.5t-154 -63.5q-45 0 -83.5 17.5t-67.5 46t-46.5 67.5t-17.5 84zM100 844q0 45 17.5 84t46.5 68.5t67.5 46t83.5 16.5q43 0 83 -16.5t69 -46t46 -67.5t17 -81 q0 -92 -61 -155.5t-154 -63.5q-45 0 -83.5 17.5t-67.5 46t-46.5 67.5t-17.5 84z" />
<glyph unicode=";" horiz-adv-x="630" d="M49 -182q0 14 2 22l82 430q10 49 29.5 72t66.5 23h207q66 0 66 -52q0 -20 -13 -55l-133 -393q-14 -43 -32.5 -70.5t-79.5 -27.5h-135q-23 0 -41.5 10t-18.5 41zM100 844q0 45 17.5 84t46.5 68.5t67.5 46t83.5 16.5q43 0 83 -16.5t69 -46t46 -67.5t17 -81 q0 -92 -61 -155.5t-154 -63.5q-45 0 -83.5 17.5t-67.5 46t-46.5 67.5t-17.5 84z" />
<glyph unicode="&#x3c;" d="M61 526v160q0 35 9.5 62.5t42.5 39.5l870 342q35 12 51 13q23 0 31 -15.5t8 -37.5v-183q0 -72 -63 -94l-592 -207l592 -207q63 -23 63 -94v-182q0 -23 -8 -38t-31 -15q-16 0 -51 12l-870 342q-33 12 -42.5 40t-9.5 62z" />
<glyph unicode="=" d="M100 258v193q0 61 52 61h835q51 0 51 -61v-193q0 -61 -51 -61h-835q-51 0 -52 61zM100 758v192q0 61 52 62h835q51 0 51 -62v-192q0 -61 -51 -62h-835q-51 0 -52 62z" />
<glyph unicode="&#x3e;" d="M61 123v182q0 72 64 94l592 207l-592 207q-63 23 -64 94v183q0 23 8.5 38t30.5 15q18 0 52 -13l870 -342q33 -12 42 -39.5t9 -62.5v-160q0 -35 -9 -62.5t-42 -39.5l-870 -342q-33 -12 -52 -12q-23 0 -31 15t-8 38z" />
<glyph unicode="?" horiz-adv-x="1101" d="M127 1085q0 18 6 53.5t23 73.5q51 123 162.5 190.5t263.5 67.5q102 0 186 -30.5t144.5 -87t94 -134t33.5 -171.5q0 -72 -24.5 -135.5t-79.5 -133.5l-141 -178q-16 -23 -22.5 -39t-8.5 -22q-4 -25 -16.5 -40.5t-32.5 -15.5h-232q-37 0 -49 14.5t-12 34.5q0 61 18.5 118 t65.5 110l143 168q55 66 56 121q0 53 -34 85.5t-89 32.5q-59 0 -84 -26.5t-29 -48.5q-4 -25 -20.5 -43.5t-51.5 -18.5h-198q-35 0 -53.5 15.5t-18.5 39.5zM395 188q0 -39 15.5 -74.5t42 -62t62.5 -42t75 -15.5q82 0 138 57.5t56 141.5q0 39 -15 73.5t-42 60t-62.5 41 t-74.5 15.5t-75 -15.5t-62.5 -42t-42 -61.5t-15.5 -76z" />
<glyph unicode="@" horiz-adv-x="1605" d="M100 350v570q0 156 30 252t101 167q72 72 169.5 101.5t256.5 29.5h291q158 0 256.5 -29.5t169.5 -101.5q72 -72 101.5 -167.5t29.5 -251.5v-869q0 -25 -17.5 -38t-43.5 -13h-187q-27 0 -44 11.5t-17 39.5v39q-57 -51 -104.5 -76.5t-124.5 -25.5q-57 0 -113.5 16 t-102.5 48t-78 78t-40 108q-4 35 -8 91t-4 134v35q0 72 5 126t16 95t30.5 71.5t46.5 57.5q94 90 246 90q68 0 119 -19.5t102 -64.5v53q0 260 -260 260h-246q-260 0 -260 -260v-536q0 -61 10 -90t35 -54q14 -14 14 -37q0 -27 -14 -40l-150 -150q-16 -16 -45 -16q-23 0 -43 17 t-38.5 41t-32 50.5t-21.5 44.5q-35 82 -35 213zM940 451q0 113 28.5 160.5t94.5 47.5t94.5 -46t28.5 -148q0 -106 -29 -152.5t-94 -46.5q-63 0 -93 44t-30 141z" />
<glyph unicode="A" horiz-adv-x="1337" d="M20 39q0 14 7 33l489 1343q10 29 27.5 36t46.5 7h158q31 0 48 -8t29 -43l488 -1335q6 -18 6 -33q0 -39 -59 -39h-230q-45 0 -60.5 15.5t-25.5 45.5l-49 156h-449l-51 -156q-10 -29 -25.5 -45t-60.5 -16h-229q-59 0 -60 39zM547 516h254l-123 389z" />
<glyph unicode="B" horiz-adv-x="1337" d="M147 61v1336q0 27 18.5 44t53.5 17h533q106 0 192 -28.5t146.5 -82t93.5 -129t33 -169.5q0 -98 -37 -169t-123 -132q98 -61 139 -135t41 -185q0 -98 -31.5 -177t-91 -134.5t-143.5 -86t-189 -30.5h-563q-29 0 -50.5 17.5t-21.5 43.5zM506 322h242q61 0 96 35t35 94 t-35 93t-96 34h-242v-256zM506 899h223q61 0 95 32t34 87t-33.5 87t-95.5 32h-223v-238z" />
<glyph unicode="C" horiz-adv-x="1120" d="M100 729v51q0 106 7.5 185t25 140.5t45 110t70.5 91.5q157 163 404 163h3q227 0 367 -131q16 -16 16 -39q0 -27 -20 -47l-146 -145q-10 -10 -24 -14t-27 -4q-25 0 -33 8q-33 31 -59.5 42t-73.5 11q-94 0 -141 -61q-16 -20 -26.5 -49t-16.5 -74t-9 -110.5t-3 -160.5 q0 -141 12 -214.5t43 -112.5q49 -61 141 -62q47 0 74 12.5t53 34.5q18 14 37 15q29 0 49 -21l148 -145q22 -22 22 -49q0 -23 -14 -35q-72 -66 -161 -98.5t-206 -32.5q-252 0 -409 164q-51 53 -85 120.5t-44 130.5q-6 47 -12.5 128t-6.5 198z" />
<glyph unicode="D" horiz-adv-x="1333" d="M147 61v1336q0 27 18.5 44t53.5 17h469q246 0 393 -143q84 -82 118 -184.5t34 -268.5v-133q0 -117 -3 -198.5t-11 -133.5q-8 -61 -46 -131.5t-92 -122.5q-145 -143 -393 -143h-469q-29 0 -50.5 17.5t-21.5 43.5zM506 319h158q117 0 172 82q16 23 23 60t11 77t4 79.5v70.5 v72q0 74 -1 122t-6 81.5t-12 54t-19 39.5q-55 82 -172 82h-158v-820z" />
<glyph unicode="E" horiz-adv-x="1245" d="M147 61v1336q0 27 24 44t48 17h858q31 0 46.5 -21.5t15.5 -50.5v-176q0 -25 -14.5 -48t-47.5 -23h-571v-244h479q33 0 47.5 -20.5t14.5 -51.5v-176q0 -27 -15.5 -49.5t-46.5 -22.5h-479v-256h571q29 0 45.5 -22.5t16.5 -48.5v-176q0 -29 -16.5 -50.5t-45.5 -21.5h-858 q-29 0 -50.5 17.5t-21.5 43.5z" />
<glyph unicode="F" horiz-adv-x="1220" d="M147 61v1336q0 27 18.5 44t53.5 17h858q33 0 47.5 -24.5t14.5 -47.5v-176q0 -27 -17.5 -49t-44.5 -22h-571v-256h479q35 0 48.5 -24.5t13.5 -47.5v-176q0 -35 -18.5 -53.5t-43.5 -18.5h-479v-502q0 -27 -22.5 -44t-49.5 -17h-215q-29 0 -50.5 17.5t-21.5 43.5z" />
<glyph unicode="G" horiz-adv-x="1296" d="M100 682v47v51q0 106 7.5 185t23.5 140.5t45 109t72 92.5q82 86 181 124.5t235 38.5q129 0 223 -34.5t172 -106.5q23 -20 22 -49q0 -29 -20 -49l-139 -139q-23 -23 -56 -23q-29 0 -53 21q-41 37 -74.5 49t-81.5 12q-70 0 -108.5 -29.5t-59 -75t-25.5 -97.5t-5 -97v-61 v-99q0 -141 12 -213.5t41 -109.5q49 -61 145 -62q92 0 144.5 57.5t52.5 159.5v17h-139q-31 0 -46.5 22.5t-15.5 48.5v156q0 27 16.5 49.5t45.5 22.5h434q31 0 46 -22.5t15 -49.5v-125q0 -94 -7 -165.5t-24.5 -129t-44 -103.5t-67.5 -89q-162 -168 -412 -168t-407 164 q-53 55 -83 118.5t-44.5 131t-17.5 138t-3 142.5z" />
<glyph unicode="H" horiz-adv-x="1392" d="M147 61v1336q0 27 18.5 44t53.5 17h215q35 0 53.5 -17.5t18.5 -43.5v-500h381v500q0 27 18.5 44t52.5 17h216q35 0 53 -17.5t18 -43.5v-1336q0 -27 -20.5 -44t-48.5 -17h-218q-29 0 -50 17.5t-21 43.5v517h-381v-517q0 -27 -21.5 -44t-50.5 -17h-215q-29 0 -50.5 17.5 t-21.5 43.5z" />
<glyph unicode="I" horiz-adv-x="653" d="M147 61v1336q0 27 18.5 44t53.5 17h215q35 0 53.5 -17.5t18.5 -43.5v-1336q0 -27 -21.5 -44t-50.5 -17h-215q-29 0 -50.5 17.5t-21.5 43.5z" />
<glyph unicode="J" horiz-adv-x="1056" d="M-4 158q0 23 16 39l158 155q12 12 37 13q27 0 49 -17q29 -23 55.5 -32t67.5 -9q92 0 142 51.5t50 149.5v889q0 27 18.5 44t53.5 17h215q35 0 53.5 -17.5t18.5 -43.5v-897q0 -115 -40 -209t-114 -162t-176 -104.5t-227 -36.5q-109 0 -194 27.5t-165 99.5q-18 16 -18 43z " />
<glyph unicode="K" horiz-adv-x="1378" d="M147 61v1336q0 27 18.5 44t53.5 17h211q35 0 53.5 -17.5t18.5 -43.5v-455l375 459q35 43 53 50t53 7h301q45 0 45 -26q0 -12 -16 -33l-449 -531l469 -792q16 -27 17 -45q0 -23 -20.5 -27t-37.5 -4h-266q-49 0 -69.5 20.5t-30.5 40.5l-301 537l-123 -141v-396 q0 -27 -21.5 -44t-50.5 -17h-211q-29 0 -50.5 17.5t-21.5 43.5z" />
<glyph unicode="L" horiz-adv-x="1179" d="M147 61v1336q0 27 18.5 44t53.5 17h215q35 0 53.5 -17.5t18.5 -43.5v-1078h551q29 0 45 -22.5t16 -48.5v-176q0 -29 -16.5 -50.5t-44.5 -21.5h-838q-29 0 -50.5 17.5t-21.5 43.5z" />
<glyph unicode="M" horiz-adv-x="1654" d="M147 61v1336q0 27 18.5 44t53.5 17h225q37 0 54.5 -14t27.5 -37l301 -592l301 592q10 23 28 37t54 14h226q35 0 53 -17.5t18 -43.5v-1336q0 -27 -21.5 -44t-49.5 -17h-215q-29 0 -50.5 17.5t-21.5 43.5v637l-180 -313q-27 -47 -72 -47h-135q-49 0 -76 45l-180 315v-637 q0 -27 -21.5 -44t-50.5 -17h-215q-29 0 -50.5 17.5t-21.5 43.5z" />
<glyph unicode="N" horiz-adv-x="1433" d="M147 61v1336q0 27 18.5 44t53.5 17h184q37 0 57.5 -15.5t33.5 -35.5l434 -682v672q0 27 20.5 44t48.5 17h217q29 0 50.5 -17.5t21.5 -43.5v-1336q0 -27 -18.5 -44t-53.5 -17h-184q-37 0 -57.5 15.5t-32.5 35.5l-434 682v-672q0 -27 -21.5 -44t-50.5 -17h-215 q-29 0 -50.5 17.5t-21.5 43.5z" />
<glyph unicode="O" horiz-adv-x="1310" d="M100 688v92q0 106 7.5 185t23.5 140.5t45 109t72 92.5q155 163 402 163h3q252 0 410 -163q78 -80 112.5 -184.5t34.5 -264.5v-129q0 -80 -1 -156.5t-14 -149.5t-43 -141.5t-89 -129.5q-156 -164 -406 -164q-252 0 -409 164q-55 59 -86 123.5t-44.5 134t-15.5 140.5 t-2 138zM459 690q0 -141 12 -210.5t41 -106.5q53 -66 143 -66t144 66q29 37 41 106.5t12 210.5v101q0 104 -12.5 181t-40.5 115q-51 63 -144 64q-92 -1 -143 -64q-29 -39 -41 -115.5t-12 -180.5v-101z" />
<glyph unicode="P" horiz-adv-x="1284" d="M147 61v1336q0 27 18.5 44t53.5 17h506q109 0 200 -34.5t157.5 -97t103.5 -149t37 -188.5t-37 -188t-102.5 -148.5t-157.5 -97.5t-201 -35h-219v-459q0 -27 -21.5 -44t-50.5 -17h-215q-29 0 -50.5 17.5t-21.5 43.5zM506 842h203q68 0 111.5 42t43.5 105t-44 105.5 t-111 42.5h-203v-295z" />
<glyph unicode="Q" horiz-adv-x="1310" d="M100 729v51q0 106 7.5 185t23.5 140.5t45 109t72 92.5q155 163 402 163h3q252 0 410 -163q51 -53 85 -121t44 -131q8 -53 13 -134t5 -192v-47q0 -121 -7 -194.5t-23 -133.5q-10 -35 -20.5 -58.5t-33.5 -64.5l72 -71q18 -18 19 -35q0 -16 -15 -31l-121 -121 q-14 -14 -28 -14q-18 0 -37 18l-78 78q-72 -37 -135.5 -52t-145.5 -15q-252 0 -409 164q-49 49 -78 106t-44 126t-20.5 154t-5.5 191zM459 649q0 -51 4 -111.5t22.5 -111.5t57.5 -85t106 -34h4h7.5t23.5 2l-61 62q-14 14 -15 30q0 16 15 31l118 119q16 16 33 16q16 0 31 -14 l39 -39q6 59 7 115.5t1 115.5q0 78 -2 134.5t-8 96.5t-16.5 66.5t-26.5 44.5q-51 63 -144 64q-92 0 -143 -64q-18 -25 -28.5 -63.5t-16.5 -82.5t-7 -89t-1 -82v-41v-39v-41z" />
<glyph unicode="R" horiz-adv-x="1335" d="M147 61v1336q0 27 18.5 44t53.5 17h506q109 0 200 -34.5t157.5 -97t103.5 -147.5t37 -188q0 -166 -107 -284q-27 -29 -53.5 -49.5t-77.5 -49.5l277 -532q14 -27 14 -45q0 -23 -19.5 -27t-35.5 -4h-267q-49 0 -69.5 20.5t-30.5 40.5l-227 482h-121v-482q0 -27 -21.5 -44 t-50.5 -17h-215q-29 0 -50.5 17.5t-21.5 43.5zM506 842h203q68 0 111.5 42t43.5 105t-44 105.5t-111 42.5h-203v-295z" />
<glyph unicode="S" horiz-adv-x="1214" d="M25 190q0 25 18 43l152 154q14 14 34 14q23 0 37 -14q27 -23 64 -38t79 -24.5t82.5 -13.5t73.5 -4q209 0 209 133q0 104 -125 123l-176 25q-393 55 -393 416q0 109 38 194.5t109.5 146t173 93t230.5 32.5q123 0 236.5 -32.5t203.5 -112.5q14 -14 14 -37t-14 -41 l-141 -145q-16 -16 -43 -17q-27 0 -37 11q-41 35 -105.5 48t-115.5 13q-98 0 -150.5 -35t-52.5 -98q0 -47 34 -74.5t95 -38.5l176 -24q205 -29 300 -133t95 -299q0 -109 -41 -196t-116.5 -147.5t-185 -92t-248.5 -31.5q-143 0 -266.5 34.5t-229.5 133.5q-14 12 -14 34z" />
<glyph unicode="T" horiz-adv-x="1198" d="M61 1210v176q0 29 15.5 50.5t46.5 21.5h952q31 0 46.5 -21.5t15.5 -50.5v-176q0 -25 -14.5 -48t-47.5 -23h-297v-1078q0 -27 -21.5 -44t-49.5 -17h-215q-29 0 -50.5 17.5t-21.5 43.5v1078h-297q-33 0 -47.5 23.5t-14.5 47.5z" />
<glyph unicode="U" horiz-adv-x="1351" d="M123 512v885q0 27 18.5 44t53.5 17h215q35 0 53 -17.5t18 -43.5v-877q0 -100 50.5 -156.5t142.5 -56.5t144 57.5t52 155.5v877q0 27 18.5 44t53.5 17h215q35 0 53.5 -17.5t18.5 -43.5v-885q0 -113 -42 -209t-116 -166.5t-175 -109.5t-222 -39q-119 0 -220.5 39 t-175 108.5t-114.5 165.5t-41 211z" />
<glyph unicode="V" horiz-adv-x="1230" d="M18 1419q0 39 60 39h229q45 0 58.5 -15.5t23.5 -45.5l227 -754l226 754q10 31 25.5 46t60.5 15h225q59 0 59 -39q0 -14 -6 -33l-442 -1335q-10 -35 -28.5 -43t-49.5 -8h-145q-29 0 -46.5 7t-27.5 36l-442 1343q-6 18 -7 33z" />
<glyph unicode="W" horiz-adv-x="1855" d="M16 1403.5v13.5q0 41 58 41h235q45 0 59.5 -15.5t22.5 -45.5l174 -709l223 727q10 29 30 36t48 7h127q31 0 49.5 -8t28.5 -43l219 -719l174 709q8 31 22.5 46t59.5 15h236q57 0 57 -41v-13t-4 -18l-367 -1335q-10 -35 -25.5 -43t-45.5 -8h-168q-29 0 -49.5 7t-30.5 36 l-221 676l-219 -668q-10 -35 -26.5 -43t-47.5 -8h-168q-29 0 -49.5 7t-28.5 36l-369 1343q-4 10 -4 17.5z" />
<glyph unicode="X" horiz-adv-x="1298" d="M33 39q0 14 12 33l410 676l-383 638q-10 16 -11 33q0 20 17.5 29.5t46.5 9.5h256q45 0 57.5 -16.5t28.5 -44.5l182 -350l180 350q14 29 27.5 45t58.5 16h261q29 0 46 -9t17 -30q0 -14 -12 -33l-383 -638l409 -676q12 -18 13 -35q0 -18 -17.5 -27.5t-46.5 -9.5h-250 q-45 0 -62.5 16.5t-33.5 44.5l-207 388l-209 -388q-16 -29 -33.5 -45t-62.5 -16h-246q-29 0 -47 9t-18 30z" />
<glyph unicode="Y" horiz-adv-x="1239" d="M27 1419q0 20 17 29.5t46 9.5h240q45 0 59 -16.5t27 -44.5l205 -463l202 463q12 29 26.5 45t59.5 16h240q29 0 46 -9t17 -30q0 -12 -10 -33l-403 -792v-533q0 -27 -21.5 -44t-50.5 -17h-215q-29 0 -50.5 17.5t-21.5 43.5v533l-403 792q-10 20 -10 33z" />
<glyph unicode="Z" horiz-adv-x="1112" d="M61 61v177q0 29 11.5 52t21.5 38l527 811h-474q-33 0 -47 23.5t-14 47.5v176q0 29 15.5 50.5t45.5 21.5h832q31 0 51.5 -16.5t20.5 -44.5v-176q0 -29 -11.5 -52.5t-21.5 -38.5l-529 -811h500q33 0 47.5 -23.5t14.5 -47.5v-176q0 -29 -15.5 -50.5t-46.5 -21.5h-856 q-31 0 -51.5 16.5t-20.5 44.5z" />
<glyph unicode="[" horiz-adv-x="851" d="M147 -90v1638q0 27 13.5 44.5t48.5 17.5h500q33 0 47 -19.5t14 -42.5v-180q0 -27 -17.5 -44t-43.5 -17h-226v-1155h226q33 0 47 -19.5t14 -42.5v-180q0 -27 -17.5 -44.5t-43.5 -17.5h-500q-29 0 -45.5 17.5t-16.5 44.5z" />
<glyph unicode="\" horiz-adv-x="882" d="M8 1577q0 14 11.5 23.5t43.5 9.5h189q31 0 45 -7.5t25 -35.5l550 -1665q5 -17 5 -21q0 -14 -11.5 -23.5t-44.5 -9.5h-188q-31 0 -45.5 7.5t-24.5 35.5l-551 1665q-4 16 -4 21z" />
<glyph unicode="]" horiz-adv-x="851" d="M82 -90v180q0 23 14.5 42.5t46.5 19.5h226v1155h-226q-27 0 -44 17t-17 44v180q0 23 14.5 42.5t46.5 19.5h500q35 0 48.5 -17.5t13.5 -44.5v-1638q0 -27 -16.5 -44.5t-45.5 -17.5h-500q-27 0 -44 17.5t-17 44.5z" />
<glyph unicode="^" d="M66 803q0 10 2 22.5t10 28.5l307 565q16 31 44 41t63 10h159q35 0 60.5 -10t42.5 -41l307 -565q8 -16 10 -28.5t2 -22.5q0 -23 -15.5 -31t-37.5 -8h-207q-39 0 -58.5 15.5t-35.5 47.5l-150 275l-149 -275q-18 -33 -36.5 -48t-57.5 -15h-207q-23 0 -38 8t-15 31z" />
<glyph unicode="_" horiz-adv-x="1228" d="M0 -160h1229v-221h-1229v221z" />
<glyph unicode="`" horiz-adv-x="1024" d="M199 1604q0 14 30 14h256q29 0 39.5 -8t14.5 -21l84 -309q0 -4 1 -6t1 -4q0 -20 -31 -21h-133q-25 0 -35 9.5t-18 21.5l-203 311q-6 6 -6 13z" />
<glyph unicode="a" horiz-adv-x="1097" d="M55 342q0 152 100.5 238t274.5 86h223v28q0 74 -37.5 105.5t-128.5 31.5q-47 0 -76.5 -8t-60.5 -30q-18 -14 -39 -15q-20 0 -37 17l-133 133q-18 18 -18 39q0 16 16 32q82 68 162 91.5t197 23.5q492 0 491 -399v-664q0 -25 -17.5 -38t-43.5 -13h-205q-27 0 -44 11.5 t-17 39.5v39q-57 -55 -107.5 -77.5t-134.5 -22.5q-166 0 -265.5 96t-99.5 256zM377 354q0 -92 125 -92q78 0 114.5 36t36.5 116v28h-170q-47 0 -76.5 -23.5t-29.5 -64.5z" />
<glyph unicode="b" horiz-adv-x="1165" d="M127 51v1356q0 27 18.5 39t42.5 12h213q61 0 62 -51v-385q53 49 110.5 70.5t131.5 21.5q82 0 152.5 -26.5t117.5 -73.5q53 -53 77.5 -140.5t24.5 -222.5v-100q0 -90 -4 -159.5t-12 -123.5q-8 -49 -30.5 -98t-55.5 -82q-47 -47 -118 -73.5t-152 -26.5q-84 0 -138.5 23.5 t-113.5 78.5v-39q0 -51 -62 -51h-203q-25 0 -43 11.5t-18 39.5zM463 532q0 -135 31.5 -188t109.5 -53t107.5 57t29.5 209q0 145 -30.5 199.5t-110.5 54.5q-55 0 -84 -28.5t-40 -71.5t-12 -91.5t-1 -87.5z" />
<glyph unicode="c" horiz-adv-x="972" d="M78 561q0 264 130 408.5t365 144.5q102 0 178 -25.5t148 -84.5q16 -12 16 -31q0 -20 -20 -41l-147 -148q-20 -20 -43 -20q-14 0 -31 12q-27 18 -49.5 26.5t-51.5 8.5q-159 0 -159 -257q1 -263 159 -263q31 0 53.5 8t51.5 31q14 10 29 10q18 0 38 -21l154 -153 q19 -19 19 -35q0 -18 -19 -33q-72 -59 -147.5 -84.5t-178.5 -25.5q-242 0 -368.5 146.5t-126.5 426.5z" />
<glyph unicode="d" horiz-adv-x="1165" d="M88 551v49q0 170 22.5 263t79.5 151q47 47 117 73.5t152 26.5q76 0 132 -21.5t111 -70.5v385q0 29 18.5 40t43.5 11h213q35 0 48 -11t13 -40v-1356q0 -20 -13 -35.5t-48 -15.5h-203q-61 0 -61 51v39q-59 -55 -113.5 -78.5t-138.5 -23.5q-82 0 -152.5 26.5t-118.5 73.5 q-33 33 -56 83t-30 97q-6 39 -11 108.5t-5 174.5zM424 532q0 -135 31.5 -188t109.5 -53t107.5 57t29.5 209q0 145 -30.5 199.5t-110.5 54.5q-55 0 -83.5 -28.5t-40 -71.5t-12.5 -91.5t-1 -87.5z" />
<glyph unicode="e" horiz-adv-x="1144" d="M78 551q0 129 34.5 233.5t99 178t156 112.5t205.5 39q111 0 202 -38t155.5 -106.5t100.5 -164.5t36 -213v-98q0 -51 -61 -52h-598q4 -84 56 -128t148 -44q61 0 103.5 14.5t83.5 49.5q12 12 26 12q20 0 47 -27l123 -122q18 -18 19 -35q0 -14 -17 -31q-88 -80 -182 -111.5 t-213 -31.5q-524 0 -524 563zM408 666h327q-2 82 -45 127t-119 45t-119.5 -46.5t-43.5 -125.5z" />
<glyph unicode="f" horiz-adv-x="733" d="M61 862v135q0 61 52 62h49v96q0 74 24.5 133.5t69.5 102.5t108.5 66.5t139.5 23.5h127q33 0 42 -18.5t9 -43.5v-159q0 -25 -10 -43.5t-41 -18.5h-66q-68 0 -67 -68v-71h133q51 0 51 -62v-135q0 -61 -51 -61h-133v-750q0 -29 -19.5 -40t-42.5 -11h-213q-61 0 -61 51v750 h-49q-51 0 -52 61z" />
<glyph unicode="g" horiz-adv-x="1148" d="M88 530v103q0 80 5 139t17.5 103.5t32 78t47.5 62.5q98 98 263 98q82 0 133 -24.5t110 -77.5v39q0 51 62 51h200q35 0 49.5 -11.5t14.5 -39.5v-971q0 -102 -37 -185t-104.5 -141.5t-162.5 -90.5t-212 -32q-113 0 -196 23.5t-163 89.5q-16 12 -16 31q0 20 21 41l124 125 q25 25 50 24q12 0 28 -10q61 -41 150 -41q86 0 134 44t48 124v80q-55 -49 -107.5 -70.5t-127.5 -21.5q-162 0 -261 98q-66 66 -84 153t-18 209zM424 580q0 -113 29.5 -160t101.5 -47q74 0 102.5 49t28.5 172q0 121 -29.5 169t-101.5 48q-47 0 -73.5 -20.5t-39 -52 t-15.5 -69.5t-3 -75v-14z" />
<glyph unicode="h" horiz-adv-x="1173" d="M127 51v1356q0 51 61 51h213q39 0 50.5 -15.5t11.5 -35.5v-395q57 51 112.5 76.5t133.5 25.5q160 0 254 -107.5t94 -291.5v-664q0 -27 -16.5 -39t-45.5 -12h-213q-20 0 -40.5 8t-20.5 43v617q0 66 -35 104.5t-94 38.5t-94 -39t-35 -104v-617q0 -23 -13.5 -37t-48.5 -14 h-213q-29 0 -45 14.5t-16 36.5z" />
<glyph unicode="i" horiz-adv-x="589" d="M111 1376q0 78 53 131.5t131 53.5q37 0 70.5 -14.5t58.5 -39t40 -58.5t15 -71q0 -78 -53 -132t-131 -54t-131 53t-53 131zM127 51v1000q0 35 13.5 43t47.5 8h213q35 0 48.5 -12.5t13.5 -38.5v-1000q0 -23 -13.5 -37t-48.5 -14h-213q-35 0 -48 14.5t-13 36.5z" />
<glyph unicode="j" horiz-adv-x="589" d="M-57 -147q0 35 14 48t37 13h65q68 0 68 68v1069q0 29 17.5 40t43.5 11h213q61 0 62 -51v-1094q0 -74 -24.5 -133.5t-69.5 -102.5t-108.5 -66.5t-139.5 -23.5h-127q-25 0 -38 17.5t-13 44.5v160zM111 1376q0 78 53 131.5t131 53.5q37 0 70.5 -14.5t58.5 -39t40 -58.5 t15 -71q0 -78 -53 -132t-131 -54t-131 53t-53 131z" />
<glyph unicode="k" horiz-adv-x="1173" d="M127 51v1356q0 29 18.5 40t42.5 11h213q61 0 62 -51v-690l272 352q10 14 28.5 23.5t51.5 9.5h283q20 0 27.5 -7.5t7.5 -17.5q0 -6 -9 -18l-366 -414l379 -588q8 -14 8 -24q0 -33 -62 -33h-247q-57 0 -75 13.5t-32 35.5l-201 354l-65 -71v-281q0 -51 -62 -51h-213 q-25 0 -43 13.5t-18 37.5z" />
<glyph unicode="l" horiz-adv-x="589" d="M127 51v1356q0 25 18.5 38t42.5 13h213q27 0 44.5 -12t17.5 -39v-1356q0 -27 -17.5 -39t-44.5 -12h-213q-25 0 -43 13.5t-18 37.5z" />
<glyph unicode="m" horiz-adv-x="1792" d="M127 51v1000q0 31 13.5 41t47.5 10h205q35 0 48.5 -8.5t13.5 -42.5v-39q59 51 120.5 76.5t139.5 25.5q84 0 145.5 -28.5t118.5 -88.5q74 61 140.5 89t164.5 28q184 0 287.5 -108.5t103.5 -300.5v-654q0 -20 -13 -35.5t-48 -15.5h-213q-35 0 -48.5 14.5t-13.5 36.5v608 q0 70 -36.5 111t-98.5 41q-61 0 -98 -41t-37 -111v-608q0 -18 -10 -34.5t-51 -16.5h-213q-61 0 -62 51v608q0 70 -37 111t-98 41t-98 -41t-37 -111v-608q0 -20 -12.5 -35.5t-49.5 -15.5h-213q-61 0 -61 51z" />
<glyph unicode="n" horiz-adv-x="1185" d="M127 51v1000q0 27 13.5 39t47.5 12h205q43 0 52.5 -14.5t9.5 -36.5v-39q59 51 120.5 76.5t139.5 25.5q166 0 260 -108.5t94 -300.5v-654q0 -23 -13.5 -37t-47.5 -14h-213q-35 0 -48.5 15.5t-13.5 35.5v608q0 70 -37 111t-98 41t-98 -41t-37 -111v-608q0 -29 -19.5 -40 t-42.5 -11h-213q-61 0 -61 51z" />
<glyph unicode="o" horiz-adv-x="1126" d="M88 563q0 154 27.5 247t93.5 163q131 141 354 141t355 -141q35 -37 57 -77t36.5 -89t20.5 -111.5t6 -142.5q0 -82 -6 -145.5t-20.5 -113.5t-37 -89t-56.5 -76q-135 -141 -355 -141q-223 0 -354 141q-35 37 -58.5 77t-37 90t-19.5 115.5t-6 151.5zM424 557 q0 -154 29.5 -210t109.5 -56t109.5 56t29.5 210q0 145 -30.5 199.5t-108.5 54.5t-108.5 -54.5t-30.5 -199.5z" />
<glyph unicode="p" horiz-adv-x="1165" d="M127 -305v1356q0 29 19.5 40t41.5 11h201q33 0 48.5 -11.5t15.5 -39.5v-39q59 57 113.5 79.5t138.5 22.5q82 0 152.5 -26.5t117.5 -73.5q53 -53 77.5 -140.5t24.5 -222.5v-100q0 -90 -4 -159.5t-12 -123.5q-8 -49 -30.5 -98t-55.5 -82q-47 -47 -117 -73.5t-151 -26.5 q-72 0 -131.5 21.5t-112.5 70.5v-385q0 -29 -19.5 -40t-42.5 -11h-213q-29 0 -45 14t-16 37zM463 532q0 -135 31.5 -188t109.5 -53t107.5 57t29.5 209q0 145 -30.5 199.5t-110.5 54.5q-55 0 -84 -28.5t-40 -71.5t-12 -91.5t-1 -87.5z" />
<glyph unicode="q" horiz-adv-x="1165" d="M88 551v49q0 170 22.5 263t79.5 151q47 47 118 73.5t153 26.5q84 0 138 -22.5t114 -79.5v39q0 29 19.5 40t41.5 11h203q61 0 61 -51v-1356q0 -23 -13 -37t-48 -14h-213q-27 0 -44.5 12t-17.5 39v385q-53 -49 -112.5 -70.5t-130.5 -21.5q-82 0 -151.5 26.5t-117.5 73.5 q-41 41 -61 98.5t-29.5 121t-10.5 127t-1 116.5zM424 532q0 -135 31.5 -188t109.5 -53t107.5 57t29.5 209q0 145 -30.5 199.5t-110.5 54.5q-88 0 -115 -72q-12 -29 -17 -77t-5 -130z" />
<glyph unicode="r" horiz-adv-x="972" d="M127 51v1000q0 51 61 51h203q37 0 50.5 -11.5t13.5 -39.5v-39q115 102 266 102q72 0 123 -18.5t94 -57.5q16 -9 16 -32q0 -20 -22 -48l-162 -163q-25 -27 -53 -27q-18 0 -31 10q-35 33 -86 33q-63 0 -100 -41t-37 -111v-608q0 -25 -17.5 -38t-44.5 -13h-213 q-29 0 -45 13.5t-16 37.5z" />
<glyph unicode="s" horiz-adv-x="1032" d="M47 147q0 27 27 54l119 118q25 25 51 25q10 0 18 -4t17 -8q47 -33 98 -46.5t115 -13.5q76 0 116.5 19.5t40.5 54.5q0 61 -80 68l-170 16q-319 31 -319 313q0 174 125 272.5t344 98.5q104 0 189 -19.5t163 -74.5q23 -16 23 -43t-21 -47l-115 -115q-23 -23 -47 -22 q-23 0 -47 12q-37 18 -79 25.5t-85 7.5q-127 0 -127 -68q0 -51 72 -57l170 -17q160 -16 246 -102.5t86 -233.5q0 -182 -132 -277t-382 -95q-66 0 -119 6t-100 19.5t-90 37t-88 60.5q-18 12 -19 36z" />
<glyph unicode="t" horiz-adv-x="743" d="M51 862v135q0 61 45 62h56v264q0 27 19 39t42 12h213q29 0 45 -13t16 -38v-264h123q29 0 40.5 -16.5t11.5 -45.5v-135q0 -23 -11.5 -42t-40.5 -19h-123v-451q0 -67 66 -67h2h55q27 0 39.5 -17.5t12.5 -44.5v-160q0 -61 -52 -61h-116q-154 0 -248 89t-94 237v475h-50 q-23 0 -37 14t-14 47z" />
<glyph unicode="u" horiz-adv-x="1185" d="M117 397v654q0 35 20.5 43t40.5 8h213q37 0 49.5 -8.5t12.5 -42.5v-609q0 -70 36.5 -110.5t98.5 -40.5q61 0 98 41t37 110v609q0 27 18.5 39t42.5 12h213q37 0 49.5 -11.5t12.5 -39.5v-1000q0 -23 -14.5 -37t-47.5 -14h-204q-61 0 -62 51v39q-59 -51 -120.5 -76.5 t-139.5 -25.5q-166 0 -260 108.5t-94 300.5z" />
<glyph unicode="v" horiz-adv-x="1067" d="M14 1071q0 12 11.5 21.5t44.5 9.5h227q31 0 45 -7.5t25 -35.5l168 -529l165 529q10 29 31 36t45 7h225q29 0 38.5 -13.5t9.5 -27.5q0 -12 -2 -17l-365 -989q-16 -41 -37.5 -48t-52.5 -7h-127q-29 0 -47.5 8t-32.5 45l-367 996q-2 6 -3 11t-1 11z" />
<glyph unicode="w" horiz-adv-x="1597" d="M16 1065q0 16 12.5 26.5t41.5 10.5h227q31 0 47 -7.5t23 -35.5l125 -529l172 519q12 39 29.5 46t45.5 7h113q31 0 49.5 -7.5t32.5 -47.5l172 -517l127 529q6 29 22.5 36t47.5 7h227q31 0 42 -9.5t11 -25.5q0 -12 -2 -18l-299 -994q-12 -41 -34.5 -48t-53.5 -7h-2h-133 q-29 0 -48.5 7t-31.5 46l-180 551l-181 -549q-14 -41 -36.5 -48t-53.5 -7h-133q-29 0 -48 7t-32 46l-297 996q-2 6 -2 16z" />
<glyph unicode="x" d="M29 33q0 8 8 20l346 510l-334 486q-8 12 -8 20q0 33 59 33h252q31 0 53.5 -9.5t36.5 -33.5l125 -223l129 223q14 25 37 34t53 9h252q57 0 58 -33q0 -10 -6 -20l-334 -486l346 -510q8 -12 8 -20q0 -33 -59 -33h-252q-31 0 -52.5 9t-37.5 34l-142 236l-137 -236 q-14 -25 -36.5 -34t-53.5 -9h-252q-59 0 -59 33z" />
<glyph unicode="y" horiz-adv-x="1052" d="M6 1071q0 12 11.5 21.5t43.5 9.5h228q31 0 45 -7.5t24 -35.5l172 -529l164 529q10 29 24.5 36t45.5 7h227q33 0 44.5 -9.5t11.5 -21.5q0 -6 -1.5 -11t-3.5 -11l-438 -1180q-47 -125 -126 -181.5t-208 -56.5h-75q-31 0 -41.5 18.5t-10.5 43.5v180q0 29 14.5 45t37.5 16h20 q49 0 72.5 17.5t40.5 64.5l30 93l-348 940q-2 6 -3 11t-1 11z" />
<glyph unicode="z" horiz-adv-x="1001" d="M61 61v138q0 18 7.5 43.5t29.5 54.5l383 502h-344q-31 0 -41 18.5t-10 42.5v180q0 61 51 62h721q61 0 62 -53v-144q0 -31 -10.5 -55.5t-26.5 -42.5l-391 -504h376q35 0 43.5 -20.5t8.5 -40.5v-181q0 -25 -8.5 -43t-43.5 -18h-745q-27 0 -44.5 16.5t-17.5 44.5z" />
<glyph unicode="{" horiz-adv-x="1060" d="M82 639v180q0 23 14.5 42.5t46.5 19.5h58q80 0 114.5 36.5t34.5 122.5v244q0 147 94.5 236.5t247.5 89.5h226q33 0 47 -19.5t14 -42.5v-180q0 -27 -17.5 -44t-43.5 -17h-82q-45 0 -74 -7.5t-46.5 -25t-23.5 -48t-6 -79.5v-213q0 -86 -36 -134t-113 -71q78 -23 113.5 -71 t35.5 -134v-213q0 -49 6 -79.5t23.5 -48t46.5 -24.5t74 -7h82q33 0 47 -19.5t14 -42.5v-180q0 -27 -17.5 -44.5t-43.5 -17.5h-226q-154 0 -248 89.5t-94 236.5v244q0 86 -34.5 123t-114.5 37h-58q-27 0 -44 17t-17 44z" />
<glyph unicode="|" horiz-adv-x="745" d="M205 -90v1638q0 27 13 44.5t48 17.5h213q35 0 48.5 -17.5t13.5 -44.5v-1638q0 -27 -13.5 -44.5t-48.5 -17.5h-213q-35 0 -48 17.5t-13 44.5z" />
<glyph unicode="}" horiz-adv-x="1060" d="M82 -90v180q0 23 14.5 42.5t46.5 19.5h82q45 0 74 7t46 24.5t23.5 48t6.5 79.5v213q0 86 35.5 134.5t113.5 70.5q-78 23 -113.5 71t-35.5 134v213q0 49 -6.5 79.5t-23.5 48t-46 25t-74 7.5h-82q-27 0 -44 17t-17 44v180q0 23 14.5 42.5t46.5 19.5h226q154 0 248 -89 t94 -237v-244q0 -86 34.5 -122.5t114.5 -36.5h58q33 0 47 -19.5t14 -42.5v-180q0 -27 -17.5 -44t-43.5 -17h-58q-80 0 -114.5 -37t-34.5 -123v-244q0 -147 -94.5 -236.5t-247.5 -89.5h-226q-27 0 -44 17.5t-17 44.5z" />
<glyph unicode="~" d="M-20 629q0 12 18 31.5t43 41t49.5 39t36.5 25.5q102 63 231 63q78 0 128.5 -16t115.5 -53q53 -29 89 -40t83 -11q53 0 86 14t68 47q14 10 28 10q18 0 39 -20l146 -142q18 -18 18 -34q0 -12 -18.5 -32t-43 -41.5t-49 -38.5t-36.5 -26q-53 -35 -108.5 -49t-123.5 -14 q-76 0 -127 16.5t-116 53.5q-51 29 -89 40t-83 11q-53 0 -86 -14.5t-68 -47.5q-14 -10 -29 -10q-18 0 -39 21l-145 141q-18 18 -18 35z" />
<glyph unicode="&#xa3;" d="M29 625v147q0 23 10 39t45 16h68v131q0 115 39.5 209.5t113.5 162t177.5 104t228.5 36.5q121 0 213 -36q18 -8 43.5 -21.5t49 -30t39 -36t15.5 -39.5q0 -29 -20 -50l-133 -133q-23 -23 -56 -22q-29 0 -53 20q-8 8 -32.5 18.5t-76.5 10.5q-92 0 -141 -51t-49 -150v-123 h238q35 0 45 -16t10 -39v-147q0 -35 -15.5 -45.5t-39.5 -10.5h-238v-250h496q29 0 45 -22.5t16 -48.5v-176q0 -29 -16.5 -50.5t-44.5 -21.5h-854v569h-68q-25 0 -40 10.5t-15 45.5z" />
<glyph unicode="&#xa4;" d="M43 606v33q0 29 11.5 45t39.5 16h80v70h-80q-29 0 -40 19.5t-11 41.5v33q0 29 11.5 45.5t39.5 16.5h80v32q0 115 40 209.5t113.5 162t177 104t228.5 36.5q100 0 193.5 -35.5t144.5 -82.5q16 -16 16 -39t-20 -47l-135 -156q-10 -10 -24.5 -14t-26.5 -4q-25 0 -33 8 q-20 18 -49 34.5t-76 16.5q-92 0 -141.5 -51t-49.5 -150v-24h302q45 0 45 -39q0 -6 -5 -23l-8 -33q-10 -35 -26.5 -48t-44.5 -13h-263v-70h236q45 0 45 -38q0 -6 -4 -23l-8 -33q-10 -35 -26.5 -48t-45.5 -13h-197v-37q0 -98 54.5 -149.5t132.5 -51.5q47 0 73.5 12.5 t53.5 34.5q18 14 37 15q31 0 49 -21l127 -145q10 -10 16 -23.5t6 -27.5q0 -20 -14 -33q-72 -66 -150.5 -98.5t-195.5 -32.5q-115 0 -215 36.5t-174 104.5t-116 162t-42 209v45h-80q-29 0 -40 19.5t-11 41.5z" />
<glyph unicode="&#xa6;" horiz-adv-x="745" d="M205 -90v592q0 27 13 44t48 17h213q35 0 48.5 -17.5t13.5 -43.5v-592q0 -27 -13.5 -44.5t-48.5 -17.5h-213q-35 0 -48 17.5t-13 44.5zM205 956v592q0 27 13 44.5t48 17.5h213q35 0 48.5 -17.5t13.5 -44.5v-592q0 -27 -13.5 -44t-48.5 -17h-213q-35 0 -48 17.5t-13 43.5z " />
<glyph unicode="&#xa7;" horiz-adv-x="1056" d="M92 541q0 98 40 169.5t130 135.5q-72 47 -103.5 105.5t-31.5 148.5q0 174 110.5 272t305.5 98q96 0 173 -26.5t128 -79.5q37 -37 65.5 -96.5t28.5 -112.5q0 -25 -18.5 -40t-53.5 -15h-184q-20 0 -36.5 9t-20.5 21q-8 23 -30 39.5t-63 16.5t-67.5 -19.5t-26.5 -52.5 q0 -57 115 -98l111 -41q72 -27 129 -57.5t97 -73.5t61.5 -102.5t21.5 -143.5q0 -92 -40 -164t-126 -137q78 -49 111.5 -114.5t33.5 -159.5q0 -88 -30.5 -161t-86 -124t-134 -79t-175.5 -28q-98 0 -181 31t-138 86q-41 41 -67.5 97.5t-26.5 113.5q0 25 18.5 40t52.5 15h191 q45 0 59 -30q8 -18 35 -39t61 -21q47 0 75 23.5t28 60.5q0 74 -121 119l-111 41q-70 27 -127 56.5t-97 72.5t-62.5 102.5t-22.5 141.5zM412 571q0 -66 31.5 -100.5t88.5 -34.5t89 35t32 98q0 66 -30.5 102t-90.5 36q-57 0 -88.5 -35t-31.5 -101z" />
<glyph unicode="&#xa9;" horiz-adv-x="1683" d="M100 729q0 154 58.5 289t159 235.5t235.5 158.5t289 58q152 0 286 -58t235 -157.5t160.5 -232t59.5 -279.5q0 -160 -57.5 -297t-157.5 -239.5t-235.5 -160.5t-290.5 -58q-154 0 -289 58t-235.5 158.5t-159 235.5t-58.5 289zM311 729q0 -119 40 -218t110.5 -171t168 -113 t212.5 -41t211 41t167.5 112t111.5 169t40 211q0 123 -39 224t-109.5 174t-168 114t-213.5 41q-115 0 -212.5 -40t-168 -112.5t-110.5 -172t-40 -218.5zM489 729q0 90 27 162t75 124t116.5 79.5t152.5 27.5q66 0 133 -22q37 -14 64.5 -30.5t72.5 -53.5l-137 -137 q-41 33 -68.5 44t-62.5 11q-78 0 -120 -54.5t-42 -156.5q0 -94 42 -146.5t120 -52.5q35 0 62.5 11.5t68.5 44.5l137 -138q-45 -37 -71.5 -53t-65.5 -31q-68 -23 -133 -22q-84 0 -152.5 27.5t-116.5 80t-75 125t-27 160.5z" />
<glyph unicode="&#xab;" horiz-adv-x="1376" d="M86 571q0 27 14 41l467 461q12 12 29 12q25 0 25 -26v-256q0 -35 -7.5 -59.5t-29.5 -47.5l-129 -123l129 -122q23 -23 30 -47.5t7 -59.5v-256q0 -27 -25 -27q-16 0 -29 13l-471 465q-10 10 -10 32zM719 571q0 27 14 41l467 461q12 12 29 12q25 0 24 -26v-256 q0 -35 -7 -59.5t-29 -47.5l-130 -123l130 -122q23 -23 29.5 -47.5t6.5 -59.5v-256q0 -27 -24 -27q-16 0 -29 13l-471 465q-10 10 -10 32z" />
<glyph unicode="&#xac;" d="M88 549v192q0 61 51 62h860q51 0 52 -62v-510q0 -29 -19.5 -40t-42.5 -11h-192q-61 0 -62 51v256h-596q-51 0 -51 62z" />
<glyph unicode="&#xad;" horiz-adv-x="872" d="M88 508v192q0 61 51 62h594q51 0 51 -62v-192q0 -61 -51 -62h-594q-51 0 -51 62z" />
<glyph unicode="&#xae;" horiz-adv-x="851" d="M41 1085q0 80 30.5 151t83 123t122 81.5t149.5 29.5q78 0 148.5 -30.5t123 -81.5t83 -119.5t30.5 -146.5q0 -82 -29.5 -154t-82 -124t-122 -83t-151.5 -31q-80 0 -149.5 31t-122 83t-83 122t-30.5 149zM152 1085q0 -61 20.5 -113t57 -89t87 -58.5t109.5 -21.5t109.5 21.5 t87 58.5t58 87t21.5 109q0 129 -76.5 209t-199.5 80q-59 0 -109.5 -21.5t-87 -58.5t-57 -89t-20.5 -114zM279 883v403h180q59 0 98 -36t39 -93q0 -70 -66 -104l76 -170h-125l-59 151h-33v-151h-110zM389 1116h55q41 0 41 41q0 39 -41 39h-55v-80z" />
<glyph unicode="&#xb0;" horiz-adv-x="995" d="M96 1094q0 84 32 156.5t86 127t128 86t156 31.5t154.5 -31.5t128 -85t87 -126t31.5 -152.5q0 -86 -30.5 -160t-85 -129t-128 -87t-157.5 -32q-82 0 -156 32t-128 86t-86 128t-32 156zM365 1094q0 -55 38.5 -94t94.5 -39q53 0 93 39t40 92q0 57 -39 96t-94 39t-94 -39 t-39 -94z" />
<glyph unicode="&#xb1;" d="M100 61v193q0 61 52 61h835q51 0 51 -61v-193q0 -61 -51 -61h-835q-51 0 -52 61zM100 821v193q0 61 52 61h260v260q0 51 61 51h193q61 0 61 -51v-260h260q51 0 51 -61v-193q0 -61 -51 -61h-260v-260q0 -51 -61 -51h-193q-61 0 -61 51v260h-260q-51 0 -52 61z" />
<glyph unicode="&#xb5;" horiz-adv-x="1196" d="M127 -305v1356q0 51 61 51h213q23 0 42.5 -11.5t19.5 -39.5v-609q0 -70 37 -110.5t98 -40.5t98 41t37 110v609q0 20 13.5 35.5t48.5 15.5h213q35 0 48 -14.5t13 -36.5v-1000q0 -25 -17.5 -38t-43.5 -13h-205q-27 0 -44.5 11.5t-17.5 39.5v39q-49 -47 -113.5 -74.5 t-142.5 -27.5h-22v-293q0 -29 -19.5 -40t-42.5 -11h-213q-61 0 -61 51z" />
<glyph unicode="&#xb6;" horiz-adv-x="1447" d="M61 1038q0 199 130.5 309.5t363.5 110.5h684q23 0 42 -11t19 -40v-1712q0 -29 -19 -40t-42 -11h-213q-61 0 -61 51v1444h-185v-1444q0 -29 -19.5 -40t-41.5 -11h-213q-61 0 -62 51v915q-84 6 -154.5 41t-120.5 91.5t-79 132t-29 163.5z" />
<glyph unicode="&#xb7;" horiz-adv-x="630" d="M100 604q0 45 17.5 84t46.5 68.5t67.5 46t83.5 16.5q43 0 83 -16.5t69 -46t46 -67.5t17 -81q0 -92 -61 -155.5t-154 -63.5q-45 0 -83.5 17.5t-67.5 46t-46.5 67.5t-17.5 84z" />
<glyph unicode="&#xbb;" horiz-adv-x="1376" d="M123 88v256q0 35 7 59.5t30 47.5l129 122l-129 123q-23 23 -30 47.5t-7 59.5v256q0 27 24 26q16 0 29 -12l467 -461q14 -14 14 -41q0 -23 -10 -32l-471 -465q-12 -12 -29 -13q-25 0 -24 27zM756 88v256q0 35 7 59.5t30 47.5l129 122l-129 123q-23 23 -30 47.5t-7 59.5 v256q0 27 24 26q16 0 29 -12l467 -461q14 -14 14 -41q0 -23 -10 -32l-471 -465q-12 -12 -29 -13q-25 0 -24 27z" />
<glyph unicode="&#xf7;" d="M88 508v192q0 61 51 62h860q51 0 52 -62v-192q0 -61 -52 -62h-860q-51 0 -51 62zM354 147q0 45 17.5 84t46 69t67.5 46t84 16q43 0 83 -16t69 -46t46 -67.5t17 -80.5q0 -92 -61 -156t-154 -64q-45 0 -84 16.5t-67.5 46.5t-46 68.5t-17.5 83.5zM354 1061q0 45 17.5 84 t46 68.5t67.5 46t84 16.5q43 0 83 -16.5t69 -46t46 -67.5t17 -81q0 -92 -61 -155.5t-154 -63.5q-45 0 -84 17.5t-67.5 46t-46 67.5t-17.5 84z" />
<glyph unicode="&#x192;" horiz-adv-x="903" d="M6 -322q0 6 2 9l156 882h-49q-51 0 -52 62v135q0 61 52 61h94l57 328q12 74 48 133.5t88.5 102.5t120 66.5t143.5 23.5h125q51 0 51 -62v-159q0 -61 -51 -62h-113q-68 0 -80 -68l-53 -303h133q51 0 51 -61v-135q0 -61 -51 -62h-176l-158 -884q-4 -27 -20.5 -34t-51.5 -7 h-223q-43 0 -43 34z" />
<glyph unicode="&#x401;" horiz-adv-x="1245" d="M147 61v1336q0 27 24 44t48 17h858q31 0 46.5 -21.5t15.5 -50.5v-176q0 -25 -14.5 -48t-47.5 -23h-571v-244h479q33 0 47.5 -20.5t14.5 -51.5v-176q0 -27 -15.5 -49.5t-46.5 -22.5h-479v-256h571q29 0 45.5 -22.5t16.5 -48.5v-176q0 -29 -16.5 -50.5t-45.5 -21.5h-858 q-29 0 -50.5 17.5t-21.5 43.5zM227 1692q0 68 48.5 115.5t115.5 47.5q66 0 115 -47.5t49 -113.5q0 -70 -47 -118t-117 -48q-68 0 -116 48t-48 116zM707 1692q0 68 48 115.5t115 47.5q66 0 115 -47.5t49 -113.5q0 -70 -47 -118t-117 -48q-68 0 -115.5 48t-47.5 116z" />
<glyph unicode="&#x402;" horiz-adv-x="1536" d="M61 1210v176q0 29 15.5 50.5t46.5 21.5h952q31 0 46.5 -21.5t15.5 -50.5v-176q0 -25 -14.5 -48t-47.5 -23h-358v-256h305q90 0 164 -29t128 -81t83.5 -122.5t29.5 -154.5v-365q0 -115 -26.5 -208t-88 -159.5t-159.5 -102.5t-242 -36q-78 0 -145.5 15.5t-99.5 37.5 q-10 6 -14.5 18.5t-4.5 24.5q0 10 5 19.5t12 19.5l145 185q12 12 37 12q10 0 28.5 -6t43.5 -6q61 0 106 48t45 146v299q0 59 -35 94t-96 35h-221v-506q0 -27 -21.5 -44t-50.5 -17h-215q-29 0 -50.5 17.5t-21.5 43.5v1078h-235q-33 0 -47.5 23.5t-14.5 47.5z" />
<glyph unicode="&#x403;" d="M147 61v1336q0 27 18.5 44t53.5 17h819q33 0 47.5 -24.5t14.5 -47.5v-176q0 -27 -17.5 -49t-44.5 -22h-532v-1078q0 -27 -22.5 -44t-49.5 -17h-215q-29 0 -50.5 17.5t-21.5 43.5zM455 1554q0 6 4 23l78 285q6 23 22 29.5t41 6.5h236q37 0 36 -18q0 -10 -10 -25l-184 -280 q-16 -25 -27.5 -35t-44.5 -10h-121q-31 0 -30 24z" />
<glyph unicode="&#x404;" horiz-adv-x="1120" d="M100 729v51q0 106 7.5 185t25 140.5t45 110t70.5 91.5q158 164 407 163q227 0 367 -131q16 -16 16 -39q0 -27 -20 -47l-146 -145q-10 -10 -24 -14t-27 -4q-25 0 -33 8q-33 31 -59.5 42t-73.5 11q-94 0 -141 -61q-23 -29 -35 -73t-16 -130h291q33 0 47 -20.5t14 -51.5 v-168q0 -27 -15.5 -49.5t-45.5 -22.5h-293q4 -82 17.5 -130t35.5 -76q49 -61 141 -62q47 0 74 12.5t53 34.5q18 14 37 15q29 0 49 -21l148 -145q22 -22 22 -51q0 -20 -14 -33q-72 -66 -161 -98.5t-206 -32.5q-252 0 -409 164q-51 53 -85 120.5t-44 130.5q-6 47 -12.5 128 t-6.5 198z" />
<glyph unicode="&#x405;" horiz-adv-x="1214" d="M25 190q0 25 18 43l152 154q14 14 34 14q23 0 37 -14q27 -23 64 -38t79 -24.5t82.5 -13.5t73.5 -4q209 0 209 133q0 104 -125 123l-176 25q-393 55 -393 416q0 109 38 194.5t109.5 146t173 93t230.5 32.5q123 0 236.5 -32.5t203.5 -112.5q14 -14 14 -37t-14 -41 l-141 -145q-16 -16 -43 -17q-27 0 -37 11q-41 35 -105.5 48t-115.5 13q-98 0 -150.5 -35t-52.5 -98q0 -47 34 -74.5t95 -38.5l176 -24q205 -29 300 -133t95 -299q0 -109 -41 -196t-116.5 -147.5t-185 -92t-248.5 -31.5q-143 0 -266.5 34.5t-229.5 133.5q-14 12 -14 34z" />
<glyph unicode="&#x406;" horiz-adv-x="653" d="M147 61v1336q0 27 18.5 44t53.5 17h215q35 0 53.5 -17.5t18.5 -43.5v-1336q0 -27 -21.5 -44t-50.5 -17h-215q-29 0 -50.5 17.5t-21.5 43.5z" />
<glyph unicode="&#x407;" horiz-adv-x="653" d="M-57 1745q0 68 48 116t115 48q66 0 115 -48t49 -114q0 -70 -47 -118t-117 -48q-68 0 -115.5 48t-47.5 116zM147 61v1336q0 27 18.5 44t53.5 17h215q35 0 53.5 -17.5t18.5 -43.5v-1336q0 -27 -21.5 -44t-50.5 -17h-215q-29 0 -50.5 17.5t-21.5 43.5zM381 1745q0 68 48 116 t116 48q66 0 115 -48t49 -114q0 -70 -47.5 -118t-116.5 -48q-68 0 -116 48t-48 116z" />
<glyph unicode="&#x408;" horiz-adv-x="1056" d="M-4 158q0 23 16 39l158 155q12 12 37 13q27 0 49 -17q29 -23 55.5 -32t67.5 -9q92 0 142 51.5t50 149.5v889q0 27 18.5 44t53.5 17h215q35 0 53.5 -17.5t18.5 -43.5v-897q0 -115 -40 -209t-114 -162t-176 -104.5t-227 -36.5q-109 0 -194 27.5t-165 99.5q-18 16 -18 43z " />
<glyph unicode="&#x409;" horiz-adv-x="2023" d="M8 72v176q0 25 13.5 48t41.5 23q78 0 138.5 53.5t64.5 172.5l21 852q0 27 18.5 44t52.5 17h816q35 0 53 -17.5t18 -43.5v-459h230q109 0 198.5 -35t154 -97.5t99.5 -148.5t35 -188t-36 -188t-100.5 -148.5t-153.5 -97.5t-197 -35h-517q-29 0 -50 17.5t-21 43.5v1078h-246 l-14 -586q-6 -274 -125 -413.5t-336 -139.5h-96q-31 0 -46.5 21.5t-15.5 50.5zM1245 319h203q68 0 112 43.5t44 106.5t-44 105t-112 42h-203v-297z" />
<glyph unicode="&#x40a;" horiz-adv-x="2023" d="M147 61v1336q0 27 18.5 44t53.5 17h215q35 0 53.5 -17.5t18.5 -43.5v-459h381v459q0 27 18.5 44t52.5 17h216q35 0 53 -17.5t18 -43.5v-459h230q109 0 198.5 -35t154 -97.5t99.5 -148.5t35 -188t-36 -188t-100.5 -148.5t-153.5 -97.5t-197 -35h-517q-29 0 -50 17.5 t-21 43.5v557h-381v-557q0 -27 -21.5 -44t-50.5 -17h-215q-29 0 -50.5 17.5t-21.5 43.5zM1245 319h203q68 0 112 43.5t44 106.5t-44 105t-112 42h-203v-297z" />
<glyph unicode="&#x40b;" horiz-adv-x="1536" d="M61 1210v176q0 29 15.5 50.5t46.5 21.5h952q31 0 46.5 -21.5t15.5 -50.5v-176q0 -25 -14.5 -48t-47.5 -23h-358v-254q23 4 62.5 8t85.5 8t93.5 6t83.5 2q76 0 145.5 -28.5t123 -80.5t85 -123t31.5 -155v-461q0 -27 -21.5 -44t-49.5 -17h-215q-29 0 -50.5 17.5t-21.5 43.5 v398q0 59 -35 94t-96 35q-59 0 -121.5 -5t-99.5 -14v-508q0 -27 -21.5 -44t-50.5 -17h-215q-29 0 -50.5 17.5t-21.5 43.5v1078h-235q-33 0 -47.5 23.5t-14.5 47.5z" />
<glyph unicode="&#x40c;" horiz-adv-x="1378" d="M147 61v1336q0 27 18.5 44t53.5 17h211q35 0 53.5 -17.5t18.5 -43.5v-455l375 459q35 43 53 50t53 7h301q45 0 45 -26q0 -12 -16 -33l-449 -531l469 -792q16 -27 17 -45q0 -23 -20.5 -27t-37.5 -4h-266q-49 0 -69.5 20.5t-30.5 40.5l-301 537l-123 -141v-396 q0 -27 -21.5 -44t-50.5 -17h-211q-29 0 -50.5 17.5t-21.5 43.5zM496 1554q0 6 4 23l78 285q6 23 22 29.5t41 6.5h236q37 0 36 -18q0 -10 -10 -25l-184 -280q-16 -25 -27.5 -35t-44.5 -10h-121q-31 0 -30 24z" />
<glyph unicode="&#x40e;" horiz-adv-x="1230" d="M16 1419q0 23 16.5 31t45.5 8h250q45 0 59 -16.5t27 -44.5l215 -535l190 535q10 29 25.5 45t60.5 16h254q59 0 60 -39q0 -16 -9 -33l-479 -1130q-20 -49 -53 -95t-78 -82t-102.5 -57.5t-126.5 -21.5h-138q-31 0 -46 21.5t-15 50.5v176q0 25 14.5 48t46.5 23h60 q41 0 68.5 14.5t46 35t27.5 46t16 46.5l-426 925q-8 16 -9 33zM299 1798q-2 23 9 37t42 14h103q35 0 47 -12t28 -39q6 -10 26.5 -27.5t74.5 -17.5q53 0 73.5 17.5t26.5 27.5q16 27 28.5 39t47.5 12h102q31 0 42 -14t9 -37q-2 -51 -23.5 -100t-62.5 -87t-102 -60.5 t-141 -22.5t-141.5 22.5t-102.5 60.5t-62.5 87t-23.5 100z" />
<glyph unicode="&#x40f;" horiz-adv-x="1392" d="M147 61v1336q0 27 13.5 44t48.5 17h235q35 0 48.5 -17.5t13.5 -43.5v-1078h381v1078q0 27 13 44t48 17h236q35 0 48 -17.5t13 -43.5v-1336q0 -27 -16.5 -44t-44.5 -17h-316v-233q0 -27 -16 -44.5t-45 -17.5h-221q-29 0 -45.5 17.5t-16.5 44.5v233h-315q-29 0 -45.5 17.5 t-16.5 43.5z" />
<glyph unicode="&#x410;" horiz-adv-x="1337" d="M20 39q0 14 7 33l489 1343q10 29 27.5 36t46.5 7h158q31 0 48 -8t29 -43l488 -1335q6 -18 6 -33q0 -39 -59 -39h-230q-45 0 -60.5 15.5t-25.5 45.5l-49 156h-449l-51 -156q-10 -29 -25.5 -45t-60.5 -16h-229q-59 0 -60 39zM547 516h254l-123 389z" />
<glyph unicode="&#x411;" horiz-adv-x="1337" d="M147 61v1336q0 27 18.5 44t53.5 17h871q31 0 46 -21.5t15 -50.5v-176q0 -25 -14.5 -48t-46.5 -23h-584v-201h244q115 0 204.5 -35t153 -97.5t96.5 -148.5t33 -188t-33 -188t-95 -148.5t-153.5 -97.5t-205.5 -35h-531q-29 0 -50.5 17.5t-21.5 43.5zM506 322h227 q68 0 107 42t39 105t-39 105t-107 42h-227v-294z" />
<glyph unicode="&#x412;" horiz-adv-x="1337" d="M147 61v1336q0 27 18.5 44t53.5 17h533q106 0 192 -28.5t146.5 -82t93.5 -129t33 -169.5q0 -98 -37 -169t-123 -132q98 -61 139 -135t41 -185q0 -98 -31.5 -177t-91 -134.5t-143.5 -86t-189 -30.5h-563q-29 0 -50.5 17.5t-21.5 43.5zM506 322h242q61 0 96 35t35 94 t-35 93t-96 34h-242v-256zM506 899h223q61 0 95 32t34 87t-33.5 87t-95.5 32h-223v-238z" />
<glyph unicode="&#x413;" d="M147 61v1336q0 27 18.5 44t53.5 17h819q33 0 47.5 -24.5t14.5 -47.5v-176q0 -27 -17.5 -49t-44.5 -22h-532v-1078q0 -27 -22.5 -44t-49.5 -17h-215q-29 0 -50.5 17.5t-21.5 43.5z" />
<glyph unicode="&#x414;" horiz-adv-x="1462" d="M20 -233v491q0 27 16.5 44t45.5 17h82q39 102 66.5 211t46 237t26.5 282.5t8 347.5q0 29 20.5 45t51.5 16h803q35 0 53 -17.5t18 -43.5v-1078h105q29 0 45 -17t16 -44v-491q0 -27 -16 -44.5t-45 -17.5h-221q-29 0 -45.5 17.5t-16.5 44.5v233h-714v-233q0 -27 -16.5 -44.5 t-45.5 -17.5h-221q-29 0 -45.5 17.5t-16.5 44.5zM532 319h367v820h-235v-41q0 -129 -10.5 -237.5t-28 -202t-41 -176.5t-52.5 -163z" />
<glyph unicode="&#x415;" horiz-adv-x="1245" d="M147 61v1336q0 27 24 44t48 17h858q31 0 46.5 -21.5t15.5 -50.5v-176q0 -25 -14.5 -48t-47.5 -23h-571v-244h479q33 0 47.5 -20.5t14.5 -51.5v-176q0 -27 -15.5 -49.5t-46.5 -22.5h-479v-256h571q29 0 45.5 -22.5t16.5 -48.5v-176q0 -29 -16.5 -50.5t-45.5 -21.5h-858 q-29 0 -50.5 17.5t-21.5 43.5z" />
<glyph unicode="&#x416;" horiz-adv-x="1943" d="M23 31q0 18 16 45l420 782l-387 541q-16 20 -17 33q0 27 45 26h285q35 0 56.5 -5t50.5 -52l303 -479v475q0 27 18 44t53 17h211q35 0 53.5 -17.5t18.5 -43.5v-475l303 479q29 47 50.5 52t56.5 5h284q45 0 45 -26q0 -12 -16 -33l-387 -541l420 -782q16 -27 16 -45 q0 -23 -20.5 -27t-36.5 -4h-267q-49 0 -69.5 20.5t-30.5 40.5l-250 517l-98 -121v-396q0 -27 -21.5 -44t-50.5 -17h-211q-29 0 -50 17.5t-21 43.5v396l-99 121l-250 -517q-10 -20 -30.5 -40.5t-69.5 -20.5h-266q-16 0 -36.5 4t-20.5 27z" />
<glyph unicode="&#x417;" horiz-adv-x="1208" d="M10 180l230 230q63 -53 154 -78t175 -25q70 0 124.5 36t54.5 99q0 70 -50.5 114t-126.5 44h-192v291h192q74 0 117 37t43 102q0 59 -51 93t-111 34q-78 0 -151.5 -17.5t-130.5 -68.5l-226 225q109 98 244 136t283 38q102 0 193 -29.5t159 -82.5t107.5 -130t39.5 -171 q0 -98 -50 -177t-126 -126q86 -43 141.5 -126t55.5 -194q0 -100 -40 -183t-110.5 -141.5t-165 -90t-204.5 -31.5q-166 0 -308.5 39t-269.5 153z" />
<glyph unicode="&#x418;" horiz-adv-x="1433" d="M147 61v1336q0 27 21.5 44t50.5 17h215q29 0 50.5 -17.5t21.5 -43.5v-733l438 743q12 20 32.5 35.5t57.5 15.5h180q35 0 53.5 -17.5t18.5 -43.5v-1336q0 -27 -21.5 -44t-50.5 -17h-217q-29 0 -49 17.5t-20 43.5v734l-436 -744q-12 -20 -33 -35.5t-58 -15.5h-182 q-35 0 -53.5 17.5t-18.5 43.5z" />
<glyph unicode="&#x419;" horiz-adv-x="1433" d="M147 61v1336q0 27 21.5 44t50.5 17h215q29 0 50.5 -17.5t21.5 -43.5v-733l438 743q12 20 32.5 35.5t57.5 15.5h180q35 0 53.5 -17.5t18.5 -43.5v-1336q0 -27 -21.5 -44t-50.5 -17h-217q-29 0 -49 17.5t-20 43.5v734l-436 -744q-12 -20 -33 -35.5t-58 -15.5h-182 q-35 0 -53.5 17.5t-18.5 43.5zM391 1798q-2 23 9.5 37t41.5 14h103q35 0 47 -12t29 -39q6 -10 26.5 -27.5t73.5 -17.5t73.5 17.5t26.5 27.5q16 27 28.5 39t47.5 12h102q31 0 42.5 -14t9.5 -37q-2 -51 -23.5 -100t-62.5 -87t-102.5 -60.5t-141.5 -22.5t-141.5 22.5 t-102.5 60.5t-62.5 87t-23.5 100z" />
<glyph unicode="&#x41a;" horiz-adv-x="1378" d="M147 61v1336q0 27 18.5 44t53.5 17h211q35 0 53.5 -17.5t18.5 -43.5v-455l375 459q35 43 53 50t53 7h301q45 0 45 -26q0 -12 -16 -33l-449 -531l469 -792q16 -27 17 -45q0 -23 -20.5 -27t-37.5 -4h-266q-49 0 -69.5 20.5t-30.5 40.5l-301 537l-123 -141v-396 q0 -27 -21.5 -44t-50.5 -17h-211q-29 0 -50.5 17.5t-21.5 43.5z" />
<glyph unicode="&#x41b;" horiz-adv-x="1392" d="M8 72v176q0 25 13.5 48t41.5 23q78 0 138.5 53.5t64.5 172.5l21 852q0 27 18.5 44t52.5 17h816q35 0 53 -17.5t18 -43.5v-1336q0 -27 -20.5 -44t-48.5 -17h-218q-29 0 -50 17.5t-21 43.5v1078h-246h246h-246l-14 -586q-6 -274 -125 -413.5t-336 -139.5h-96 q-31 0 -46.5 21.5t-15.5 50.5z" />
<glyph unicode="&#x41c;" horiz-adv-x="1654" d="M147 61v1336q0 27 18.5 44t53.5 17h225q37 0 54.5 -14t27.5 -37l301 -592l301 592q10 23 28 37t54 14h226q35 0 53 -17.5t18 -43.5v-1336q0 -27 -21.5 -44t-49.5 -17h-215q-29 0 -50.5 17.5t-21.5 43.5v637l-180 -313q-27 -47 -72 -47h-135q-49 0 -76 45l-180 315v-637 q0 -27 -21.5 -44t-50.5 -17h-215q-29 0 -50.5 17.5t-21.5 43.5z" />
<glyph unicode="&#x41d;" horiz-adv-x="1392" d="M147 61v1336q0 27 18.5 44t53.5 17h215q35 0 53.5 -17.5t18.5 -43.5v-500h381v500q0 27 18.5 44t52.5 17h216q35 0 53 -17.5t18 -43.5v-1336q0 -27 -20.5 -44t-48.5 -17h-218q-29 0 -50 17.5t-21 43.5v517h-381v-517q0 -27 -21.5 -44t-50.5 -17h-215q-29 0 -50.5 17.5 t-21.5 43.5z" />
<glyph unicode="&#x41e;" horiz-adv-x="1310" d="M100 688v92q0 106 7.5 185t23.5 140.5t45 109t72 92.5q156 164 405 163q252 0 410 -163q78 -80 112.5 -184.5t34.5 -264.5v-129q0 -80 -1 -156.5t-14 -149.5t-43 -141.5t-89 -129.5q-156 -164 -406 -164q-252 0 -409 164q-55 59 -86 123.5t-44.5 134t-15.5 140.5t-2 138z M459 690q0 -141 12 -210.5t41 -106.5q53 -66 143 -66t144 66q29 37 41 106.5t12 210.5v101q0 104 -12.5 181t-40.5 115q-51 63 -144 64q-92 0 -143 -64q-29 -39 -41 -115.5t-12 -180.5v-101z" />
<glyph unicode="&#x41f;" horiz-adv-x="1392" d="M147 61v1336q0 27 18.5 44t53.5 17h955q35 0 53 -17.5t18 -43.5v-1336q0 -27 -20.5 -44t-48.5 -17h-218q-29 0 -50 17.5t-21 43.5v1078h-381v-1078q0 -27 -21.5 -44t-50.5 -17h-215q-29 0 -50.5 17.5t-21.5 43.5z" />
<glyph unicode="&#x420;" horiz-adv-x="1284" d="M147 61v1336q0 27 18.5 44t53.5 17h506q109 0 200 -34.5t157.5 -97t103.5 -149t37 -188.5t-37 -188t-102.5 -148.5t-157.5 -97.5t-201 -35h-219v-459q0 -27 -21.5 -44t-50.5 -17h-215q-29 0 -50.5 17.5t-21.5 43.5zM506 842h203q68 0 111.5 42t43.5 105t-44 105.5 t-111 42.5h-203v-295z" />
<glyph unicode="&#x421;" horiz-adv-x="1120" d="M100 729v51q0 106 7.5 185t25 140.5t45 110t70.5 91.5q158 164 407 163q227 0 367 -131q16 -16 16 -39q0 -27 -20 -47l-146 -145q-10 -10 -24 -14t-27 -4q-25 0 -33 8q-33 31 -59.5 42t-73.5 11q-94 0 -141 -61q-16 -20 -26.5 -49t-16.5 -74t-9 -110.5t-3 -160.5 q0 -141 12 -214.5t43 -112.5q49 -61 141 -62q47 0 74 12.5t53 34.5q18 14 37 15q29 0 49 -21l148 -145q23 -23 22 -51q0 -21 -14 -33q-72 -66 -161 -98.5t-206 -32.5q-252 0 -409 164q-51 53 -85 120.5t-44 130.5q-6 47 -12.5 128t-6.5 198z" />
<glyph unicode="&#x422;" horiz-adv-x="1198" d="M61 1210v176q0 29 15.5 50.5t46.5 21.5h952q31 0 46.5 -21.5t15.5 -50.5v-176q0 -25 -14.5 -48t-47.5 -23h-297v-1078q0 -27 -21.5 -44t-49.5 -17h-215q-29 0 -50.5 17.5t-21.5 43.5v1078h-297q-33 0 -47.5 23.5t-14.5 47.5z" />
<glyph unicode="&#x423;" horiz-adv-x="1230" d="M16 1419q0 23 16.5 31t45.5 8h250q45 0 59 -16.5t27 -44.5l215 -535l190 535q10 29 25.5 45t60.5 16h254q59 0 60 -39q0 -16 -9 -33l-479 -1130q-20 -49 -53 -95t-78 -82t-102.5 -57.5t-126.5 -21.5h-138q-31 0 -46 21.5t-15 50.5v176q0 25 14.5 48t46.5 23h60 q41 0 68.5 14.5t46 35t27.5 46t16 46.5l-426 925q-8 16 -9 33z" />
<glyph unicode="&#x424;" horiz-adv-x="1697" d="M82 760q0 135 42 243.5t120 184.5t186.5 120t239.5 50v51q0 27 13 44t48 17h236q35 0 48 -17t13 -44v-51q133 -6 240.5 -50t185.5 -120t120 -184.5t42 -243.5q0 -137 -38 -252t-111.5 -199t-183 -133t-255.5 -55v-72q0 -27 -13.5 -44t-47.5 -17h-236q-35 0 -48 17.5 t-13 43.5v72q-143 6 -254 55t-184.5 133t-111.5 199t-38 252zM440 743q0 -281 230 -307v606q-117 -10 -173.5 -80.5t-56.5 -218.5zM1028 436q229 26 229 307q0 147 -56 218t-173 81v-606z" />
<glyph unicode="&#x425;" horiz-adv-x="1298" d="M33 39q0 14 12 33l410 676l-383 638q-10 16 -11 33q0 20 17.5 29.5t46.5 9.5h256q45 0 57.5 -16.5t28.5 -44.5l182 -350l180 350q14 29 27.5 45t58.5 16h261q29 0 46 -9t17 -30q0 -14 -12 -33l-383 -638l409 -676q12 -18 13 -35q0 -18 -17.5 -27.5t-46.5 -9.5h-250 q-45 0 -62.5 16.5t-33.5 44.5l-207 388l-209 -388q-16 -29 -33.5 -45t-62.5 -16h-246q-29 0 -47 9t-18 30z" />
<glyph unicode="&#x426;" horiz-adv-x="1449" d="M147 61v1336q0 27 21.5 44t50.5 17h215q29 0 50.5 -17.5t21.5 -43.5v-1078h381v1078q0 27 21.5 44t49.5 17h218q29 0 49 -17.5t20 -43.5v-1078h105q29 0 45 -17t16 -44v-491q0 -27 -16.5 -44.5t-44.5 -17.5h-222q-29 0 -45 17.5t-16 44.5v233h-848q-35 0 -53.5 17.5 t-18.5 43.5z" />
<glyph unicode="&#x427;" horiz-adv-x="1333" d="M117 874v523q0 27 13 44t48 17h236q35 0 48 -17.5t13 -43.5v-459q0 -59 45 -94t107 -35q59 0 115.5 11t84.5 22v555q0 27 13.5 44t48.5 17h235q35 0 48.5 -17.5t13.5 -43.5v-1336q0 -27 -16.5 -44t-45.5 -17h-235q-29 0 -45.5 17.5t-16.5 43.5v476q-37 -10 -126 -30 t-199 -20q-76 0 -145.5 29t-123 81t-85 123t-31.5 154z" />
<glyph unicode="&#x428;" horiz-adv-x="2013" d="M147 61v1336q0 27 21.5 44t50.5 17h215q29 0 50.5 -17.5t21.5 -43.5v-1078h321v1078q0 27 21.5 44t50.5 17h217q29 0 49.5 -17.5t20.5 -43.5v-1078h321v1078q0 27 21.5 44t50.5 17h217q29 0 49.5 -17.5t20.5 -43.5v-1336q0 -27 -16.5 -44t-45.5 -17h-1585 q-35 0 -53.5 17.5t-18.5 43.5z" />
<glyph unicode="&#x429;" horiz-adv-x="2070" d="M147 61v1336q0 27 21.5 44t50.5 17h215q29 0 50.5 -17.5t21.5 -43.5v-1078h321v1078q0 27 21.5 44t50.5 17h217q29 0 49.5 -17.5t20.5 -43.5v-1078h321v1078q0 27 21.5 44t50.5 17h217q29 0 49.5 -17.5t20.5 -43.5v-1078h104q29 0 45.5 -17t16.5 -44v-491 q0 -27 -16.5 -44.5t-45.5 -17.5h-221q-29 0 -45 17.5t-16 44.5v233h-1469q-35 0 -53.5 17.5t-18.5 43.5z" />
<glyph unicode="&#x42a;" horiz-adv-x="1548" d="M61 1210v176q0 29 15.5 50.5t46.5 21.5h575q29 0 50.5 -17.5t21.5 -43.5v-459h219q109 0 201 -34t157.5 -95t102.5 -148.5t37 -191.5q0 -106 -37 -192.5t-103.5 -147.5t-157.5 -95t-200 -34h-506q-35 0 -53 17.5t-18 43.5v1078h-289q-33 0 -47.5 23.5t-14.5 47.5z M770 322h209q66 0 107.5 42t41.5 105t-44 105t-111 42h-203v-294z" />
<glyph unicode="&#x42b;" horiz-adv-x="1863" d="M147 61v1336q0 27 21.5 44t50.5 17h215q29 0 50.5 -17.5t21.5 -43.5v-459h219q109 0 201 -34t157.5 -95t102.5 -148.5t37 -191.5q0 -106 -37 -192.5t-103.5 -147.5t-157.5 -95t-200 -34h-506q-35 0 -53.5 17.5t-18.5 43.5zM506 322h209q66 0 107.5 42t41.5 105t-44 105 t-111 42h-203v-294zM1358 61v1336q0 27 18.5 44t53.5 17h215q35 0 53 -17.5t18 -43.5v-1336q0 -27 -21.5 -44t-49.5 -17h-215q-29 0 -50.5 17.5t-21.5 43.5z" />
<glyph unicode="&#x42c;" horiz-adv-x="1284" d="M147 61v1336q0 27 21.5 44t50.5 17h215q29 0 50.5 -17.5t21.5 -43.5v-459h219q109 0 201 -34t157.5 -95t102.5 -148.5t37 -191.5q0 -106 -37 -192.5t-103.5 -147.5t-157.5 -95t-200 -34h-506q-35 0 -53.5 17.5t-18.5 43.5zM506 322h209q66 0 107.5 42t41.5 105t-44 105 t-111 42h-203v-294z" />
<glyph unicode="&#x42d;" horiz-adv-x="1120" d="M82 152q0 29 22 51l148 145q20 20 49 21q18 0 37 -15q27 -23 53.5 -35t73.5 -12q92 0 141 62q23 29 36 77t17 129h-292q-31 0 -46.5 23t-15.5 49v168q0 31 14.5 51.5t47.5 20.5h290q-4 86 -16 130t-35 73q-45 61 -141 61q-47 0 -73.5 -11.5t-59.5 -41.5q-8 -8 -33 -8 q-12 0 -26.5 4t-24.5 14l-146 145q-20 20 -20 47q0 23 16 39q139 131 367 131q250 0 407 -163q43 -43 71 -91.5t45.5 -110t24.5 -140t7 -185.5v-51q0 -117 -6 -197.5t-13 -128.5q-10 -63 -43.5 -130.5t-85.5 -120.5q-158 -164 -409 -164q-117 0 -206 32.5t-161 98.5 q-14 12 -14 33z" />
<glyph unicode="&#x42e;" horiz-adv-x="1884" d="M147 61v1336q0 27 18.5 44t53.5 17h215q35 0 53.5 -17.5t18.5 -43.5v-500h170q4 78 13 136.5t26.5 106.5t43 88t62.5 79q156 164 406 163q252 0 409 -163q78 -80 113 -184.5t35 -264.5v-129q0 -80 -1 -156.5t-14.5 -149.5t-43 -141.5t-89.5 -129.5q-156 -164 -405 -164 q-252 0 -410 164q-88 94 -115.5 203.5t-31.5 222.5h-168v-517q0 -27 -21.5 -44t-50.5 -17h-215q-29 0 -50.5 17.5t-21.5 43.5zM1032 690q0 -141 12.5 -210.5t40.5 -106.5q53 -66 144 -66q90 0 143 66q29 37 41 106.5t12 210.5v101q0 104 -12 181t-41 115q-51 63 -143 64 q-92 0 -144 -64q-29 -39 -41 -115.5t-12 -180.5v-101z" />
<glyph unicode="&#x42f;" horiz-adv-x="1329" d="M63 39q0 6 4.5 14t8.5 19l243 524q-100 61 -156.5 162.5t-56.5 230.5q0 102 37 188.5t103.5 149t158 97t199.5 34.5h506q35 0 53.5 -17.5t18.5 -43.5v-1336q0 -27 -20.5 -44t-49.5 -17h-217q-29 0 -50.5 17.5t-21.5 43.5v459h-145l-186 -459q-12 -29 -32 -45t-65 -16 h-266q-29 0 -47.5 9t-18.5 30zM461 989q0 -63 44 -105t111 -42h207v297h-207q-68 0 -111.5 -43t-43.5 -107z" />
<glyph unicode="&#x430;" horiz-adv-x="1097" d="M55 342q0 152 100.5 238t274.5 86h223v28q0 74 -37.5 105.5t-128.5 31.5q-47 0 -76.5 -8t-60.5 -30q-18 -14 -39 -15q-20 0 -37 17l-133 133q-18 18 -18 39q0 16 16 32q82 68 162 91.5t197 23.5q492 0 491 -399v-664q0 -25 -17.5 -38t-43.5 -13h-205q-27 0 -44 11.5 t-17 39.5v39q-57 -55 -107.5 -77.5t-134.5 -22.5q-166 0 -265.5 96t-99.5 256zM377 354q0 -92 125 -92q78 0 114.5 36t36.5 116v28h-170q-47 0 -76.5 -23.5t-29.5 -64.5z" />
<glyph unicode="&#x431;" horiz-adv-x="1124" d="M127 578q0 154 1 281.5t19.5 230t61.5 181.5t127 134q57 37 141 56.5t166 28.5t147.5 11t86.5 2q33 2 42 -17.5t9 -43.5v-174q0 -25 -10.5 -42.5t-40.5 -19.5q-20 0 -67.5 -1t-106 -7t-121 -21.5t-113.5 -46.5q-33 -18 -52.5 -45.5t-29.5 -55.5t-13 -53.5t-3 -39.5h6 q29 43 94.5 81t169.5 38q111 0 186.5 -41t121.5 -112t66.5 -168t20.5 -212q0 -82 -6 -143.5t-19.5 -107.5t-35 -82.5t-51.5 -69.5q-59 -66 -145.5 -98.5t-190.5 -32.5t-193.5 33.5t-148.5 97.5q-63 68 -91 176t-28 283zM463 528q0 -78 8 -125t23.5 -71.5t37 -32.5t50.5 -8 t50 8t36.5 32.5t23.5 71.5t8 125q0 74 -8 118t-23.5 67.5t-37 31t-49.5 7.5q-27 0 -49.5 -7.5t-38 -31t-23.5 -67.5t-8 -118z" />
<glyph unicode="&#x432;" d="M127 51v1000q0 51 61 51h496q162 0 256 -84t94 -225q0 -74 -27.5 -127.5t-93.5 -100.5q74 -47 106 -102t32 -139q0 -147 -93.5 -235.5t-250.5 -88.5h-519q-61 0 -61 51zM457 244h161q47 0 74 25.5t27 70.5q0 47 -26.5 71.5t-74.5 24.5h-161v-192zM457 680h147q98 0 98 90 q0 88 -98 88h-147v-178z" />
<glyph unicode="&#x433;" horiz-adv-x="909" d="M133 51v1000q0 51 62 51h643q23 0 37 -13.5t14 -48.5v-176q0 -35 -15.5 -48t-35.5 -13h-369v-752q0 -23 -16.5 -37t-44.5 -14h-213q-61 0 -62 51z" />
<glyph unicode="&#x434;" horiz-adv-x="1236" d="M27 -182v430q0 23 13 37t48 14h47q25 76 42.5 149.5t29.5 159.5t17 193.5t5 249.5q0 23 13.5 37t48.5 14h719q35 0 48 -14.5t13 -36.5v-752h68q35 0 48 -14.5t13 -36.5v-430q0 -29 -19.5 -40t-41.5 -11h-193q-61 0 -61 51v182h-543v-182q0 -51 -61 -51h-193q-23 0 -42 11 t-19 40zM477 299h260v504h-178q0 -88 -7 -159t-18.5 -130t-25.5 -111.5t-31 -103.5z" />
<glyph unicode="&#x435;" horiz-adv-x="1144" d="M78 551q0 129 34.5 233.5t99 178t156 112.5t205.5 39q111 0 202 -38t155.5 -106.5t100.5 -164.5t36 -213v-98q0 -51 -61 -52h-598q4 -84 56 -128t148 -44q61 0 103.5 14.5t83.5 49.5q12 12 26 12q20 0 47 -27l123 -122q18 -18 19 -35q0 -14 -17 -31q-88 -80 -182 -111.5 t-213 -31.5q-524 0 -524 563zM408 666h327q-2 82 -45 127t-119 45t-119.5 -46.5t-43.5 -125.5z" />
<glyph unicode="&#x436;" horiz-adv-x="1622" d="M23 33q0 10 8 24l325 578l-307 424q-8 12 -8 18q0 10 7 17.5t28 7.5h262q59 0 80 -33l225 -369v351q0 51 62 51h213q61 0 61 -51v-351l225 369q20 33 80 33h262q20 0 27.5 -7.5t7.5 -17.5q0 -6 -8 -18l-307 -424l325 -578q8 -14 8 -24q0 -33 -61 -33h-219 q-57 0 -75.5 12.5t-31.5 36.5l-165 326l-68 -90v-234q0 -51 -61 -51h-213q-61 0 -62 51v234l-68 90l-165 -326q-12 -25 -31 -37t-76 -12h-219q-61 0 -61 33z" />
<glyph unicode="&#x437;" horiz-adv-x="1032" d="M37 147q0 25 26 54l99 108q25 25 51 25q10 0 18.5 -4t16.5 -8q23 -16 85 -35t128 -19q59 0 104 21.5t45 70.5q0 45 -31.5 63.5t-91.5 18.5h-125q-51 0 -51 62v110q0 61 51 62h117q57 0 88 24.5t31 65.5q0 43 -42 61.5t-114 18.5q-51 0 -95 -14.5t-60 -24.5 q-16 -12 -47 -12q-25 0 -47 22l-97 105q-20 20 -20 47t22 43q29 25 74 43t100.5 31.5t119 20.5t126.5 7q80 0 153.5 -19.5t130 -56.5t91.5 -93t35 -130q0 -76 -39 -137.5t-98 -95.5q68 -35 110.5 -98.5t42.5 -149.5q0 -78 -33.5 -142.5t-92 -109.5t-135.5 -69.5t-163 -24.5 q-63 0 -133 9t-132 24.5t-115.5 39t-84.5 50.5q-8 8 -13 16t-5 20z" />
<glyph unicode="&#x438;" horiz-adv-x="1220" d="M127 51v1000q0 51 61 51h213q23 0 42.5 -11.5t19.5 -39.5v-504l268 504q10 20 28.5 35.5t49.5 15.5h223q23 0 42.5 -11.5t19.5 -39.5v-1000q0 -23 -13.5 -37t-48.5 -14h-213q-35 0 -48 15.5t-13 35.5v524l-266 -520q-10 -18 -28 -36.5t-52 -18.5h-224q-35 0 -48 15.5 t-13 35.5z" />
<glyph unicode="&#x439;" horiz-adv-x="1220" d="M127 51v1000q0 51 61 51h213q23 0 42.5 -11.5t19.5 -39.5v-504l268 504q10 20 28.5 35.5t49.5 15.5h223q23 0 42.5 -11.5t19.5 -39.5v-1000q0 -23 -13.5 -37t-48.5 -14h-213q-35 0 -48 15.5t-13 35.5v524l-266 -520q-10 -18 -28 -36.5t-52 -18.5h-224q-35 0 -48 15.5 t-13 35.5zM281 1458q-2 23 9 37t42 14h102q35 0 47.5 -12t28.5 -39q6 -10 26.5 -27.5t73.5 -17.5t74 17.5t27 27.5q16 27 28.5 39t46.5 12h103q31 0 42 -14t9 -37q-2 -51 -23.5 -100t-62.5 -87t-102.5 -60.5t-141.5 -22.5t-141 22.5t-102 60.5t-62.5 87t-23.5 100z" />
<glyph unicode="&#x43a;" horiz-adv-x="1173" d="M127 51v1000q0 29 18.5 40t42.5 11h213q61 0 62 -51v-346l282 364q10 14 29 23.5t51 9.5h283q20 0 27.5 -7.5t7.5 -17.5q0 -6 -8 -18l-377 -414l389 -588q8 -14 8 -24q0 -33 -61 -33h-248q-57 0 -74.5 13.5t-32.5 35.5l-211 354l-65 -77v-275q0 -51 -62 -51h-213 q-25 0 -43 13.5t-18 37.5z" />
<glyph unicode="&#x43b;" horiz-adv-x="1196" d="M8 61v177q0 20 7.5 40.5t41.5 20.5q53 0 97.5 40t48.5 130l16 582q0 23 13.5 37t48.5 14h727q35 0 48 -14.5t13 -36.5v-1000q0 -23 -13.5 -37t-47.5 -14h-213q-35 0 -48.5 15.5t-13.5 35.5v752h-186l-10 -385q-6 -207 -96.5 -312.5t-252.5 -105.5h-129q-35 0 -43 18.5 t-8 42.5z" />
<glyph unicode="&#x43c;" horiz-adv-x="1411" d="M127 51v1000q0 51 61 51h224q43 0 69 -51l226 -435l223 435q10 18 22.5 34.5t46.5 16.5h224q35 0 48 -14.5t13 -36.5v-1000q0 -23 -13.5 -37t-47.5 -14h-213q-35 0 -48.5 15.5t-13.5 35.5v498l-139 -262q-10 -18 -24.5 -24.5t-41.5 -6.5h-77q-25 0 -39.5 5t-24.5 26 l-139 262v-498q0 -29 -19.5 -40t-42.5 -11h-213q-61 0 -61 51z" />
<glyph unicode="&#x43d;" horiz-adv-x="1185" d="M127 51v1000q0 51 61 51h213q23 0 42.5 -11.5t19.5 -39.5v-340h260v340q0 20 13.5 35.5t47.5 15.5h213q35 0 48.5 -14.5t13.5 -36.5v-1000q0 -23 -13.5 -37t-48.5 -14h-213q-35 0 -48 15.5t-13 35.5v361h-260v-361q0 -29 -19.5 -40t-42.5 -11h-213q-61 0 -61 51z" />
<glyph unicode="&#x43e;" horiz-adv-x="1126" d="M88 563q0 154 27.5 247t93.5 163q131 141 354 141t355 -141q35 -37 57 -77t36.5 -89t20.5 -111.5t6 -142.5q0 -82 -6 -145.5t-20.5 -113.5t-37 -89t-56.5 -76q-135 -141 -355 -141q-223 0 -354 141q-35 37 -58.5 77t-37 90t-19.5 115.5t-6 151.5zM424 557 q0 -154 29.5 -210t109.5 -56t109.5 56t29.5 210q0 145 -30.5 199.5t-108.5 54.5t-108.5 -54.5t-30.5 -199.5z" />
<glyph unicode="&#x43f;" horiz-adv-x="1185" d="M127 51v1000q0 51 61 51h809q35 0 48.5 -14.5t13.5 -36.5v-1000q0 -23 -13.5 -37t-48.5 -14h-213q-35 0 -48 15.5t-13 35.5v752h-260v-752q0 -29 -19.5 -40t-42.5 -11h-213q-61 0 -61 51z" />
<glyph unicode="&#x440;" horiz-adv-x="1165" d="M127 -305v1356q0 29 19.5 40t41.5 11h201q33 0 48.5 -11.5t15.5 -39.5v-39q59 57 113.5 79.5t138.5 22.5q82 0 152.5 -26.5t117.5 -73.5q53 -53 77.5 -140.5t24.5 -222.5v-100q0 -90 -4 -159.5t-12 -123.5q-8 -49 -30.5 -98t-55.5 -82q-47 -47 -117 -73.5t-151 -26.5 q-72 0 -131.5 21.5t-112.5 70.5v-385q0 -29 -19.5 -40t-42.5 -11h-213q-29 0 -45 14t-16 37zM463 532q0 -135 31.5 -188t109.5 -53t107.5 57t29.5 209q0 145 -30.5 199.5t-110.5 54.5q-55 0 -84 -28.5t-40 -71.5t-12 -91.5t-1 -87.5z" />
<glyph unicode="&#x441;" horiz-adv-x="972" d="M78 561q0 264 130 408.5t365 144.5q102 0 178 -25.5t148 -84.5q16 -12 16 -31q0 -20 -20 -41l-147 -148q-20 -20 -43 -20q-14 0 -31 12q-27 18 -49.5 26.5t-51.5 8.5q-160 0 -159 -260q0 -260 159 -260q31 0 53.5 8t51.5 31q14 10 29 10q18 0 38 -21l154 -153 q19 -19 19 -35q0 -18 -19 -33q-72 -59 -147.5 -84.5t-178.5 -25.5q-242 0 -368.5 146.5t-126.5 426.5z" />
<glyph unicode="&#x442;" horiz-adv-x="946" d="M12 864v176q0 35 14.5 48.5t36.5 13.5h820q23 0 37 -13.5t14 -48.5v-176q0 -35 -15.5 -48t-35.5 -13h-242v-752q0 -23 -13.5 -37t-47.5 -14h-213q-35 0 -48.5 15.5t-13.5 35.5v752h-242q-20 0 -35.5 13t-15.5 48z" />
<glyph unicode="&#x443;" horiz-adv-x="1052" d="M6 1071q0 12 11.5 21.5t43.5 9.5h228q31 0 45 -7.5t24 -35.5l172 -529l164 529q10 29 24.5 36t45.5 7h227q33 0 44.5 -9.5t11.5 -21.5q0 -6 -1.5 -11t-3.5 -11l-438 -1180q-47 -125 -126 -181.5t-208 -56.5h-75q-31 0 -41.5 18.5t-10.5 43.5v180q0 29 14.5 45t37.5 16h20 q49 0 72.5 17.5t40.5 64.5l30 93l-348 940q-2 6 -3 11t-1 11z" />
<glyph unicode="&#x444;" horiz-adv-x="1527" d="M74 561q0 281 139 416t383 137v293q0 51 61 51h213q23 0 42.5 -11t19.5 -40v-293q244 -2 383 -137t139 -416q0 -285 -138 -427t-384 -146v-293q0 -29 -19.5 -40t-42.5 -11h-213q-61 0 -61 51v293q-246 4 -384 146t-138 427zM410 551q0 -143 51 -199.5t139 -60.5v520 q-84 -2 -137 -58.5t-53 -201.5zM928 291q88 4 139 60.5t51 199.5q0 145 -53 201.5t-137 58.5v-520z" />
<glyph unicode="&#x445;" d="M29 33q0 8 8 20l346 510l-334 486q-8 12 -8 20q0 33 59 33h252q31 0 53.5 -9.5t36.5 -33.5l125 -223l129 223q14 25 37 34t53 9h252q57 0 58 -33q0 -10 -6 -20l-334 -486l346 -510q8 -12 8 -20q0 -33 -59 -33h-252q-31 0 -52.5 9t-37.5 34l-142 236l-137 -236 q-14 -25 -36.5 -34t-53.5 -9h-252q-59 0 -59 33z" />
<glyph unicode="&#x446;" horiz-adv-x="1234" d="M127 51v1000q0 51 61 51h213q23 0 42.5 -11.5t19.5 -39.5v-752h260v752q0 20 13.5 35.5t47.5 15.5h213q35 0 48.5 -14.5t13.5 -36.5v-752h78q35 0 48 -14.5t13 -36.5v-430q0 -29 -19.5 -40t-41.5 -11h-193q-61 0 -61 51v182h-695q-61 0 -61 51z" />
<glyph unicode="&#x447;" horiz-adv-x="1136" d="M98 655v396q0 51 62 51h213q23 0 42 -11.5t19 -39.5v-310q0 -47 26.5 -72.5t74.5 -25.5q45 0 83.5 8t55.5 15v385q0 20 13 35.5t48 15.5h213q35 0 48.5 -14.5t13.5 -36.5v-1000q0 -23 -13.5 -37t-48.5 -14h-213q-35 0 -48 15.5t-13 35.5v326q-25 -6 -91.5 -20.5 t-160.5 -14.5q-70 0 -129.5 24.5t-102.5 66.5t-67.5 99.5t-24.5 122.5z" />
<glyph unicode="&#x448;" horiz-adv-x="1708" d="M127 51v1000q0 51 61 51h213q23 0 42.5 -11.5t19.5 -39.5v-752h223v752q0 51 62 51h213q23 0 42 -11.5t19 -39.5v-752h223v752q0 51 62 51h213q23 0 42 -11.5t19 -39.5v-1000q0 -23 -13.5 -37t-47.5 -14h-1332q-61 0 -61 51z" />
<glyph unicode="&#x449;" horiz-adv-x="1757" d="M127 51v1000q0 51 61 51h213q23 0 42.5 -11.5t19.5 -39.5v-752h223v752q0 51 62 51h213q23 0 42 -11.5t19 -39.5v-752h223v752q0 51 62 51h213q23 0 42 -11.5t19 -39.5v-752h78q35 0 48 -14.5t13 -36.5v-430q0 -29 -19.5 -40t-41.5 -11h-193q-61 0 -61 51v182h-1217 q-61 0 -61 51z" />
<glyph unicode="&#x44a;" horiz-adv-x="1304" d="M16 864v176q0 35 14.5 48.5t37.5 13.5h538q23 0 37 -13.5t14 -48.5v-315h213q84 0 154 -26.5t119 -75t76.5 -115t27.5 -146.5t-27.5 -146t-77.5 -114.5t-119 -75t-153 -26.5h-487q-35 0 -48 15.5t-13 35.5v752h-254q-20 0 -36 13t-16 48zM647 260h160q47 0 77.5 28.5 t30.5 73.5t-30.5 74t-77.5 29h-160v-205z" />
<glyph unicode="&#x44b;" horiz-adv-x="1615" d="M127 51v1000q0 51 61 51h213q23 0 42.5 -11.5t19.5 -39.5v-326h213q84 0 153.5 -26.5t118.5 -75t77 -115t28 -146.5t-28 -146t-78 -114.5t-118.5 -75t-152.5 -26.5h-488q-61 0 -61 51zM453 260h159q47 0 78 28.5t31 73.5t-31 74t-78 29h-159v-205zM1153 51v1000 q0 35 13.5 43t47.5 8h213q35 0 48.5 -12.5t13.5 -38.5v-1000q0 -23 -13.5 -37t-48.5 -14h-213q-35 0 -48 14.5t-13 36.5z" />
<glyph unicode="&#x44c;" horiz-adv-x="1110" d="M127 51v1000q0 51 61 51h213q23 0 42.5 -11.5t19.5 -39.5v-326h213q84 0 153.5 -26.5t118.5 -75t77 -115t28 -146.5t-28 -146t-78 -114.5t-118.5 -75t-152.5 -26.5h-488q-61 0 -61 51zM453 260h159q47 0 78 28.5t31 73.5t-31 74t-78 29h-159v-205z" />
<glyph unicode="&#x44d;" horiz-adv-x="972" d="M55 131q0 16 19 35l145 145q20 20 39 21q14 0 29 -10q29 -23 53.5 -31t54.5 -8q133 0 164 155h-215q-51 0 -51 62v100q0 61 51 62h215q-16 78 -57 117.5t-103 39.5q-59 0 -108 -35q-14 -12 -31 -12q-23 0 -43 21l-139 139q-20 20 -21 41q0 18 17 31q72 59 147.5 84.5 t177.5 25.5q236 0 366 -144.5t130 -408.5q0 -281 -127 -427t-369 -146q-102 0 -178 25.5t-147 84.5q-18 14 -19 33z" />
<glyph unicode="&#x44e;" horiz-adv-x="1638" d="M127 51v1000q0 51 61 51h213q23 0 42.5 -11.5t19.5 -39.5v-346h143q23 195 147 302t322 107q223 0 355 -141q35 -37 57 -77t36.5 -89t20.5 -111.5t6 -142.5q0 -82 -6 -145.5t-20.5 -113.5t-37 -89t-56.5 -76q-135 -141 -355 -141q-207 0 -329.5 114.5t-139.5 315.5h-143 v-367q0 -29 -19.5 -40t-42.5 -11h-213q-61 0 -61 51zM936 557q0 -154 29.5 -210t109.5 -56t109.5 56t29.5 210q0 145 -30.5 199.5t-108.5 54.5t-108.5 -54.5t-30.5 -199.5z" />
<glyph unicode="&#x44f;" d="M47 31q0 10 6 22l213 396q-80 41 -130 117.5t-50 181.5q0 78 27.5 142t78 111.5t120 74t151.5 26.5h489q35 0 48.5 -14.5t13.5 -36.5v-1000q0 -23 -13.5 -37t-48.5 -14h-213q-35 0 -48 15.5t-13 35.5v318h-86l-154 -326q-12 -27 -35.5 -35t-54.5 -8h-244q-33 0 -45 9 t-12 22zM414 733q0 -43 29.5 -71.5t76.5 -28.5h164v203h-164q-47 0 -76.5 -30t-29.5 -73z" />
<glyph unicode="&#x451;" horiz-adv-x="1144" d="M78 551q0 129 34.5 233.5t99 178t156 112.5t205.5 39q111 0 202 -38t155.5 -106.5t100.5 -164.5t36 -213v-98q0 -51 -61 -52h-598q4 -84 56 -128t148 -44q61 0 103.5 14.5t83.5 49.5q12 12 26 12q20 0 47 -27l123 -122q18 -18 19 -35q0 -14 -17 -31q-88 -80 -182 -111.5 t-213 -31.5q-524 0 -524 563zM176 1364q0 68 48 116t116 48q66 0 115 -48t49 -114q0 -70 -47 -118t-117 -48q-68 0 -116 48t-48 116zM408 666h327q-2 82 -45 127t-119 45t-119.5 -46.5t-43.5 -125.5zM655 1364q0 68 48.5 116t115.5 48q66 0 115 -48t49 -114q0 -70 -47 -118 t-117 -48q-68 0 -116 48t-48 116z" />
<glyph unicode="&#x452;" horiz-adv-x="1173" d="M29 944v135q0 61 51 62h47v266q0 51 61 51h213q39 0 50.5 -15.5t11.5 -35.5v-266h393q51 0 51 -62v-135q0 -61 -51 -61h-393v-178q57 51 112.5 76.5t133.5 25.5q160 0 254 -107.5t94 -291.5v-410q0 -74 -20.5 -139.5t-62.5 -116.5t-106.5 -81t-152.5 -30h-127 q-25 0 -38 17.5t-13 44.5v160q0 35 14 48t37 13h45q41 0 64.5 38t23.5 71v337q0 66 -35 105t-94 39t-94 -39t-35 -105v-309q0 -23 -13.5 -37t-48.5 -14h-213q-29 0 -45 14.5t-16 36.5v832h-47q-51 0 -51 61z" />
<glyph unicode="&#x453;" horiz-adv-x="909" d="M133 51v1000q0 51 62 51h643q23 0 37 -13.5t14 -48.5v-176q0 -35 -15.5 -48t-35.5 -13h-369v-752q0 -23 -16.5 -37t-44.5 -14h-213q-61 0 -62 51zM340 1274q0 6 4 22l78 285q6 23 22.5 30t40.5 7h236q37 0 37 -19q0 -10 -10 -24l-185 -281q-16 -25 -27.5 -35t-43.5 -10 h-121q-31 0 -31 25z" />
<glyph unicode="&#x454;" horiz-adv-x="972" d="M66 561q0 264 130 408.5t365 144.5q102 0 178 -25.5t148 -84.5q16 -12 16 -31q0 -20 -20 -41l-140 -139q-20 -20 -43 -21q-14 0 -30 12q-49 35 -109 35q-61 0 -102 -40t-58 -117h215q51 0 52 -62v-100q0 -61 -52 -62h-215q31 -156 164 -155q31 0 55.5 8t53.5 31 q14 10 28 10q18 0 39 -21l146 -145q18 -19 18 -35q0 -18 -18 -33q-72 -59 -147.5 -84.5t-178.5 -25.5q-242 0 -368.5 146.5t-126.5 426.5z" />
<glyph unicode="&#x455;" horiz-adv-x="1032" d="M47 147q0 27 27 54l119 118q25 25 51 25q10 0 18 -4t17 -8q47 -33 98 -46.5t115 -13.5q76 0 116.5 19.5t40.5 54.5q0 61 -80 68l-170 16q-319 31 -319 313q0 174 125 272.5t344 98.5q104 0 189 -19.5t163 -74.5q23 -16 23 -43t-21 -47l-115 -115q-23 -23 -47 -22 q-23 0 -47 12q-37 18 -79 25.5t-85 7.5q-127 0 -127 -68q0 -51 72 -57l170 -17q160 -16 246 -102.5t86 -233.5q0 -182 -132 -277t-382 -95q-66 0 -119 6t-100 19.5t-90 37t-88 60.5q-18 12 -19 36z" />
<glyph unicode="&#x456;" horiz-adv-x="589" d="M111 1376q0 78 53 131.5t131 53.5q37 0 70.5 -14.5t58.5 -39t40 -58.5t15 -71q0 -78 -53 -132t-131 -54t-131 53t-53 131zM127 51v1000q0 35 13.5 43t47.5 8h213q35 0 48.5 -12.5t13.5 -38.5v-1000q0 -23 -13.5 -37t-48.5 -14h-213q-35 0 -48 14.5t-13 36.5z" />
<glyph unicode="&#x457;" horiz-adv-x="589" d="M-84 1393q0 68 48 115.5t116 47.5q66 0 115 -47.5t49 -113.5q0 -70 -47 -118t-117 -48q-68 0 -116 48t-48 116zM127 51v1000q0 35 13.5 43t47.5 8h213q35 0 48.5 -12.5t13.5 -38.5v-1000q0 -23 -13.5 -37t-48.5 -14h-213q-35 0 -48 14.5t-13 36.5zM354 1393 q0 68 48.5 115.5t115.5 47.5q66 0 115 -47.5t49 -113.5q0 -70 -47 -118t-117 -48q-68 0 -116 48t-48 116z" />
<glyph unicode="&#x458;" horiz-adv-x="589" d="M-57 -147q0 35 14 48t37 13h65q68 0 68 68v1069q0 29 17.5 40t43.5 11h213q61 0 62 -51v-1094q0 -74 -24.5 -133.5t-69.5 -102.5t-108.5 -66.5t-139.5 -23.5h-127q-25 0 -38 17.5t-13 44.5v160zM111 1376q0 78 53 131.5t131 53.5q37 0 70.5 -14.5t58.5 -39t40 -58.5 t15 -71q0 -78 -53 -132t-131 -54t-131 53t-53 131z" />
<glyph unicode="&#x459;" horiz-adv-x="1716" d="M8 61v177q0 20 7.5 40.5t41.5 20.5q53 0 97.5 40t48.5 130l16 582q0 23 13.5 37t48.5 14h727q35 0 48 -14.5t13 -36.5v-326h213q84 0 153.5 -26.5t119 -75t77 -115t27.5 -146.5t-27.5 -146t-78 -114.5t-119 -75t-152.5 -26.5h-487q-35 0 -48.5 15.5t-13.5 35.5v752h-186 l-10 -385q-6 -207 -96.5 -312.5t-252.5 -105.5h-129q-35 0 -43 18.5t-8 42.5zM1059 260h160q47 0 77.5 28.5t30.5 73.5t-30.5 74t-77.5 29h-160v-205z" />
<glyph unicode="&#x45a;" horiz-adv-x="1705" d="M127 51v1000q0 51 61 51h213q23 0 42.5 -11.5t19.5 -39.5v-326h260v326q0 20 13.5 35.5t47.5 15.5h213q35 0 48.5 -14.5t13.5 -36.5v-326h213q84 0 153.5 -26.5t118.5 -75t77 -115t28 -146.5t-28 -146t-78 -114.5t-118.5 -75t-152.5 -26.5h-488q-35 0 -48 15.5t-13 35.5 v375h-260v-375q0 -29 -19.5 -40t-42.5 -11h-213q-61 0 -61 51zM1049 260h159q47 0 78 28.5t31 73.5t-31 74t-78 29h-159v-205z" />
<glyph unicode="&#x45b;" horiz-adv-x="1173" d="M29 944v135q0 61 51 62h47v266q0 51 61 51h213q39 0 50.5 -15.5t11.5 -35.5v-266h393q51 0 51 -62v-135q0 -61 -51 -61h-393v-178q57 51 112.5 76.5t133.5 25.5q160 0 254 -107.5t94 -291.5v-357q0 -27 -16.5 -39t-45.5 -12h-213q-20 0 -40.5 8t-20.5 43v309 q0 66 -35 105t-94 39t-94 -39t-35 -105v-309q0 -23 -13.5 -37t-48.5 -14h-213q-29 0 -45 14.5t-16 36.5v832h-47q-51 0 -51 61z" />
<glyph unicode="&#x45c;" horiz-adv-x="1173" d="M127 51v1000q0 29 18.5 40t42.5 11h213q61 0 62 -51v-346l282 364q10 14 29 23.5t51 9.5h283q20 0 27.5 -7.5t7.5 -17.5q0 -6 -8 -18l-377 -414l389 -588q8 -14 8 -24q0 -33 -61 -33h-248q-57 0 -74.5 13.5t-32.5 35.5l-211 354l-65 -77v-275q0 -51 -62 -51h-213 q-25 0 -43 13.5t-18 37.5zM463 1274q0 6 4 22l78 285q6 23 22.5 30t40.5 7h236q37 0 37 -19q0 -10 -11 -24l-184 -281q-16 -25 -27.5 -35t-44.5 -10h-120q-31 0 -31 25z" />
<glyph unicode="&#x45e;" horiz-adv-x="1052" d="M6 1071q0 12 11.5 21.5t43.5 9.5h228q31 0 45 -7.5t24 -35.5l172 -529l164 529q10 29 24.5 36t45.5 7h227q33 0 44.5 -9.5t11.5 -21.5q0 -6 -1.5 -11t-3.5 -11l-438 -1180q-47 -125 -126 -181.5t-208 -56.5h-75q-31 0 -41.5 18.5t-10.5 43.5v180q0 29 14.5 45t37.5 16h20 q49 0 72.5 17.5t40.5 64.5l30 93l-348 940q-2 6 -3 11t-1 11zM197 1458q-2 23 9 37t42 14h102q35 0 47.5 -12t28.5 -39q6 -10 26.5 -27.5t73.5 -17.5t74 17.5t27 27.5q16 27 28.5 39t46.5 12h103q31 0 42 -14t9 -37q-2 -51 -23.5 -100t-62.5 -87t-102.5 -60.5t-141.5 -22.5 t-141 22.5t-102 60.5t-62.5 87t-23.5 100z" />
<glyph unicode="&#x45f;" horiz-adv-x="1185" d="M127 51v1000q0 51 61 51h213q23 0 42.5 -11.5t19.5 -39.5v-752h260v752q0 20 13.5 35.5t47.5 15.5h213q35 0 48.5 -14.5t13.5 -36.5v-1000q0 -23 -13.5 -37t-48.5 -14h-249v-182q0 -29 -19.5 -40t-42.5 -11h-192q-61 0 -62 51v182h-244q-61 0 -61 51z" />
<glyph unicode="&#x490;" d="M147 61v1336q0 27 18.5 44t53.5 17h524v234q0 27 21.5 44t50.5 17h201q27 0 49 -17.5t22 -43.5v-482q0 -27 -16 -49t-45 -22h-520v-1078q0 -27 -22.5 -44t-49.5 -17h-215q-29 0 -50.5 17.5t-21.5 43.5z" />
<glyph unicode="&#x491;" horiz-adv-x="909" d="M133 51v1000q0 51 62 51h370v182q0 51 62 51h192q23 0 42.5 -11t19.5 -40v-430q0 -23 -13.5 -37t-48.5 -14h-350v-752q0 -23 -16.5 -37t-44.5 -14h-213q-61 0 -62 51z" />
<glyph unicode="&#x2000;" horiz-adv-x="954" />
<glyph unicode="&#x2001;" horiz-adv-x="1909" />
<glyph unicode="&#x2002;" horiz-adv-x="954" />
<glyph unicode="&#x2003;" horiz-adv-x="1909" />
<glyph unicode="&#x2004;" horiz-adv-x="636" />
<glyph unicode="&#x2005;" horiz-adv-x="477" />
<glyph unicode="&#x2006;" horiz-adv-x="318" />
<glyph unicode="&#x2007;" horiz-adv-x="318" />
<glyph unicode="&#x2008;" horiz-adv-x="238" />
<glyph unicode="&#x2009;" horiz-adv-x="381" />
<glyph unicode="&#x200a;" horiz-adv-x="106" />
<glyph unicode="&#x2010;" horiz-adv-x="872" d="M88 508v192q0 61 51 62h594q51 0 51 -62v-192q0 -61 -51 -62h-594q-51 0 -51 62z" />
<glyph unicode="&#x2011;" horiz-adv-x="872" d="M88 508v192q0 61 51 62h594q51 0 51 -62v-192q0 -61 -51 -62h-594q-51 0 -51 62z" />
<glyph unicode="&#x2012;" horiz-adv-x="872" d="M88 508v192q0 61 51 62h594q51 0 51 -62v-192q0 -61 -51 -62h-594q-51 0 -51 62z" />
<glyph unicode="&#x2013;" horiz-adv-x="1024" d="M0 508v192q0 61 51 62h922q51 0 51 -62v-192q0 -61 -51 -62h-922q-51 0 -51 62z" />
<glyph unicode="&#x2014;" horiz-adv-x="2048" d="M0 512v193q0 61 51 61h1946q51 0 51 -61v-193q0 -61 -51 -61h-1946q-51 0 -51 61z" />
<glyph unicode="&#x2018;" horiz-adv-x="569" d="M76 1133q0 18 10 55l121 352q14 43 32.5 70.5t79.5 27.5h115q23 0 41.5 -10t18.5 -41q0 -4 -1 -10t-1 -12l-70 -389q-8 -49 -28.5 -72t-67.5 -23h-187q-63 0 -63 52z" />
<glyph unicode="&#x2019;" horiz-adv-x="569" d="M76 1133q0 14 2 22l67 389q10 49 30 71.5t67 22.5h186q66 0 66 -51q0 -20 -13 -55l-119 -352q-14 -43 -32.5 -71t-79.5 -28h-115q-23 0 -41 10.5t-18 41.5z" />
<glyph unicode="&#x201a;" horiz-adv-x="569" d="M76 -141q0 14 2 22l67 389q10 49 30 72t67 23h186q66 0 66 -52q0 -20 -13 -55l-119 -352q-14 -43 -32.5 -71t-79.5 -28h-115q-23 0 -41 10.5t-18 41.5z" />
<glyph unicode="&#x201c;" horiz-adv-x="1046" d="M76 1133q0 18 10 55l121 352q14 43 32.5 70.5t79.5 27.5h115q23 0 41.5 -10t18.5 -41q0 -4 -1 -10t-1 -12l-70 -389q-8 -49 -28.5 -72t-67.5 -23h-187q-63 0 -63 52zM547 1133q0 18 10 55l121 352q14 43 32.5 70.5t80.5 27.5h114q23 0 41.5 -10t18.5 -41q0 -4 -1 -10 t-1 -12l-70 -389q-8 -49 -28.5 -72t-67.5 -23h-187q-63 0 -63 52z" />
<glyph unicode="&#x201d;" horiz-adv-x="1046" d="M76 1133q0 14 2 22l67 389q10 49 30 71.5t67 22.5h186q66 0 66 -51q0 -20 -13 -55l-119 -352q-14 -43 -32.5 -71t-79.5 -28h-115q-23 0 -41 10.5t-18 41.5zM547 1133q0 14 2 22l67 389q10 49 30 71.5t67 22.5h186q66 0 66 -51q0 -20 -13 -55l-118 -352q-14 -43 -33 -71 t-80 -28h-115q-23 0 -41 10.5t-18 41.5z" />
<glyph unicode="&#x201e;" horiz-adv-x="1046" d="M76 -141q0 14 2 22l67 389q10 49 30 72t67 23h186q66 0 66 -52q0 -20 -13 -55l-119 -352q-14 -43 -32.5 -71t-79.5 -28h-115q-23 0 -41 10.5t-18 41.5zM547 -141q0 14 2 22l67 389q10 49 30 72t67 23h186q66 0 66 -52q0 -20 -13 -55l-118 -352q-14 -43 -33 -71t-80 -28 h-115q-23 0 -41 10.5t-18 41.5z" />
<glyph unicode="&#x2020;" horiz-adv-x="1155" d="M96 860v180q0 23 11.5 42.5t39.5 19.5h263v305q0 51 61 51h213q23 0 42 -11t19 -40v-305h263q29 0 40 -19.5t11 -42.5v-180q0 -61 -51 -61h-263v-748q0 -29 -19 -40t-42 -11h-213q-61 0 -61 51v748h-263q-51 0 -51 61z" />
<glyph unicode="&#x2021;" horiz-adv-x="1155" d="M96 61v181q0 23 11.5 42t39.5 19h263v496h-263q-51 0 -51 61v180q0 23 11.5 42.5t39.5 19.5h263v305q0 51 61 51h213q23 0 42 -11t19 -40v-305h263q29 0 40 -19.5t11 -42.5v-180q0 -61 -51 -61h-263v-496h263q29 0 40 -19.5t11 -41.5v-181q0 -61 -51 -61h-263v-305 q0 -29 -19 -40t-42 -11h-213q-61 0 -61 51v305h-263q-51 0 -51 61z" />
<glyph unicode="&#x2022;" horiz-adv-x="962" d="M147 684q0 70 27 130t72 105.5t105.5 72t129.5 26.5q68 0 128.5 -26.5t106.5 -70.5t72.5 -103.5t26.5 -127.5q0 -72 -25.5 -133t-70.5 -107.5t-106.5 -73t-131.5 -26.5t-130 26.5t-105 72t-72 105.5t-27 130z" />
<glyph unicode="&#x2026;" horiz-adv-x="1841" d="M100 209q0 45 17.5 84t46.5 68.5t67.5 46t83.5 16.5q43 0 83 -16.5t69 -46t46 -67.5t17 -81q0 -92 -61 -155.5t-154 -63.5q-45 0 -83.5 17.5t-67.5 46t-46.5 67.5t-17.5 84zM705 209q0 45 17 84t46 68.5t67.5 46t84.5 16.5q43 0 82.5 -16.5t68.5 -46t46.5 -68.5t17.5 -82 q0 -92 -60.5 -154.5t-152.5 -62.5q-45 0 -84 17.5t-69 46t-47 67.5t-17 84zM1311 209q0 45 17.5 84t46 68.5t67.5 46t84 16.5q43 0 83 -16.5t68.5 -46t46 -67.5t17.5 -81q0 -92 -61.5 -155.5t-153.5 -63.5q-45 0 -84 17.5t-67.5 46t-46 67.5t-17.5 84z" />
<glyph unicode="&#x202f;" horiz-adv-x="381" />
<glyph unicode="&#x2030;" horiz-adv-x="2516" d="M92 991v195q0 129 84 206.5t225 77.5t225.5 -77.5t84.5 -206.5v-195q0 -129 -84 -206.5t-226 -77.5q-141 0 -225 77.5t-84 206.5zM330 999q0 -80 71 -79q72 0 72 79v179q0 80 -72 79q-72 0 -71 -79v-179zM425 16.5q-9 16.5 1 36.5l649 1362q12 27 25.5 35t44.5 8h133 q43 0 52 -16.5t-1 -36.5l-649 -1362q-12 -27 -25.5 -35t-44.5 -8h-133q-43 0 -52 16.5zM1044 272v195q0 129 84 207t226 78q141 0 225 -78t84 -207v-195q0 -129 -84 -206.5t-225 -77.5t-225.5 77.5t-84.5 206.5zM1282 281q0 -80 72 -80t71 80v178q0 80 -71 80q-72 0 -72 -80 v-178zM1806 272v195q0 129 84 207t226 78q141 0 225 -78t84 -207v-195q0 -129 -84 -206.5t-225 -77.5t-225.5 77.5t-84.5 206.5zM2044 281q0 -80 72 -80t71 80v178q0 80 -71 80q-72 0 -72 -80v-178z" />
<glyph unicode="&#x2039;" horiz-adv-x="743" d="M86 571q0 27 14 41l467 461q12 12 29 12q25 0 25 -26v-256q0 -35 -7.5 -59.5t-29.5 -47.5l-129 -123l129 -122q23 -23 30 -47.5t7 -59.5v-256q0 -27 -25 -27q-16 0 -29 13l-471 465q-10 10 -10 32z" />
<glyph unicode="&#x203a;" horiz-adv-x="743" d="M123 88v256q0 35 7 59.5t30 47.5l129 122l-129 123q-23 23 -30 47.5t-7 59.5v256q0 27 24 26q16 0 29 -12l467 -461q14 -14 14 -41q0 -23 -10 -32l-471 -465q-12 -12 -29 -13q-25 0 -24 27z" />
<glyph unicode="&#x205f;" horiz-adv-x="477" />
<glyph unicode="&#x2116;" horiz-adv-x="1996" d="M127 61v1336q0 27 18.5 44t53.5 17h157q37 0 58.5 -15.5t31.5 -35.5l398 -743v733q0 27 20.5 44t48.5 17h195q29 0 50.5 -17.5t21.5 -43.5v-1336q0 -27 -18.5 -44t-53.5 -17h-156q-37 0 -58.5 15.5t-31.5 35.5l-399 744v-734q0 -27 -21.5 -44t-50.5 -17h-192 q-29 0 -50.5 17.5t-21.5 43.5zM1276 61v132q0 61 51 61h516q51 0 51 -61v-132q0 -61 -51 -61h-516q-51 0 -51 61zM1276 604v195q0 129 84 206.5t225 77.5t225 -77.5t84 -206.5v-195q0 -129 -84 -207t-225 -78t-225 78t-84 207zM1513 612q0 -80 72 -80t72 80v179q0 80 -72 79 q-72 0 -72 -79v-179z" />
<glyph unicode="&#x2122;" horiz-adv-x="1992" d="M104 1245v213h668v-213h-215v-661h-238v661h-215zM897 584v874h240l239 -430l240 430h239v-874h-239v448l-137 -268h-205l-137 268v-448h-240z" />
<glyph unicode="&#x2206;" horiz-adv-x="1337" d="M0 0l530 1458h277l530 -1458h-1337zM475 299h393l-190 606z" />
<glyph unicode="&#x221a;" horiz-adv-x="1261" d="M82 492q0 12 11 21t42 9h207q33 0 55.5 -8t30.5 -37l55 -190l248 1128q4 16 23.5 29.5t54.5 13.5h342q29 0 39 -16.5t10 -40.5v-191q0 -41 -10 -56t-33 -15h-149l-369 -1463q-8 -33 -59 -32h-164q-51 0 -60 26l-272 807q0 4 -1 7t-1 8z" />
<glyph unicode="&#x221e;" horiz-adv-x="1794" d="M96 604q0 96 30 174t85 133.5t133 85t172 29.5q123 0 210 -48t171 -132q84 84 171 132t210 48q96 0 173 -29.5t132 -85t85 -133.5t30 -174t-30 -174t-85 -133t-132 -85t-173 -30q-123 0 -210 48.5t-171 131.5q-84 -84 -171 -132t-210 -48q-96 0 -174 30t-132 85t-84 133 t-30 174zM424 594q0 -45 27.5 -72.5t68.5 -27.5q35 0 65 20.5t79 79.5q-49 59 -79 79.5t-65 20.5q-41 0 -68.5 -27.5t-27.5 -72.5zM1130 594q49 -59 79 -79.5t65 -20.5q41 0 68.5 27.5t27.5 72.5q0 43 -27.5 71.5t-68.5 28.5q-35 0 -64.5 -20.5t-79.5 -79.5z" />
<glyph unicode="&#x2248;" d="M-20 365q0 12 18 31.5t43 41t49.5 39t36.5 25.5q102 63 231 63q78 0 128.5 -16.5t115.5 -52.5q53 -29 89 -40.5t83 -11.5q53 0 86 14.5t68 47.5q14 10 28 10q18 0 39 -20l146 -142q18 -19 18 -35q0 -12 -18.5 -31.5t-43 -41t-49 -39t-36.5 -25.5q-53 -35 -108.5 -49 t-123.5 -14q-76 0 -127 16.5t-116 52.5q-51 29 -89 40.5t-83 11.5q-53 0 -86 -14.5t-68 -47.5q-14 -10 -29 -10q-18 0 -39 20l-145 142q-18 18 -18 35zM-20 885q0 12 18 31.5t43 41t49.5 39t36.5 25.5q102 63 231 63q78 0 128.5 -16t115.5 -53q53 -29 89 -40t83 -11 q53 0 86 14t68 47q14 10 28 10q18 0 39 -20l146 -142q18 -18 18 -34q0 -12 -18.5 -32t-43 -41.5t-49 -38.5t-36.5 -26q-53 -35 -108.5 -49t-123.5 -14q-76 0 -127 16.5t-116 53.5q-51 29 -89 40t-83 11q-53 0 -86 -14.5t-68 -47.5q-14 -10 -29 -10q-18 0 -39 21l-145 141 q-18 18 -18 35z" />
<glyph unicode="&#x2260;" d="M100 258v193q0 61 52 61h223l104 184h-327q-51 0 -52 62v192q0 61 52 62h501l129 229q10 18 29.5 17t36.5 -11l125 -71q18 -10 29.5 -22.5t1.5 -35.5l-60 -106h43q51 0 51 -62v-192q0 -61 -51 -62h-219l-104 -184h323q51 0 51 -61v-193q0 -61 -51 -61h-500l-125 -226 q-10 -18 -29.5 -17t-35.5 11l-125 72q-18 10 -29.5 22.5t-1.5 34.5l58 103h-47q-51 0 -52 61z" />
<glyph unicode="&#x2264;" d="M61 8v189q0 61 52 61h911q51 0 51 -61v-189q0 -61 -51 -61h-911q-51 0 -52 61zM61 715v149q0 35 8.5 63.5t43.5 39.5l872 247q16 4 28.5 8.5t22.5 4.5q23 0 31 -15.5t8 -37.5v-170q0 -39 -14 -62.5t-49 -32.5l-514 -110l514 -125q35 -10 49 -33t14 -61v-172 q0 -23 -8 -38.5t-31 -15.5q-10 0 -22.5 4t-28.5 9l-872 264q-33 10 -42.5 29.5t-9.5 54.5z" />
<glyph unicode="&#x2265;" d="M61 8v189q0 61 52 61h911q51 0 51 -61v-189q0 -61 -51 -61h-911q-51 0 -52 61zM61 408v172q0 39 14.5 61.5t49.5 32.5l514 125l-514 110q-35 8 -49.5 32t-14.5 63v170q0 23 8.5 38t30.5 15q10 0 22.5 -4t29.5 -9l872 -247q35 -10 43 -39t8 -64v-149q0 -35 -9 -54.5 t-42 -29.5l-872 -264q-16 -4 -28.5 -8.5t-23.5 -4.5q-23 0 -31 15.5t-8 38.5z" />
<glyph unicode="&#x25fc;" horiz-adv-x="1105" d="M0 0v1106h1106v-1106h-1106z" />
</font>
</defs>
</svg>
