<?xml version="1.0" standalone="no"?>
<!DOCTYPE svg PUBLIC "-//W3C//DTD SVG 1.1//EN" "http://www.w3.org/Graphics/SVG/1.1/DTD/svg11.dtd" >
<svg xmlns="http://www.w3.org/2000/svg">
<metadata></metadata>
<defs>
<font id="pf_dindisplay_proregular" horiz-adv-x="3723" >
<font-face units-per-em="2048" ascent="1536" descent="-512" />
<missing-glyph horiz-adv-x="491" />
<glyph unicode="fj" horiz-adv-x="978" d="M53 858v158h125v180q0 135 78 200.5t188 65.5h152v-155h-135q-66 0 -87.5 -39t-21.5 -92v-160h506v-1122q0 -170 -78 -241t-219 -71h-100v160h80q82 0 112.5 36t30.5 140v940h-332v-858h-174v858h-125zM668 1317q0 43 29.5 72.5t72.5 29.5t72.5 -29.5t29.5 -72.5 t-29.5 -74t-72.5 -31t-72.5 31t-29.5 74z" />
<glyph unicode="ffj" horiz-adv-x="1482" d="M53 858v158h125v139q0 135 78 200.5t188 65.5h142v-155h-125q-66 0 -87.5 -39t-21.5 -92v-119h330v180q0 135 78 200.5t188 65.5h152v-155h-135q-66 0 -87.5 -39t-21.5 -92v-160h506v-1122q0 -170 -78 -241t-219 -71h-100v160h79q82 0 113 36t31 140v940h-332v-858h-174 v858h-330v-858h-174v858h-125zM1171 1317q0 43 30 72.5t73 29.5t72.5 -29.5t29.5 -72.5t-29.5 -74t-72.5 -31t-73 31t-30 74z" />
<glyph unicode="ff" horiz-adv-x="1126" d="M53 858v158h125v143q0 135 78 200.5t188 65.5h183v-155h-166q-66 0 -87.5 -39t-21.5 -92v-123h332v184q0 135 78 200.5t188 65.5h183v-155h-166q-66 0 -87.5 -39t-21.5 -92v-164h275v-158h-275v-858h-174v858h-332v-858h-174v858h-125z" />
<glyph unicode="fi" horiz-adv-x="978" d="M53 858v158h125v180q0 135 78 200.5t188 65.5h152v-155h-135q-66 0 -87.5 -39t-21.5 -92v-160h506v-1016h-174v858h-332v-858h-174v858h-125zM668 1317q0 43 29.5 72.5t72.5 29.5t72.5 -29.5t29.5 -72.5t-29.5 -74t-72.5 -31t-72.5 31t-29.5 74z" />
<glyph unicode="fl" horiz-adv-x="1079" d="M53 858v158h125v164q0 96 30 159.5t79 100.5t113.5 52t134.5 15q41 0 118.5 -6t202.5 -37v-1194q0 -80 36 -99t120 -15l4 -160q-29 -4 -54.5 -6t-48.5 -2q-72 0 -115.5 17.5t-70.5 51t-36 81.5t-9 110v1081q-37 10 -73 15.5t-85 5.5q-172 0 -172 -166v-168h219v-158h-219 v-858h-174v858h-125z" />
<glyph unicode="ffi" horiz-adv-x="1482" d="M53 858v158h125v139q0 135 78 200.5t188 65.5h142v-155h-125q-66 0 -87.5 -39t-21.5 -92v-119h330v180q0 135 78 200.5t188 65.5h152v-155h-135q-66 0 -87.5 -39t-21.5 -92v-160h506v-1016h-174v858h-332v-858h-174v858h-330v-858h-174v858h-125zM1171 1317q0 43 30 72.5 t73 29.5t72.5 -29.5t29.5 -72.5t-29.5 -74t-72.5 -31t-73 31t-30 74z" />
<glyph unicode="ffl" horiz-adv-x="1581" d="M53 858v158h125v164q0 135 78 200.5t188 65.5h154v-156h-137q-66 0 -87.5 -39t-21.5 -92v-143h328v164q0 96 29.5 159.5t79 100.5t114 52t133.5 15q41 0 119 -6t203 -37v-1194q0 -80 36 -99t119 -15l5 -160q-29 -4 -54.5 -6t-48.5 -2q-72 0 -116 17.5t-70.5 51 t-35.5 81.5t-9 110v1081q-37 10 -73 15.5t-85 5.5q-172 0 -172 -166v-168h219v-158h-219v-858h-174v858h-328v-858h-174v858h-125z" />
<glyph unicode="ft" horiz-adv-x="1222" d="M53 858v158h125v184q0 135 78 200.5t188 65.5h142v-155h-125q-66 0 -87.5 -39t-21.5 -92v-164h338l41 235h129v-235h283v-158h-283v-496q0 -61 11.5 -101t31 -63.5t48 -31.5t65.5 -8q35 0 77 5t89 11l28 -149q-59 -20 -123.5 -27.5t-95.5 -7.5q-162 0 -233.5 73.5 t-71.5 245.5v549h-334v-858h-174v858h-125z" />
<glyph unicode=" "  horiz-adv-x="491" />
<glyph unicode="&#x09;" horiz-adv-x="491" />
<glyph unicode="&#xa0;" horiz-adv-x="491" />
<glyph unicode="!" horiz-adv-x="485" d="M123 113q0 43 29.5 79.5t87.5 36.5q59 0 92 -36.5t33 -79.5q0 -51 -33 -87t-92 -36q-57 0 -87 35t-30 88zM152 1425h182l-15 -1038h-153z" />
<glyph unicode="&#x22;" horiz-adv-x="626" d="M115 1042v383h141v-383h-141zM365 1042v383h141v-383h-141z" />
<glyph unicode="#" horiz-adv-x="1077" d="M51 436v133h203l41 293h-186v131h204l62 430h141l-57 -430h231l60 430h143l-59 -430h192v-131h-211l-39 -293h193v-133h-211l-60 -436h-149l61 436h-227l-59 -436h-152l64 436h-185zM401 569h228l41 293h-230z" />
<glyph unicode="$" horiz-adv-x="1024" d="M53 166l99 133q84 -63 179 -100t193 -37q137 0 206 60.5t69 168.5q0 70 -29 112t-74 66.5t-99 38t-105 23.5q-76 16 -148 42.5t-128 72t-90 111t-34 161.5q0 80 27.5 148.5t77 119.5t116 84t144.5 41v170h123l-5 -168q92 -4 181.5 -29.5t175.5 -78.5l-80 -152 q-78 47 -160 72.5t-168 25.5q-49 0 -96 -15t-82 -45t-56.5 -74t-21.5 -103q0 -57 28 -94t71 -61.5t93 -39t93 -24.5q80 -20 154.5 -44t134 -67t95.5 -112.5t36 -180.5q0 -174 -108.5 -276.5t-289.5 -116.5h5v-199h-123v199q-111 8 -211.5 48t-192.5 120z" />
<glyph unicode="%" horiz-adv-x="1638" d="M98 791v391q0 55 23.5 99t63.5 74.5t92.5 47t111.5 16.5q57 0 110.5 -16.5t93.5 -47t63.5 -74.5t23.5 -99v-391q0 -55 -23.5 -99.5t-63.5 -75t-92 -47t-112 -16.5q-61 0 -114.5 16.5t-92.5 47t-61.5 74.5t-22.5 100zM248 807q0 -35 13 -58.5t34.5 -38t46.5 -20.5t47 -6 q23 0 48.5 6t47 20.5t36 38t14.5 58.5v354q0 35 -14.5 58.5t-36 39t-47 21.5t-48.5 6t-47.5 -6t-46 -21.5t-34.5 -39t-13 -58.5v-354zM317 -35l871 1495h137l-872 -1495h-136zM956 229v392q0 55 24 99t63.5 74.5t92 47t111.5 16.5q57 0 110.5 -16.5t93.5 -47t63.5 -74.5 t23.5 -99v-392q0 -55 -23.5 -99t-63.5 -74.5t-92 -47t-112 -16.5q-61 0 -114.5 16.5t-92.5 47t-61.5 74.5t-22.5 99zM1106 246q0 -35 13.5 -58.5t35 -38t46 -20.5t46.5 -6q23 0 48.5 6t47 20.5t36 38t14.5 58.5v354q0 35 -14.5 58.5t-36 39t-47 21.5t-48.5 6t-47 -6 t-45.5 -21.5t-35 -39t-13.5 -58.5v-354z" />
<glyph unicode="&#x26;" horiz-adv-x="1701" d="M96 1018q0 123 49.5 237.5t141.5 201.5t223 139.5t293 52.5q182 0 321.5 -61.5t232.5 -168t141 -248t48 -301.5q0 -193 -76.5 -355.5t-199.5 -283.5q74 -70 150.5 -123t162.5 -88l-70 -129q-92 41 -190 108t-172 138q-90 -70 -206 -110.5t-228 -40.5q-92 0 -173 25.5 t-141.5 76.5t-95.5 127t-35 176q0 145 93.5 253t240.5 192q-55 78 -79.5 139t-24.5 127q0 63 19.5 119.5t56 96.5t91 63.5t124.5 23.5q66 0 121 -21.5t95 -59.5t62.5 -88t22.5 -108q0 -119 -73 -198.5t-192 -151.5q72 -104 159 -220t183 -226q104 104 168 240.5t64 295.5 q0 129 -38 246t-113.5 205t-186.5 140t-254 52q-131 0 -236.5 -38.5t-180.5 -105.5t-114.5 -154t-39.5 -185q0 -70 20.5 -140.5t65.5 -139.5l-123 -72q-55 82 -81 169t-26 173zM424 395q0 -68 21.5 -119t59.5 -84.5t88 -51t107 -17.5q86 0 176.5 29t178.5 88 q-51 55 -102.5 116.5t-97.5 123t-88 120.5t-75 111q-55 -31 -104 -64t-85 -71.5t-57.5 -82.5t-21.5 -98zM662 1112q0 -49 23.5 -97t64.5 -108q82 45 136 94t54 127q0 59 -44 98.5t-103 39.5q-37 0 -61.5 -14.5t-40 -38t-22.5 -50t-7 -51.5z" />
<glyph unicode="'" horiz-adv-x="526" d="M199 1042v383h141v-383h-141z" />
<glyph unicode="(" horiz-adv-x="593" d="M104 625q0 131 31 252.5t83 232.5t120 207t143 178l94 -57q-66 -84 -117.5 -181.5t-89.5 -202t-58.5 -211t-20.5 -208.5q0 -111 21.5 -221.5t59.5 -215t90 -200.5t113 -178l-86 -66q-76 82 -144.5 180.5t-121.5 209t-85 231.5t-32 250z" />
<glyph unicode=")" horiz-adv-x="593" d="M41 -180q61 82 113.5 178t90.5 200.5t59.5 215t21.5 221.5q0 102 -20.5 208.5t-57.5 211t-90.5 202t-116.5 181.5l92 57q76 -82 144.5 -178t121 -207t83 -232.5t30.5 -252.5q0 -129 -31.5 -250t-85 -231.5t-123 -209t-145.5 -180.5z" />
<glyph unicode="*" horiz-adv-x="739" d="M57 1151l39 133l228 -96l-21 246h139l-20 -246q55 23 113.5 47.5t113.5 48.5l39 -135l-233 -59l159 -185q-29 -23 -56.5 -44t-57.5 -44l-127 213l-129 -215q-29 23 -57.5 44.5t-57.5 43.5l160 187q-57 14 -115.5 30.5t-116.5 30.5z" />
<glyph unicode="+" horiz-adv-x="1024" d="M59 537v131h387v389h132v-389h385v-131h-385v-394h-132v394h-387z" />
<glyph unicode="," horiz-adv-x="512" d="M117 -193q47 35 75.5 77t32.5 104q-43 4 -68.5 37.5t-25.5 80.5q0 45 33 82t90 37q39 0 65.5 -15t43 -39t23.5 -53.5t7 -56.5q0 -57 -18.5 -109t-48 -95t-68.5 -77t-80 -52z" />
<glyph unicode="-" horiz-adv-x="802" d="M106 471v154h590v-154h-590z" />
<glyph unicode="." horiz-adv-x="448" d="M109 113q0 43 29.5 79.5t86.5 36.5q59 0 92 -36.5t33 -79.5q0 -51 -32.5 -87t-92.5 -36q-57 0 -86.5 35t-29.5 88z" />
<glyph unicode="/" horiz-adv-x="649" d="M-2 -86l514 1571h133l-514 -1571h-133z" />
<glyph unicode="0" horiz-adv-x="1024" d="M82 352v705q0 86 38 154.5t99.5 116.5t138 72.5t154.5 24.5t154.5 -24.5t138 -72.5t99.5 -116.5t38 -154.5v-705q0 -86 -38 -153.5t-99.5 -113.5t-138 -70.5t-154.5 -24.5q-80 0 -156.5 24.5t-137 70.5t-98.5 113.5t-38 153.5zM262 397q0 -68 23.5 -113.5t60.5 -75.5 t81 -42t85 -12t85 12t81 42t61.5 76t24.5 113v615q0 68 -24.5 115t-61.5 76.5t-81 41.5t-85 12t-85 -12t-81 -41.5t-60.5 -77t-23.5 -114.5v-615z" />
<glyph unicode="1" horiz-adv-x="1024" d="M195 1165l297 246h165v-1411h-176v1194l-192 -158z" />
<glyph unicode="2" horiz-adv-x="1024" d="M86 0v166q0 86 28.5 159.5t78 137t113 118t132.5 101.5q59 37 115.5 80t101.5 89t72 95t27 101q0 55 -23.5 95t-62.5 65.5t-87.5 37.5t-97.5 12q-86 0 -159.5 -29.5t-128.5 -76.5l-93 133q70 59 166.5 100t214.5 41q86 0 168 -20.5t145.5 -64.5t102.5 -114.5t39 -170.5 q0 -78 -38 -149.5t-94 -134t-120.5 -114t-120.5 -88.5q-39 -27 -89 -63.5t-96 -81.5t-78 -98.5t-32 -114.5v-53h664v-158h-848z" />
<glyph unicode="3" horiz-adv-x="1024" d="M23 127l94 139q59 -53 142 -83.5t159 -30.5q131 0 210 64.5t79 180.5q0 117 -63.5 188.5t-166.5 71.5h-160v158h164q39 0 79 14.5t72 44t51 74.5t19 107q0 55 -22.5 94t-60 63.5t-85 34.5t-96.5 10q-76 0 -154.5 -32.5t-133.5 -79.5l-97 135q66 57 173.5 100t236.5 43 q76 0 150.5 -18.5t135 -60t97.5 -111.5t37 -170q0 -104 -50.5 -191.5t-148.5 -123.5q49 -20 87 -56.5t63.5 -81.5t39 -96t13.5 -100q0 -106 -38 -186.5t-100.5 -134.5t-145.5 -80.5t-175 -26.5q-129 0 -234.5 42t-170.5 99z" />
<glyph unicode="4" horiz-adv-x="1024" d="M53 217v152q117 258 235 520t234 522h189l-459 -1034h416v422h180v-422h121v-160h-121v-217h-180v217h-615z" />
<glyph unicode="5" horiz-adv-x="1024" d="M96 133l103 141q129 -119 284 -118q29 0 74 9t88 34.5t74 70.5t31 117v182q0 102 -51.5 151.5t-133.5 49.5q-33 0 -73.5 -12.5t-81.5 -29.5t-77 -38.5t-59 -40.5l-165 66v696h778v-166h-596v-401q78 53 155.5 79.5t137.5 26.5q80 0 143.5 -25.5t107.5 -73.5t68.5 -114.5 t24.5 -146.5v-228q0 -86 -36 -154.5t-96.5 -117.5t-140.5 -74.5t-168 -25.5q-133 0 -228 42t-163 101z" />
<glyph unicode="6" horiz-adv-x="1024" d="M90 358v693q0 88 35 157.5t93 117.5t137 73.5t165 25.5q133 0 226.5 -42t160.5 -101l-102 -143q-63 57 -132 86.5t-149 29.5q-39 0 -83 -12t-81.5 -40.5t-63.5 -75t-26 -113.5v-232q98 63 181.5 89t144.5 26q78 0 140.5 -26.5t106.5 -74.5t67.5 -115t23.5 -146v-168 q0 -88 -35 -158t-93 -119t-135 -74.5t-161 -25.5q-90 0 -166 24.5t-133 71.5t-89 115.5t-32 156.5zM270 397q0 -66 22.5 -111.5t57.5 -74.5t77 -42t83 -13q39 0 83 13t79 43t58.5 75t23.5 110v121q0 106 -52.5 155.5t-130.5 49.5q-72 0 -144.5 -30.5t-156.5 -86.5v-209z" />
<glyph unicode="7" horiz-adv-x="1024" d="M92 1036v375h840v-158l-516 -1253h-193l508 1247h-469v-211h-170z" />
<glyph unicode="8" horiz-adv-x="1024" d="M63 387q0 53 16.5 104.5t44.5 95.5t65.5 78.5t80.5 53.5q-86 33 -131 117t-45 188q0 98 36 173t95.5 125t133 75.5t151.5 25.5t152.5 -24.5t134 -75.5t95.5 -126t36 -175q0 -98 -43 -181t-127 -122q53 -23 91 -57.5t61.5 -77.5t34.5 -91.5t11 -93.5q0 -106 -38.5 -184 t-102 -128t-144.5 -74.5t-163 -24.5q-90 0 -171 24.5t-141.5 73.5t-96.5 124t-36 177zM252 391q0 -113 68.5 -174t191.5 -61q119 0 188.5 61.5t69.5 177.5q0 53 -20.5 96.5t-55.5 74t-82 47t-100 16.5t-100 -16.5t-82 -47t-56.5 -75t-21.5 -99.5zM270 1024q0 -53 20.5 -96 t54.5 -73t77 -46t90 -16q45 0 89 16t77 47t53.5 74t20.5 96q0 55 -19.5 98t-52.5 72t-77 43t-91 14q-45 0 -89 -14t-78 -43t-54.5 -72t-20.5 -100z" />
<glyph unicode="9" horiz-adv-x="1024" d="M72 889v158q0 88 34.5 158.5t93 119.5t135.5 74.5t161 25.5q82 0 157.5 -24.5t134 -71.5t93 -115.5t34.5 -156.5v-695q0 -88 -34.5 -157.5t-93 -116.5t-137.5 -72.5t-165 -25.5q-135 0 -227 42t-160 101l103 143q63 -57 131.5 -86.5t146.5 -29.5q39 0 83 12t82 41 t63.5 75t25.5 113v238q-100 -59 -181 -86t-142 -27q-158 0 -248 94.5t-90 268.5zM250 905q0 -109 53 -157t131 -48q72 0 144.5 32t154.5 83v203q0 66 -21.5 111t-56 73.5t-76.5 41.5t-83 13t-84 -13t-79 -41.5t-59.5 -75t-23.5 -109.5v-113z" />
<glyph unicode=":" horiz-adv-x="512" d="M133 113q0 43 30 79.5t87 36.5q59 0 92 -36.5t33 -79.5q0 -51 -33 -87t-92 -36q-57 0 -87 35t-30 88zM133 733q0 43 30 80t87 37q59 0 92 -37t33 -80q0 -51 -33 -87t-92 -36q-57 0 -87 35t-30 88z" />
<glyph unicode=";" horiz-adv-x="512" d="M109 -193q47 35 75.5 77t32.5 104q-43 4 -68.5 37.5t-25.5 80.5q0 45 32.5 82t90.5 37q39 0 65.5 -15t43 -39t23.5 -53.5t7 -56.5q0 -57 -18.5 -109t-48 -95t-68.5 -77t-80 -52zM133 733q0 43 30 80t87 37q59 0 92 -37t33 -80q0 -51 -33 -87t-92 -36q-57 0 -87 35t-30 88 z" />
<glyph unicode="&#x3c;" horiz-adv-x="1024" d="M94 543v123l834 415v-145l-668 -332l668 -330v-145z" />
<glyph unicode="=" horiz-adv-x="1024" d="M59 338v137h904v-137h-904zM59 731v137h904v-137h-904z" />
<glyph unicode="&#x3e;" horiz-adv-x="1024" d="M94 129v145l668 330l-668 332v145l834 -415v-123z" />
<glyph unicode="?" horiz-adv-x="940" d="M59 1309q90 68 184.5 96.5t200.5 28.5q82 0 153 -28t124 -75t84 -113.5t31 -142.5q0 -88 -44 -164.5t-98.5 -149.5t-98.5 -141.5t-44 -138.5v-92h-176v86q0 72 19.5 128t48 102.5t62.5 87.5t62.5 81.5t48 85t19.5 99.5q0 86 -58.5 144.5t-150.5 58.5q-78 0 -150.5 -26 t-125.5 -71zM350 113q0 43 30 79.5t87 36.5q59 0 92 -36.5t33 -79.5q0 -51 -33 -87t-92 -36q-57 0 -87 35t-30 88z" />
<glyph unicode="@" horiz-adv-x="1703" d="M94 721q0 164 65.5 303t176 240.5t259 159t314.5 57.5q174 0 310.5 -57.5t230.5 -156t144.5 -229.5t50.5 -278q0 -109 -32 -191t-80 -135t-107.5 -79.5t-114.5 -26.5q-92 0 -150.5 29.5t-89.5 76.5q-66 -35 -139.5 -65.5t-151.5 -30.5q-115 0 -183.5 65.5t-68.5 178.5 q0 68 30 112.5t74 73.5t93 41t90 12h225v47q0 88 -54 121t-136 33q-39 0 -90 -12.5t-113 -61.5l-76 103q78 61 147.5 82.5t135.5 21.5q154 0 241 -71.5t87 -215.5v-307q0 -59 32.5 -83.5t92.5 -24.5q37 0 73.5 18t66.5 57t48 97.5t18 136.5q0 123 -41.5 231.5t-120.5 189.5 t-190.5 127t-251.5 46q-139 0 -264 -49.5t-218 -134.5t-147.5 -200.5t-54.5 -248.5q0 -135 48.5 -250t133.5 -199t201.5 -131t255.5 -47q59 0 119.5 11.5t142.5 44.5l45 -125q-98 -39 -175.5 -48.5t-131.5 -9.5q-166 0 -307 56.5t-244.5 156t-161 237.5t-57.5 302zM674 582 q0 -55 37 -84t96 -29q31 0 62.5 8t62.5 21.5t58.5 29t49.5 27.5v143h-202q-25 0 -53.5 -3t-53 -15t-41 -35.5t-16.5 -62.5z" />
<glyph unicode="A" horiz-adv-x="1222" d="M27 0l491 1411h191l493 -1411h-198l-111 317h-561l-109 -317h-196zM393 489h441l-113 336l-105 328h-8l-102 -328z" />
<glyph unicode="B" horiz-adv-x="1214" d="M117 0v1411h585q96 0 171 -30.5t126.5 -82t78 -119t26.5 -141.5q0 -84 -39 -164.5t-135 -134.5q102 -53 149 -143t47 -182q0 -76 -25.5 -150t-75.5 -132t-126 -95t-174 -37h-608zM307 170h381q125 0 188.5 63.5t63.5 180.5q0 57 -21.5 101t-57.5 75t-82 47t-95 16h-377 v-483zM307 823h375q47 0 90 13.5t75 40t51.5 66.5t19.5 91q0 111 -71 158t-181 47h-359v-416z" />
<glyph unicode="C" horiz-adv-x="1079" d="M111 449v516q0 106 42 191t111.5 145.5t162 92t194.5 31.5q115 0 215 -30.5t180 -96.5l-94 -147q-55 47 -138.5 73.5t-162.5 26.5q-59 0 -117 -18.5t-103 -57t-72.5 -100t-27.5 -149.5v-441q0 -86 28.5 -148.5t74 -101t101.5 -57t111 -18.5q80 0 163 22.5t149 75.5 l90 -145q-66 -53 -170.5 -90t-226.5 -37q-102 0 -195.5 31.5t-163 91t-110.5 145.5t-41 195z" />
<glyph unicode="D" horiz-adv-x="1239" d="M119 0v1411h530q100 0 188.5 -31.5t154 -91t102 -145.5t36.5 -193v-491q0 -102 -37.5 -187.5t-103 -145.5t-153.5 -93t-189 -33h-528zM307 168h297q57 0 117.5 16.5t108 55.5t78 99t30.5 150v429q0 88 -28.5 149t-76 100t-107.5 55.5t-122 16.5h-297v-1071z" />
<glyph unicode="E" horiz-adv-x="1140" d="M125 0v1411h942v-172h-754v-448h645v-170h-645v-451h754v-170h-942z" />
<glyph unicode="F" horiz-adv-x="1095" d="M125 0v1411h942v-172h-754v-446h645v-172h-645v-621h-188z" />
<glyph unicode="G" horiz-adv-x="1187" d="M111 449v516q0 106 43 191t116.5 145.5t171 92t205.5 31.5q117 0 216.5 -30.5t178.5 -96.5l-94 -147q-55 47 -138 73.5t-163 26.5q-66 0 -127 -18.5t-110.5 -57t-79 -100t-29.5 -149.5v-441q0 -86 27.5 -148.5t74 -101t105.5 -57t123 -18.5q47 0 120.5 13t149.5 71v329 h-225v170h411v-573q-43 -49 -98 -85t-115.5 -57.5t-123 -31.5t-119.5 -10q-102 0 -196.5 31.5t-166 91t-114.5 145.5t-43 195z" />
<glyph unicode="H" horiz-adv-x="1263" d="M111 0v1411h188v-610h662v610h192v-1411h-192v629h-662v-629h-188z" />
<glyph unicode="I" horiz-adv-x="516" d="M164 0v1411h188v-1411h-188z" />
<glyph unicode="J" horiz-adv-x="1067" d="M31 92l88 152q72 -45 138.5 -64.5t129.5 -19.5q72 0 132.5 18.5t103.5 58t66.5 103t23.5 156.5v915h188v-956q0 -109 -38 -196t-104.5 -147.5t-154.5 -93t-186 -32.5q-96 0 -204 26.5t-183 79.5z" />
<glyph unicode="K" horiz-adv-x="1171" d="M117 0v1411h188v-733h14l599 733h227l-455 -557l502 -854h-221l-408 698l-258 -307v-391h-188z" />
<glyph unicode="L" horiz-adv-x="1095" d="M135 0v1411h189v-1241h753v-170h-942z" />
<glyph unicode="M" horiz-adv-x="1519" d="M119 0v1411h180l285 -575l178 -375h12l174 375l281 575h174v-1411h-189v961h-10l-129 -273l-237 -479h-142l-225 440l-154 312h-10v-961h-188z" />
<glyph unicode="N" horiz-adv-x="1320" d="M121 0v1411h178l510 -764l188 -293h15v1057h188v-1411h-182l-494 737l-200 310h-15v-1047h-188z" />
<glyph unicode="O" horiz-adv-x="1255" d="M106 461v487q0 106 38 194.5t106.5 151t165 97t211.5 34.5q113 0 209 -34.5t165.5 -97t108.5 -150.5t39 -195v-487q0 -109 -40 -197t-110.5 -149.5t-166 -95t-205.5 -33.5q-115 0 -211.5 33.5t-165 95t-106.5 149.5t-38 197zM297 483q0 -86 26.5 -147.5t71.5 -100 t105.5 -57t126.5 -18.5q68 0 127 18.5t105 57t72.5 100t26.5 147.5v443q0 86 -26.5 147.5t-71.5 101t-105.5 58t-127.5 18.5q-68 0 -128.5 -18.5t-104.5 -58t-70.5 -101t-26.5 -147.5v-443z" />
<glyph unicode="P" horiz-adv-x="1134" d="M111 0v1411h585q102 0 177 -38t124.5 -98.5t74 -135t24.5 -150.5t-28 -150.5t-79 -135t-124.5 -98.5t-168.5 -38h-397v-567h-188zM299 741h358q111 0 181.5 65.5t70.5 182.5q0 115 -70.5 182.5t-181.5 67.5h-358v-498z" />
<glyph unicode="Q" horiz-adv-x="1286" d="M117 461v487q0 106 38 194.5t106.5 151t164.5 97t211 34.5q113 0 209 -34.5t165.5 -97t108.5 -150.5t39 -195v-487q0 -98 -32.5 -180t-92 -142.5t-140.5 -98.5t-175 -48v-39q0 -53 10 -87t32.5 -51.5t59.5 -22.5q21 -3 46 -3q20 0 44 2v-149q-45 -5 -84 -5 q-125 0 -192 56q-88 74 -88 203v96q-96 12 -176 50t-136.5 98.5t-87 141t-30.5 179.5zM307 483q0 -86 26.5 -147.5t72 -100t105.5 -57t126 -18.5q68 0 127 18.5t105 57t73 100t27 147.5v443q0 86 -27 147.5t-72 101t-105 58t-128 18.5t-128 -18.5t-104.5 -58t-71 -101 t-26.5 -147.5v-443z" />
<glyph unicode="R" horiz-adv-x="1171" d="M117 0v1411h585q106 0 182.5 -38t125.5 -98.5t71.5 -135t22.5 -150.5q0 -59 -16.5 -117.5t-49 -109.5t-79 -93t-105.5 -67l264 -602h-209l-239 567h-365v-567h-188zM305 741h359q111 0 181 65.5t70 182.5q0 115 -70.5 182.5t-180.5 67.5h-359v-498z" />
<glyph unicode="S" horiz-adv-x="1138" d="M53 162l107 135q94 -66 199.5 -102.5t215.5 -36.5q143 0 225.5 61.5t82.5 171.5q0 70 -32 114t-82 70.5t-110.5 41t-117.5 26.5q-84 16 -162 42t-137.5 71t-96 111.5t-36.5 164.5q0 88 31.5 163t91 128t143.5 84t190 31q123 0 240 -22.5t223 -88.5l-88 -160 q-90 53 -187.5 76t-189.5 23q-55 0 -104 -14.5t-86 -44t-58.5 -75t-21.5 -104.5t30.5 -96t78 -60.5t102.5 -38t104 -24.5q88 -20 172 -46t149.5 -71t105.5 -116.5t40 -184.5q0 -94 -35.5 -169t-102.5 -127t-159 -79.5t-205 -27.5q-145 0 -273 41t-247 133z" />
<glyph unicode="T" horiz-adv-x="1069" d="M33 1237v174h1003v-174h-405v-1237h-191v1237h-407z" />
<glyph unicode="U" horiz-adv-x="1249" d="M106 446v965h191v-930q0 -86 26.5 -147.5t71.5 -100t105.5 -57t126.5 -18.5q63 0 123.5 18.5t106.5 57t73.5 100t27.5 147.5v930h191v-965q0 -109 -42 -194.5t-113.5 -145t-166 -90t-200.5 -30.5t-201.5 30.5t-166.5 90t-112 145.5t-41 194z" />
<glyph unicode="V" horiz-adv-x="1157" d="M20 1411h207l207 -661l137 -459h13l143 483l201 637h207l-455 -1411h-205z" />
<glyph unicode="W" horiz-adv-x="1765" d="M20 1411h205l160 -649l111 -467h10l112 469l164 647h199l168 -668l108 -448h11l106 455l164 661h205l-373 -1411h-213l-166 639l-102 434h-12l-107 -442l-164 -631h-213z" />
<glyph unicode="X" horiz-adv-x="1126" d="M18 0l439 723l-410 688h219l297 -532l299 532h219l-409 -688l438 -723h-219l-328 569l-325 -569h-220z" />
<glyph unicode="Y" horiz-adv-x="1099" d="M25 1411h206l164 -336l148 -330h14l152 340l159 326h205l-428 -868v-543h-190v541z" />
<glyph unicode="Z" horiz-adv-x="1071" d="M76 0v166l696 1073h-668v172h895v-162l-704 -1079h702v-170h-921z" />
<glyph unicode="[" horiz-adv-x="534" d="M150 -215v1645h346v-115h-193v-1415h193v-115h-346z" />
<glyph unicode="\" horiz-adv-x="649" d="M-2 1485h133l514 -1571h-133z" />
<glyph unicode="]" horiz-adv-x="534" d="M55 -100h191v1415h-191v115h344v-1645h-344v115z" />
<glyph unicode="^" horiz-adv-x="1024" d="M47 672l414 751h123l415 -751h-145l-332 604l-329 -604h-146z" />
<glyph unicode="_" horiz-adv-x="1024" d="M0 -141h1024v-123h-1024v123z" />
<glyph unicode="`" horiz-adv-x="1005" d="M397 1481l166 51l148 -363l-109 -41z" />
<glyph unicode="a" horiz-adv-x="1015" d="M78 297q0 84 38 141.5t94 93t120.5 51t115.5 15.5h297v78q0 106 -59 148t-170 42q-53 0 -130 -15t-155 -79l-86 133q98 76 198.5 98.5t186.5 22.5q199 0 294.5 -87t95.5 -267v-672h-154l-21 94l-6 4q-121 -68 -197.5 -87t-138.5 -19q-147 0 -235 82t-88 223zM258 297 q0 -74 50 -110.5t128 -36.5q39 0 81 11t82 27.5t77 36t67 35.5v193h-268q-33 0 -70.5 -5.5t-70.5 -20.5t-54.5 -47t-21.5 -83z" />
<glyph unicode="b" horiz-adv-x="1026" d="M92 0v1466h176v-557q127 72 201 94.5t127 22.5q166 0 250 -94t84 -268v-312q0 -174 -95.5 -268t-246.5 -94q-53 0 -129 18.5t-191 87.5l-20 -96h-156zM268 266q33 -23 74 -43t83 -34.5t81 -22.5t67 -8q80 0 130.5 49t50.5 166v268q0 119 -49.5 166t-131.5 47 q-63 0 -144 -37t-161 -88v-463z" />
<glyph unicode="c" horiz-adv-x="878" d="M96 350v301q0 86 33 156t88 119t128 74.5t153 25.5q88 0 179 -23.5t163 -101.5l-105 -133q-68 63 -126 78.5t-103 15.5q-39 0 -81 -12t-76 -41t-55.5 -75t-21.5 -111v-230q0 -66 20.5 -111.5t53.5 -74.5t75 -41t85 -12q45 0 109.5 18t111.5 66l109 -123 q-72 -72 -159 -98.5t-175 -26.5q-90 0 -164 26.5t-128 73.5t-84 113.5t-30 146.5z" />
<glyph unicode="d" horiz-adv-x="1026" d="M96 352v312q0 86 28 153.5t76 113.5t113.5 70.5t139.5 24.5q55 0 129.5 -12.5t175.5 -44.5v497h174v-1466h-154l-20 106q-121 -72 -193.5 -94t-128.5 -22q-74 0 -136 21.5t-107.5 65.5t-71 112.5t-25.5 162.5zM272 362q0 -117 49.5 -160.5t131.5 -43.5q29 0 67.5 9 t79.5 25.5t82 38t76 45.5v521q-82 29 -154 46t-135 17h-6q-77 0 -133 -48q-58 -50 -58 -169v-281z" />
<glyph unicode="e" horiz-adv-x="989" d="M96 360v269q0 90 31 163.5t85 125t129 79t165 27.5t166 -26.5t130 -76t83.5 -120t29.5 -158.5v-201h-643v-67q0 -61 20.5 -103.5t56.5 -70t82 -39.5t95 -12q51 0 119 20t131 80l111 -121q-78 -80 -173.5 -109.5t-191.5 -29.5q-86 0 -163.5 23.5t-136 69.5t-92.5 115.5 t-34 161.5zM274 586h463v39q0 63 -18.5 108t-50 75t-73.5 43t-89 13t-88 -14t-74 -43t-51.5 -73t-18.5 -103v-45z" />
<glyph unicode="f" horiz-adv-x="620" d="M53 858v158h125v184q0 135 78 200.5t188 65.5h183v-155h-166q-66 0 -87.5 -39t-21.5 -92v-164h275v-158h-275v-858h-174v858h-125z" />
<glyph unicode="g" horiz-adv-x="1021" d="M88 350v314q0 174 95 268t245 94q55 0 130 -23.5t190 -95.5l20 109h156v-1077q0 -88 -36 -156t-96.5 -114t-138.5 -69.5t-161 -23.5q-90 0 -187.5 31t-179.5 102l108 129q25 -23 57 -41t67.5 -30.5t69.5 -19.5t62 -7q49 0 95.5 12t83.5 41t58.5 74t21.5 110v119 q-102 -63 -183.5 -84.5t-136.5 -21.5q-150 0 -245 93t-95 267zM264 373q0 -117 49 -167q47 -48 125 -48h6q63 0 146.5 29.5t157.5 76.5v465q-76 55 -160 90t-144 35q-84 0 -132 -47t-48 -168v-266z" />
<glyph unicode="h" horiz-adv-x="1017" d="M96 0v1466h176v-565q123 80 201 102.5t133 22.5q166 0 247 -94t81 -268v-664h-176v641q0 119 -51.5 166t-128.5 47q-63 0 -145.5 -30.5t-160.5 -82.5v-741h-176z" />
<glyph unicode="i" horiz-adv-x="464" d="M123 1323q0 45 32.5 77t75.5 32q45 0 78 -32t33 -77t-33 -78t-78 -33q-43 0 -75.5 33t-32.5 78zM145 0v1016h174v-1016h-174z" />
<glyph unicode="j" horiz-adv-x="497" d="M-37 -258h80q82 0 112.5 36t30.5 140v1096h174v-1120q0 -170 -77.5 -241t-219.5 -71h-100v160zM170 1323q0 43 29.5 72.5t72.5 29.5t73 -29.5t30 -72.5t-30 -73.5t-73 -30.5t-72.5 30.5t-29.5 73.5z" />
<glyph unicode="k" horiz-adv-x="985" d="M94 0v1466h174v-798h150q63 0 114.5 23.5t92.5 107.5l112 221h197l-123 -258q-29 -59 -61.5 -100t-94.5 -64q43 -14 72 -37.5t47.5 -52.5t30.5 -61.5t22 -65.5l127 -381h-194l-107 326q-16 51 -35.5 84.5t-43 53t-54.5 27t-71 7.5h-181v-498h-174z" />
<glyph unicode="l" horiz-adv-x="567" d="M170 248v1218h174v-1196q0 -80 36 -99q30 -16 92 -16q13 0 28 1l4 -160q-29 -4 -54.5 -6t-48.5 -2q-72 0 -115.5 17.5t-70.5 51t-36 81.5t-9 110z" />
<glyph unicode="m" horiz-adv-x="1550" d="M86 0v1016h156l18 -117q55 41 99 65.5t80 39t65.5 18.5t58.5 4q92 0 157.5 -40t100.5 -116q61 49 110.5 80t88.5 48.5t69.5 22.5t59.5 5q145 0 229 -80t84 -252v-694h-176v657q0 102 -39 149.5t-129 47.5q-53 0 -117.5 -33t-144.5 -94q4 -18 5 -32.5t1 -35.5v-659h-176 v664q0 104 -44 147t-110 43q-63 0 -123.5 -23.5t-146.5 -82.5v-748h-176z" />
<glyph unicode="n" horiz-adv-x="1017" d="M90 0v1016h156l20 -113q66 41 118 65.5t93 37t73.5 16.5t59.5 4q150 0 234 -94t84 -268v-664h-176v641q0 119 -52 167q-49 46 -123 46h-6q-61 0 -144 -31.5t-161 -81.5v-741h-176z" />
<glyph unicode="o" horiz-adv-x="1034" d="M98 358v295q0 88 34 157t90.5 117t133 73.5t162.5 25.5q92 0 169 -25.5t133.5 -73.5t87 -117t30.5 -157v-295q0 -88 -34 -156.5t-92 -115.5t-134 -71.5t-162 -24.5q-88 0 -164 24.5t-132 71.5t-89 115.5t-33 156.5zM274 393q0 -66 19.5 -111.5t52.5 -74.5t78 -41t96 -12 q41 0 84 12t79 41t58.5 75t22.5 111v230q0 66 -22.5 111.5t-58.5 74.5t-79 41t-84 12q-43 0 -86 -12t-79 -41t-58.5 -75t-22.5 -111v-230z" />
<glyph unicode="p" horiz-adv-x="1030" d="M102 -406v1420h154l20 -107q121 72 194 94.5t128 22.5q150 0 245 -88t95 -274v-312q0 -174 -95 -268t-261 -94q-55 0 -129 11t-177 52v-457h-174zM276 217q94 -39 160 -51t129 -12q41 0 77 9t62.5 32.5t42 63.5t15.5 99v291q0 117 -49 161t-131 44q-29 0 -68 -10 t-81 -26.5t-83 -38t-74 -44.5v-518z" />
<glyph unicode="q" horiz-adv-x="1017" d="M92 352v312q0 174 95.5 268t244.5 94q55 0 129 -20.5t195 -90.5l20 99h152v-1422h-174v500q-117 -66 -192 -84t-130 -18q-150 0 -245 94t-95 268zM268 375q0 -119 52 -167q49 -46 123 -46h6q63 0 142 27.5t163 80.5v475q-80 49 -165 81t-140 32q-82 0 -131.5 -49 t-49.5 -166v-268z" />
<glyph unicode="r" horiz-adv-x="679" d="M133 0v1016h156l18 -150h2q27 27 68 55.5t88 52t100 39t107 15.5v-186q-137 -12 -226.5 -48t-136.5 -67v-727h-176z" />
<glyph unicode="s" horiz-adv-x="929" d="M57 121l97 129q76 -63 155.5 -87t173.5 -24q37 0 75 9.5t67.5 28t48 48t18.5 70.5q0 66 -47 94.5t-119 40.5q-78 12 -154.5 27.5t-138 46.5t-100.5 82t-39 135q0 70 29 127t80 96t117.5 60.5t144.5 21.5q115 0 203 -23.5t170 -82.5l-88 -132q-72 45 -139.5 63.5 t-145.5 18.5q-90 0 -145.5 -42t-55.5 -105q0 -53 45 -80t112.5 -42t145.5 -28.5t145.5 -44t112.5 -86t45 -151.5q0 -72 -30.5 -127t-84 -95t-127 -60.5t-161.5 -20.5q-106 0 -206.5 27.5t-203.5 105.5z" />
<glyph unicode="t" horiz-adv-x="743" d="M61 858v158h148l41 235h129v-235h283v-158h-283v-496q0 -61 11 -101t30.5 -63.5t48.5 -31.5t66 -8q35 0 76.5 5t88.5 11l29 -149q-59 -20 -123.5 -27.5t-95.5 -7.5q-162 0 -233.5 73.5t-71.5 245.5v549h-144z" />
<glyph unicode="u" horiz-adv-x="1034" d="M98 352v664h176v-645q0 -119 52 -167q50 -46 125 -46h6q61 0 142 32.5t163 92.5v733h176v-1016h-156l-20 109q-63 -39 -111.5 -62.5t-86.5 -36t-67.5 -16.5t-56.5 -4q-162 0 -252 94t-90 268z" />
<glyph unicode="v" horiz-adv-x="935" d="M20 1014h193l133 -398l121 -378h12l115 374l131 402h190l-360 -1014h-172z" />
<glyph unicode="w" horiz-adv-x="1437" d="M41 1016h182l94 -369l97 -381h8l121 371l96 281h178l107 -320l106 -332h10l88 359l99 391h174l-275 -1016h-168l-124 379l-105 317h-8l-103 -323l-120 -373h-168z" />
<glyph unicode="x" horiz-adv-x="888" d="M-2 0l344 520l-324 496h211l211 -354l215 354h209l-327 -492l342 -524h-213l-228 381l-233 -381h-207z" />
<glyph unicode="y" horiz-adv-x="958" d="M20 1016h191l123 -447l112 -405h7l143 405l154 447h188l-518 -1428h-189l150 430l-86 72z" />
<glyph unicode="z" horiz-adv-x="921" d="M84 0v139l534 719h-505v156h729v-144l-535 -714h535v-156h-758z" />
<glyph unicode="{" horiz-adv-x="534" d="M31 555v104q41 6 70.5 30t50 59.5t29.5 82t9 95.5v278q0 102 54.5 161.5t134.5 59.5h139v-110h-84q-29 0 -46 -16.5t-28.5 -42t-15.5 -57.5t-4 -62v-256q0 -66 -18.5 -114t-43 -81t-50 -50.5t-42.5 -23.5v-6q16 -6 42 -23.5t50.5 -50t43 -79.5t18.5 -111v-266 q0 -31 4 -62.5t15.5 -57.5t29 -42t45.5 -16h84v-109h-139q-80 0 -134.5 51t-54.5 168v285q0 109 -38.5 180.5t-120.5 81.5z" />
<glyph unicode="|" horiz-adv-x="417" d="M143 -332v1798h133v-1798h-133z" />
<glyph unicode="}" horiz-adv-x="534" d="M23 -102h86q27 0 45 16t28.5 42t15.5 57.5t5 62.5v266q0 63 17.5 110.5t42 80t51 50t42.5 23.5v6q-16 6 -42.5 23.5t-51 50.5t-42 81t-17.5 114v256q0 31 -1 62.5t-10.5 57t-29 42t-53.5 16.5h-86v102h135q98 0 146 -60.5t48 -152.5v-278q0 -49 9.5 -95.5t29 -82t49 -59 t70.5 -30.5v-104q-82 -10 -120 -82t-38 -180v-285q0 -100 -54 -159.5t-134 -59.5h-141v109z" />
<glyph unicode="~" horiz-adv-x="1024" d="M53 561q55 94 126 133t151 39q47 0 96 -19.5t97 -43t94.5 -43t89.5 -19.5q51 0 85.5 28t75.5 83l109 -80q-57 -92 -119.5 -136t-157.5 -44q-41 0 -89 19.5t-97 44t-97 44t-91 19.5q-55 0 -89 -25.5t-75 -79.5z" />
<glyph unicode="&#xa1;" horiz-adv-x="485" d="M123 903q0 51 32.5 87t92.5 36q57 0 87 -35t30 -88q0 -43 -30 -80t-87 -37q-59 0 -92 37t-33 80zM154 -410l14 1039h154l14 -1039h-182z" />
<glyph unicode="&#xa2;" horiz-adv-x="878" d="M96 350v301q0 80 29 146.5t77 113.5t112.5 77t138.5 36v207h92v-207q78 -4 155.5 -29.5t139.5 -93.5l-105 -133q-53 51 -101 69.5t-89 22.5v-704q43 4 93 24.5t89 57.5l109 -123q-63 -63 -138 -91t-153 -32v-232h-92v232q-80 6 -145.5 35.5t-113 76t-73 109.5t-25.5 137z M272 393q0 -113 54.5 -168t126.5 -67v698q-35 -6 -67 -23.5t-57.5 -45t-41 -68.5t-15.5 -96v-230z" />
<glyph unicode="&#xa3;" horiz-adv-x="1024" d="M115 0v131q74 98 124 212t54 249h-178v139h141q-23 82 -53.5 161t-30.5 165q0 70 26.5 136.5t76 117.5t120 81.5t160.5 30.5q135 0 232.5 -43t175.5 -151l-132 -105q-59 80 -130.5 110t-143.5 30q-29 0 -62.5 -11.5t-63.5 -36t-49.5 -64.5t-19.5 -95q0 -43 9.5 -84 t23 -81t27.5 -80t22 -81h326v-139h-311q-4 -111 -28.5 -219.5t-96.5 -216.5h627v-156h-846z" />
<glyph unicode="&#xa4;" horiz-adv-x="1138" d="M82 274l141 138q-78 121 -78 241q0 123 78 242l-141 139q27 29 50.5 51.5t49.5 49.5l140 -140q59 39 118.5 58.5t124.5 19.5q66 0 125.5 -19.5t118.5 -58.5l137 140l101 -103l-140 -137q78 -119 78 -242q0 -121 -78 -241q33 -31 70 -66t70 -70l-101 -102l-137 139 q-115 -80 -244 -80q-131 0 -243 80l-140 -139q-20 23 -51 52.5t-49 47.5zM291 653q0 -55 21.5 -105t58.5 -87t86 -58.5t106 -21.5t107.5 21.5t87.5 58.5t58.5 87t21.5 105q0 57 -21.5 107.5t-58.5 87.5t-87 58.5t-108 21.5q-57 0 -106 -21.5t-86 -58.5t-58.5 -87.5 t-21.5 -107.5z" />
<glyph unicode="&#xa5;" horiz-adv-x="1024" d="M33 1411h207l270 -653h14l271 653h204l-303 -678h240v-125h-295l-29 -65v-103h324v-116h-324v-324h-190v324h-328v116h328v101l-31 67h-297v125h242z" />
<glyph unicode="&#xa6;" horiz-adv-x="417" d="M143 -332v836h133v-836h-133zM143 623v843h133v-843h-133z" />
<glyph unicode="&#xa7;" horiz-adv-x="909" d="M104 717q0 61 28 128.5t101 127.5q-31 33 -49 73.5t-18 94.5q0 72 26.5 128t72.5 95t107.5 59.5t131.5 20.5q66 0 137.5 -17.5t120.5 -46.5l-68 -131q-43 27 -91 42.5t-107 15.5q-31 0 -62 -9.5t-56.5 -27t-40.5 -43t-15 -60.5q0 -88 104 -147q72 -41 141.5 -75t125 -75 t89 -95t33.5 -136q0 -80 -29.5 -141.5t-89.5 -116.5q25 -29 46.5 -75t21.5 -105q0 -80 -28.5 -140.5t-76 -99.5t-109 -58.5t-128.5 -19.5q-78 0 -149.5 19.5t-125.5 58.5l60 127q41 -29 92 -48.5t123 -19.5q37 0 69.5 9.5t59.5 29t42 48t15 67.5q0 33 -9 60.5t-33.5 53 t-65.5 50t-103 53.5q-59 25 -111.5 54.5t-93 67.5t-64.5 88t-24 116zM252 737q0 -57 31.5 -92t79 -59.5t102.5 -48t102 -56.5q47 25 67.5 64t20.5 80q0 49 -31.5 88t-79.5 70.5t-103.5 57t-100.5 50.5q-88 -66 -88 -154z" />
<glyph unicode="&#xa8;" horiz-adv-x="1001" d="M190 1309q0 41 29 69.5t70 28.5t70.5 -28.5t29.5 -69.5t-29.5 -71t-70.5 -30t-70 30t-29 71zM590 1309q0 41 29.5 69.5t70.5 28.5t71 -28.5t30 -69.5t-30 -71t-71 -30t-70.5 30t-29.5 71z" />
<glyph unicode="&#xa9;" horiz-adv-x="1644" d="M115 698q0 154 54 286t150.5 228.5t226.5 150.5t281 54q152 0 283 -54t227.5 -150.5t150.5 -228.5t54 -286t-54 -283.5t-150.5 -226t-227.5 -150.5t-283 -54q-156 0 -285.5 54t-225 150.5t-148.5 226.5t-53 283zM244 698q0 -127 44 -234.5t122.5 -186t185 -123.5 t231.5 -45t231.5 45t185.5 123.5t123 186t44 234.5t-44 235.5t-123 188.5t-185.5 125t-231.5 45t-231.5 -45t-185 -125t-122.5 -188.5t-44 -235.5zM483 555v268q0 74 29 133.5t78 100.5t112.5 63.5t133.5 22.5q80 0 149.5 -21.5t124.5 -66.5l-66 -103q-39 33 -96 51.5 t-112 18.5q-41 0 -81 -12.5t-71 -40t-50.5 -69.5t-19.5 -103v-215q0 -59 19.5 -102.5t51.5 -71t71 -40t78 -12.5q55 0 112.5 15.5t102.5 52.5l63 -100q-45 -37 -117.5 -62.5t-158.5 -25.5q-72 0 -135.5 21.5t-111.5 63t-77 101t-29 133.5z" />
<glyph unicode="&#xaa;" horiz-adv-x="700" d="M45 764q0 57 26.5 97t66.5 64.5t86 35t83 10.5h189v37q-2 63 -44 84.5t-104 21.5q-35 0 -83 -10t-107 -57l-74 108q74 53 142.5 70.5t127.5 17.5q141 0 215 -58.5t74 -180.5v-443h-133l-12 68q-47 -35 -103.5 -54.5t-115.5 -19.5q-106 0 -170 55.5t-64 153.5zM195 764 q0 -39 29.5 -59.5t76.5 -20.5q49 0 101.5 21.5t93.5 44.5v100h-168q-18 0 -42 -3t-44.5 -12.5t-33.5 -25.5t-13 -45z" />
<glyph unicode="&#xab;" horiz-adv-x="940" d="M90 475l260 381h160l-254 -381l254 -381h-160zM442 475l260 381h160l-252 -381l252 -381h-160z" />
<glyph unicode="&#xac;" horiz-adv-x="1024" d="M59 537v131h904l-2 -525h-132v394h-770z" />
<glyph unicode="&#xad;" horiz-adv-x="802" d="M106 471v154h590v-154h-590z" />
<glyph unicode="&#xae;" horiz-adv-x="1146" d="M143 1008q0 92 33 170.5t90.5 136t136 90.5t168.5 33q92 0 170 -33t135.5 -90.5t90 -136t32.5 -170.5t-32.5 -169t-90 -134.5t-135 -89t-170.5 -31.5q-90 0 -168.5 31.5t-136 89t-90.5 134t-33 169.5zM225 1008q0 -74 27 -138.5t73 -110.5t109.5 -73t136.5 -27 q74 0 137.5 27t109.5 73t73 110.5t27 138.5q0 76 -27 140t-73 111.5t-109.5 74t-137.5 26.5t-137 -26.5t-109 -74t-73 -112t-27 -139.5zM412 760v495h204q61 0 104.5 -37.5t43.5 -103.5q0 -47 -26.5 -83t-69.5 -52l114 -219h-96l-104 207h-86v-207h-84zM496 1044h106 q35 0 56.5 18.5t21.5 51.5q0 66 -76 66h-108v-136z" />
<glyph unicode="&#xaf;" horiz-adv-x="1005" d="M260 1229v153h549v-153h-549z" />
<glyph unicode="&#xb0;" horiz-adv-x="782" d="M115 1163q0 57 21.5 107.5t59 87.5t88 58.5t107.5 21.5t107.5 -21.5t87.5 -58.5t58.5 -87.5t21.5 -107.5t-21.5 -106t-58.5 -86t-87 -58.5t-108 -21.5q-57 0 -107.5 21.5t-88 58.5t-59 86t-21.5 106zM233 1163q0 -66 46.5 -111.5t111.5 -45.5q66 0 112 45.5t46 111.5 t-46 112t-112 46t-112 -46t-46 -112z" />
<glyph unicode="&#xb1;" horiz-adv-x="1024" d="M70 0v131h882v-131h-882zM70 596v131h376v356h132v-356h374v-131h-374v-356h-132v356h-376z" />
<glyph unicode="&#xb2;" horiz-adv-x="636" d="M45 745v115q0 57 20.5 103.5t54.5 83t78 68.5t89 63q23 14 54.5 34.5t60 45t49 53t20.5 59.5q0 53 -50 78t-106 25q-53 0 -99 -18.5t-87 -49.5l-80 102q53 41 123 70t147 29q57 0 112.5 -11.5t96.5 -39t67 -71.5t26 -110q0 -43 -19.5 -82t-50.5 -74.5t-69 -66.5t-74 -55 q-29 -18 -66 -42t-69.5 -51.5t-54 -56t-21.5 -59.5v-15h424v-127h-576z" />
<glyph unicode="&#xb3;" horiz-adv-x="665" d="M27 823l79 109q41 -31 94.5 -47.5t96.5 -16.5q70 0 115 32t45 91t-40 92t-100 33h-108v129h110q20 0 45 7.5t45.5 22.5t34 38.5t13.5 56.5q0 27 -14.5 46.5t-36 31.5t-49 18.5t-54.5 6.5q-43 0 -96 -15.5t-94 -48.5l-72 104q47 41 120.5 65t157.5 24q51 0 102.5 -12.5 t91.5 -40t64.5 -71.5t24.5 -108q0 -57 -31.5 -107.5t-97.5 -72.5q78 -35 105.5 -85t27.5 -106q0 -66 -23.5 -114.5t-64.5 -82.5t-96 -50.5t-117 -16.5q-86 0 -157.5 25.5t-120.5 62.5z" />
<glyph unicode="&#xb4;" horiz-adv-x="1005" d="M395 1169l148 363l166 -51l-205 -353z" />
<glyph unicode="&#xb6;" horiz-adv-x="1077" d="M98 1069q0 76 29 144.5t79 120.5t119.5 82t149.5 30h189v-752h-189q-82 0 -151.5 29t-119.5 80t-78 119.5t-28 146.5zM530 -133q94 10 147.5 34.5t79 60.5t31 83t5.5 102v1299h151v-1329q0 -92 -18.5 -163t-64.5 -120t-124 -76.5t-196 -33.5z" />
<glyph unicode="&#xb7;" horiz-adv-x="462" d="M102 559q0 53 38 92t91 39t91 -39t38 -92t-37.5 -91t-91.5 -38q-53 0 -91 38t-38 91z" />
<glyph unicode="&#xb8;" horiz-adv-x="882" d="M293 -389l33 86q43 -14 84 -19.5t69 -5.5q51 0 76 21.5t25 52.5q0 25 -21.5 53.5t-81.5 28.5h-12t-16 -2l-64 37l66 219l92 -8l-49 -154q59 -4 98 -21.5t62.5 -43t33.5 -54t10 -53.5q0 -27 -11 -56.5t-35.5 -55t-65.5 -42t-99 -16.5q-35 0 -89 6t-105 27z" />
<glyph unicode="&#xb9;" horiz-adv-x="583" d="M78 1440l201 155h131v-850h-146v672l-106 -80z" />
<glyph unicode="&#xba;" horiz-adv-x="712" d="M59 813v170q0 57 23.5 105.5t64.5 83t95.5 53t115.5 18.5q63 0 118.5 -18.5t94.5 -53t61.5 -83t22.5 -105.5v-170q0 -59 -24.5 -107.5t-65.5 -82t-95 -51t-114 -17.5q-61 0 -115.5 17.5t-94.5 51t-63.5 82t-23.5 107.5zM205 834q0 -78 45 -112t108 -34q27 0 53.5 8.5 t48 25.5t36 45t14.5 67v131q0 39 -14.5 66.5t-36 46t-48 26.5t-53.5 8t-53 -8t-49 -26.5t-37 -46t-14 -66.5v-131z" />
<glyph unicode="&#xbb;" horiz-adv-x="940" d="M92 94l252 381l-252 381h160l260 -381l-260 -381h-160zM444 94l254 381l-254 381h160l260 -381l-260 -381h-160z" />
<glyph unicode="&#xbc;" horiz-adv-x="1638" d="M150 1255l200 156h131v-850h-145v672l-107 -80zM293 -35l870 1495h137l-872 -1495h-135zM868 125v111l306 612h155l-297 -598h228v246h149v-246h78v-125h-78v-125h-149v125h-392z" />
<glyph unicode="&#xbd;" horiz-adv-x="1638" d="M125 1255l201 156h131v-850h-146v672l-106 -80zM217 -35l870 1495h138l-873 -1495h-135zM936 0v115q0 57 20.5 103t54 83t78 68.5t89.5 62.5q23 14 54.5 34.5t60 45.5t49 53.5t20.5 59.5q0 53 -50 77.5t-106 24.5q-53 0 -99 -18.5t-87 -49.5l-80 103q53 41 123 69.5 t147 28.5q57 0 112.5 -11t96.5 -39t66.5 -71.5t25.5 -109.5q0 -43 -19 -82t-50 -75t-69 -66.5t-75 -55.5q-29 -18 -65.5 -41.5t-69.5 -51.5t-54.5 -56.5t-21.5 -59.5v-14h424v-127h-575z" />
<glyph unicode="&#xbe;" horiz-adv-x="1638" d="M72 639l80 109q41 -31 94 -47.5t96 -16.5q70 0 115 32t45 91t-40 92t-100 33h-108v129h111q20 0 44.5 7t45 22.5t34 39t13.5 56.5q0 27 -14.5 46t-36 31.5t-49 18.5t-54.5 6q-43 0 -96 -15.5t-94 -47.5l-72 104q47 41 121 64.5t158 23.5q51 0 102 -12t91 -40t64.5 -72 t24.5 -107q0 -57 -31.5 -107.5t-97.5 -72.5q78 -35 105.5 -85.5t27.5 -105.5q0 -66 -23.5 -115t-64.5 -82.5t-96 -50t-117 -16.5q-86 0 -157.5 25.5t-120.5 62.5zM379 -35l870 1495h137l-872 -1495h-135zM946 125v111l305 612h156l-297 -598h227v246h150v-246h78v-125h-78 v-125h-150v125h-391z" />
<glyph unicode="&#xbf;" horiz-adv-x="940" d="M143 -59q0 88 44 164.5t98.5 149.5t98.5 141.5t44 138.5v92h176v-86q0 -72 -19.5 -128.5t-48 -102.5t-62.5 -87t-62.5 -82t-48 -86t-19.5 -98q0 -86 58.5 -144.5t150.5 -58.5q78 0 150.5 25.5t125.5 70.5l91 -143q-90 -68 -184.5 -96.5t-200.5 -28.5q-82 0 -153 28 t-124 75t-84 112.5t-31 143.5zM387 903q0 51 33 87t92 36q57 0 87 -35t30 -88q0 -43 -30 -80t-87 -37q-59 0 -92 37t-33 80z" />
<glyph unicode="&#xc0;" horiz-adv-x="1222" d="M27 0l491 1411h191l493 -1411h-198l-111 317h-561l-109 -317h-196zM250 1722l121 125l303 -250l-76 -86zM393 489h441l-113 336l-105 328h-8l-102 -328z" />
<glyph unicode="&#xc1;" horiz-adv-x="1222" d="M27 0l491 1411h191l493 -1411h-198l-111 317h-561l-109 -317h-196zM393 489h441l-113 336l-105 328h-8l-102 -328zM512 1597l303 250l121 -125l-348 -211z" />
<glyph unicode="&#xc2;" horiz-adv-x="1222" d="M27 0l491 1411h191l493 -1411h-198l-111 317h-561l-109 -317h-196zM260 1591l307 262h109l293 -258l-62 -79l-293 176l-295 -179zM393 489h441l-113 336l-105 328h-8l-102 -328z" />
<glyph unicode="&#xc3;" horiz-adv-x="1222" d="M27 0l491 1411h191l493 -1411h-198l-111 317h-561l-109 -317h-196zM244 1597q41 86 100.5 134.5t120.5 48.5q37 0 75 -15.5t72.5 -33t67.5 -33t59 -15.5q31 0 61.5 21.5t63.5 71.5l107 -60q-45 -94 -99.5 -138t-119.5 -44q-37 0 -73 13.5t-71 29.5t-66.5 29.5t-62.5 13.5 q-35 0 -62.5 -17.5t-66.5 -64.5zM393 489h441l-113 336l-105 328h-8l-102 -328z" />
<glyph unicode="&#xc4;" horiz-adv-x="1222" d="M27 0l491 1411h191l493 -1411h-198l-111 317h-561l-109 -317h-196zM315 1661q0 41 29 69.5t70 28.5t70.5 -28.5t29.5 -69.5t-29.5 -70.5t-70.5 -29.5t-70 29.5t-29 70.5zM393 489h441l-113 336l-105 328h-8l-102 -328zM715 1661q0 41 29.5 69.5t70.5 28.5t70.5 -28.5 t29.5 -69.5t-29.5 -70.5t-70.5 -29.5t-70.5 29.5t-29.5 70.5z" />
<glyph unicode="&#xc5;" horiz-adv-x="1222" d="M27 0l491 1411h191l493 -1411h-198l-111 317h-561l-109 -317h-196zM393 489h441l-113 336l-105 328h-8l-102 -328zM399 1663q0 43 16.5 82t46.5 66.5t68.5 44t81.5 16.5t82 -16.5t68 -44t45 -66.5t16 -82t-16 -82t-45 -67.5t-68 -45t-82 -16.5t-81.5 16.5t-68.5 45 t-46.5 67.5t-16.5 82zM498 1663q0 -47 33.5 -80t80.5 -33t80 33t33 80t-33 79t-80 32t-80.5 -32t-33.5 -79z" />
<glyph unicode="&#xc6;" horiz-adv-x="2000" d="M4 0l909 1411h1035v-172h-754v-448h645v-170h-645v-451h754v-170h-942v418h-531l-266 -418h-205zM575 573h431v666z" />
<glyph unicode="&#xc7;" horiz-adv-x="1079" d="M111 449v516q0 106 42 191t111.5 145.5t162 92t194.5 31.5q115 0 215 -30.5t180 -96.5l-94 -147q-55 47 -138.5 73.5t-162.5 26.5q-59 0 -117 -18.5t-103 -57t-72.5 -100t-27.5 -149.5v-441q0 -86 28.5 -148.5t74 -101t101.5 -57t111 -18.5q80 0 163 22.5t149 75.5 l90 -145q-63 -51 -163.5 -87t-217.5 -40l-21 -66q59 -4 98.5 -21.5t63 -43t33.5 -54t10 -53.5q0 -27 -11 -56.5t-35.5 -55t-65.5 -42t-99 -16.5q-35 0 -89 6t-105 27l33 86q43 -14 83.5 -19.5t69.5 -5.5q51 0 75.5 21.5t24.5 52.5q0 25 -21.5 53.5t-80.5 28.5h-12t-17 -2 l-63 37l37 127q-90 10 -169 47t-138.5 95t-93 138t-33.5 179z" />
<glyph unicode="&#xc8;" horiz-adv-x="1140" d="M125 0v1411h942v-172h-754v-448h645v-170h-645v-451h754v-170h-942zM287 1722l121 125l303 -250l-76 -86z" />
<glyph unicode="&#xc9;" horiz-adv-x="1140" d="M125 0v1411h942v-172h-754v-448h645v-170h-645v-451h754v-170h-942zM471 1597l303 250l121 -125l-348 -211z" />
<glyph unicode="&#xca;" horiz-adv-x="1140" d="M125 0v1411h942v-172h-754v-448h645v-170h-645v-451h754v-170h-942zM260 1591l307 262h109l293 -258l-62 -79l-293 176l-295 -179z" />
<glyph unicode="&#xcb;" horiz-adv-x="1140" d="M125 0v1411h942v-172h-754v-448h645v-170h-645v-451h754v-170h-942zM293 1657q0 41 28.5 69.5t69.5 28.5t71 -28.5t30 -69.5t-30 -71t-71 -30t-69.5 30t-28.5 71zM692 1657q0 41 30 69.5t71 28.5t70.5 -28.5t29.5 -69.5t-29.5 -71t-70.5 -30t-71 30t-30 71z" />
<glyph unicode="&#xcc;" horiz-adv-x="516" d="M-90 1722l121 125l303 -250l-76 -86zM164 0v1411h188v-1411h-188z" />
<glyph unicode="&#xcd;" horiz-adv-x="516" d="M164 0v1411h188v-1411h-188zM180 1597l303 250l121 -125l-348 -211z" />
<glyph unicode="&#xce;" horiz-adv-x="516" d="M-104 1591l307 262h108l293 -258l-61 -79l-293 176l-295 -179zM164 0v1411h188v-1411h-188z" />
<glyph unicode="&#xcf;" horiz-adv-x="516" d="M-39 1661q0 41 28.5 69.5t69.5 28.5t71 -28.5t30 -69.5t-30 -70.5t-71 -29.5t-69.5 29.5t-28.5 70.5zM164 0v1411h188v-1411h-188zM360 1661q0 41 30 69.5t71 28.5t70.5 -28.5t29.5 -69.5t-29.5 -70.5t-70.5 -29.5t-71 29.5t-30 70.5z" />
<glyph unicode="&#xd0;" horiz-adv-x="1239" d="M12 657v140h107v614h530q100 0 188.5 -31.5t154 -91t102 -145.5t36.5 -193v-491q0 -102 -37.5 -187.5t-103 -145.5t-153.5 -93t-189 -33h-528v657h-107zM307 168h297q57 0 117.5 16.5t108 55.5t78 99t30.5 150v429q0 88 -28.5 149t-76 100t-107.5 55.5t-122 16.5h-297 v-442h258v-140h-258v-489z" />
<glyph unicode="&#xd1;" horiz-adv-x="1320" d="M121 0v1411h178l510 -764l188 -293h15v1057h188v-1411h-182l-494 737l-200 310h-15v-1047h-188zM291 1597q41 86 100.5 134.5t120.5 48.5q37 0 75 -15.5t72.5 -33t67.5 -33t59 -15.5q31 0 62 21.5t63 71.5l107 -60q-45 -94 -99.5 -138t-119.5 -44q-37 0 -73 13.5 t-70.5 29.5t-66.5 29.5t-63 13.5q-35 0 -62.5 -17.5t-66.5 -64.5z" />
<glyph unicode="&#xd2;" horiz-adv-x="1255" d="M106 461v487q0 106 38 194.5t106.5 151t165 97t211.5 34.5q113 0 209 -34.5t165.5 -97t108.5 -150.5t39 -195v-487q0 -109 -40 -197t-110.5 -149.5t-166 -95t-205.5 -33.5q-115 0 -211.5 33.5t-165 95t-106.5 149.5t-38 197zM297 483q0 -86 26.5 -147.5t71.5 -100 t105.5 -57t126.5 -18.5q68 0 127 18.5t105 57t72.5 100t26.5 147.5v443q0 86 -26.5 147.5t-71.5 101t-105.5 58t-127.5 18.5q-68 0 -128.5 -18.5t-104.5 -58t-70.5 -101t-26.5 -147.5v-443zM311 1722l121 125l303 -250l-76 -86z" />
<glyph unicode="&#xd3;" horiz-adv-x="1255" d="M106 461v487q0 106 38 194.5t106.5 151t165 97t211.5 34.5q113 0 209 -34.5t165.5 -97t108.5 -150.5t39 -195v-487q0 -109 -40 -197t-110.5 -149.5t-166 -95t-205.5 -33.5q-115 0 -211.5 33.5t-165 95t-106.5 149.5t-38 197zM297 483q0 -86 26.5 -147.5t71.5 -100 t105.5 -57t126.5 -18.5q68 0 127 18.5t105 57t72.5 100t26.5 147.5v443q0 86 -26.5 147.5t-71.5 101t-105.5 58t-127.5 18.5q-68 0 -128.5 -18.5t-104.5 -58t-70.5 -101t-26.5 -147.5v-443zM528 1597l303 250l121 -125l-348 -211z" />
<glyph unicode="&#xd4;" horiz-adv-x="1255" d="M106 461v487q0 106 38 194.5t106.5 151t165 97t211.5 34.5q113 0 209 -34.5t165.5 -97t108.5 -150.5t39 -195v-487q0 -109 -40 -197t-110.5 -149.5t-166 -95t-205.5 -33.5q-115 0 -211.5 33.5t-165 95t-106.5 149.5t-38 197zM276 1591l308 262h108l293 -258l-61 -79 l-293 176l-295 -179zM297 483q0 -86 26.5 -147.5t71.5 -100t105.5 -57t126.5 -18.5q68 0 127 18.5t105 57t72.5 100t26.5 147.5v443q0 86 -26.5 147.5t-71.5 101t-105.5 58t-127.5 18.5q-68 0 -128.5 -18.5t-104.5 -58t-70.5 -101t-26.5 -147.5v-443z" />
<glyph unicode="&#xd5;" horiz-adv-x="1255" d="M106 461v487q0 106 38 194.5t106.5 151t165 97t211.5 34.5q113 0 209 -34.5t165.5 -97t108.5 -150.5t39 -195v-487q0 -109 -40 -197t-110.5 -149.5t-166 -95t-205.5 -33.5q-115 0 -211.5 33.5t-165 95t-106.5 149.5t-38 197zM260 1597q41 86 100.5 134.5t120.5 48.5 q37 0 75 -15.5t73 -33t67.5 -33t59.5 -15.5q31 0 61.5 21.5t63.5 71.5l106 -60q-45 -94 -99 -138t-120 -44q-37 0 -73 13.5t-70.5 29.5t-66.5 29.5t-62 13.5q-35 0 -62.5 -17.5t-66.5 -64.5zM297 483q0 -86 26.5 -147.5t71.5 -100t105.5 -57t126.5 -18.5q68 0 127 18.5 t105 57t72.5 100t26.5 147.5v443q0 86 -26.5 147.5t-71.5 101t-105.5 58t-127.5 18.5q-68 0 -128.5 -18.5t-104.5 -58t-70.5 -101t-26.5 -147.5v-443z" />
<glyph unicode="&#xd6;" horiz-adv-x="1255" d="M106 461v487q0 106 38 194.5t106.5 151t165 97t211.5 34.5q113 0 209 -34.5t165.5 -97t108.5 -150.5t39 -195v-487q0 -109 -40 -197t-110.5 -149.5t-166 -95t-205.5 -33.5q-115 0 -211.5 33.5t-165 95t-106.5 149.5t-38 197zM297 483q0 -86 26.5 -147.5t71.5 -100 t105.5 -57t126.5 -18.5q68 0 127 18.5t105 57t72.5 100t26.5 147.5v443q0 86 -26.5 147.5t-71.5 101t-105.5 58t-127.5 18.5q-68 0 -128.5 -18.5t-104.5 -58t-70.5 -101t-26.5 -147.5v-443zM332 1661q0 41 28.5 69.5t69.5 28.5t70.5 -28.5t29.5 -69.5t-29.5 -70.5 t-70.5 -29.5t-69.5 29.5t-28.5 70.5zM731 1661q0 41 30 69.5t70 28.5q41 0 71 -28.5t30 -69.5t-30 -70.5t-71 -29.5t-70.5 29.5t-29.5 70.5z" />
<glyph unicode="&#xd7;" horiz-adv-x="1024" d="M84 895l92 92l334 -332l330 330l92 -92l-330 -332l336 -336l-92 -92l-336 336l-332 -332l-92 92l332 332z" />
<glyph unicode="&#xd8;" horiz-adv-x="1255" d="M106 47l89 127q-88 117 -89 287v487q0 106 38 194.5t106.5 151t165 97t211.5 34.5q104 0 194 -30.5t158 -83.5l80 114l90 -59l-92 -133q43 -59 67.5 -130t24.5 -155v-487q0 -109 -40 -197t-110.5 -149.5t-166 -95t-205.5 -33.5q-217 0 -357 110l-75 -108zM297 483 q0 -78 20 -133l557 809q-47 47 -110.5 69.5t-136.5 22.5q-68 0 -128.5 -18.5t-104.5 -58t-70.5 -101t-26.5 -147.5v-443zM377 252q47 -49 111.5 -70.5t138.5 -21.5q68 0 127 18.5t105 57t72.5 100t26.5 147.5v443q0 72 -22 133z" />
<glyph unicode="&#xd9;" horiz-adv-x="1249" d="M106 446v965h191v-930q0 -86 26.5 -147.5t71.5 -100t105.5 -57t126.5 -18.5q63 0 123.5 18.5t106.5 57t73.5 100t27.5 147.5v930h191v-965q0 -109 -42 -194.5t-113.5 -145t-166 -90t-200.5 -30.5t-201.5 30.5t-166.5 90t-112 145.5t-41 194zM315 1722l121 125l303 -250 l-75 -86z" />
<glyph unicode="&#xda;" horiz-adv-x="1249" d="M106 446v965h191v-930q0 -86 26.5 -147.5t71.5 -100t105.5 -57t126.5 -18.5q63 0 123.5 18.5t106.5 57t73.5 100t27.5 147.5v930h191v-965q0 -109 -42 -194.5t-113.5 -145t-166 -90t-200.5 -30.5t-201.5 30.5t-166.5 90t-112 145.5t-41 194zM512 1597l303 250l121 -125 l-348 -211z" />
<glyph unicode="&#xdb;" horiz-adv-x="1249" d="M106 446v965h191v-930q0 -86 26.5 -147.5t71.5 -100t105.5 -57t126.5 -18.5q63 0 123.5 18.5t106.5 57t73.5 100t27.5 147.5v930h191v-965q0 -109 -42 -194.5t-113.5 -145t-166 -90t-200.5 -30.5t-201.5 30.5t-166.5 90t-112 145.5t-41 194zM270 1591l308 262h108 l293 -258l-61 -79l-293 176l-295 -179z" />
<glyph unicode="&#xdc;" horiz-adv-x="1249" d="M106 446v965h191v-930q0 -86 26.5 -147.5t71.5 -100t105.5 -57t126.5 -18.5q63 0 123.5 18.5t106.5 57t73.5 100t27.5 147.5v930h191v-965q0 -109 -42 -194.5t-113.5 -145t-166 -90t-200.5 -30.5t-201.5 30.5t-166.5 90t-112 145.5t-41 194zM338 1661q0 41 28.5 69.5 t69.5 28.5t71 -28.5t30 -69.5t-30 -70.5t-71 -29.5t-69.5 29.5t-28.5 70.5zM737 1661q0 41 30 69.5t71 28.5t70.5 -28.5t29.5 -69.5t-29.5 -70.5t-70.5 -29.5t-71 29.5t-30 70.5z" />
<glyph unicode="&#xdd;" horiz-adv-x="1099" d="M25 1411h206l164 -336l148 -330h14l152 340l159 326h205l-428 -868v-543h-190v541zM395 1597l303 250l121 -125l-348 -211z" />
<glyph unicode="&#xde;" horiz-adv-x="1134" d="M111 0v1411h188v-258h397q102 0 177 -38t124.5 -98.5t74 -135t24.5 -150.5t-28 -150.5t-79 -135t-124.5 -98.5t-168.5 -38h-397v-309h-188zM299 483h358q111 0 181.5 65.5t70.5 182.5q0 115 -70.5 182.5t-181.5 67.5h-358v-498z" />
<glyph unicode="&#xdf;" horiz-adv-x="1028" d="M102 0v1079q0 92 30 164t83 121t126 74.5t159 25.5q106 0 180 -32.5t119 -84t64.5 -112.5t19.5 -117q0 -29 -6.5 -65.5t-21.5 -73.5t-39.5 -69.5t-61.5 -57.5q47 -18 81.5 -52t57 -77t34 -91t11.5 -93v-187q0 -174 -95 -268t-245 -94q-18 0 -40.5 1t-49.5 3l2 162 q18 -2 34.5 -3t30.5 -1q61 0 98.5 20.5t57 52t25.5 72.5t6 84v170q0 92 -59.5 146.5t-159.5 54.5h-37v143h20q51 0 87 21.5t59.5 53t35 68.5t11.5 68q0 39 -13.5 76t-40 66.5t-68.5 48t-97 18.5q-61 0 -104.5 -19.5t-69 -50.5t-38 -70.5t-12.5 -80.5v-1094h-174z" />
<glyph unicode="&#xe0;" horiz-adv-x="1015" d="M78 297q0 84 38 141.5t94 93t120.5 51t115.5 15.5h297v78q0 106 -59 148t-170 42q-53 0 -130 -15t-155 -79l-86 133q98 76 198.5 98.5t186.5 22.5q199 0 294.5 -87t95.5 -267v-672h-154l-21 94l-6 4q-121 -68 -197.5 -87t-138.5 -19q-147 0 -235 82t-88 223zM258 297 q0 -74 50 -110.5t128 -36.5q39 0 81 11t82 27.5t77 36t67 35.5v193h-268q-33 0 -70.5 -5.5t-70.5 -20.5t-54.5 -47t-21.5 -83zM295 1481l166 51l147 -363l-108 -41z" />
<glyph unicode="&#xe1;" horiz-adv-x="1015" d="M78 297q0 84 38 141.5t94 93t120.5 51t115.5 15.5h297v78q0 106 -59 148t-170 42q-53 0 -130 -15t-155 -79l-86 133q98 76 198.5 98.5t186.5 22.5q199 0 294.5 -87t95.5 -267v-672h-154l-21 94l-6 4q-121 -68 -197.5 -87t-138.5 -19q-147 0 -235 82t-88 223zM258 297 q0 -74 50 -110.5t128 -36.5q39 0 81 11t82 27.5t77 36t67 35.5v193h-268q-33 0 -70.5 -5.5t-70.5 -20.5t-54.5 -47t-21.5 -83zM483 1169l148 363l166 -51l-205 -353z" />
<glyph unicode="&#xe2;" horiz-adv-x="1015" d="M78 297q0 84 38 141.5t94 93t120.5 51t115.5 15.5h297v78q0 106 -59 148t-170 42q-53 0 -130 -15t-155 -79l-86 133q98 76 198.5 98.5t186.5 22.5q199 0 294.5 -87t95.5 -267v-672h-154l-21 94l-6 4q-121 -68 -197.5 -87t-138.5 -19q-147 0 -235 82t-88 223zM162 1208 l307 314h109l292 -310l-82 -79l-272 217l-274 -220zM258 297q0 -74 50 -110.5t128 -36.5q39 0 81 11t82 27.5t77 36t67 35.5v193h-268q-33 0 -70.5 -5.5t-70.5 -20.5t-54.5 -47t-21.5 -83z" />
<glyph unicode="&#xe3;" horiz-adv-x="1015" d="M78 297q0 84 38 141.5t94 93t120.5 51t115.5 15.5h297v78q0 106 -59 148t-170 42q-53 0 -130 -15t-155 -79l-86 133q98 76 198.5 98.5t186.5 22.5q199 0 294.5 -87t95.5 -267v-672h-154l-21 94l-6 4q-121 -68 -197.5 -87t-138.5 -19q-147 0 -235 82t-88 223zM160 1249 q41 86 100.5 134.5t120.5 48.5q37 0 75 -15.5t72.5 -33t67.5 -33t59 -15.5q31 0 62 21.5t63 70.5l107 -59q-45 -94 -99.5 -138t-119.5 -44q-37 0 -73 13t-71 29.5t-66.5 30t-62.5 13.5q-35 0 -62.5 -17.5t-66.5 -64.5zM258 297q0 -74 50 -110.5t128 -36.5q39 0 81 11 t82 27.5t77 36t67 35.5v193h-268q-33 0 -70.5 -5.5t-70.5 -20.5t-54.5 -47t-21.5 -83z" />
<glyph unicode="&#xe4;" horiz-adv-x="1015" d="M78 297q0 84 38 141.5t94 93t120.5 51t115.5 15.5h297v78q0 106 -59 148t-170 42q-53 0 -130 -15t-155 -79l-86 133q98 76 198.5 98.5t186.5 22.5q199 0 294.5 -87t95.5 -267v-672h-154l-21 94l-6 4q-121 -68 -197.5 -87t-138.5 -19q-147 0 -235 82t-88 223zM246 1309 q0 41 28.5 69.5t69.5 28.5t70.5 -28.5t29.5 -69.5t-29.5 -71t-70.5 -30t-69.5 30t-28.5 71zM258 297q0 -74 50 -110.5t128 -36.5q39 0 81 11t82 27.5t77 36t67 35.5v193h-268q-33 0 -70.5 -5.5t-70.5 -20.5t-54.5 -47t-21.5 -83zM645 1309q0 41 30 69.5t70 28.5 q41 0 71 -28.5t30 -69.5t-30 -71t-71 -30t-70.5 30t-29.5 71z" />
<glyph unicode="&#xe5;" horiz-adv-x="1015" d="M78 297q0 84 38 141.5t94 93t120.5 51t115.5 15.5h297v78q0 106 -59 148t-170 42q-53 0 -130 -15t-155 -79l-86 133q98 76 198.5 98.5t186.5 22.5q199 0 294.5 -87t95.5 -267v-672h-154l-21 94l-6 4q-121 -68 -197.5 -87t-138.5 -19q-147 0 -235 82t-88 223zM258 297 q0 -74 50 -110.5t128 -36.5q39 0 81 11t82 27.5t77 36t67 35.5v193h-268q-33 0 -70.5 -5.5t-70.5 -20.5t-54.5 -47t-21.5 -83zM332 1319q0 43 16.5 82t46 66.5t68.5 44t82 16.5t82 -16.5t67.5 -44t45 -66.5t16.5 -82t-16.5 -82t-45 -67.5t-67.5 -45t-82 -16.5t-82 16.5 t-68.5 45t-46 67.5t-16.5 82zM430 1319q0 -47 34 -80t81 -33t79.5 33t32.5 80t-32.5 79t-79.5 32t-81 -32t-34 -79z" />
<glyph unicode="&#xe6;" horiz-adv-x="1636" d="M80 297q0 84 38 141.5t94 93t120.5 51t116.5 15.5h296v78q-2 57 -20 94t-50 58.5t-75 29.5t-94 8q-53 0 -125 -15t-150 -79l-86 133q98 76 190.5 98.5t178.5 22.5q117 0 199 -32.5t131 -92.5q55 59 134 91t177 32q90 0 166 -26.5t130 -76t84 -120t30 -158.5v-190h-643 v-78q0 -61 20.5 -103.5t56 -70t81.5 -39.5t96 -12q51 0 118.5 20t130.5 80l111 -121q-78 -80 -173 -109.5t-192 -29.5q-113 0 -207 38t-153 115l-72 -45q-121 -70 -197.5 -88t-138.5 -18q-147 0 -235 82t-88 223zM260 297q0 -74 50 -110.5t128 -36.5q39 0 81 11t82 27.5 t77 36t67 35.5v193h-268q-33 0 -70.5 -5.5t-70.5 -20.5t-54.5 -47t-21.5 -83zM924 596h462v29q0 63 -18 108t-50 75t-74 43t-89 13t-88 -14t-73.5 -43t-51 -73t-18.5 -103v-35z" />
<glyph unicode="&#xe7;" horiz-adv-x="878" d="M96 350v301q0 86 33 156t88 119t128 74.5t153 25.5q88 0 179 -23.5t163 -101.5l-105 -133q-68 63 -126 78.5t-103 15.5q-39 0 -81 -12t-76 -41t-55.5 -75t-21.5 -111v-230q0 -66 20.5 -111.5t53.5 -74.5t75 -41t85 -12q45 0 109.5 18t111.5 66l109 -123 q-68 -68 -151 -95.5t-169 -29.5l-22 -70q59 -4 98 -21.5t62.5 -43t33.5 -54t10 -53.5q0 -27 -11 -56.5t-35.5 -55t-65.5 -42t-99 -16.5q-35 0 -89 6t-105 27l33 86q43 -14 84 -19.5t69 -5.5q51 0 76 21.5t25 52.5q0 25 -21.5 53.5t-81.5 28.5h-12t-16 -2l-64 37l39 133 q-74 10 -134.5 40t-103.5 76t-66.5 106.5t-23.5 131.5z" />
<glyph unicode="&#xe8;" horiz-adv-x="989" d="M96 360v269q0 90 31 163.5t85 125t129 79t165 27.5t166 -26.5t130 -76t83.5 -120t29.5 -158.5v-201h-643v-67q0 -61 20.5 -103.5t56.5 -70t82 -39.5t95 -12q51 0 119 20t131 80l111 -121q-78 -80 -173.5 -109.5t-191.5 -29.5q-86 0 -163.5 23.5t-136 69.5t-92.5 115.5 t-34 161.5zM274 586h463v39q0 63 -18.5 108t-50 75t-73.5 43t-89 13t-88 -14t-74 -43t-51.5 -73t-18.5 -103v-45zM289 1481l166 51l147 -363l-108 -41z" />
<glyph unicode="&#xe9;" horiz-adv-x="989" d="M96 360v269q0 90 31 163.5t85 125t129 79t165 27.5t166 -26.5t130 -76t83.5 -120t29.5 -158.5v-201h-643v-67q0 -61 20.5 -103.5t56.5 -70t82 -39.5t95 -12q51 0 119 20t131 80l111 -121q-78 -80 -173.5 -109.5t-191.5 -29.5q-86 0 -163.5 23.5t-136 69.5t-92.5 115.5 t-34 161.5zM274 586h463v39q0 63 -18.5 108t-50 75t-73.5 43t-89 13t-88 -14t-74 -43t-51.5 -73t-18.5 -103v-45zM414 1169l147 363l166 -51l-205 -353z" />
<glyph unicode="&#xea;" horiz-adv-x="989" d="M96 360v269q0 90 31 163.5t85 125t129 79t165 27.5t166 -26.5t130 -76t83.5 -120t29.5 -158.5v-201h-643v-67q0 -61 20.5 -103.5t56.5 -70t82 -39.5t95 -12q51 0 119 20t131 80l111 -121q-78 -80 -173.5 -109.5t-191.5 -29.5q-86 0 -163.5 23.5t-136 69.5t-92.5 115.5 t-34 161.5zM160 1208l307 314h108l293 -310l-82 -79l-272 217l-274 -220zM274 586h463v39q0 63 -18.5 108t-50 75t-73.5 43t-89 13t-88 -14t-74 -43t-51.5 -73t-18.5 -103v-45z" />
<glyph unicode="&#xeb;" horiz-adv-x="989" d="M96 360v269q0 90 31 163.5t85 125t129 79t165 27.5t166 -26.5t130 -76t83.5 -120t29.5 -158.5v-201h-643v-67q0 -61 20.5 -103.5t56.5 -70t82 -39.5t95 -12q51 0 119 20t131 80l111 -121q-78 -80 -173.5 -109.5t-191.5 -29.5q-86 0 -163.5 23.5t-136 69.5t-92.5 115.5 t-34 161.5zM213 1309q0 41 28.5 69.5t69.5 28.5t71 -28.5t30 -69.5t-30 -71t-71 -30t-69.5 30t-28.5 71zM274 586h463v39q0 63 -18.5 108t-50 75t-73.5 43t-89 13t-88 -14t-74 -43t-51.5 -73t-18.5 -103v-45zM612 1309q0 41 30 69.5t71 28.5t70.5 -28.5t29.5 -69.5 t-29.5 -71t-70.5 -30t-71 30t-30 71z" />
<glyph unicode="&#xec;" horiz-adv-x="489" d="M-12 1481l166 51l147 -363l-108 -41zM158 0v1016h174v-1016h-174z" />
<glyph unicode="&#xed;" horiz-adv-x="489" d="M139 1169l148 363l166 -51l-205 -353zM158 0v1016h174v-1016h-174z" />
<glyph unicode="&#xee;" horiz-adv-x="667" d="M-20 1208l307 314h108l293 -310l-82 -79l-272 217l-275 -220zM250 0v1016h174v-1016h-174z" />
<glyph unicode="&#xef;" horiz-adv-x="559" d="M-20 1309q0 41 28.5 69.5t69.5 28.5t70.5 -28.5t29.5 -69.5t-29.5 -71t-70.5 -30t-69.5 30t-28.5 71zM193 0v1016h174v-1016h-174zM379 1309q0 41 29.5 69.5t70.5 28.5t71 -28.5t30 -69.5t-30 -71t-71 -30t-70.5 30t-29.5 71z" />
<glyph unicode="&#xf0;" horiz-adv-x="1034" d="M98 358v220q0 88 31 160.5t86 126t132 83t169 29.5q68 0 135.5 -20.5t112.5 -61.5l4 2q-4 76 -13.5 144.5t-37.5 109.5l-154 -109l-61 88l143 101q-31 35 -96.5 65.5t-181.5 49.5l28 149q121 -10 227.5 -52t161.5 -114l174 121l62 -88l-166 -117q33 -57 50.5 -115.5 t24.5 -123t8 -140t1 -168.5v-307q0 -88 -27.5 -161.5t-82 -127t-134.5 -83t-184 -29.5q-88 0 -163 24.5t-130 71.5t-87 115.5t-32 156.5zM274 393q0 -66 19.5 -111.5t52.5 -74.5t78 -41t96 -12q45 0 89 12t78 41t55.5 75t21.5 111v180q0 66 -21.5 112t-55.5 74.5t-77 41 t-84 12.5q-51 0 -97 -15.5t-80 -46t-54.5 -78.5t-20.5 -114v-166z" />
<glyph unicode="&#xf1;" horiz-adv-x="1017" d="M90 0v1016h156l20 -113q66 41 118 65.5t93 37t73.5 16.5t59.5 4q150 0 234 -94t84 -268v-664h-176v641q0 119 -51.5 167t-129.5 46q-61 0 -144 -31.5t-161 -81.5v-741h-176zM131 1249q41 86 100.5 134.5t120.5 48.5q37 0 75 -15.5t73 -33t67.5 -33t59.5 -15.5 q31 0 61.5 21.5t63.5 70.5l106 -59q-45 -94 -99 -138t-120 -44q-37 0 -73 13t-70.5 29.5t-66.5 30t-62 13.5q-35 0 -63 -17.5t-66 -64.5z" />
<glyph unicode="&#xf2;" horiz-adv-x="1034" d="M98 358v295q0 88 34 157t90.5 117t133 73.5t162.5 25.5q92 0 169 -25.5t133.5 -73.5t87 -117t30.5 -157v-295q0 -88 -34 -156.5t-92 -115.5t-134 -71.5t-162 -24.5q-88 0 -164 24.5t-132 71.5t-89 115.5t-33 156.5zM274 393q0 -66 19.5 -111.5t52.5 -74.5t78 -41t96 -12 q41 0 84 12t79 41t58.5 75t22.5 111v230q0 66 -22.5 111.5t-58.5 74.5t-79 41t-84 12q-43 0 -86 -12t-79 -41t-58.5 -75t-22.5 -111v-230zM311 1481l166 51l148 -363l-109 -41z" />
<glyph unicode="&#xf3;" horiz-adv-x="1034" d="M98 358v295q0 88 34 157t90.5 117t133 73.5t162.5 25.5q92 0 169 -25.5t133.5 -73.5t87 -117t30.5 -157v-295q0 -88 -34 -156.5t-92 -115.5t-134 -71.5t-162 -24.5q-88 0 -164 24.5t-132 71.5t-89 115.5t-33 156.5zM274 393q0 -66 19.5 -111.5t52.5 -74.5t78 -41t96 -12 q41 0 84 12t79 41t58.5 75t22.5 111v230q0 66 -22.5 111.5t-58.5 74.5t-79 41t-84 12q-43 0 -86 -12t-79 -41t-58.5 -75t-22.5 -111v-230zM442 1169l148 363l166 -51l-205 -353z" />
<glyph unicode="&#xf4;" horiz-adv-x="1034" d="M98 358v295q0 88 34 157t90.5 117t133 73.5t162.5 25.5q92 0 169 -25.5t133.5 -73.5t87 -117t30.5 -157v-295q0 -88 -34 -156.5t-92 -115.5t-134 -71.5t-162 -24.5q-88 0 -164 24.5t-132 71.5t-89 115.5t-33 156.5zM168 1208l307 314h109l293 -310l-82 -79l-273 217 l-274 -220zM274 393q0 -66 19.5 -111.5t52.5 -74.5t78 -41t96 -12q41 0 84 12t79 41t58.5 75t22.5 111v230q0 66 -22.5 111.5t-58.5 74.5t-79 41t-84 12q-43 0 -86 -12t-79 -41t-58.5 -75t-22.5 -111v-230z" />
<glyph unicode="&#xf5;" horiz-adv-x="1034" d="M98 358v295q0 88 34 157t90.5 117t133 73.5t162.5 25.5q92 0 169 -25.5t133.5 -73.5t87 -117t30.5 -157v-295q0 -88 -34 -156.5t-92 -115.5t-134 -71.5t-162 -24.5q-88 0 -164 24.5t-132 71.5t-89 115.5t-33 156.5zM176 1249q41 86 100.5 134.5t120.5 48.5q37 0 75 -15.5 t73 -33t67.5 -33t59.5 -15.5q31 0 61.5 21.5t63.5 70.5l106 -59q-45 -94 -99 -138t-120 -44q-37 0 -73 13t-70.5 29.5t-66.5 30t-62 13.5q-35 0 -62.5 -17.5t-66.5 -64.5zM274 393q0 -66 19.5 -111.5t52.5 -74.5t78 -41t96 -12q41 0 84 12t79 41t58.5 75t22.5 111v230 q0 66 -22.5 111.5t-58.5 74.5t-79 41t-84 12q-43 0 -86 -12t-79 -41t-58.5 -75t-22.5 -111v-230z" />
<glyph unicode="&#xf6;" horiz-adv-x="1034" d="M98 358v295q0 88 34 157t90.5 117t133 73.5t162.5 25.5q92 0 169 -25.5t133.5 -73.5t87 -117t30.5 -157v-295q0 -88 -34 -156.5t-92 -115.5t-134 -71.5t-162 -24.5q-88 0 -164 24.5t-132 71.5t-89 115.5t-33 156.5zM223 1309q0 41 29 69.5t70 28.5t70.5 -28.5t29.5 -69.5 t-30 -71t-70 -30q-41 0 -70 30t-29 71zM274 393q0 -66 19.5 -111.5t52.5 -74.5t78 -41t96 -12q41 0 84 12t79 41t58.5 75t22.5 111v230q0 66 -22.5 111.5t-58.5 74.5t-79 41t-84 12q-43 0 -86 -12t-79 -41t-58.5 -75t-22.5 -111v-230zM623 1309q0 41 29.5 69.5t70.5 28.5 t70.5 -28.5t29.5 -69.5t-29.5 -71t-70.5 -30t-70.5 30t-29.5 71z" />
<glyph unicode="&#xf7;" horiz-adv-x="1024" d="M57 537v129h924v-129h-924zM403 238q0 47 34 80.5t83 33.5q47 0 82 -33.5t35 -80.5q0 -49 -35 -83t-82 -34q-49 0 -83 33.5t-34 83.5zM403 969q0 47 34 81.5t83 34.5q47 0 82 -34.5t35 -81.5t-35 -82t-82 -35q-49 0 -83 35t-34 82z" />
<glyph unicode="&#xf8;" horiz-adv-x="1034" d="M98 45l72 92q-35 43 -53.5 98.5t-18.5 122.5v295q0 88 34 157t90.5 117t133 73.5t162.5 25.5q168 0 279 -82l63 82l78 -55l-72 -92q35 -45 53.5 -101.5t18.5 -124.5v-295q0 -88 -34 -156.5t-92 -115.5t-134 -71.5t-162 -24.5q-80 0 -150.5 19.5t-125.5 60.5l-66 -86z M274 393q0 -61 15 -102l399 514q-37 31 -81 44t-87 13t-86 -12t-79 -41t-58.5 -75t-22.5 -111v-230zM346 207q33 -29 77 -41t97 -12q41 0 84 12t79 41t58.5 75t22.5 111v230q0 57 -19 100z" />
<glyph unicode="&#xf9;" horiz-adv-x="1034" d="M98 352v664h176v-645q0 -119 52.5 -167t130.5 -46q61 0 142 32.5t163 92.5v733h176v-1016h-156l-20 109q-63 -39 -111.5 -62.5t-86.5 -36t-67.5 -16.5t-56.5 -4q-162 0 -252 94t-90 268zM303 1481l166 51l147 -363l-108 -41z" />
<glyph unicode="&#xfa;" horiz-adv-x="1034" d="M98 352v664h176v-645q0 -119 52.5 -167t130.5 -46q61 0 142 32.5t163 92.5v733h176v-1016h-156l-20 109q-63 -39 -111.5 -62.5t-86.5 -36t-67.5 -16.5t-56.5 -4q-162 0 -252 94t-90 268zM442 1169l148 363l166 -51l-205 -353z" />
<glyph unicode="&#xfb;" horiz-adv-x="1034" d="M98 352v664h176v-645q0 -119 52.5 -167t130.5 -46q61 0 142 32.5t163 92.5v733h176v-1016h-156l-20 109q-63 -39 -111.5 -62.5t-86.5 -36t-67.5 -16.5t-56.5 -4q-162 0 -252 94t-90 268zM164 1208l307 314h109l292 -310l-81 -79l-273 217l-274 -220z" />
<glyph unicode="&#xfc;" horiz-adv-x="1034" d="M98 352v664h176v-645q0 -119 52.5 -167t130.5 -46q61 0 142 32.5t163 92.5v733h176v-1016h-156l-20 109q-63 -39 -111.5 -62.5t-86.5 -36t-67.5 -16.5t-56.5 -4q-162 0 -252 94t-90 268zM213 1309q0 41 28.5 69.5t69.5 28.5t71 -28.5t30 -69.5t-30 -71t-71 -30t-69.5 30 t-28.5 71zM612 1309q0 41 30 69.5t71 28.5t70.5 -28.5t29.5 -69.5t-29.5 -71t-70.5 -30t-71 30t-30 71z" />
<glyph unicode="&#xfd;" horiz-adv-x="958" d="M20 1016h191l123 -447l112 -405h7l143 405l154 447h188l-518 -1428h-189l150 430l-86 72zM383 1169l147 363l166 -51l-204 -353z" />
<glyph unicode="&#xfe;" horiz-adv-x="1015" d="M96 -406v1817h174v-504q113 72 190 94.5t132 22.5q150 0 245 -88t95 -274v-312q0 -174 -95.5 -268t-261.5 -94q-55 0 -128.5 11t-176.5 52v-457h-174zM270 217q94 -39 160 -51t129 -12q41 0 77 9t62.5 32.5t42 63.5t15.5 99v291q0 117 -49.5 161t-131.5 44 q-29 0 -67.5 -10t-80.5 -26.5t-83 -38t-74 -44.5v-518z" />
<glyph unicode="&#xff;" horiz-adv-x="958" d="M20 1016h191l123 -447l112 -405h7l143 405l154 447h188l-518 -1428h-189l150 430l-86 72zM180 1309q0 41 29 69.5t70 28.5t70.5 -28.5t29.5 -69.5t-30 -71t-70 -30q-41 0 -70 30t-29 71zM580 1309q0 41 29.5 69.5t70.5 28.5t70.5 -28.5t29.5 -69.5t-29.5 -71t-70.5 -30 t-70.5 30t-29.5 71z" />
<glyph unicode="&#x100;" horiz-adv-x="1222" d="M27 0l491 1411h191l493 -1411h-198l-111 317h-561l-109 -317h-196zM336 1597v154h549v-154h-549zM393 489h441l-113 336l-105 328h-8l-102 -328z" />
<glyph unicode="&#x101;" horiz-adv-x="1015" d="M78 297q0 84 38 141.5t94 93t120.5 51t115.5 15.5h297v78q0 106 -59 148t-170 42q-53 0 -130 -15t-155 -79l-86 133q98 76 198.5 98.5t186.5 22.5q199 0 294.5 -87t95.5 -267v-672h-154l-21 94l-6 4q-121 -68 -197.5 -87t-138.5 -19q-147 0 -235 82t-88 223zM258 297 q0 -74 50 -110.5t128 -36.5q39 0 81 11t82 27.5t77 36t67 35.5v193h-268q-33 0 -70.5 -5.5t-70.5 -20.5t-54.5 -47t-21.5 -83zM260 1229v153h549v-153h-549z" />
<glyph unicode="&#x102;" horiz-adv-x="1222" d="M27 0l491 1411h191l493 -1411h-198l-111 317h-561l-109 -317h-196zM319 1761h150q2 -20 12.5 -42.5t28.5 -42t45 -32t59 -12.5q37 0 65 12.5t46 32t27.5 42t9.5 42.5h145q-4 -41 -18.5 -87t-48 -85t-88 -65.5t-138.5 -26.5t-140 26.5t-90 65.5t-49.5 85t-15.5 87z M393 489h441l-113 336l-105 328h-8l-102 -328z" />
<glyph unicode="&#x103;" horiz-adv-x="1015" d="M78 297q0 84 38 141.5t94 93t120.5 51t115.5 15.5h297v78q0 106 -59 148t-170 42q-53 0 -130 -15t-155 -79l-86 133q98 76 198.5 98.5t186.5 22.5q199 0 294.5 -87t95.5 -267v-672h-154l-21 94l-6 4q-121 -68 -197.5 -87t-138.5 -19q-147 0 -235 82t-88 223zM258 297 q0 -74 50 -110.5t128 -36.5q39 0 81 11t82 27.5t77 36t67 35.5v193h-268q-33 0 -70.5 -5.5t-70.5 -20.5t-54.5 -47t-21.5 -83zM264 1427h150q2 -20 12 -42.5t28.5 -42t45 -32t59.5 -12.5q37 0 64.5 12.5t46 32t28 42t9.5 42.5h145q-4 -41 -18.5 -87t-48 -84.5t-88 -65.5 t-138.5 -27t-140.5 27t-90 65.5t-49 84.5t-15.5 87z" />
<glyph unicode="&#x104;" horiz-adv-x="1222" d="M27 0l491 1411h191l493 -1411h-76q-66 -92 -65 -158q0 -43 25.5 -66.5t72.5 -23.5q25 0 51.5 10.5t63.5 26.5l43 -106q-41 -23 -90 -37.5t-101 -14.5q-88 0 -143 53.5t-55 127.5q0 41 17.5 86t58.5 102l-111 317h-561l-109 -317h-196zM393 489h441l-113 336l-105 328h-8 l-102 -328z" />
<glyph unicode="&#x105;" horiz-adv-x="1015" d="M78 297q0 84 38 141.5t94 93t120.5 51t115.5 15.5h297v78q0 106 -59 148t-170 42q-53 0 -130 -15t-155 -79l-86 133q98 76 198.5 98.5t186.5 22.5q199 0 294.5 -87t95.5 -267v-672h-31q-66 -92 -66 -158q0 -43 25.5 -66.5t73.5 -23.5q25 0 51 10.5t63 26.5l43 -106 q-41 -23 -90 -37.5t-100 -14.5q-88 0 -143.5 53.5t-55.5 127.5q0 41 17.5 86t58.5 102l-21 94l-6 4q-121 -68 -197.5 -87t-138.5 -19q-147 0 -235 82t-88 223zM258 297q0 -74 50 -110.5t128 -36.5q39 0 81 11t82 27.5t77 36t67 35.5v193h-268q-33 0 -70.5 -5.5t-70.5 -20.5 t-54.5 -47t-21.5 -83z" />
<glyph unicode="&#x106;" horiz-adv-x="1079" d="M111 449v516q0 106 42 191t111.5 145.5t162 92t194.5 31.5q115 0 215 -30.5t180 -96.5l-94 -147q-55 47 -138.5 73.5t-162.5 26.5q-59 0 -117 -18.5t-103 -57t-72.5 -100t-27.5 -149.5v-441q0 -86 28.5 -148.5t74 -101t101.5 -57t111 -18.5q80 0 163 22.5t149 75.5 l90 -145q-66 -53 -170.5 -90t-226.5 -37q-102 0 -195.5 31.5t-163 91t-110.5 145.5t-41 195zM471 1597l303 250l121 -125l-348 -211z" />
<glyph unicode="&#x107;" horiz-adv-x="878" d="M96 350v301q0 86 33 156t88 119t128 74.5t153 25.5q88 0 179 -23.5t163 -101.5l-105 -133q-68 63 -126 78.5t-103 15.5q-39 0 -81 -12t-76 -41t-55.5 -75t-21.5 -111v-230q0 -66 20.5 -111.5t53.5 -74.5t75 -41t85 -12q45 0 109.5 18t111.5 66l109 -123 q-72 -72 -159 -98.5t-175 -26.5q-90 0 -164 26.5t-128 73.5t-84 113.5t-30 146.5zM395 1169l148 363l166 -51l-205 -353z" />
<glyph unicode="&#x108;" horiz-adv-x="1079" d="M111 449v516q0 106 42 191t111.5 145.5t162 92t194.5 31.5q115 0 215 -30.5t180 -96.5l-94 -147q-55 47 -138.5 73.5t-162.5 26.5q-59 0 -117 -18.5t-103 -57t-72.5 -100t-27.5 -149.5v-441q0 -86 28.5 -148.5t74 -101t101.5 -57t111 -18.5q80 0 163 22.5t149 75.5 l90 -145q-66 -53 -170.5 -90t-226.5 -37q-102 0 -195.5 31.5t-163 91t-110.5 145.5t-41 195zM260 1591l307 262h109l293 -258l-62 -79l-293 176l-295 -179z" />
<glyph unicode="&#x109;" horiz-adv-x="878" d="M96 350v301q0 86 33 156t88 119t128 74.5t153 25.5q88 0 179 -23.5t163 -101.5l-105 -133q-68 63 -126 78.5t-103 15.5q-39 0 -81 -12t-76 -41t-55.5 -75t-21.5 -111v-230q0 -66 20.5 -111.5t53.5 -74.5t75 -41t85 -12q45 0 109.5 18t111.5 66l109 -123 q-72 -72 -159 -98.5t-175 -26.5q-90 0 -164 26.5t-128 73.5t-84 113.5t-30 146.5zM145 1208l308 314h108l293 -310l-82 -79l-272 217l-275 -220z" />
<glyph unicode="&#x10a;" horiz-adv-x="1079" d="M111 449v516q0 106 42 191t111.5 145.5t162 92t194.5 31.5q115 0 215 -30.5t180 -96.5l-94 -147q-55 47 -138.5 73.5t-162.5 26.5q-59 0 -117 -18.5t-103 -57t-72.5 -100t-27.5 -149.5v-441q0 -86 28.5 -148.5t74 -101t101.5 -57t111 -18.5q80 0 163 22.5t149 75.5 l90 -145q-66 -53 -170.5 -90t-226.5 -37q-102 0 -195.5 31.5t-163 91t-110.5 145.5t-41 195zM492 1667q0 39 26.5 73t79.5 34q55 0 85 -34t30 -73q0 -47 -30 -80t-85 -33q-53 0 -79.5 32t-26.5 81z" />
<glyph unicode="&#x10b;" horiz-adv-x="878" d="M96 350v301q0 86 33 156t88 119t128 74.5t153 25.5q88 0 179 -23.5t163 -101.5l-105 -133q-68 63 -126 78.5t-103 15.5q-39 0 -81 -12t-76 -41t-55.5 -75t-21.5 -111v-230q0 -66 20.5 -111.5t53.5 -74.5t75 -41t85 -12q45 0 109.5 18t111.5 66l109 -123 q-72 -72 -159 -98.5t-175 -26.5q-90 0 -164 26.5t-128 73.5t-84 113.5t-30 146.5zM383 1319q0 39 26.5 72.5t79.5 33.5q55 0 85 -33.5t30 -72.5q0 -47 -29.5 -80t-85.5 -33q-53 0 -79.5 32t-26.5 81z" />
<glyph unicode="&#x10c;" horiz-adv-x="1079" d="M111 449v516q0 106 42 191t111.5 145.5t162 92t194.5 31.5q115 0 215 -30.5t180 -96.5l-94 -147q-55 47 -138.5 73.5t-162.5 26.5q-59 0 -117 -18.5t-103 -57t-72.5 -100t-27.5 -149.5v-441q0 -86 28.5 -148.5t74 -101t101.5 -57t111 -18.5q80 0 163 22.5t149 75.5 l90 -145q-66 -53 -170.5 -90t-226.5 -37q-102 0 -195.5 31.5t-163 91t-110.5 145.5t-41 195zM242 1784l59 78l295 -179l293 177l61 -80l-293 -260h-108z" />
<glyph unicode="&#x10d;" horiz-adv-x="878" d="M96 350v301q0 86 33 156t88 119t128 74.5t153 25.5q88 0 179 -23.5t163 -101.5l-105 -133q-68 63 -126 78.5t-103 15.5q-39 0 -81 -12t-76 -41t-55.5 -75t-21.5 -111v-230q0 -66 20.5 -111.5t53.5 -74.5t75 -41t85 -12q45 0 109.5 18t111.5 66l109 -123 q-72 -72 -159 -98.5t-175 -26.5q-90 0 -164 26.5t-128 73.5t-84 113.5t-30 146.5zM131 1446l80 78l274 -219l273 217l82 -80l-293 -309h-109z" />
<glyph unicode="&#x10e;" horiz-adv-x="1239" d="M119 0v1411h530q100 0 188.5 -31.5t154 -91t102 -145.5t36.5 -193v-491q0 -102 -37.5 -187.5t-103 -145.5t-153.5 -93t-189 -33h-528zM209 1784l59 78l295 -179l293 177l62 -80l-293 -260h-109zM307 168h297q57 0 117.5 16.5t108 55.5t78 99t30.5 150v429q0 88 -28.5 149 t-76 100t-107.5 55.5t-122 16.5h-297v-1071z" />
<glyph unicode="&#x10f;" horiz-adv-x="1259" d="M96 352v312q0 86 28 153.5t76 113.5t113.5 70.5t139.5 24.5q55 0 129.5 -12.5t175.5 -44.5v497h174v-1466h-154l-20 106q-121 -72 -193.5 -94t-128.5 -22q-74 0 -136 21.5t-107.5 65.5t-71 112.5t-25.5 162.5zM272 362q0 -117 49.5 -160.5t131.5 -43.5q29 0 67.5 9 t79.5 25.5t82 38t76 45.5v521q-82 29 -154 46t-135 17q-82 2 -139.5 -48t-57.5 -169v-281zM1012 1110q47 35 73.5 66.5t30.5 93.5q-43 4 -68.5 38t-25.5 81q0 45 32.5 81.5t90.5 36.5q39 0 65.5 -15t43 -38.5t23.5 -53.5t7 -57q0 -57 -17.5 -105t-47 -88t-67.5 -70.5 t-79 -49.5z" />
<glyph unicode="&#x110;" horiz-adv-x="1239" d="M12 657v140h107v614h530q100 0 188.5 -31.5t154 -91t102 -145.5t36.5 -193v-491q0 -102 -37.5 -187.5t-103 -145.5t-153.5 -93t-189 -33h-528v657h-107zM307 168h297q57 0 117.5 16.5t108 55.5t78 99t30.5 150v429q0 88 -28.5 149t-76 100t-107.5 55.5t-122 16.5h-297 v-442h258v-140h-258v-489z" />
<glyph unicode="&#x111;" horiz-adv-x="1026" d="M96 352v312q0 86 28 153.5t76 113.5t113.5 70.5t139.5 24.5q55 0 129.5 -12.5t175.5 -44.5v202h-332v140h332v155h174v-155h92v-140h-92v-1171h-154l-20 106q-121 -72 -193.5 -94t-128.5 -22q-74 0 -136 21.5t-107.5 65.5t-71 112.5t-25.5 162.5zM272 362 q0 -117 49.5 -160.5t131.5 -43.5q29 0 67.5 9t79.5 25.5t82 38t76 45.5v521q-82 29 -154 46t-135 17q-82 2 -139.5 -48t-57.5 -169v-281z" />
<glyph unicode="&#x112;" horiz-adv-x="1140" d="M125 0v1411h942v-172h-754v-448h645v-170h-645v-451h754v-170h-942zM338 1597v154h549v-154h-549z" />
<glyph unicode="&#x113;" horiz-adv-x="989" d="M96 360v269q0 90 31 163.5t85 125t129 79t165 27.5t166 -26.5t130 -76t83.5 -120t29.5 -158.5v-201h-643v-67q0 -61 20.5 -103.5t56.5 -70t82 -39.5t95 -12q51 0 119 20t131 80l111 -121q-78 -80 -173.5 -109.5t-191.5 -29.5q-86 0 -163.5 23.5t-136 69.5t-92.5 115.5 t-34 161.5zM244 1229v153h549v-153h-549zM274 586h463v39q0 63 -18.5 108t-50 75t-73.5 43t-89 13t-88 -14t-74 -43t-51.5 -73t-18.5 -103v-45z" />
<glyph unicode="&#x114;" horiz-adv-x="1140" d="M125 0v1411h942v-172h-754v-448h645v-170h-645v-451h754v-170h-942zM319 1761h150q2 -20 12.5 -42.5t28.5 -42t45 -32t59 -12.5q37 0 65 12.5t46 32t27.5 42t9.5 42.5h145q-4 -41 -18.5 -87t-48 -85t-88 -65.5t-138.5 -26.5t-140 26.5t-90 65.5t-49.5 85t-15.5 87z" />
<glyph unicode="&#x115;" horiz-adv-x="989" d="M96 360v269q0 90 31 163.5t85 125t129 79t165 27.5t166 -26.5t130 -76t83.5 -120t29.5 -158.5v-201h-643v-67q0 -61 20.5 -103.5t56.5 -70t82 -39.5t95 -12q51 0 119 20t131 80l111 -121q-78 -80 -173.5 -109.5t-191.5 -29.5q-86 0 -163.5 23.5t-136 69.5t-92.5 115.5 t-34 161.5zM219 1427h150q2 -20 12 -42.5t28.5 -42t45 -32t59.5 -12.5q37 0 64.5 12.5t46 32t28 42t9.5 42.5h145q-4 -41 -18.5 -87t-48 -84.5t-88 -65.5t-138.5 -27t-140.5 27t-90 65.5t-49 84.5t-15.5 87zM274 586h463v39q0 63 -18.5 108t-50 75t-73.5 43t-89 13t-88 -14 t-74 -43t-51.5 -73t-18.5 -103v-45z" />
<glyph unicode="&#x116;" horiz-adv-x="1140" d="M125 0v1411h942v-172h-754v-448h645v-170h-645v-451h754v-170h-942zM494 1667q0 39 26.5 73t79.5 34q55 0 85 -34t30 -73q0 -47 -30 -80t-85 -33q-53 0 -79.5 32t-26.5 81z" />
<glyph unicode="&#x117;" horiz-adv-x="989" d="M96 360v269q0 90 31 163.5t85 125t129 79t165 27.5t166 -26.5t130 -76t83.5 -120t29.5 -158.5v-201h-643v-67q0 -61 20.5 -103.5t56.5 -70t82 -39.5t95 -12q51 0 119 20t131 80l111 -121q-78 -80 -173.5 -109.5t-191.5 -29.5q-86 0 -163.5 23.5t-136 69.5t-92.5 115.5 t-34 161.5zM274 586h463v39q0 63 -18.5 108t-50 75t-73.5 43t-89 13t-88 -14t-74 -43t-51.5 -73t-18.5 -103v-45zM397 1319q0 39 27 72.5t80 33.5q55 0 84.5 -33.5t29.5 -72.5q0 -47 -29.5 -80t-84.5 -33q-53 0 -80 32t-27 81z" />
<glyph unicode="&#x118;" horiz-adv-x="1140" d="M125 0v1411h942v-172h-754v-448h645v-170h-645v-451h754v-170q-66 -92 -66 -158q0 -43 26 -66.5t73 -23.5q25 0 51.5 10.5t62.5 26.5l43 -106q-41 -23 -90 -37.5t-100 -14.5q-88 0 -143.5 53.5t-55.5 127.5q0 41 16.5 85t57.5 103h-817z" />
<glyph unicode="&#x119;" horiz-adv-x="989" d="M96 360v269q0 90 31 163.5t85 125t129 79t165 27.5t166 -26.5t130 -76t83.5 -120t29.5 -158.5v-201h-643v-67q0 -61 20.5 -103.5t56.5 -70t82 -39.5t95 -12q51 0 119 20t131 80l111 -121q-31 -31 -58 -49q-33 -47 -48 -84t-15 -72q0 -43 25.5 -66.5t72.5 -23.5 q25 0 51.5 10.5t63.5 26.5l43 -107q-41 -23 -90 -37t-101 -14q-88 0 -143 53.5t-55 127.5q0 51 26 110q-35 -8 -68.5 -11t-68.5 -3q-86 0 -163.5 23.5t-136 69.5t-92.5 115.5t-34 161.5zM274 586h463v39q0 63 -18.5 108t-50 75t-73.5 43t-89 13t-88 -14t-74 -43t-51.5 -73 t-18.5 -103v-45z" />
<glyph unicode="&#x11a;" horiz-adv-x="1140" d="M125 0v1411h942v-172h-754v-448h645v-170h-645v-451h754v-170h-942zM250 1784l59 78l295 -179l293 177l61 -80l-292 -260h-109z" />
<glyph unicode="&#x11b;" horiz-adv-x="989" d="M96 360v269q0 90 31 163.5t85 125t129 79t165 27.5t166 -26.5t130 -76t83.5 -120t29.5 -158.5v-201h-643v-67q0 -61 20.5 -103.5t56.5 -70t82 -39.5t95 -12q51 0 119 20t131 80l111 -121q-78 -80 -173.5 -109.5t-191.5 -29.5q-86 0 -163.5 23.5t-136 69.5t-92.5 115.5 t-34 161.5zM154 1446l79 78l275 -219l272 217l82 -80l-293 -309h-108zM274 586h463v39q0 63 -18.5 108t-50 75t-73.5 43t-89 13t-88 -14t-74 -43t-51.5 -73t-18.5 -103v-45z" />
<glyph unicode="&#x11c;" horiz-adv-x="1187" d="M111 449v516q0 106 43 191t116.5 145.5t171 92t205.5 31.5q117 0 216.5 -30.5t178.5 -96.5l-94 -147q-55 47 -138 73.5t-163 26.5q-66 0 -127 -18.5t-110.5 -57t-79 -100t-29.5 -149.5v-441q0 -86 27.5 -148.5t74 -101t105.5 -57t123 -18.5q47 0 120.5 13t149.5 71v329 h-225v170h411v-573q-43 -49 -98 -85t-115.5 -57.5t-123 -31.5t-119.5 -10q-102 0 -196.5 31.5t-166 91t-114.5 145.5t-43 195zM260 1591l307 262h109l293 -258l-62 -79l-293 176l-295 -179z" />
<glyph unicode="&#x11d;" horiz-adv-x="1021" d="M88 350v314q0 174 95 268t245 94q55 0 130 -23.5t190 -95.5l20 109h156v-1077q0 -88 -36 -156t-96.5 -114t-138.5 -69.5t-161 -23.5q-90 0 -187.5 31t-179.5 102l108 129q25 -23 57 -41t67.5 -30.5t69.5 -19.5t62 -7q49 0 95.5 12t83.5 41t58.5 74t21.5 110v119 q-102 -63 -183.5 -84.5t-136.5 -21.5q-150 0 -245 93t-95 267zM162 1208l307 314h109l292 -310l-82 -79l-272 217l-274 -220zM264 373q0 -117 49 -167t131 -48q63 0 146.5 29.5t157.5 76.5v465q-76 55 -160 90t-144 35q-84 0 -132 -47t-48 -168v-266z" />
<glyph unicode="&#x11e;" horiz-adv-x="1187" d="M111 449v516q0 106 43 191t116.5 145.5t171 92t205.5 31.5q117 0 216.5 -30.5t178.5 -96.5l-94 -147q-55 47 -138 73.5t-163 26.5q-66 0 -127 -18.5t-110.5 -57t-79 -100t-29.5 -149.5v-441q0 -86 27.5 -148.5t74 -101t105.5 -57t123 -18.5q47 0 120.5 13t149.5 71v329 h-225v170h411v-573q-43 -49 -98 -85t-115.5 -57.5t-123 -31.5t-119.5 -10q-102 0 -196.5 31.5t-166 91t-114.5 145.5t-43 195zM319 1761h150q2 -20 12.5 -42.5t28.5 -42t45 -32t59 -12.5q37 0 65 12.5t46 32t27.5 42t9.5 42.5h145q-4 -41 -18.5 -87t-48 -85t-88 -65.5 t-138.5 -26.5t-140 26.5t-90 65.5t-49.5 85t-15.5 87z" />
<glyph unicode="&#x11f;" horiz-adv-x="1021" d="M88 350v314q0 174 95 268t245 94q55 0 130 -23.5t190 -95.5l20 109h156v-1077q0 -88 -36 -156t-96.5 -114t-138.5 -69.5t-161 -23.5q-90 0 -187.5 31t-179.5 102l108 129q25 -23 57 -41t67.5 -30.5t69.5 -19.5t62 -7q49 0 95.5 12t83.5 41t58.5 74t21.5 110v119 q-102 -63 -183.5 -84.5t-136.5 -21.5q-150 0 -245 93t-95 267zM260 1427h150q2 -20 12 -42.5t28.5 -42t45 -32t59.5 -12.5q37 0 64.5 12.5t46 32t27.5 42t9 42.5h146q-4 -41 -18.5 -87t-48 -84.5t-88 -65.5t-138.5 -27t-140.5 27t-90 65.5t-49 84.5t-15.5 87zM264 373 q0 -117 49 -167t131 -48q63 0 146.5 29.5t157.5 76.5v465q-76 55 -160 90t-144 35q-84 0 -132 -47t-48 -168v-266z" />
<glyph unicode="&#x120;" horiz-adv-x="1187" d="M111 449v516q0 106 43 191t116.5 145.5t171 92t205.5 31.5q117 0 216.5 -30.5t178.5 -96.5l-94 -147q-55 47 -138 73.5t-163 26.5q-66 0 -127 -18.5t-110.5 -57t-79 -100t-29.5 -149.5v-441q0 -86 27.5 -148.5t74 -101t105.5 -57t123 -18.5q47 0 120.5 13t149.5 71v329 h-225v170h411v-573q-43 -49 -98 -85t-115.5 -57.5t-123 -31.5t-119.5 -10q-102 0 -196.5 31.5t-166 91t-114.5 145.5t-43 195zM510 1667q0 39 26.5 73t79.5 34q55 0 85 -34t30 -73q0 -47 -29.5 -80t-85.5 -33q-53 0 -79.5 32t-26.5 81z" />
<glyph unicode="&#x121;" horiz-adv-x="1021" d="M88 350v314q0 174 95 268t245 94q55 0 130 -23.5t190 -95.5l20 109h156v-1077q0 -88 -36 -156t-96.5 -114t-138.5 -69.5t-161 -23.5q-90 0 -187.5 31t-179.5 102l108 129q25 -23 57 -41t67.5 -30.5t69.5 -19.5t62 -7q49 0 95.5 12t83.5 41t58.5 74t21.5 110v119 q-102 -63 -183.5 -84.5t-136.5 -21.5q-150 0 -245 93t-95 267zM264 373q0 -117 49 -167t131 -48q63 0 146.5 29.5t157.5 76.5v465q-76 55 -160 90t-144 35q-84 0 -132 -47t-48 -168v-266zM418 1319q0 39 26.5 72.5t79.5 33.5q55 0 85 -33.5t30 -72.5q0 -47 -29.5 -80 t-85.5 -33q-53 0 -79.5 32t-26.5 81z" />
<glyph unicode="&#x122;" horiz-adv-x="1187" d="M111 449v516q0 106 43 191t116.5 145.5t171 92t205.5 31.5q117 0 216.5 -30.5t178.5 -96.5l-94 -147q-55 47 -138 73.5t-163 26.5q-66 0 -127 -18.5t-110.5 -57t-79 -100t-29.5 -149.5v-441q0 -86 27.5 -148.5t74 -101t105.5 -57t123 -18.5q47 0 120.5 13t149.5 71v329 h-225v170h411v-573q-43 -49 -98 -85t-115.5 -57.5t-123 -31.5t-119.5 -10q-102 0 -196.5 31.5t-166 91t-114.5 145.5t-43 195zM477 -492q47 35 74 67t31 93q-43 4 -69 38t-26 81q0 45 33 82t90 37q39 0 65.5 -15.5t43 -39t24 -53t7.5 -56.5q0 -57 -17.5 -105.5t-47.5 -88.5 t-67.5 -70.5t-78.5 -48.5z" />
<glyph unicode="&#x123;" horiz-adv-x="1021" d="M88 350v314q0 174 95 268t245 94q55 0 130 -23.5t190 -95.5l20 109h156v-1077q0 -88 -36 -156t-96.5 -114t-138.5 -69.5t-161 -23.5q-90 0 -187.5 31t-179.5 102l108 129q25 -23 57 -41t67.5 -30.5t69.5 -19.5t62 -7q49 0 95.5 12t83.5 41t58.5 74t21.5 110v119 q-102 -63 -183.5 -84.5t-136.5 -21.5q-150 0 -245 93t-95 267zM264 373q0 -117 49 -167t131 -48q63 0 146.5 29.5t157.5 76.5v465q-76 55 -160 90t-144 35q-84 0 -132 -47t-48 -168v-266zM420 1272q0 57 17.5 105t46 88t67.5 71t80 49l61 -80q-47 -35 -73.5 -66.5 t-30.5 -92.5q43 -4 68.5 -38t25.5 -81q0 -45 -33 -82t-90 -37q-39 0 -65.5 15.5t-43 39t-23.5 52t-7 57.5z" />
<glyph unicode="&#x124;" horiz-adv-x="1263" d="M111 0v1411h188v-610h662v610h192v-1411h-192v629h-662v-629h-188zM262 1591l307 262h109l293 -258l-62 -79l-293 176l-294 -179z" />
<glyph unicode="&#x125;" horiz-adv-x="1017" d="M-168 1591l307 262h109l293 -258l-62 -79l-293 176l-295 -179zM96 0v1466h176v-565q123 80 201 102.5t133 22.5q166 0 247 -94t81 -268v-664h-176v641q0 119 -51.5 166t-128.5 47q-63 0 -145.5 -30.5t-160.5 -82.5v-741h-176z" />
<glyph unicode="&#x126;" horiz-adv-x="1263" d="M29 1092v139h82v180h188v-180h662v180h192v-180h88v-139h-88v-1092h-192v629h-662v-629h-188v1092h-82zM299 801h662v291h-662v-291z" />
<glyph unicode="&#x127;" horiz-adv-x="1017" d="M0 1174v137h96v155h176v-155h449v-137h-449v-273q123 80 201 102.5t133 22.5q166 0 247 -94t81 -268v-664h-176v641q0 119 -51.5 166t-128.5 47q-63 0 -145.5 -30.5t-160.5 -82.5v-741h-176v1174h-96z" />
<glyph unicode="&#x128;" horiz-adv-x="516" d="M-100 1597q41 86 100.5 134.5t120.5 48.5q37 0 74.5 -15.5t72.5 -33t68 -33t59 -15.5q31 0 61.5 21.5t63.5 71.5l107 -60q-45 -94 -99.5 -138t-119.5 -44q-37 0 -73 13.5t-71 29.5t-66.5 29.5t-62.5 13.5q-35 0 -62.5 -17.5t-66.5 -64.5zM164 0v1411h188v-1411h-188z" />
<glyph unicode="&#x129;" horiz-adv-x="686" d="M-20 1249q41 86 100.5 134.5t120.5 48.5q37 0 74.5 -15.5t72.5 -33t68 -33t59 -15.5q31 0 61.5 21.5t63.5 70.5l107 -59q-45 -94 -99.5 -138t-120.5 -44q-37 0 -72.5 13t-70.5 29.5t-66.5 30t-62.5 13.5q-35 0 -62.5 -17.5t-66.5 -64.5zM260 0v1016h174v-1016h-174z" />
<glyph unicode="&#x12a;" horiz-adv-x="516" d="M-14 1597v154h549v-154h-549zM164 0v1411h188v-1411h-188z" />
<glyph unicode="&#x12b;" horiz-adv-x="528" d="M-10 1229v153h549v-153h-549zM174 0v1016h174v-1016h-174z" />
<glyph unicode="&#x12c;" horiz-adv-x="555" d="M-6 1759h149q2 -20 12.5 -42.5t29 -42t45 -32t59.5 -12.5q37 0 64.5 12.5t46 32t27.5 42t9 42.5h146q-4 -41 -18.5 -87t-48.5 -85t-88 -65.5t-138 -26.5t-140.5 26.5t-90 65.5t-49 85t-15.5 87zM197 0v1411h188v-1411h-188z" />
<glyph unicode="&#x12d;" horiz-adv-x="567" d="M-10 1440h149q2 -20 12.5 -43t29 -42.5t45 -31.5t59.5 -12q37 0 64.5 12t46 31.5t27.5 42t9 43.5h146q-4 -41 -18.5 -87t-48.5 -85t-88 -65.5t-138 -26.5t-140.5 26.5t-90.5 65.5t-49 85t-15 87zM195 0v1016h174v-1016h-174z" />
<glyph unicode="&#x12e;" horiz-adv-x="516" d="M123 -188q0 41 16.5 85t57.5 103h-33v1411h188v-1411h-30q-66 -92 -66 -158q0 -43 25.5 -66.5t72.5 -23.5q25 0 51.5 10.5t63.5 26.5l43 -106q-41 -23 -90 -37.5t-100 -14.5q-88 0 -143.5 53.5t-55.5 127.5z" />
<glyph unicode="&#x12f;" horiz-adv-x="464" d="M96 -186q0 41 16.5 85t57.5 101h-25v1016h174v-1016h-26q-63 -90 -64 -156q0 -43 26 -66.5t73 -23.5q25 0 51.5 10.5t62.5 26.5l43 -106q-41 -23 -90 -37.5t-100 -14.5q-88 0 -143.5 53.5t-55.5 127.5zM123 1323q0 45 32.5 77t75.5 32q45 0 78 -32t33 -77t-33 -78 t-78 -33q-43 0 -75.5 33t-32.5 78z" />
<glyph unicode="&#x130;" horiz-adv-x="516" d="M154 1667q0 39 26.5 73t79.5 34q55 0 85 -34t30 -73q0 -47 -30 -80t-85 -33q-53 0 -79.5 32t-26.5 81zM164 0v1411h188v-1411h-188z" />
<glyph unicode="&#x131;" horiz-adv-x="489" d="M158 0v1016h174v-1016h-174z" />
<glyph unicode="&#x132;" horiz-adv-x="1480" d="M166 0v1411h188v-1411h-188zM459 92l88 152q72 -45 138.5 -64.5t129.5 -19.5q72 0 132.5 18.5t103.5 58t66.5 103t23.5 156.5v915h188v-956q0 -109 -38 -196t-104.5 -147.5t-154.5 -93t-186 -32.5q-96 0 -203.5 26.5t-183.5 79.5z" />
<glyph unicode="&#x133;" horiz-adv-x="835" d="M123 1323q0 45 32.5 77t75.5 32q45 0 78 -32t33 -77t-33 -78t-78 -33q-43 0 -75.5 33t-32.5 78zM145 0v1016h174v-1016h-174zM301 -258h80q82 0 112.5 36t30.5 140v1096h174v-1120q0 -170 -77.5 -241t-219.5 -71h-100v160zM508 1323q0 43 29.5 72.5t72.5 29.5t73 -29.5 t30 -72.5t-30 -73.5t-73 -30.5t-72.5 30.5t-29.5 73.5z" />
<glyph unicode="&#x134;" horiz-adv-x="1067" d="M31 94l88 152q72 -45 138.5 -64.5t129.5 -19.5q72 0 132.5 18.5t103.5 58.5t66.5 103.5t23.5 155.5v915h188v-956q0 -109 -38 -196t-104.5 -147.5t-154.5 -93t-186 -32.5q-96 0 -204 26.5t-183 79.5zM457 1595l307 263h108l293 -259l-61 -79l-293 176l-295 -178z" />
<glyph unicode="&#x135;" horiz-adv-x="688" d="M-10 1208l307 314h109l292 -310l-82 -79l-272 217l-274 -220zM31 -260h80q82 0 112.5 36t30.5 140v1098h174v-1123q0 -170 -78 -240.5t-219 -70.5h-100v160z" />
<glyph unicode="&#x136;" horiz-adv-x="1171" d="M117 0v1411h188v-733h14l599 733h227l-455 -557l502 -854h-221l-408 698l-258 -307v-391h-188zM473 -451q47 35 73.5 67t31.5 93q-43 4 -69 38t-26 81q0 45 33 82t90 37q39 0 65.5 -15.5t43 -39t23.5 -53t7 -56.5q0 -57 -17 -105.5t-47 -88.5t-68 -70.5t-78 -48.5z" />
<glyph unicode="&#x137;" horiz-adv-x="983" d="M129 0v1466h174v-798h150q63 0 114 23.5t92 107.5l113 221h197l-123 -258q-29 -59 -61.5 -100t-94.5 -64q43 -14 72 -37.5t47 -52.5t30.5 -61.5t22.5 -65.5l127 -381h-194l-107 326q-16 51 -35.5 84.5t-43 53t-54.5 27t-72 7.5h-180v-498h-174zM379 -492q47 35 73.5 67 t30.5 93q-43 4 -68.5 38t-25.5 81q0 45 33 82t90 37q39 0 65.5 -15.5t43 -39t23.5 -53t7 -56.5q0 -57 -17.5 -105.5t-47 -88.5t-67.5 -70.5t-79 -48.5z" />
<glyph unicode="&#x138;" horiz-adv-x="970" d="M102 0v1016h174v-432h173q29 0 57.5 3t53 17t46 42t37.5 77l98 293h181l-101 -295q-25 -74 -58.5 -124t-90.5 -67q70 -16 102.5 -70t56.5 -130l109 -330h-184l-88 281q-16 49 -36 78.5t-44.5 45t-53 20.5t-63.5 5h-195v-430h-174z" />
<glyph unicode="&#x139;" horiz-adv-x="1095" d="M135 0v1411h189v-1241h753v-170h-942zM164 1597l303 250l121 -125l-348 -211z" />
<glyph unicode="&#x13a;" horiz-adv-x="567" d="M170 248v1218h174v-1196q0 -80 36 -99t120 -15l4 -160q-29 -4 -54.5 -6t-48.5 -2q-72 0 -115.5 17.5t-70.5 51t-36 81.5t-9 110zM184 1618l303 250l121 -125l-348 -211z" />
<glyph unicode="&#x13b;" horiz-adv-x="1095" d="M135 0v1411h189v-1241h753v-170h-942zM457 -492q47 35 73.5 67t30.5 93q-43 4 -68.5 38t-25.5 81q0 45 32.5 82t90.5 37q39 0 65.5 -15.5t43 -39t23.5 -53t7 -56.5q0 -57 -17.5 -105.5t-47 -88.5t-67.5 -70.5t-79 -48.5z" />
<glyph unicode="&#x13c;" horiz-adv-x="567" d="M170 248v1218h174v-1196q0 -80 36 -99t120 -15l4 -160q-29 -4 -54.5 -6t-48.5 -2q-72 0 -115.5 17.5t-70.5 51t-36 81.5t-9 110zM172 -492q47 35 73.5 67t30.5 93q-43 4 -68.5 38t-25.5 81q0 45 33 82t90 37q39 0 65.5 -15.5t43 -39t23.5 -53t7 -56.5q0 -57 -17 -105.5 t-47 -88.5t-68 -70.5t-79 -48.5z" />
<glyph unicode="&#x13d;" horiz-adv-x="1095" d="M135 0v1411h189v-1241h753v-170h-942zM602 1030q47 35 73.5 66.5t31.5 93.5q-43 4 -69 38t-26 81q0 45 33 81.5t90 36.5q39 0 65.5 -15t43 -38.5t23.5 -53.5t7 -56q0 -57 -17 -105.5t-47 -88.5t-67.5 -70.5t-78.5 -49.5z" />
<glyph unicode="&#x13e;" horiz-adv-x="722" d="M170 248v1218h174v-1196q0 -80 36 -99t120 -15l4 -160q-29 -4 -54.5 -6t-48.5 -2q-72 0 -115.5 17.5t-70.5 51t-36 81.5t-9 110zM444 1073q47 35 74 66.5t31 93.5q-43 4 -68.5 38t-25.5 81q0 45 32.5 81.5t90.5 36.5q39 0 65.5 -15t42.5 -38.5t23.5 -53.5t7.5 -56 q0 -57 -17.5 -105.5t-47 -88.5t-67.5 -70.5t-79 -49.5z" />
<glyph unicode="&#x13f;" horiz-adv-x="1095" d="M135 0v1411h189v-1241h753v-170h-942zM594 733q0 39 26.5 73t79.5 34q55 0 85 -34t30 -73q0 -47 -29.5 -79.5t-85.5 -32.5q-53 0 -79.5 31.5t-26.5 80.5z" />
<glyph unicode="&#x140;" horiz-adv-x="667" d="M170 248v1218h174v-1196q0 -80 36 -99t120 -15l4 -160q-29 -4 -54.5 -6t-48.5 -2q-72 0 -115.5 17.5t-70.5 51t-36 81.5t-9 110zM440 788q0 39 27 73t80 34q55 0 85 -34t30 -73q0 -47 -30 -79.5t-85 -32.5q-53 0 -80 31.5t-27 80.5z" />
<glyph unicode="&#x141;" horiz-adv-x="1095" d="M-16 518l151 88v805h189v-696l335 196l68 -118l-403 -236v-387h753v-170h-942v449l-84 -50z" />
<glyph unicode="&#x142;" horiz-adv-x="628" d="M-10 621l211 120v725h174v-624l196 112l68 -118l-264 -152v-414q0 -80 35.5 -99t119.5 -15l5 -160q-29 -4 -54.5 -6t-48.5 -2q-72 0 -116 17.5t-70.5 51t-35.5 81.5t-9 110v336l-144 -82z" />
<glyph unicode="&#x143;" horiz-adv-x="1320" d="M121 0v1411h178l510 -764l188 -293h15v1057h188v-1411h-182l-494 737l-200 310h-15v-1047h-188zM573 1597l304 250l120 -125l-348 -211z" />
<glyph unicode="&#x144;" horiz-adv-x="1017" d="M90 0v1016h156l20 -113q66 41 118 65.5t93 37t73.5 16.5t59.5 4q150 0 234 -94t84 -268v-664h-176v641q0 119 -51.5 167t-129.5 46q-61 0 -144 -31.5t-161 -81.5v-741h-176zM395 1169l148 363l166 -51l-205 -353z" />
<glyph unicode="&#x145;" horiz-adv-x="1320" d="M121 0v1411h178l510 -764l188 -293h15v1057h188v-1411h-182l-494 737l-200 310h-15v-1047h-188zM539 -451q47 35 73.5 67t30.5 93q-43 4 -68.5 38t-25.5 81q0 45 32.5 82t90.5 37q39 0 65.5 -15.5t43 -39t23.5 -53t7 -56.5q0 -57 -17.5 -105.5t-47 -88.5t-67.5 -70.5 t-79 -48.5z" />
<glyph unicode="&#x146;" horiz-adv-x="1017" d="M90 0v1016h156l20 -113q66 41 118 65.5t93 37t73.5 16.5t59.5 4q150 0 234 -94t84 -268v-664h-176v641q0 119 -51.5 167t-129.5 46q-61 0 -144 -31.5t-161 -81.5v-741h-176zM367 -492q47 35 73.5 67t30.5 93q-43 4 -68.5 38t-25.5 81q0 45 32.5 82t90.5 37 q39 0 65.5 -15.5t43 -39t23.5 -53t7 -56.5q0 -57 -17.5 -105.5t-47 -88.5t-67.5 -70.5t-79 -48.5z" />
<glyph unicode="&#x147;" horiz-adv-x="1320" d="M121 0v1411h178l510 -764l188 -293h15v1057h188v-1411h-182l-494 737l-200 310h-15v-1047h-188zM299 1784l59 78l295 -179l293 177l62 -80l-293 -260h-109z" />
<glyph unicode="&#x148;" horiz-adv-x="1017" d="M90 0v1016h156l20 -113q66 41 118 65.5t93 37t73.5 16.5t59.5 4q150 0 234 -94t84 -268v-664h-176v641q0 119 -51.5 167t-129.5 46q-61 0 -144 -31.5t-161 -81.5v-741h-176zM117 1446l80 78l274 -219l272 217l82 -80l-293 -309h-108z" />
<glyph unicode="&#x149;" horiz-adv-x="1214" d="M0 997q47 35 73.5 67t30.5 93q-43 4 -68.5 38t-25.5 81q0 45 33 82t90 37q39 0 65.5 -15.5t43 -39t23.5 -53.5t7 -56q0 -57 -17 -105.5t-47 -88.5t-68 -70.5t-79 -48.5zM287 0v1016h155l21 -113q66 41 118 65.5t93 37t73.5 16.5t59.5 4q150 0 233.5 -94t83.5 -268v-664 h-176v641q0 119 -51 167t-129 46q-61 0 -144 -31.5t-161 -81.5v-741h-176z" />
<glyph unicode="&#x14a;" horiz-adv-x="1320" d="M121 0v1411h178l510 -764l188 -293h15v1057h188v-1538q0 -115 -60.5 -166t-148.5 -51t-180 43l45 123q29 -6 50.5 -11.5t39.5 -5.5q43 0 60.5 22.5t17.5 76.5v90l-500 743l-200 310h-15v-1047h-188z" />
<glyph unicode="&#x14b;" horiz-adv-x="1017" d="M90 0v1016h156l20 -113q66 41 118 65.5t93 37t73.5 16.5t59.5 4q150 0 234 -94t84 -268v-791q0 -115 -60.5 -166t-148.5 -51t-180 43l45 123q29 -6 50 -11.5t40 -5.5q43 0 60.5 22.5t17.5 76.5v737q0 121 -51.5 167t-129.5 46q-61 0 -144 -31.5t-161 -81.5v-741h-176z " />
<glyph unicode="&#x14c;" horiz-adv-x="1255" d="M106 461v487q0 106 38 194.5t106.5 151t165 97t211.5 34.5q113 0 209 -34.5t165.5 -97t108.5 -150.5t39 -195v-487q0 -109 -40 -197t-110.5 -149.5t-166 -95t-205.5 -33.5q-115 0 -211.5 33.5t-165 95t-106.5 149.5t-38 197zM297 483q0 -86 26.5 -147.5t71.5 -100 t105.5 -57t126.5 -18.5q68 0 127 18.5t105 57t72.5 100t26.5 147.5v443q0 86 -26.5 147.5t-71.5 101t-105.5 58t-127.5 18.5q-68 0 -128.5 -18.5t-104.5 -58t-70.5 -101t-26.5 -147.5v-443zM346 1597v154h549v-154h-549z" />
<glyph unicode="&#x14d;" horiz-adv-x="1034" d="M98 358v295q0 88 34 157t90.5 117t133 73.5t162.5 25.5q92 0 169 -25.5t133.5 -73.5t87 -117t30.5 -157v-295q0 -88 -34 -156.5t-92 -115.5t-134 -71.5t-162 -24.5q-88 0 -164 24.5t-132 71.5t-89 115.5t-33 156.5zM240 1229v153h548v-153h-548zM274 393 q0 -66 19.5 -111.5t52.5 -74.5t78 -41t96 -12q41 0 84 12t79 41t58.5 75t22.5 111v230q0 66 -22.5 111.5t-58.5 74.5t-79 41t-84 12q-43 0 -86 -12t-79 -41t-58.5 -75t-22.5 -111v-230z" />
<glyph unicode="&#x14e;" horiz-adv-x="1255" d="M106 461v487q0 106 38 194.5t106.5 151t165 97t211.5 34.5q113 0 209 -34.5t165.5 -97t108.5 -150.5t39 -195v-487q0 -109 -40 -197t-110.5 -149.5t-166 -95t-205.5 -33.5q-115 0 -211.5 33.5t-165 95t-106.5 149.5t-38 197zM297 483q0 -86 26.5 -147.5t71.5 -100 t105.5 -57t126.5 -18.5q68 0 127 18.5t105 57t72.5 100t26.5 147.5v443q0 86 -26.5 147.5t-71.5 101t-105.5 58t-127.5 18.5q-68 0 -128.5 -18.5t-104.5 -58t-70.5 -101t-26.5 -147.5v-443zM340 1761h149q2 -20 12.5 -42.5t29 -42t45 -32t59.5 -12.5q37 0 64.5 12.5t46 32 t27.5 42t9 42.5h146q-4 -41 -18.5 -87t-48.5 -85t-88 -65.5t-138 -26.5t-140.5 26.5t-90 65.5t-49 85t-15.5 87z" />
<glyph unicode="&#x14f;" horiz-adv-x="1034" d="M98 358v295q0 88 34 157t90.5 117t133 73.5t162.5 25.5q92 0 169 -25.5t133.5 -73.5t87 -117t30.5 -157v-295q0 -88 -34 -156.5t-92 -115.5t-134 -71.5t-162 -24.5q-88 0 -164 24.5t-132 71.5t-89 115.5t-33 156.5zM227 1427h150q2 -20 12 -42.5t28.5 -42t45 -32 t59.5 -12.5q37 0 64.5 12.5t46 32t28 42t9.5 42.5h145q-4 -41 -18.5 -87t-48 -84.5t-88 -65.5t-138.5 -27t-140 27t-90 65.5t-49.5 84.5t-15.5 87zM274 393q0 -66 19.5 -111.5t52.5 -74.5t78 -41t96 -12q41 0 84 12t79 41t58.5 75t22.5 111v230q0 66 -22.5 111.5t-58.5 74.5 t-79 41t-84 12q-43 0 -86 -12t-79 -41t-58.5 -75t-22.5 -111v-230z" />
<glyph unicode="&#x150;" horiz-adv-x="1255" d="M106 461v487q0 106 38 194.5t106.5 151t165 97t211.5 34.5q113 0 209 -34.5t165.5 -97t108.5 -150.5t39 -195v-487q0 -109 -40 -197t-110.5 -149.5t-166 -95t-205.5 -33.5q-115 0 -211.5 33.5t-165 95t-106.5 149.5t-38 197zM297 483q0 -86 26.5 -147.5t71.5 -100 t105.5 -57t126.5 -18.5q68 0 127 18.5t105 57t72.5 100t26.5 147.5v443q0 86 -26.5 147.5t-71.5 101t-105.5 58t-127.5 18.5q-68 0 -128.5 -18.5t-104.5 -58t-70.5 -101t-26.5 -147.5v-443zM358 1597l304 250l120 -125l-348 -211zM672 1597l303 250l121 -125l-348 -211z" />
<glyph unicode="&#x151;" horiz-adv-x="1034" d="M98 358v295q0 88 34 157t90.5 117t133 73.5t162.5 25.5q92 0 169 -25.5t133.5 -73.5t87 -117t30.5 -157v-295q0 -88 -34 -156.5t-92 -115.5t-134 -71.5t-162 -24.5q-88 0 -164 24.5t-132 71.5t-89 115.5t-33 156.5zM274 393q0 -66 19.5 -111.5t52.5 -74.5t78 -41t96 -12 q41 0 84 12t79 41t58.5 75t22.5 111v230q0 66 -22.5 111.5t-58.5 74.5t-79 41t-84 12q-43 0 -86 -12t-79 -41t-58.5 -75t-22.5 -111v-230zM313 1169l148 363l166 -51l-205 -353zM580 1169l147 363l166 -51l-205 -353z" />
<glyph unicode="&#x152;" horiz-adv-x="1802" d="M106 461v487q0 106 38 194.5t106.5 151t165 97t211.5 34.5q41 0 82 -3t77 -11h943v-172h-754v-448h645v-170h-645v-451h754v-170h-943q-72 -14 -159 -14q-115 0 -211.5 33.5t-165 95t-106.5 149.5t-38 197zM297 483q0 -86 26.5 -147.5t71.5 -100t105.5 -57t126.5 -18.5 q43 0 83 5t76 19v1043q-37 14 -76.5 19t-82.5 5q-68 0 -128.5 -18.5t-104.5 -58t-70.5 -101t-26.5 -147.5v-443z" />
<glyph unicode="&#x153;" horiz-adv-x="1656" d="M98 358v295q0 88 34 157t90.5 117t133 73.5t162.5 25.5q109 0 195 -34t141 -99q55 63 137 97t183 34q90 0 165.5 -26.5t130 -76t84 -120t29.5 -158.5v-201h-643v-67q0 -61 20.5 -103.5t56.5 -70t82 -39.5t95 -12q51 0 118.5 20t131.5 80l110 -121q-78 -80 -173 -109.5 t-191 -29.5q-104 0 -192.5 32.5t-147.5 98.5q-59 -66 -146.5 -98.5t-187.5 -32.5q-88 0 -164 24.5t-132 71.5t-89 115.5t-33 156.5zM274 393q0 -66 19.5 -111.5t52.5 -74.5t78 -41t96 -12q39 0 82 12t78 38.5t58.5 69.5t25.5 105v250q-2 63 -24.5 108t-58.5 73t-78 40 t-83 12q-43 0 -86 -12t-79 -41t-58.5 -75t-22.5 -111v-230zM942 586h463v39q0 63 -18.5 108t-50 75t-73.5 43t-89 13t-88.5 -14t-74 -43t-51 -73t-18.5 -103v-45z" />
<glyph unicode="&#x154;" horiz-adv-x="1171" d="M117 0v1411h585q106 0 182.5 -38t125.5 -98.5t71.5 -135t22.5 -150.5q0 -59 -16.5 -117.5t-49 -109.5t-79 -93t-105.5 -67l264 -602h-209l-239 567h-365v-567h-188zM305 741h359q111 0 181 65.5t70 182.5q0 115 -70.5 182.5t-180.5 67.5h-359v-498zM471 1597l303 250 l121 -125l-348 -211z" />
<glyph unicode="&#x155;" horiz-adv-x="679" d="M133 0v1016h156l18 -150h2q27 27 68 55.5t88 52t100 39t107 15.5v-186q-137 -12 -226.5 -48t-136.5 -67v-727h-176zM248 1169l147 363l166 -51l-205 -353z" />
<glyph unicode="&#x156;" horiz-adv-x="1171" d="M117 0v1411h585q106 0 182.5 -38t125.5 -98.5t71.5 -135t22.5 -150.5q0 -59 -16.5 -117.5t-49 -109.5t-79 -93t-105.5 -67l264 -602h-209l-239 567h-365v-567h-188zM305 741h359q111 0 181 65.5t70 182.5q0 115 -70.5 182.5t-180.5 67.5h-359v-498zM434 -451q47 35 74 67 t31 93q-43 4 -69 38t-26 81q0 45 33 82t90 37q39 0 65.5 -15.5t43 -39t24 -53t7.5 -56.5q0 -57 -17.5 -105.5t-47.5 -88.5t-67.5 -70.5t-78.5 -48.5z" />
<glyph unicode="&#x157;" horiz-adv-x="679" d="M74 -492q47 35 73.5 67t30.5 93q-43 4 -68.5 38t-25.5 81q0 45 33 82t90 37q39 0 65.5 -15.5t43 -39t23.5 -53t7 -56.5q0 -57 -17.5 -105.5t-47 -88.5t-67.5 -70.5t-79 -48.5zM133 0v1016h156l18 -150h2q27 27 68 55.5t88 52t100 39t107 15.5v-186q-137 -12 -226.5 -48 t-136.5 -67v-727h-176z" />
<glyph unicode="&#x158;" horiz-adv-x="1171" d="M117 0v1411h585q106 0 182.5 -38t125.5 -98.5t71.5 -135t22.5 -150.5q0 -59 -16.5 -117.5t-49 -109.5t-79 -93t-105.5 -67l264 -602h-209l-239 567h-365v-567h-188zM186 1784l60 78l295 -179l293 177l61 -80l-293 -260h-108zM305 741h359q111 0 181 65.5t70 182.5 q0 115 -70.5 182.5t-180.5 67.5h-359v-498z" />
<glyph unicode="&#x159;" horiz-adv-x="679" d="M-12 1446l80 78l274 -219l272 217l82 -80l-293 -309h-108zM133 0v1016h156l18 -150h2q27 27 68 55.5t88 52t100 39t107 15.5v-186q-137 -12 -226.5 -48t-136.5 -67v-727h-176z" />
<glyph unicode="&#x15a;" horiz-adv-x="1138" d="M53 162l107 135q94 -66 199.5 -102.5t215.5 -36.5q143 0 225.5 61.5t82.5 171.5q0 70 -32 114t-82 70.5t-110.5 41t-117.5 26.5q-84 16 -162 42t-137.5 71t-96 111.5t-36.5 164.5q0 88 31.5 163t91 128t143.5 84t190 31q123 0 240 -22.5t223 -88.5l-88 -160 q-90 53 -187.5 76t-189.5 23q-55 0 -104 -14.5t-86 -44t-58.5 -75t-21.5 -104.5t30.5 -96t78 -60.5t102.5 -38t104 -24.5q88 -20 172 -46t149.5 -71t105.5 -116.5t40 -184.5q0 -94 -35.5 -169t-102.5 -127t-159 -79.5t-205 -27.5q-145 0 -273 41t-247 133zM451 1597l303 250 l120 -125l-348 -211z" />
<glyph unicode="&#x15b;" horiz-adv-x="929" d="M57 121l97 129q76 -63 155.5 -87t173.5 -24q37 0 75 9.5t67.5 28t48 48t18.5 70.5q0 66 -47 94.5t-119 40.5q-78 12 -154.5 27.5t-138 46.5t-100.5 82t-39 135q0 70 29 127t80 96t117.5 60.5t144.5 21.5q115 0 203 -23.5t170 -82.5l-88 -132q-72 45 -139.5 63.5 t-145.5 18.5q-90 0 -145.5 -42t-55.5 -105q0 -53 45 -80t112.5 -42t145.5 -28.5t145.5 -44t112.5 -86t45 -151.5q0 -72 -30.5 -127t-84 -95t-127 -60.5t-161.5 -20.5q-106 0 -206.5 27.5t-203.5 105.5zM395 1169l148 363l166 -51l-205 -353z" />
<glyph unicode="&#x15c;" horiz-adv-x="1138" d="M53 162l107 135q94 -66 199.5 -102.5t215.5 -36.5q143 0 225.5 61.5t82.5 171.5q0 70 -32 114t-82 70.5t-110.5 41t-117.5 26.5q-84 16 -162 42t-137.5 71t-96 111.5t-36.5 164.5q0 88 31.5 163t91 128t143.5 84t190 31q123 0 240 -22.5t223 -88.5l-88 -160 q-90 53 -187.5 76t-189.5 23q-55 0 -104 -14.5t-86 -44t-58.5 -75t-21.5 -104.5t30.5 -96t78 -60.5t102.5 -38t104 -24.5q88 -20 172 -46t149.5 -71t105.5 -116.5t40 -184.5q0 -94 -35.5 -169t-102.5 -127t-159 -79.5t-205 -27.5q-145 0 -273 41t-247 133zM217 1591l307 262 h109l293 -258l-62 -79l-293 176l-295 -179z" />
<glyph unicode="&#x15d;" horiz-adv-x="929" d="M57 121l97 129q76 -63 155.5 -87t173.5 -24q37 0 75 9.5t67.5 28t48 48t18.5 70.5q0 66 -47 94.5t-119 40.5q-78 12 -154.5 27.5t-138 46.5t-100.5 82t-39 135q0 70 29 127t80 96t117.5 60.5t144.5 21.5q115 0 203 -23.5t170 -82.5l-88 -132q-72 45 -139.5 63.5 t-145.5 18.5q-90 0 -145.5 -42t-55.5 -105q0 -53 45 -80t112.5 -42t145.5 -28.5t145.5 -44t112.5 -86t45 -151.5q0 -72 -30.5 -127t-84 -95t-127 -60.5t-161.5 -20.5q-106 0 -206.5 27.5t-203.5 105.5zM121 1208l307 314h109l292 -310l-81 -79l-273 217l-274 -220z" />
<glyph unicode="&#x15e;" horiz-adv-x="1138" d="M53 162l107 135q94 -66 199.5 -102.5t215.5 -36.5q143 0 225.5 61.5t82.5 171.5q0 70 -32 114t-82 70.5t-110.5 41t-117.5 26.5q-84 16 -162 42t-137.5 71t-96 111.5t-36.5 164.5q0 88 31.5 163t91 128t143.5 84t190 31q123 0 240 -22.5t223 -88.5l-88 -160 q-90 53 -187.5 76t-189.5 23q-55 0 -104 -14.5t-86 -44t-58.5 -75t-21.5 -104.5t30.5 -96t78 -60.5t102.5 -38t104 -24.5q88 -20 172 -46t149.5 -71t105.5 -116.5t40 -184.5q0 -92 -33.5 -165.5t-97 -125t-151.5 -81t-195 -31.5l-20 -68q59 -4 98 -21.5t62.5 -43t33.5 -54 t10 -53.5q0 -27 -11 -56.5t-35.5 -55t-65.5 -42t-99 -16.5q-35 0 -89 6t-105 27l33 86q43 -14 84 -19.5t69 -5.5q51 0 76 21.5t25 52.5q0 25 -21.5 53.5t-81.5 28.5h-12t-17 -2l-63 37l37 127q-123 8 -235.5 49t-217.5 123z" />
<glyph unicode="&#x15f;" horiz-adv-x="929" d="M57 121l97 129q76 -63 155.5 -87t173.5 -24q37 0 75 9.5t67.5 28t48 48t18.5 70.5q0 66 -47 94.5t-119 40.5q-78 12 -154.5 27.5t-138 46.5t-100.5 82t-39 135q0 70 29 127t80 96t117.5 60.5t144.5 21.5q115 0 203 -23.5t170 -82.5l-88 -132q-72 45 -139.5 63.5 t-145.5 18.5q-90 0 -145.5 -42t-55.5 -105q0 -53 45 -80t112.5 -42t145.5 -28.5t145.5 -44t112.5 -86t45 -151.5q0 -68 -27.5 -122t-76.5 -92t-117.5 -60.5t-150.5 -26.5l-21 -70q59 -4 98 -21.5t63 -43t34 -54t10 -53.5q0 -27 -11.5 -56.5t-36 -55t-65.5 -42t-98 -16.5 q-35 0 -89 6t-106 27l33 86q43 -14 84 -19.5t70 -5.5q51 0 75.5 21.5t24.5 52.5q0 25 -21.5 53.5t-80.5 28.5h-12.5t-16.5 -2l-63 37l37 127q-90 6 -176.5 34.5t-172.5 96.5z" />
<glyph unicode="&#x160;" horiz-adv-x="1138" d="M53 162l107 135q94 -66 199.5 -102.5t215.5 -36.5q143 0 225.5 61.5t82.5 171.5q0 70 -32 114t-82 70.5t-110.5 41t-117.5 26.5q-84 16 -162 42t-137.5 71t-96 111.5t-36.5 164.5q0 88 31.5 163t91 128t143.5 84t190 31q123 0 240 -22.5t223 -88.5l-88 -160 q-90 53 -187.5 76t-189.5 23q-55 0 -104 -14.5t-86 -44t-58.5 -75t-21.5 -104.5t30.5 -96t78 -60.5t102.5 -38t104 -24.5q88 -20 172 -46t149.5 -71t105.5 -116.5t40 -184.5q0 -94 -35.5 -169t-102.5 -127t-159 -79.5t-205 -27.5q-145 0 -273 41t-247 133zM231 1784l60 78 l295 -179l293 177l61 -80l-293 -260h-108z" />
<glyph unicode="&#x161;" horiz-adv-x="929" d="M57 121l97 129q76 -63 155.5 -87t173.5 -24q37 0 75 9.5t67.5 28t48 48t18.5 70.5q0 66 -47 94.5t-119 40.5q-78 12 -154.5 27.5t-138 46.5t-100.5 82t-39 135q0 70 29 127t80 96t117.5 60.5t144.5 21.5q115 0 203 -23.5t170 -82.5l-88 -132q-72 45 -139.5 63.5 t-145.5 18.5q-90 0 -145.5 -42t-55.5 -105q0 -53 45 -80t112.5 -42t145.5 -28.5t145.5 -44t112.5 -86t45 -151.5q0 -72 -30.5 -127t-84 -95t-127 -60.5t-161.5 -20.5q-106 0 -206.5 27.5t-203.5 105.5zM127 1446l80 78l274 -219l273 217l82 -80l-293 -309h-109z" />
<glyph unicode="&#x162;" horiz-adv-x="1069" d="M33 1237v174h1003v-174h-405v-1237h-191v1237h-407zM399 -492q47 35 74 67t31 93q-43 4 -68.5 38t-25.5 81q0 45 32.5 82t89.5 37q39 0 66 -15.5t43 -39t23.5 -53t7.5 -56.5q0 -57 -17.5 -105.5t-47 -88.5t-67.5 -70.5t-79 -48.5z" />
<glyph unicode="&#x163;" horiz-adv-x="743" d="M61 858v158h148l41 235h129v-235h283v-158h-283v-496q0 -61 11 -101t30.5 -63.5t48.5 -31.5t66 -8q35 0 76.5 5t88.5 11l29 -149q-59 -20 -123.5 -27.5t-95.5 -7.5q-162 0 -233.5 73.5t-71.5 245.5v549h-144zM215 -492q47 35 73.5 67t30.5 93q-43 4 -68.5 38t-25.5 81 q0 45 33 82t90 37q39 0 65.5 -15.5t43 -39t23.5 -53t7 -56.5q0 -57 -17 -105.5t-47 -88.5t-68 -70.5t-79 -48.5z" />
<glyph unicode="&#x164;" horiz-adv-x="1069" d="M33 1237v174h1003v-174h-405v-1237h-191v1237h-407zM188 1784l60 78l295 -179l293 177l61 -80l-293 -260h-108z" />
<glyph unicode="&#x165;" horiz-adv-x="753" d="M61 858v158h148l41 235h129v-235h283v-158h-283v-496q0 -61 11 -101t30.5 -63.5t48.5 -31.5t66 -8q35 0 76.5 5t88.5 11l29 -149q-59 -20 -123.5 -27.5t-95.5 -7.5q-162 0 -233.5 73.5t-71.5 245.5v549h-144zM489 1186q47 35 74 66.5t31 93.5q-43 4 -68.5 37.5 t-25.5 80.5q0 45 32.5 82t90.5 37q39 0 65.5 -15.5t43 -39t23.5 -53t7 -56.5q0 -57 -17.5 -105t-47 -88t-67.5 -71t-79 -49z" />
<glyph unicode="&#x166;" horiz-adv-x="1069" d="M33 1237v174h1003v-174h-405v-412h299v-143h-299v-682h-191v682h-305v143h305v412h-407z" />
<glyph unicode="&#x167;" horiz-adv-x="743" d="M61 500v137h144v221h-144v158h148l41 235h129v-235h283v-158h-283v-221h283v-137h-283v-138q0 -61 11 -101t30.5 -63.5t48.5 -31.5t66 -8q35 0 76.5 5t88.5 11l29 -149q-59 -20 -123.5 -27.5t-95.5 -7.5q-162 0 -233.5 73.5t-71.5 245.5v191h-144z" />
<glyph unicode="&#x168;" horiz-adv-x="1249" d="M106 446v965h191v-930q0 -86 26.5 -147.5t71.5 -100t105.5 -57t126.5 -18.5q63 0 123.5 18.5t106.5 57t73.5 100t27.5 147.5v930h191v-965q0 -109 -42 -194.5t-113.5 -145t-166 -90t-200.5 -30.5t-201.5 30.5t-166.5 90t-112 145.5t-41 194zM262 1597q41 86 100.5 134.5 t120.5 48.5q37 0 75 -15.5t73 -33t67.5 -33t59.5 -15.5q31 0 61.5 21.5t63.5 71.5l106 -60q-45 -94 -99 -138t-120 -44q-37 0 -72.5 13.5t-70.5 29.5t-67 29.5t-62 13.5q-35 0 -62.5 -17.5t-66.5 -64.5z" />
<glyph unicode="&#x169;" horiz-adv-x="1034" d="M98 352v664h176v-645q0 -119 52.5 -167t130.5 -46q61 0 142 32.5t163 92.5v733h176v-1016h-156l-20 109q-63 -39 -111.5 -62.5t-86.5 -36t-67.5 -16.5t-56.5 -4q-162 0 -252 94t-90 268zM150 1249q41 86 100.5 134.5t120.5 48.5q37 0 74.5 -15.5t72.5 -33t67.5 -33 t59.5 -15.5q31 0 61.5 21.5t63.5 70.5l107 -59q-45 -94 -99.5 -138t-120.5 -44q-37 0 -72.5 13t-70.5 29.5t-66.5 30t-62.5 13.5q-35 0 -62.5 -17.5t-66.5 -64.5z" />
<glyph unicode="&#x16a;" horiz-adv-x="1249" d="M106 446v965h191v-930q0 -86 26.5 -147.5t71.5 -100t105.5 -57t126.5 -18.5q63 0 123.5 18.5t106.5 57t73.5 100t27.5 147.5v930h191v-965q0 -109 -42 -194.5t-113.5 -145t-166 -90t-200.5 -30.5t-201.5 30.5t-166.5 90t-112 145.5t-41 194zM348 1597v154h549v-154h-549z " />
<glyph unicode="&#x16b;" horiz-adv-x="1034" d="M98 352v664h176v-645q0 -119 52.5 -167t130.5 -46q61 0 142 32.5t163 92.5v733h176v-1016h-156l-20 109q-63 -39 -111.5 -62.5t-86.5 -36t-67.5 -16.5t-56.5 -4q-162 0 -252 94t-90 268zM248 1229v153h549v-153h-549z" />
<glyph unicode="&#x16c;" horiz-adv-x="1249" d="M106 446v965h191v-930q0 -86 26.5 -147.5t71.5 -100t105.5 -57t126.5 -18.5q63 0 123.5 18.5t106.5 57t73.5 100t27.5 147.5v930h191v-965q0 -109 -42 -194.5t-113.5 -145t-166 -90t-200.5 -30.5t-201.5 30.5t-166.5 90t-112 145.5t-41 194zM338 1735h149q2 -20 12.5 -43 t29 -42.5t45 -31.5t59.5 -12q37 0 64.5 12t46 31.5t27.5 42t9 43.5h146q-4 -41 -18.5 -87t-48.5 -85t-88 -66t-138 -27t-140.5 27t-90 66t-49 85t-15.5 87z" />
<glyph unicode="&#x16d;" horiz-adv-x="1034" d="M98 352v664h176v-645q0 -119 52.5 -167t130.5 -46q61 0 142 32.5t163 92.5v733h176v-1016h-156l-20 109q-63 -39 -111.5 -62.5t-86.5 -36t-67.5 -16.5t-56.5 -4q-162 0 -252 94t-90 268zM233 1427h150q2 -20 12.5 -42.5t28.5 -42t45 -32t59 -12.5q37 0 65 12.5t46 32 t27.5 42t9.5 42.5h145q-4 -41 -18.5 -87t-48 -84.5t-88 -65.5t-138.5 -27t-140 27t-90 65.5t-49.5 84.5t-15.5 87z" />
<glyph unicode="&#x16e;" horiz-adv-x="1249" d="M106 446v965h191v-930q0 -86 26.5 -147.5t71.5 -100t105.5 -57t126.5 -18.5q63 0 123.5 18.5t106.5 57t73.5 100t27.5 147.5v930h191v-965q0 -109 -42 -194.5t-113.5 -145t-166 -90t-200.5 -30.5t-201.5 30.5t-166.5 90t-112 145.5t-41 194zM428 1651q0 43 16.5 82 t46 66.5t68.5 44t82 16.5t82 -16.5t67.5 -44t45 -66.5t16.5 -82t-16.5 -82t-45 -67.5t-67.5 -45t-82 -16.5t-82 16.5t-68.5 45t-46 67.5t-16.5 82zM526 1651q0 -47 34 -80t81 -33t80 33t33 80t-33 78.5t-80 31.5t-81 -31.5t-34 -78.5z" />
<glyph unicode="&#x16f;" horiz-adv-x="1034" d="M98 352v664h176v-645q0 -119 52.5 -167t130.5 -46q61 0 142 32.5t163 92.5v733h176v-1016h-156l-20 109q-63 -39 -111.5 -62.5t-86.5 -36t-67.5 -16.5t-56.5 -4q-162 0 -252 94t-90 268zM309 1319q0 43 16.5 82t46 66.5t68.5 44t82 16.5t82 -16.5t67.5 -44t45 -66.5 t16.5 -82t-16.5 -82t-45 -67.5t-67.5 -45t-82 -16.5t-82 16.5t-68.5 45t-46 67.5t-16.5 82zM408 1319q0 -47 33.5 -80t80.5 -33t80 33t33 80t-33 79t-80 32t-80.5 -32t-33.5 -79z" />
<glyph unicode="&#x170;" horiz-adv-x="1249" d="M106 446v965h191v-930q0 -86 26.5 -147.5t71.5 -100t105.5 -57t126.5 -18.5q63 0 123.5 18.5t106.5 57t73.5 100t27.5 147.5v930h191v-965q0 -109 -42 -194.5t-113.5 -145t-166 -90t-200.5 -30.5t-201.5 30.5t-166.5 90t-112 145.5t-41 194zM383 1597l303 250l121 -125 l-348 -211zM696 1597l303 250l121 -125l-348 -211z" />
<glyph unicode="&#x171;" horiz-adv-x="1034" d="M98 352v664h176v-645q0 -119 52.5 -167t130.5 -46q61 0 142 32.5t163 92.5v733h176v-1016h-156l-20 109q-63 -39 -111.5 -62.5t-86.5 -36t-67.5 -16.5t-56.5 -4q-162 0 -252 94t-90 268zM319 1169l148 363l166 -51l-205 -353zM586 1169l147 363l166 -51l-205 -353z" />
<glyph unicode="&#x172;" horiz-adv-x="1249" d="M106 446v965h191v-930q0 -86 26.5 -147.5t71.5 -100t105.5 -57t126.5 -18.5q63 0 123.5 18.5t106.5 57t73.5 100t27.5 147.5v930h191v-965q0 -100 -36 -180t-97.5 -138t-143 -94t-176.5 -44q-29 -41 -42 -76t-13 -68q0 -43 25.5 -66.5t72.5 -23.5q25 0 51.5 10.5 t63.5 26.5l43 -106q-41 -23 -90 -37.5t-100 -14.5q-88 0 -143.5 53.5t-55.5 127.5q0 39 14.5 78.5t48.5 93.5q-98 8 -182 41.5t-147.5 92t-99.5 140.5t-36 184z" />
<glyph unicode="&#x173;" horiz-adv-x="1034" d="M98 352v664h176v-645q0 -119 52.5 -167t130.5 -46q61 0 142 32.5t163 92.5v733h176v-1016h-37q-61 -88 -61 -154q0 -43 25.5 -66.5t72.5 -23.5q25 0 51.5 10.5t63.5 26.5l43 -106q-41 -23 -90.5 -37.5t-100.5 -14.5q-88 0 -143 53.5t-55 127.5q0 41 16 85t57 103l-18 105 q-63 -39 -111.5 -62.5t-86.5 -36t-67.5 -16.5t-56.5 -4q-162 0 -252 94t-90 268z" />
<glyph unicode="&#x174;" horiz-adv-x="1765" d="M20 1411h205l160 -649l111 -467h10l112 469l164 647h199l168 -668l108 -448h11l106 455l164 661h205l-373 -1411h-213l-166 639l-102 434h-12l-107 -442l-164 -631h-213zM528 1591l308 262h108l293 -258l-61 -79l-293 176l-295 -179z" />
<glyph unicode="&#x175;" horiz-adv-x="1437" d="M41 1016h182l94 -369l97 -381h8l121 371l96 281h178l107 -320l106 -332h10l88 359l99 391h174l-275 -1016h-168l-124 379l-105 317h-8l-103 -323l-120 -373h-168zM367 1208l307 314h108l293 -310l-82 -79l-272 217l-275 -220z" />
<glyph unicode="&#x176;" horiz-adv-x="1099" d="M25 1411h206l164 -336l148 -330h14l152 340l159 326h205l-428 -868v-543h-190v541zM195 1591l307 262h108l293 -258l-61 -79l-293 176l-295 -179z" />
<glyph unicode="&#x177;" horiz-adv-x="958" d="M20 1016h191l123 -447l112 -405h7l143 405l154 447h188l-518 -1428h-189l150 430l-86 72zM111 1208l307 314h108l293 -310l-82 -79l-272 217l-275 -220z" />
<glyph unicode="&#x178;" horiz-adv-x="1099" d="M25 1411h206l164 -336l148 -330h14l152 340l159 326h205l-428 -868v-543h-190v541zM250 1661q0 41 28.5 69.5t69.5 28.5t71 -28.5t30 -69.5t-30 -70.5t-71 -29.5t-69.5 29.5t-28.5 70.5zM649 1661q0 41 30 69.5t71 28.5t70.5 -28.5t29.5 -69.5t-29.5 -70.5t-70.5 -29.5 t-71 29.5t-30 70.5z" />
<glyph unicode="&#x179;" horiz-adv-x="1071" d="M76 0v166l696 1073h-668v172h895v-162l-704 -1079h702v-170h-921zM412 1597l303 250l121 -125l-349 -211z" />
<glyph unicode="&#x17a;" horiz-adv-x="921" d="M84 0v139l534 719h-505v156h729v-144l-535 -714h535v-156h-758zM395 1169l148 363l166 -51l-205 -353z" />
<glyph unicode="&#x17b;" horiz-adv-x="1071" d="M76 0v166l696 1073h-668v172h895v-162l-704 -1079h702v-170h-921zM455 1667q0 39 26.5 73t79.5 34q55 0 85 -34t30 -73q0 -47 -30 -80t-85 -33q-53 0 -79.5 32t-26.5 81z" />
<glyph unicode="&#x17c;" horiz-adv-x="921" d="M84 0v139l534 719h-505v156h729v-144l-535 -714h535v-156h-758zM385 1319q0 39 26.5 72.5t80.5 33.5q55 0 84.5 -33.5t29.5 -72.5q0 -47 -29.5 -80t-84.5 -33q-53 0 -80 32t-27 81z" />
<glyph unicode="&#x17d;" horiz-adv-x="1071" d="M76 0v166l696 1073h-668v172h895v-162l-704 -1079h702v-170h-921zM182 1784l60 78l295 -179l292 177l62 -80l-293 -260h-109z" />
<glyph unicode="&#x17e;" horiz-adv-x="921" d="M84 0v139l534 719h-505v156h729v-144l-535 -714h535v-156h-758zM119 1446l80 78l274 -219l272 217l82 -80l-292 -309h-109z" />
<glyph unicode="&#x192;" horiz-adv-x="1024" d="M-2 -145l51 137q68 -27 123 -27q86 0 127 78t59 207l68 469h-178l-2 141h200l23 150q10 70 32.5 145.5t66.5 137t113 101.5t171 40q47 0 90 -8.5t74 -20.5l-39 -154q-29 10 -67 15.5t-66 5.5q-47 0 -81 -20.5t-56.5 -56.5t-37 -81t-20.5 -94l-22 -160h217l2 -141h-240 l-65 -467q-12 -98 -37 -178t-66 -137.5t-101.5 -89t-143.5 -31.5q-43 0 -97.5 11t-97.5 28z" />
<glyph unicode="&#x1a0;" horiz-adv-x="1255" d="M106 461v487q0 106 38 194.5t106.5 151t165 97t211.5 34.5q92 0 172 -23.5t145 -64.5q82 2 112.5 45t30.5 160v43h158v-67q0 -123 -41 -200t-131 -108q35 -55 55.5 -120.5t20.5 -141.5v-487q0 -109 -40 -197t-110.5 -149.5t-166 -95t-205.5 -33.5q-115 0 -211.5 33.5 t-165 95t-106.5 149.5t-38 197zM297 483q0 -86 26.5 -147.5t71.5 -100t105.5 -57t126.5 -18.5q68 0 127 18.5t105 57t72.5 100t26.5 147.5v443q0 86 -26.5 147.5t-71.5 101t-105.5 58t-127.5 18.5q-68 0 -128.5 -18.5t-104.5 -58t-70.5 -101t-26.5 -147.5v-443z" />
<glyph unicode="&#x1a1;" horiz-adv-x="1120" d="M98 358v295q0 88 34 157t90.5 117t133 73.5t162.5 25.5q178 0 293 -92q74 4 102.5 48t28.5 157v43h158v-68q0 -129 -46 -207t-145 -106q29 -68 29 -148v-295q0 -88 -34 -156.5t-92 -115.5t-134 -71.5t-162 -24.5q-88 0 -164 24.5t-132 71.5t-89 115.5t-33 156.5zM274 393 q0 -66 19.5 -111.5t52.5 -74.5t78 -41t96 -12q41 0 84 12t79 41t58.5 75t22.5 111v230q0 66 -22.5 111.5t-58.5 74.5t-79 41t-84 12q-43 0 -86 -12t-79 -41t-58.5 -75t-22.5 -111v-230z" />
<glyph unicode="&#x1af;" horiz-adv-x="1366" d="M106 446v965h191v-930q0 -86 26.5 -147.5t71.5 -100t105.5 -57t126.5 -18.5q63 0 123.5 18.5t106.5 57t73.5 100t27.5 147.5v930h191v-72q59 10 83.5 54.5t24.5 148.5v43h158v-67q0 -152 -63.5 -233t-202.5 -93v-746q0 -109 -42 -194.5t-113.5 -145t-166 -90 t-200.5 -30.5t-201.5 30.5t-166.5 90t-112 145.5t-41 194z" />
<glyph unicode="&#x1b0;" horiz-adv-x="1183" d="M98 352v664h176v-645q0 -119 52.5 -167t130.5 -46q61 0 142 32.5t163 92.5v733h176v-78q55 10 76.5 56t21.5 145v43h158v-68q0 -147 -61.5 -228t-194.5 -98v-788h-156l-20 109q-63 -39 -111.5 -62.5t-86.5 -36t-67.5 -16.5t-56.5 -4q-162 0 -252 94t-90 268z" />
<glyph unicode="&#x1fc;" horiz-adv-x="2000" d="M4 0l909 1411h1035v-172h-754v-448h645v-170h-645v-451h754v-170h-942v418h-531l-266 -418h-205zM575 573h431v666zM1251 1597l303 250l121 -125l-348 -211z" />
<glyph unicode="&#x1fd;" horiz-adv-x="1636" d="M80 297q0 84 38 141.5t94 93t120.5 51t116.5 15.5h296v78q-2 57 -20 94t-50 58.5t-75 29.5t-94 8q-53 0 -125 -15t-150 -79l-86 133q98 76 190.5 98.5t178.5 22.5q117 0 199 -32.5t131 -92.5q55 59 134 91t177 32q90 0 166 -26.5t130 -76t84 -120t30 -158.5v-190h-643 v-78q0 -61 20.5 -103.5t56 -70t81.5 -39.5t96 -12q51 0 118.5 20t130.5 80l111 -121q-78 -80 -173 -109.5t-192 -29.5q-113 0 -207 38t-153 115l-72 -45q-121 -70 -197.5 -88t-138.5 -18q-147 0 -235 82t-88 223zM260 297q0 -74 50 -110.5t128 -36.5q39 0 81 11t82 27.5 t77 36t67 35.5v193h-268q-33 0 -70.5 -5.5t-70.5 -20.5t-54.5 -47t-21.5 -83zM805 1169l147 363l166 -51l-205 -353zM924 596h462v29q0 63 -18 108t-50 75t-74 43t-89 13t-88 -14t-73.5 -43t-51 -73t-18.5 -103v-35z" />
<glyph unicode="&#x1fe;" horiz-adv-x="1255" d="M106 47l89 127q-88 117 -89 287v487q0 106 38 194.5t106.5 151t165 97t211.5 34.5q104 0 194 -30.5t158 -83.5l80 114l90 -59l-92 -133q43 -59 67.5 -130t24.5 -155v-487q0 -109 -40 -197t-110.5 -149.5t-166 -95t-205.5 -33.5q-217 0 -357 110l-75 -108zM297 483 q0 -78 20 -133l557 809q-47 47 -110.5 69.5t-136.5 22.5q-68 0 -128.5 -18.5t-104.5 -58t-70.5 -101t-26.5 -147.5v-443zM377 252q47 -49 111.5 -70.5t138.5 -21.5q68 0 127 18.5t105 57t72.5 100t26.5 147.5v443q0 72 -22 133zM512 1597l303 250l121 -125l-348 -211z" />
<glyph unicode="&#x1ff;" horiz-adv-x="1034" d="M98 45l72 92q-35 43 -53.5 98.5t-18.5 122.5v295q0 88 34 157t90.5 117t133 73.5t162.5 25.5q168 0 279 -82l63 82l78 -55l-72 -92q35 -45 53.5 -101.5t18.5 -124.5v-295q0 -88 -34 -156.5t-92 -115.5t-134 -71.5t-162 -24.5q-80 0 -150.5 19.5t-125.5 60.5l-66 -86z M274 393q0 -61 15 -102l399 514q-37 31 -81 44t-87 13t-86 -12t-79 -41t-58.5 -75t-22.5 -111v-230zM346 207q33 -29 77 -41t97 -12q41 0 84 12t79 41t58.5 75t22.5 111v230q0 57 -19 100zM442 1169l148 363l166 -51l-205 -353z" />
<glyph unicode="&#x218;" horiz-adv-x="1138" d="M53 162l107 135q94 -66 199.5 -102.5t215.5 -36.5q143 0 225.5 61.5t82.5 171.5q0 70 -32 114t-82 70.5t-110.5 41t-117.5 26.5q-84 16 -162 42t-137.5 71t-96 111.5t-36.5 164.5q0 88 31.5 163t91 128t143.5 84t190 31q123 0 240 -22.5t223 -88.5l-88 -160 q-90 53 -187.5 76t-189.5 23q-55 0 -104 -14.5t-86 -44t-58.5 -75t-21.5 -104.5t30.5 -96t78 -60.5t102.5 -38t104 -24.5q88 -20 172 -46t149.5 -71t105.5 -116.5t40 -184.5q0 -94 -35.5 -169t-102.5 -127t-159 -79.5t-205 -27.5q-145 0 -273 41t-247 133zM432 -492 q47 35 73.5 67t31.5 93q-43 4 -69 38t-26 81q0 45 33 82t90 37q39 0 65.5 -15.5t43 -39t24 -53t7.5 -56.5q0 -57 -17.5 -105.5t-47.5 -88.5t-67.5 -70.5t-78.5 -48.5z" />
<glyph unicode="&#x219;" horiz-adv-x="929" d="M57 121l97 129q76 -63 155.5 -87t173.5 -24q37 0 75 9.5t67.5 28t48 48t18.5 70.5q0 66 -47 94.5t-119 40.5q-78 12 -154.5 27.5t-138 46.5t-100.5 82t-39 135q0 70 29 127t80 96t117.5 60.5t144.5 21.5q115 0 203 -23.5t170 -82.5l-88 -132q-72 45 -139.5 63.5 t-145.5 18.5q-90 0 -145.5 -42t-55.5 -105q0 -53 45 -80t112.5 -42t145.5 -28.5t145.5 -44t112.5 -86t45 -151.5q0 -72 -30.5 -127t-84 -95t-127 -60.5t-161.5 -20.5q-106 0 -206.5 27.5t-203.5 105.5zM334 -492q47 35 73.5 67t30.5 93q-43 4 -68.5 38t-25.5 81q0 45 33 82 t90 37q39 0 65.5 -15.5t43 -39t23.5 -53t7 -56.5q0 -57 -17.5 -105.5t-47 -88.5t-67.5 -70.5t-79 -48.5z" />
<glyph unicode="&#x259;" horiz-adv-x="989" d="M88 373v200h643v68q0 121 -66.5 173t-166.5 52q-51 0 -125 -20.5t-137 -79.5l-105 121q90 84 180 111.5t191 27.5q86 0 159.5 -23.5t129 -69.5t86 -115.5t30.5 -162.5v-268q0 -90 -30.5 -163.5t-85 -125t-129 -79t-164.5 -27.5t-166 26.5t-130.5 75.5t-84 120t-29.5 159z M266 391q0 -127 67.5 -183t164.5 -56q45 0 87 14t74.5 43t51 73t18.5 103v45h-463v-39z" />
<glyph unicode="&#x2b9;" horiz-adv-x="552" d="M96 864l203 557l197 -49l-283 -545z" />
<glyph unicode="&#x2c6;" horiz-adv-x="1005" d="M162 1208l307 314h109l292 -310l-82 -79l-272 217l-274 -220z" />
<glyph unicode="&#x2c7;" horiz-adv-x="1005" d="M162 1446l80 78l274 -219l272 217l82 -80l-292 -309h-109z" />
<glyph unicode="&#x2d8;" horiz-adv-x="1046" d="M260 1427h150q2 -20 12 -42.5t28.5 -42t45 -32t59.5 -12.5q37 0 64.5 12.5t46 32t27.5 42t9 42.5h146q-4 -41 -18.5 -87t-48 -84.5t-88 -65.5t-138.5 -27t-140.5 27t-90 65.5t-49 84.5t-15.5 87z" />
<glyph unicode="&#x2d9;" horiz-adv-x="1005" d="M397 1319q0 39 27 72.5t80 33.5q55 0 84.5 -33.5t29.5 -72.5q0 -47 -29.5 -80t-84.5 -33q-53 0 -80 32t-27 81z" />
<glyph unicode="&#x2da;" horiz-adv-x="1005" d="M311 1319q0 43 16.5 82t46 66.5t68.5 44t82 16.5t82 -16.5t67.5 -44t45 -66.5t16.5 -82t-16.5 -82t-45 -67.5t-67.5 -45t-82 -16.5t-82 16.5t-68.5 45t-46 67.5t-16.5 82zM410 1319q0 -47 33.5 -80t80.5 -33t80 33t33 80t-33 79t-80 32t-80.5 -32t-33.5 -79z" />
<glyph unicode="&#x2db;" horiz-adv-x="575" d="M121 -188q0 41 17.5 87t60.5 105h118l2 -4q-66 -92 -65 -158q0 -43 25.5 -66.5t72.5 -23.5q25 0 51.5 10.5t63.5 26.5l43 -106q-41 -23 -90 -37.5t-101 -14.5q-88 0 -143 53.5t-55 127.5z" />
<glyph unicode="&#x2dc;" horiz-adv-x="1005" d="M137 1249q41 86 100.5 134.5t120.5 48.5q37 0 75 -15.5t73 -33t67.5 -33t59.5 -15.5q31 0 61.5 21.5t63.5 70.5l106 -59q-45 -94 -99 -138t-120 -44q-37 0 -72.5 13t-70.5 29.5t-67 30t-62 13.5q-35 0 -62.5 -17.5t-66.5 -64.5z" />
<glyph unicode="&#x2dd;" horiz-adv-x="1153" d="M313 1169l148 363l166 -51l-205 -353zM580 1169l147 363l166 -51l-205 -353z" />
<glyph unicode="&#x384;" horiz-adv-x="1005" d="M395 1169l148 363l166 -51l-205 -353z" />
<glyph unicode="&#x385;" horiz-adv-x="1001" d="M182 1309q0 41 29 69.5t70 28.5t70.5 -28.5t29.5 -69.5t-29.5 -71t-70.5 -30t-70 30t-29 71zM367 1169l147 363l166 -51l-205 -353zM635 1309q0 41 29.5 69.5t70.5 28.5t71 -28.5t30 -69.5t-30 -71t-71 -30t-70.5 30t-29.5 71z" />
<glyph unicode="&#x386;" horiz-adv-x="1222" d="M-51 1108l147 362l166 -51l-205 -352zM27 0l491 1411h191l493 -1411h-198l-111 317h-561l-109 -317h-196zM393 489h441l-113 336l-105 328h-8l-102 -328z" />
<glyph unicode="&#x387;" horiz-adv-x="512" d="M133 733q0 43 30 80t87 37q59 0 92 -37t33 -80q0 -51 -33 -87t-92 -36q-57 0 -87 35t-30 88z" />
<glyph unicode="&#x388;" horiz-adv-x="1140" d="M-266 1108l147 362l166 -51l-205 -352zM125 0v1411h942v-172h-754v-448h645v-170h-645v-451h754v-170h-942z" />
<glyph unicode="&#x389;" horiz-adv-x="1263" d="M-289 1108l148 362l166 -51l-205 -352zM111 0v1411h188v-610h662v610h192v-1411h-192v629h-662v-629h-188z" />
<glyph unicode="&#x38a;" horiz-adv-x="516" d="M-233 1108l147 362l166 -51l-205 -352zM164 0v1411h188v-1411h-188z" />
<glyph unicode="&#x38c;" horiz-adv-x="1255" d="M-215 1108l147 362l166 -51l-204 -352zM106 461v487q0 106 38 194.5t106.5 151t165 97t211.5 34.5q113 0 209 -34.5t165.5 -97t108.5 -150.5t39 -195v-487q0 -109 -40 -197t-110.5 -149.5t-166 -95t-205.5 -33.5q-115 0 -211.5 33.5t-165 95t-106.5 149.5t-38 197z M297 483q0 -86 26.5 -147.5t71.5 -100t105.5 -57t126.5 -18.5q68 0 127 18.5t105 57t72.5 100t26.5 147.5v443q0 86 -26.5 147.5t-71.5 101t-105.5 58t-127.5 18.5q-68 0 -128.5 -18.5t-104.5 -58t-70.5 -101t-26.5 -147.5v-443z" />
<glyph unicode="&#x38e;" horiz-adv-x="1099" d="M-319 1108l147 362l166 -51l-205 -352zM25 1411h206l164 -336l148 -330h14l152 340l159 326h205l-428 -868v-543h-190v541z" />
<glyph unicode="&#x38f;" horiz-adv-x="1271" d="M-201 1108l148 362l166 -51l-205 -352zM88 0v168h186q-72 57 -115.5 140t-43.5 192v458q0 106 41 192.5t111.5 148t165.5 94t204 32.5q106 0 201.5 -32.5t166 -94t111.5 -147.5t41 -193v-458q0 -109 -43 -192t-115 -140h189v-168h-447v207q43 12 84 37.5t73 63.5 t50.5 90.5t18.5 119.5v410q0 86 -27 146.5t-72 100t-105.5 58t-125.5 18.5q-68 0 -128 -18.5t-105.5 -58t-72 -100t-26.5 -146.5v-410q0 -68 19.5 -120t51.5 -90t72.5 -63.5t83.5 -37.5v-207h-444z" />
<glyph unicode="&#x390;" horiz-adv-x="489" d="M-49 1309q0 41 28.5 69.5t69.5 28.5t71 -28.5t30 -69.5t-30 -71t-71 -30t-69.5 30t-28.5 71zM135 1169l148 363l166 -51l-205 -353zM158 0v1016h174v-1016h-174zM403 1309q0 41 30 69.5t71 28.5t70.5 -28.5t29.5 -69.5t-29.5 -71t-70.5 -30t-71 30t-30 71z" />
<glyph unicode="&#x391;" horiz-adv-x="1222" d="M27 0l491 1411h191l493 -1411h-198l-111 317h-561l-109 -317h-196zM393 489h441l-113 336l-105 328h-8l-102 -328z" />
<glyph unicode="&#x392;" horiz-adv-x="1214" d="M117 0v1411h585q96 0 171 -30.5t126.5 -82t78 -119t26.5 -141.5q0 -84 -39 -164.5t-135 -134.5q102 -53 149 -143t47 -182q0 -76 -25.5 -150t-75.5 -132t-126 -95t-174 -37h-608zM307 170h381q125 0 188.5 63.5t63.5 180.5q0 57 -21.5 101t-57.5 75t-82 47t-95 16h-377 v-483zM307 823h375q47 0 90 13.5t75 40t51.5 66.5t19.5 91q0 111 -71 158t-181 47h-359v-416z" />
<glyph unicode="&#x393;" horiz-adv-x="1050" d="M125 0v1411h942v-172h-754v-1239h-188z" />
<glyph unicode="&#x394;" horiz-adv-x="1222" d="M27 0l491 1411h191l493 -1411h-1175zM285 172h655l-164 487l-158 488h-12l-151 -469z" />
<glyph unicode="&#x395;" horiz-adv-x="1140" d="M125 0v1411h942v-172h-754v-448h645v-170h-645v-451h754v-170h-942z" />
<glyph unicode="&#x396;" horiz-adv-x="1071" d="M76 0v166l696 1073h-668v172h895v-162l-704 -1079h702v-170h-921z" />
<glyph unicode="&#x397;" horiz-adv-x="1263" d="M111 0v1411h188v-610h662v610h192v-1411h-192v629h-662v-629h-188z" />
<glyph unicode="&#x398;" horiz-adv-x="1249" d="M106 461v487q0 106 38 194.5t106.5 151t165 97t211.5 34.5q113 0 209 -34.5t165.5 -97t108.5 -150.5t39 -195v-487q0 -109 -40 -197t-110.5 -149.5t-166 -95t-205.5 -33.5q-115 0 -211.5 33.5t-165 95t-106.5 149.5t-38 197zM297 483q0 -86 26.5 -147.5t71.5 -100 t105.5 -57t126.5 -18.5q68 0 127 18.5t105 57t72.5 100t26.5 147.5v443q0 86 -26.5 147.5t-71.5 101t-105.5 58t-127.5 18.5q-68 0 -128.5 -18.5t-104.5 -58t-70.5 -101t-26.5 -147.5v-443zM383 621v182h494v-182h-494z" />
<glyph unicode="&#x399;" horiz-adv-x="516" d="M164 0v1411h188v-1411h-188z" />
<glyph unicode="&#x39a;" horiz-adv-x="1171" d="M117 0v1411h188v-733h14l599 733h227l-455 -557l502 -854h-221l-408 698l-258 -307v-391h-188z" />
<glyph unicode="&#x39b;" horiz-adv-x="1222" d="M27 0l491 1411h191l493 -1411h-198l-220 643l-163 502h-17l-160 -494l-221 -651h-196z" />
<glyph unicode="&#x39c;" horiz-adv-x="1519" d="M119 0v1411h180l285 -575l178 -375h12l174 375l281 575h174v-1411h-189v961h-10l-129 -273l-237 -479h-142l-225 440l-154 312h-10v-961h-188z" />
<glyph unicode="&#x39d;" horiz-adv-x="1320" d="M121 0v1411h178l510 -764l188 -293h15v1057h188v-1411h-182l-494 737l-200 310h-15v-1047h-188z" />
<glyph unicode="&#x39e;" horiz-adv-x="1107" d="M88 0v170h369v457h-258v172h258v438h-369v174h924v-174h-381v-438h270v-172h-270v-457h381v-170h-924z" />
<glyph unicode="&#x39f;" horiz-adv-x="1255" d="M106 461v487q0 106 38 194.5t106.5 151t165 97t211.5 34.5q113 0 209 -34.5t165.5 -97t108.5 -150.5t39 -195v-487q0 -109 -40 -197t-110.5 -149.5t-166 -95t-205.5 -33.5q-115 0 -211.5 33.5t-165 95t-106.5 149.5t-38 197zM297 483q0 -86 26.5 -147.5t71.5 -100 t105.5 -57t126.5 -18.5q68 0 127 18.5t105 57t72.5 100t26.5 147.5v443q0 86 -26.5 147.5t-71.5 101t-105.5 58t-127.5 18.5q-68 0 -128.5 -18.5t-104.5 -58t-70.5 -101t-26.5 -147.5v-443z" />
<glyph unicode="&#x3a0;" horiz-adv-x="1263" d="M111 0v1411h1042v-1411h-192v1239h-662v-1239h-188z" />
<glyph unicode="&#x3a1;" horiz-adv-x="1134" d="M111 0v1411h585q102 0 177 -38t124.5 -98.5t74 -135t24.5 -150.5t-28 -150.5t-79 -135t-124.5 -98.5t-168.5 -38h-397v-567h-188zM299 741h358q111 0 181.5 65.5t70.5 182.5q0 115 -70.5 182.5t-181.5 67.5h-358v-498z" />
<glyph unicode="&#x3a3;" horiz-adv-x="1030" d="M63 0v164l340 569l-340 520v158h885v-174h-657l332 -504l-344 -565h688v-168h-904z" />
<glyph unicode="&#x3a4;" horiz-adv-x="1069" d="M33 1237v174h1003v-174h-405v-1237h-191v1237h-407z" />
<glyph unicode="&#x3a5;" horiz-adv-x="1099" d="M25 1411h206l164 -336l148 -330h14l152 340l159 326h205l-428 -868v-543h-190v541z" />
<glyph unicode="&#x3a6;" horiz-adv-x="1581" d="M125 643v199q0 104 40 196t113.5 163t179 115t238.5 48v61h191v-61q133 -4 238.5 -47t179 -113.5t113.5 -164t40 -197.5v-193q0 -109 -38 -204t-110.5 -166.5t-179 -115.5t-243.5 -48v-115h-191v115q-137 4 -243.5 47t-179 113.5t-110.5 165t-38 202.5zM315 653 q0 -84 29 -150.5t79 -113.5t119.5 -72.5t153.5 -27.5v901q-86 -2 -155.5 -29.5t-119.5 -75t-78 -114t-28 -148.5v-170zM887 289q82 2 152.5 27.5t120.5 72.5t79 113.5t29 150.5v170q0 82 -28 148.5t-78 114t-119.5 75t-155.5 29.5v-901z" />
<glyph unicode="&#x3a7;" horiz-adv-x="1126" d="M18 0l439 723l-410 688h219l297 -532l299 532h219l-409 -688l438 -723h-219l-328 569l-325 -569h-220z" />
<glyph unicode="&#x3a8;" horiz-adv-x="1525" d="M117 764v647h184v-629q0 -84 36 -146.5t91 -103t119.5 -63.5t122.5 -25v975h190v-975q55 2 119.5 22.5t120 61.5t93.5 101.5t38 144.5v637h184v-653q0 -106 -47 -192.5t-125 -150t-178 -100t-205 -43.5v-272h-190v274q-106 2 -207 39t-177.5 101.5t-122.5 153.5t-46 196z " />
<glyph unicode="&#x3a9;" horiz-adv-x="1271" d="M88 0v168h186q-72 57 -115.5 140t-43.5 192v458q0 106 41 192.5t111.5 148t165.5 94t204 32.5q106 0 201.5 -32.5t166 -94t111.5 -147.5t41 -193v-458q0 -109 -43 -192t-115 -140h189v-168h-447v207q43 12 84 37.5t73 63.5t50.5 90.5t18.5 119.5v410q0 86 -27 146.5 t-72 100t-105.5 58t-125.5 18.5q-68 0 -128 -18.5t-105.5 -58t-72 -100t-26.5 -146.5v-410q0 -68 19.5 -120t51.5 -90t72.5 -63.5t83.5 -37.5v-207h-444z" />
<glyph unicode="&#x3aa;" horiz-adv-x="516" d="M-45 1647q0 41 28.5 69.5t69.5 28.5t71 -28.5t30 -69.5t-30 -71t-71 -30t-69.5 30t-28.5 71zM164 0v1411h188v-1411h-188zM354 1647q0 41 30 69.5t71 28.5t70.5 -28.5t29.5 -69.5t-29.5 -71t-70.5 -30t-71 30t-30 71z" />
<glyph unicode="&#x3ab;" horiz-adv-x="1099" d="M25 1411h206l164 -336l148 -330h14l152 340l159 326h205l-428 -868v-543h-190v541zM254 1651q0 41 28.5 69.5t69.5 28.5t71 -28.5t30 -69.5t-30 -71t-71 -30t-69.5 30t-28.5 71zM653 1651q0 41 30 69.5t71 28.5t70.5 -28.5t29.5 -69.5t-29.5 -71t-70.5 -30t-71 30t-30 71 z" />
<glyph unicode="&#x3ac;" horiz-adv-x="1026" d="M92 352v312q0 174 95.5 268t244.5 94q55 0 129 -20.5t195 -90.5l20 99h152v-1014h-154l-20 92q-117 -66 -192 -84t-130 -18q-150 0 -245 94t-95 268zM268 375q0 -119 51.5 -167t129.5 -46q63 0 142 27.5t163 80.5v475q-80 49 -165 81t-140 32q-82 0 -131.5 -49 t-49.5 -166v-268zM432 1169l148 363l165 -51l-204 -353z" />
<glyph unicode="&#x3ad;" horiz-adv-x="868" d="M100 295q0 23 7.5 55.5t26 67.5t48 65.5t74.5 48.5q-47 18 -75.5 43t-43 52.5t-18.5 54.5t-4 49q0 55 24.5 108.5t71.5 95.5t116.5 66.5t159.5 24.5q98 0 187.5 -28.5t161.5 -96.5l-105 -121q-53 47 -115.5 64.5t-121.5 17.5q-86 0 -146.5 -34.5t-60.5 -102.5 q0 -59 44 -92t126 -33h166v-145h-181q-82 0 -127 -43t-45 -115q0 -57 55.5 -101t176.5 -44q59 0 124.5 17t118.5 71l107 -121q-80 -72 -170 -99.5t-188 -27.5q-190 0 -292 84t-102 219zM377 1169l147 363l166 -51l-205 -353z" />
<glyph unicode="&#x3ae;" horiz-adv-x="1017" d="M90 0v1016h156l20 -113q66 41 118 65.5t93 37t73.5 16.5t59.5 4q150 0 234 -94t84 -268v-664h-176v641q0 119 -51.5 167t-129.5 46q-61 0 -144 -31.5t-161 -81.5v-741h-176zM395 1169l148 363l166 -51l-205 -353z" />
<glyph unicode="&#x3af;" horiz-adv-x="489" d="M158 0v1016h174v-1016h-174zM186 1169l148 363l166 -51l-205 -353z" />
<glyph unicode="&#x3b0;" horiz-adv-x="1028" d="M92 350v666h176v-623q0 -66 19.5 -111.5t53.5 -74.5t78 -41t95 -12q41 0 84 12t78 41t57.5 75t22.5 111v623h176v-666q0 -88 -37 -155.5t-96.5 -112.5t-135 -68.5t-153.5 -23.5t-152.5 23.5t-134 68.5t-95.5 112.5t-36 155.5zM186 1309q0 41 29 69.5t70 28.5t70.5 -28.5 t29.5 -69.5t-29.5 -71t-70.5 -30t-70 30t-29 71zM371 1169l147 363l166 -51l-205 -353zM639 1309q0 41 29.5 69.5t70.5 28.5t71 -28.5t30 -69.5t-30 -71t-71 -30t-70.5 30t-29.5 71z" />
<glyph unicode="&#x3b1;" horiz-adv-x="1026" d="M92 352v312q0 174 95.5 268t244.5 94q55 0 129 -20.5t195 -90.5l20 99h152v-1014h-154l-20 92q-117 -66 -192 -84t-130 -18q-150 0 -245 94t-95 268zM268 375q0 -119 51.5 -167t129.5 -46q63 0 142 27.5t163 80.5v475q-80 49 -165 81t-140 32q-82 0 -131.5 -49 t-49.5 -166v-268z" />
<glyph unicode="&#x3b2;" horiz-adv-x="1028" d="M102 0v1079q0 92 30 164t83 121t126 74.5t159 25.5q106 0 180 -32.5t119 -84t64.5 -112.5t19.5 -117q0 -29 -6.5 -65.5t-21.5 -73.5t-39.5 -69.5t-61.5 -57.5q47 -18 81.5 -52t57 -77t34 -91t11.5 -93v-187q0 -174 -95 -268t-245 -94q-55 0 -136 21.5t-186 82.5l-20 -94 h-154zM276 260q35 -18 75 -35.5t80 -33t78 -24.5t66 -9q61 0 98.5 19.5t57 50t25.5 70.5t6 83v170q0 92 -59.5 146.5t-159.5 54.5h-131v143h114q51 0 87 21.5t59.5 53t35 68.5t11.5 68q0 39 -13.5 76t-40 66.5t-68.5 48t-97 18.5q-61 0 -104.5 -19.5t-69 -50.5t-38 -70.5 t-12.5 -80.5v-834z" />
<glyph unicode="&#x3b3;" horiz-adv-x="925" d="M18 1006q57 18 103 18q70 0 108.5 -28.5t65.5 -114.5l178 -574h8l254 707h183l-359 -951v-473h-174v461l-240 717q-12 37 -22 56.5t-20.5 28.5t-26 10t-35.5 1h-8z" />
<glyph unicode="&#x3b4;" horiz-adv-x="1030" d="M98 356v265q0 115 61.5 207t153.5 133q-84 47 -111.5 99t-27.5 105q0 139 98.5 216t253.5 77q104 0 188.5 -19.5t159.5 -66.5l-81 -137q-66 39 -122.5 55.5t-127.5 16.5q-90 0 -141.5 -30t-51.5 -99q0 -31 28 -58.5t69.5 -50t93 -42t98.5 -34.5q135 -41 217 -136t82 -236 v-263q0 -88 -37 -156.5t-96.5 -115.5t-135 -71.5t-153.5 -24.5q-84 0 -159.5 24.5t-133 70.5t-91.5 114.5t-34 156.5zM274 389q0 -66 22.5 -113t58.5 -75.5t79 -42t86 -13.5q41 0 84 13.5t79 42t58.5 76t22.5 112.5v170q0 72 -17.5 122t-53.5 86t-91 59.5t-131 39.5 q-39 -16 -75 -39.5t-62.5 -59.5t-43 -84t-16.5 -114v-180z" />
<glyph unicode="&#x3b5;" horiz-adv-x="868" d="M100 295q0 23 7.5 55.5t26 67.5t48 65.5t74.5 48.5q-47 18 -75.5 43t-43 52.5t-18.5 54.5t-4 49q0 55 24.5 108.5t71.5 95.5t116.5 66.5t159.5 24.5q98 0 187.5 -28.5t161.5 -96.5l-105 -121q-53 47 -115.5 64.5t-121.5 17.5q-86 0 -146.5 -34.5t-60.5 -102.5 q0 -59 44 -92t126 -33h166v-145h-181q-82 0 -127 -43t-45 -115q0 -57 55.5 -101t176.5 -44q59 0 124.5 17t118.5 71l107 -121q-80 -72 -170 -99.5t-188 -27.5q-190 0 -292 84t-102 219z" />
<glyph unicode="&#x3b6;" horiz-adv-x="823" d="M76 401q-8 96 26.5 205t108.5 223.5t186.5 229.5t261.5 223h-548v152h776v-146q-139 -100 -259 -210.5t-206 -222.5t-132 -219.5t-40 -201.5q6 -88 47 -143t105.5 -86t145.5 -42t165 -11h69l62 -125q-23 -33 -44.5 -80t-41 -99.5t-34.5 -107.5t-28 -102l-157 36 q6 33 17 76t24.5 87t29 87t29.5 74q-96 2 -192.5 21.5t-175 65.5t-133 123t-62.5 193z" />
<glyph unicode="&#x3b7;" horiz-adv-x="1017" d="M90 0v1016h156l20 -113q66 41 118 65.5t93 37t73.5 16.5t59.5 4q150 0 234 -94t84 -268v-664h-176v641q0 119 -51.5 167t-129.5 46q-61 0 -144 -31.5t-161 -81.5v-741h-176z" />
<glyph unicode="&#x3b8;" horiz-adv-x="1021" d="M92 350v742q0 88 35 155.5t93.5 113.5t134 70.5t157.5 24.5q86 0 162 -24.5t133 -70.5t91 -113.5t34 -155.5v-742q0 -88 -37 -155.5t-96.5 -112.5t-135 -68.5t-153.5 -23.5t-152.5 23.5t-134 68.5t-95.5 112.5t-36 155.5zM268 393q0 -66 22.5 -111.5t58.5 -74.5t79 -41 t86 -12q41 0 84 12t78 41t57.5 75t22.5 111v289h-488v-289zM268 829h488v224q0 66 -22.5 111.5t-57.5 74.5t-78 41t-84 12q-43 0 -86 -12t-79 -41t-58.5 -75t-22.5 -111v-224z" />
<glyph unicode="&#x3b9;" horiz-adv-x="489" d="M158 0v1016h174v-1016h-174z" />
<glyph unicode="&#x3ba;" horiz-adv-x="991" d="M102 0v1016h174v-432h173q29 0 57.5 3t53 17t46 42t37.5 77l98 293h181l-101 -295q-25 -74 -58.5 -124t-90.5 -67q70 -16 102.5 -70t56.5 -130l109 -330h-184l-88 281q-16 49 -36 78.5t-44.5 45t-53 20.5t-63.5 5h-195v-430h-174z" />
<glyph unicode="&#x3bb;" horiz-adv-x="1044" d="M102 0v614q0 86 28 154t77 114t114.5 70.5t139.5 24.5q55 0 130 -12.5t175 -44.5v135q0 43 -10.5 87t-36 77.5t-67.5 55t-103 21.5q-80 0 -151.5 -26.5t-127.5 -61.5l-75 142q92 51 176 82.5t198 31.5q195 0 284 -108.5t89 -306.5v-1049h-176v748q-82 29 -153.5 46 t-135.5 17q-82 2 -139 -48t-57 -169v-594h-179z" />
<glyph unicode="&#x3bc;" horiz-adv-x="1038" d="M98 -410v1426h176v-641q0 -119 51.5 -167t131.5 -46q61 0 138 30.5t167 94.5v729h174v-1016h-174v106q-59 -41 -107.5 -64.5t-86.5 -34.5t-69.5 -14t-58.5 -3q-102 0 -166 51v-451h-176z" />
<glyph unicode="&#x3bd;" horiz-adv-x="935" d="M20 1014h193l133 -398l121 -378h12l115 374l131 402h190l-360 -1014h-172z" />
<glyph unicode="&#x3be;" horiz-adv-x="878" d="M90 424q0 39 10.5 94t36 109.5t70.5 102.5t115 75q-59 18 -97.5 54t-60 78t-29.5 85t-8 76q2 80 35 144.5t88 110.5t131 71.5t164 25.5q31 0 71.5 -2t88 -10t96.5 -24.5t92 -43.5l-76 -141q-78 45 -149.5 56t-128.5 11q-96 0 -163 -50t-77 -136q-8 -61 12.5 -105 t58.5 -73t89 -43.5t106 -14.5h209v-141h-252q-59 0 -107 -25.5t-83 -68.5t-53.5 -96.5t-18.5 -108.5q0 -104 49 -162.5t123 -88t162 -36t168 -6.5h53l64 -125q-25 -33 -46.5 -77.5t-41 -96t-35 -104.5t-25.5 -100l-162 34q6 31 17.5 72t25 84t29.5 84t35 74 q-104 0 -209 20.5t-188.5 71.5t-136 135t-52.5 211z" />
<glyph unicode="&#x3bf;" horiz-adv-x="1034" d="M98 358v295q0 88 34 157t90.5 117t133 73.5t162.5 25.5q92 0 169 -25.5t133.5 -73.5t87 -117t30.5 -157v-295q0 -88 -34 -156.5t-92 -115.5t-134 -71.5t-162 -24.5q-88 0 -164 24.5t-132 71.5t-89 115.5t-33 156.5zM274 393q0 -66 19.5 -111.5t52.5 -74.5t78 -41t96 -12 q41 0 84 12t79 41t58.5 75t22.5 111v230q0 66 -22.5 111.5t-58.5 74.5t-79 41t-84 12q-43 0 -86 -12t-79 -41t-58.5 -75t-22.5 -111v-230z" />
<glyph unicode="&#x3c0;" horiz-adv-x="1030" d="M100 0v1014h836v-1014h-176v858h-486v-858h-174z" />
<glyph unicode="&#x3c1;" horiz-adv-x="1015" d="M92 -410v1072q0 88 37 155.5t95.5 113.5t133 70.5t152.5 24.5q76 0 150.5 -24.5t135 -70.5t97.5 -113.5t37 -155.5v-310q0 -174 -95.5 -268t-246.5 -94q-53 0 -137 9t-183 56v-465h-176zM266 623l2 -398q78 -41 160 -55t145 -14q78 -2 129.5 49t51.5 170v248 q0 66 -22.5 111.5t-57.5 74.5t-78 41t-86 12t-86 -12t-78 -41t-57.5 -75t-22.5 -111z" />
<glyph unicode="&#x3c2;" horiz-adv-x="929" d="M57 121l97 129q76 -63 155.5 -87t173.5 -24q37 0 75 9.5t67.5 28t48 48t18.5 70.5q0 66 -47 94.5t-119 40.5q-78 12 -154.5 27.5t-138 46.5t-100.5 82t-39 135q0 70 29 127t80 96t117.5 60.5t144.5 21.5q115 0 203 -23.5t170 -82.5l-88 -132q-72 45 -139.5 63.5 t-145.5 18.5q-90 0 -145.5 -42t-55.5 -105q0 -53 45 -80t112.5 -42t145.5 -28.5t145.5 -44t112.5 -86t45 -151.5q0 -72 -30.5 -127t-84 -95t-127 -60.5t-161.5 -20.5q-106 0 -206.5 27.5t-203.5 105.5z" />
<glyph unicode="&#x3c3;" horiz-adv-x="1056" d="M90 350v303q0 88 37 156t97.5 114t135 69.5t150.5 23.5h512v-158h-195q47 -35 75 -88t28 -117v-303q0 -88 -37 -155.5t-96.5 -112.5t-134 -68.5t-152.5 -23.5t-153.5 23.5t-135 68.5t-95.5 112.5t-36 155.5zM266 393q0 -66 22.5 -111.5t58.5 -74.5t79 -41t86 -12t86 12 t78 41t57.5 75t22.5 111v221q0 66 -22.5 111t-57.5 73.5t-78 42t-86 13.5t-86 -13.5t-79 -42t-58.5 -73.5t-22.5 -111v-221z" />
<glyph unicode="&#x3c4;" horiz-adv-x="786" d="M35 858v158h672v-158h-301v-496q0 -61 11 -101t30.5 -63.5t48 -31.5t65.5 -8q35 0 77 5t89 11l29 -149q-59 -20 -124 -27.5t-95 -7.5q-162 0 -234 73.5t-72 245.5l-2 549h-194z" />
<glyph unicode="&#x3c5;" horiz-adv-x="1028" d="M92 350v666h176v-623q0 -66 19.5 -111.5t53.5 -74.5t78 -41t95 -12q41 0 84 12t78 41t57.5 75t22.5 111v623h176v-666q0 -88 -37 -155.5t-96.5 -112.5t-135 -68.5t-153.5 -23.5t-152.5 23.5t-134 68.5t-95.5 112.5t-36 155.5z" />
<glyph unicode="&#x3c6;" horiz-adv-x="1300" d="M96 369v288q0 70 24.5 129.5t66.5 105.5t95.5 75.5t112.5 42.5l35 -160q-59 -18 -108.5 -75.5t-49.5 -156.5v-208q0 -119 77 -187.5t210 -70.5v784q174 90 305 90q152 0 248 -94t98 -268l2 -295q0 -90 -43 -161t-112.5 -120t-154.5 -74.5t-167 -25.5h-2l2 -398h-176v398 q-92 0 -176 28.5t-147.5 78.5t-101.5 120t-38 154zM735 154q63 0 118.5 13t95.5 43t63.5 79t23.5 121v231q0 119 -51 166t-129 47q-25 0 -57.5 -10t-63.5 -21v-669z" />
<glyph unicode="&#x3c7;" horiz-adv-x="888" d="M-2 0l344 520l-324 496h211l211 -354l215 354h209l-327 -492l342 -524h-213l-228 381l-233 -381h-207z" />
<glyph unicode="&#x3c8;" horiz-adv-x="1300" d="M100 367v647h174v-596q0 -121 77 -192.5t212 -73.5v862h174v-860q135 0 212 69.5t77 194.5v596h174v-635q0 -92 -38 -165t-101.5 -123t-147.5 -75.5t-176 -25.5v-400h-174v400q-92 0 -176 27.5t-147.5 76.5t-101.5 119t-38 154z" />
<glyph unicode="&#x3c9;" horiz-adv-x="1564" d="M94 358v295q0 76 25.5 139.5t71 109.5t103.5 76t124 42l28 -160q-72 -14 -125 -72.5t-53 -173.5v-213q0 -66 17.5 -112.5t47 -76.5t68.5 -44t82 -14t81 14t66.5 44t47 77t18.5 112l2 351h172v-351q0 -109 54.5 -178t160.5 -69q43 0 81 14t68 44t47 77t17 112v213 q0 111 -50 169.5t-120 74.5l29 160q63 -12 120.5 -42t100.5 -76t69 -108.5t26 -138.5v-295q0 -88 -32 -156.5t-85 -115.5t-124 -71.5t-149 -24.5q-96 0 -175 42t-126 122q-51 -78 -126.5 -121t-174.5 -43q-78 0 -147.5 24.5t-122.5 71.5t-85 115.5t-32 156.5z" />
<glyph unicode="&#x3ca;" horiz-adv-x="489" d="M-37 1309q0 41 28.5 69.5t69.5 28.5t71 -28.5t30 -69.5t-30 -71t-71 -30t-69.5 30t-28.5 71zM158 0v1016h174v-1016h-174zM362 1309q0 41 30 69.5t71 28.5t70.5 -28.5t29.5 -69.5t-29.5 -71t-70.5 -30t-71 30t-30 71z" />
<glyph unicode="&#x3cb;" horiz-adv-x="1028" d="M92 350v666h176v-623q0 -66 19.5 -111.5t53.5 -74.5t78 -41t95 -12q41 0 84 12t78 41t57.5 75t22.5 111v623h176v-666q0 -88 -37 -155.5t-96.5 -112.5t-135 -68.5t-153.5 -23.5t-152.5 23.5t-134 68.5t-95.5 112.5t-36 155.5zM209 1309q0 41 28.5 69.5t69.5 28.5 t71 -28.5t30 -69.5t-30 -71t-71 -30t-69.5 30t-28.5 71zM608 1309q0 41 30 69.5t71 28.5t70.5 -28.5t29.5 -69.5t-29.5 -71t-70.5 -30t-71 30t-30 71z" />
<glyph unicode="&#x3cc;" horiz-adv-x="1034" d="M98 358v295q0 88 34 157t90.5 117t133 73.5t162.5 25.5q92 0 169 -25.5t133.5 -73.5t87 -117t30.5 -157v-295q0 -88 -34 -156.5t-92 -115.5t-134 -71.5t-162 -24.5q-88 0 -164 24.5t-132 71.5t-89 115.5t-33 156.5zM274 393q0 -66 19.5 -111.5t52.5 -74.5t78 -41t96 -12 q41 0 84 12t79 41t58.5 75t22.5 111v230q0 66 -22.5 111.5t-58.5 74.5t-79 41t-84 12q-43 0 -86 -12t-79 -41t-58.5 -75t-22.5 -111v-230zM440 1169l148 363l166 -51l-205 -353z" />
<glyph unicode="&#x3cd;" horiz-adv-x="1028" d="M92 350v666h176v-623q0 -66 19.5 -111.5t53.5 -74.5t78 -41t95 -12q41 0 84 12t78 41t57.5 75t22.5 111v623h176v-666q0 -88 -37 -155.5t-96.5 -112.5t-135 -68.5t-153.5 -23.5t-152.5 23.5t-134 68.5t-95.5 112.5t-36 155.5zM436 1169l148 363l166 -51l-205 -353z" />
<glyph unicode="&#x3ce;" horiz-adv-x="1564" d="M94 358v295q0 76 25.5 139.5t71 109.5t103.5 76t124 42l28 -160q-72 -14 -125 -72.5t-53 -173.5v-213q0 -66 17.5 -112.5t47 -76.5t68.5 -44t82 -14t81 14t66.5 44t47 77t18.5 112l2 351h172v-351q0 -109 54.5 -178t160.5 -69q43 0 81 14t68 44t47 77t17 112v213 q0 111 -50 169.5t-120 74.5l29 160q63 -12 120.5 -42t100.5 -76t69 -108.5t26 -138.5v-295q0 -88 -32 -156.5t-85 -115.5t-124 -71.5t-149 -24.5q-96 0 -175 42t-126 122q-51 -78 -126.5 -121t-174.5 -43q-78 0 -147.5 24.5t-122.5 71.5t-85 115.5t-32 156.5zM688 1169 l148 363l165 -51l-204 -353z" />
<glyph unicode="&#x401;" horiz-adv-x="1140" d="M125 0v1411h942v-172h-754v-448h645v-170h-645v-451h754v-170h-942zM307 1661q0 41 29 69.5t70 28.5t70.5 -28.5t29.5 -69.5t-30 -70.5t-70 -29.5q-41 0 -70 29.5t-29 70.5zM707 1661q0 41 29.5 69.5t70.5 28.5t70.5 -28.5t29.5 -69.5t-29.5 -70.5t-70.5 -29.5 t-70.5 29.5t-29.5 70.5z" />
<glyph unicode="&#x402;" horiz-adv-x="1462" d="M20 1237v174h1088v-174h-530v-365q86 53 184 85t188 32q227 0 327.5 -119.5t100.5 -332.5v-234q0 -109 -24.5 -197t-84 -149t-159.5 -95t-254 -34v170q90 0 152.5 17.5t102.5 56.5t58.5 101.5t18.5 152.5v188q0 86 -19.5 142.5t-55.5 91t-87 49t-115 14.5 q-45 0 -91 -11.5t-90 -28.5t-83 -39.5t-69 -45.5v-686h-191v1237h-367z" />
<glyph unicode="&#x403;" horiz-adv-x="1050" d="M125 0v1411h942v-172h-754v-1239h-188zM438 1597l303 250l121 -125l-348 -211z" />
<glyph unicode="&#x404;" horiz-adv-x="1077" d="M111 449v516q0 106 42 191t111.5 145.5t162 92t194.5 31.5q115 0 215 -30.5t180 -96.5l-94 -147q-55 47 -138.5 73.5t-162.5 26.5q-59 0 -117 -18.5t-103 -57t-72.5 -100t-27.5 -149.5v-119h496v-168h-496v-154q0 -86 28.5 -148.5t74 -101t101.5 -57t111 -18.5 q80 0 163 22.5t149 75.5l90 -145q-66 -53 -170.5 -90t-226.5 -37q-111 0 -204 31.5t-162 91t-106.5 145.5t-37.5 195z" />
<glyph unicode="&#x405;" horiz-adv-x="1138" d="M53 162l107 135q94 -66 199.5 -102.5t215.5 -36.5q143 0 225.5 61.5t82.5 171.5q0 70 -32 114t-82 70.5t-110.5 41t-117.5 26.5q-84 16 -162 42t-137.5 71t-96 111.5t-36.5 164.5q0 88 31.5 163t91 128t143.5 84t190 31q123 0 240 -22.5t223 -88.5l-88 -160 q-90 53 -187.5 76t-189.5 23q-55 0 -104 -14.5t-86 -44t-58.5 -75t-21.5 -104.5t30.5 -96t78 -60.5t102.5 -38t104 -24.5q88 -20 172 -46t149.5 -71t105.5 -116.5t40 -184.5q0 -94 -35.5 -169t-102.5 -127t-159 -79.5t-205 -27.5q-145 0 -273 41t-247 133z" />
<glyph unicode="&#x406;" horiz-adv-x="516" d="M164 0v1411h188v-1411h-188z" />
<glyph unicode="&#x407;" horiz-adv-x="516" d="M-39 1675q0 41 28.5 70t69.5 29t71 -29t30 -70t-30 -70.5t-71 -29.5t-69.5 29.5t-28.5 70.5zM164 0v1411h188v-1411h-188zM360 1675q0 41 30 70t71 29t70.5 -29t29.5 -70t-29.5 -70.5t-70.5 -29.5t-71 29.5t-30 70.5z" />
<glyph unicode="&#x408;" horiz-adv-x="1067" d="M31 92l88 152q72 -45 138.5 -64.5t129.5 -19.5q72 0 132.5 18.5t103.5 58t66.5 103t23.5 156.5v915h188v-956q0 -109 -38 -196t-104.5 -147.5t-154.5 -93t-186 -32.5q-96 0 -204 26.5t-183 79.5z" />
<glyph unicode="&#x409;" horiz-adv-x="1873" d="M23 104q76 39 130 90.5t88.5 130t50 194.5t15.5 286v606h735v-582h388q94 0 168.5 -35.5t127 -94t81 -132t28.5 -149.5t-24.5 -150.5t-73.5 -134t-124 -96.5t-177 -37h-586v1239h-361v-446q0 -199 -24.5 -340.5t-73.5 -238.5t-121.5 -159.5t-167.5 -101.5zM1042 172h355 q111 0 181.5 65.5t70.5 180.5q0 57 -19.5 101t-54.5 75t-82 46t-102 15h-349v-483z" />
<glyph unicode="&#x40a;" horiz-adv-x="1892" d="M111 0v1411h188v-590h549v590h188v-588h391q94 0 169 -34.5t127.5 -92t81 -130t28.5 -148.5t-24.5 -150.5t-73.5 -134t-124 -96.5t-177 -37h-586v649h-549v-649h-188zM1036 172h359q111 0 181.5 65.5t70.5 180.5t-75 173t-183 58h-353v-477z" />
<glyph unicode="&#x40b;" horiz-adv-x="1462" d="M20 1237v174h1088v-174h-530v-358q37 23 80.5 42t91 34.5t95.5 24.5t93 9q129 0 214 -34.5t135 -98t70.5 -153t20.5 -195.5v-508h-190v485q0 172 -59.5 249t-204.5 77q-45 0 -93.5 -11.5t-94.5 -28.5t-87 -39.5t-71 -45.5v-686h-191v1237h-367z" />
<glyph unicode="&#x40c;" horiz-adv-x="1171" d="M117 0v1411h188v-608h219q33 0 70 6t72.5 27.5t66.5 62.5t53 111l129 401h181l-127 -412q-33 -104 -84 -173.5t-117 -92.5q88 -29 137 -101.5t80 -176.5l135 -455h-196l-123 422q-20 70 -50 114t-65 66.5t-74 30.5t-77 8h-230v-641h-188zM434 1597l303 250l121 -125 l-348 -211z" />
<glyph unicode="&#x40e;" horiz-adv-x="1060" d="M18 1411h197l320 -874h10l321 874h189l-420 -1100q-35 -98 -72 -161.5t-75.5 -101.5t-83 -52t-93.5 -14h-155v178h118q43 0 79 18.5t65 79.5l16 45zM258 1708h150q2 -20 12 -43t28.5 -42t45 -31.5t59.5 -12.5q37 0 64.5 12.5t46 31.5t27.5 42t9 43h146q-4 -41 -18.5 -87 t-48.5 -85t-88 -65.5t-138 -26.5t-140.5 26.5t-90 65.5t-49 85t-15.5 87z" />
<glyph unicode="&#x40f;" horiz-adv-x="1263" d="M111 0v1411h188v-1241h662v1241h192v-1411h-420v-342h-198v342h-424z" />
<glyph unicode="&#x410;" horiz-adv-x="1222" d="M27 0l491 1411h191l493 -1411h-198l-111 317h-561l-109 -317h-196zM393 489h441l-113 336l-105 328h-8l-102 -328z" />
<glyph unicode="&#x411;" horiz-adv-x="1153" d="M111 0v1411h843v-174h-655v-408h391q100 0 176 -35.5t127 -94t77 -132t26 -149.5t-24.5 -150.5t-74 -134t-124 -96.5t-177.5 -37h-585zM299 172h358q111 0 181.5 65.5t70.5 180.5q0 57 -19.5 101t-54 75t-81.5 46t-103 15h-352v-483z" />
<glyph unicode="&#x412;" horiz-adv-x="1214" d="M117 0v1411h585q96 0 171 -30.5t126.5 -82t78 -119t26.5 -141.5q0 -84 -39 -164.5t-135 -134.5q102 -53 149 -143t47 -182q0 -76 -25.5 -150t-75.5 -132t-126 -95t-174 -37h-608zM307 170h381q125 0 188.5 63.5t63.5 180.5q0 57 -21.5 101t-57.5 75t-82 47t-95 16h-377 v-483zM307 823h375q47 0 90 13.5t75 40t51.5 66.5t19.5 91q0 111 -71 158t-181 47h-359v-416z" />
<glyph unicode="&#x413;" horiz-adv-x="1050" d="M125 0v1411h942v-172h-754v-1239h-188z" />
<glyph unicode="&#x414;" horiz-adv-x="1415" d="M20 176h105q47 35 82 85t58.5 128t37.5 190.5t21 270.5l22 561h891l2 -1239h115v-477h-185v305h-964v-305h-185v481zM360 170h684v1069h-526l-20 -405q-6 -137 -14.5 -239.5t-23 -181.5t-38 -137.5t-62.5 -105.5z" />
<glyph unicode="&#x415;" horiz-adv-x="1140" d="M125 0v1411h942v-172h-754v-448h645v-170h-645v-451h754v-170h-942z" />
<glyph unicode="&#x416;" horiz-adv-x="1810" d="M51 0l137 451q31 104 81 179t139 103q-68 23 -120 89.5t-81 170.5l-131 418h186l127 -401q23 -70 54.5 -111t67.5 -62.5t73 -27.5t71 -6h156v608h188v-608h156q33 0 71 6t73.5 27.5t67.5 62.5t54 111l127 401h187l-131 -418q-29 -104 -81.5 -170.5t-119.5 -89.5 q88 -29 138 -103.5t81 -178.5l137 -451h-200l-123 422q-20 70 -49 114t-63 66.5t-73 30.5t-80 8h-172v-641h-188v641h-172q-41 0 -80 -8t-72.5 -30.5t-62.5 -66.5t-49 -114l-123 -422h-201z" />
<glyph unicode="&#x417;" horiz-adv-x="1040" d="M16 127l99 139q29 -23 70.5 -44t87.5 -36.5t93.5 -24.5t84.5 -9q170 0 245.5 72.5t75.5 195.5q0 117 -68.5 177t-191.5 60h-160v158h148q43 0 89 14.5t83 44t61.5 74.5t24.5 107q0 104 -79 153t-196 49q-37 0 -81 -8t-87 -23.5t-81.5 -35t-65.5 -43.5l-98 139 q80 59 180 98t250 39q86 0 164.5 -19.5t139 -62.5t97.5 -111.5t37 -166.5q0 -104 -51 -191.5t-150 -123.5q57 -18 98.5 -53.5t68 -79.5t38.5 -94t12 -99q0 -113 -38.5 -195t-106.5 -136t-161 -79.5t-199 -25.5q-63 0 -127 11t-120.5 30.5t-104.5 45t-81 54.5z" />
<glyph unicode="&#x418;" horiz-adv-x="1320" d="M121 0v1411h188v-1079h15l180 282l514 797h182v-1411h-188v1094h-15l-204 -328l-494 -766h-178z" />
<glyph unicode="&#x419;" horiz-adv-x="1320" d="M121 0v1411h188v-1079h15l180 282l514 797h182v-1411h-188v1094h-15l-204 -328l-494 -766h-178zM346 1737h150q2 -20 12 -43t28.5 -42.5t45 -31.5t59.5 -12q37 0 64.5 12t46 31.5t27.5 42t9 43.5h146q-4 -41 -18.5 -87t-48 -85t-88 -65.5t-138.5 -26.5t-140.5 26.5 t-90 65.5t-49 85t-15.5 87z" />
<glyph unicode="&#x41a;" horiz-adv-x="1171" d="M117 0v1411h188v-608h219q33 0 70 6t72.5 27.5t66.5 62.5t53 111l129 401h181l-127 -412q-33 -104 -84 -173.5t-117 -92.5q88 -29 137 -101.5t80 -176.5l135 -455h-196l-123 422q-20 70 -50 114t-65 66.5t-74 30.5t-77 8h-230v-641h-188z" />
<glyph unicode="&#x41b;" horiz-adv-x="1273" d="M-4 115q72 37 126 86t90 127t53.5 192.5t17.5 284.5v606h868v-1411h-193v1239h-487v-446q0 -199 -25.5 -340.5t-76 -238.5t-124 -159.5t-167.5 -101.5z" />
<glyph unicode="&#x41c;" horiz-adv-x="1519" d="M119 0v1411h180l285 -575l178 -375h12l174 375l281 575h174v-1411h-189v961h-10l-129 -273l-237 -479h-142l-225 440l-154 312h-10v-961h-188z" />
<glyph unicode="&#x41d;" horiz-adv-x="1263" d="M111 0v1411h188v-610h662v610h192v-1411h-192v629h-662v-629h-188z" />
<glyph unicode="&#x41e;" horiz-adv-x="1255" d="M106 461v487q0 106 38 194.5t106.5 151t165 97t211.5 34.5q113 0 209 -34.5t165.5 -97t108.5 -150.5t39 -195v-487q0 -109 -40 -197t-110.5 -149.5t-166 -95t-205.5 -33.5q-115 0 -211.5 33.5t-165 95t-106.5 149.5t-38 197zM297 483q0 -86 26.5 -147.5t71.5 -100 t105.5 -57t126.5 -18.5q68 0 127 18.5t105 57t72.5 100t26.5 147.5v443q0 86 -26.5 147.5t-71.5 101t-105.5 58t-127.5 18.5q-68 0 -128.5 -18.5t-104.5 -58t-70.5 -101t-26.5 -147.5v-443z" />
<glyph unicode="&#x41f;" horiz-adv-x="1263" d="M111 0v1411h1042v-1411h-192v1239h-662v-1239h-188z" />
<glyph unicode="&#x420;" horiz-adv-x="1134" d="M111 0v1411h585q102 0 177 -38t124.5 -98.5t74 -135t24.5 -150.5t-28 -150.5t-79 -135t-124.5 -98.5t-168.5 -38h-397v-567h-188zM299 741h358q111 0 181.5 65.5t70.5 182.5q0 115 -70.5 182.5t-181.5 67.5h-358v-498z" />
<glyph unicode="&#x421;" horiz-adv-x="1079" d="M111 449v516q0 106 42 191t111.5 145.5t162 92t194.5 31.5q115 0 215 -30.5t180 -96.5l-94 -147q-55 47 -138.5 73.5t-162.5 26.5q-59 0 -117 -18.5t-103 -57t-72.5 -100t-27.5 -149.5v-441q0 -86 28.5 -148.5t74 -101t101.5 -57t111 -18.5q80 0 163 22.5t149 75.5 l90 -145q-66 -53 -170.5 -90t-226.5 -37q-102 0 -195.5 31.5t-163 91t-110.5 145.5t-41 195z" />
<glyph unicode="&#x422;" horiz-adv-x="1069" d="M33 1237v174h1003v-174h-405v-1237h-191v1237h-407z" />
<glyph unicode="&#x423;" horiz-adv-x="1060" d="M18 1411h197l320 -874h10l321 874h189l-420 -1100q-35 -98 -72 -161.5t-75.5 -101.5t-83 -52t-93.5 -14h-155v178h118q43 0 79 18.5t65 79.5l16 45z" />
<glyph unicode="&#x424;" horiz-adv-x="1581" d="M125 643v199q0 104 40 196t113.5 163t179 115t238.5 48v61h191v-61q133 -4 238.5 -47t179 -113.5t113.5 -164t40 -197.5v-193q0 -109 -38 -204t-110.5 -166.5t-179 -115.5t-243.5 -48v-115h-191v115q-137 4 -243.5 47t-179 113.5t-110.5 165t-38 202.5zM315 653 q0 -84 29 -150.5t79 -113.5t119.5 -72.5t153.5 -27.5v901q-86 -2 -155.5 -29.5t-119.5 -75t-78 -114t-28 -148.5v-170zM887 289q82 2 152.5 27.5t120.5 72.5t79 113.5t29 150.5v170q0 82 -28 148.5t-78 114t-119.5 75t-155.5 29.5v-901z" />
<glyph unicode="&#x425;" horiz-adv-x="1126" d="M18 0l439 723l-410 688h219l297 -532l299 532h219l-409 -688l438 -723h-219l-328 569l-325 -569h-220z" />
<glyph unicode="&#x426;" horiz-adv-x="1302" d="M111 0v1411h188v-1241h662v1241h192v-1237l117 -2v-477h-187v305h-972z" />
<glyph unicode="&#x427;" horiz-adv-x="1206" d="M59 997v416h191v-393q0 -172 63.5 -249t221.5 -77q45 0 95 10.5t98 27t91 38t74 43.5v600h190v-1411h-190v619q-37 -23 -82 -42.5t-94 -33t-98.5 -21.5t-94.5 -8q-133 0 -222 35t-142.5 98.5t-77 152.5t-23.5 195z" />
<glyph unicode="&#x428;" horiz-adv-x="1781" d="M113 0v1411h188v-1241h496v1241h184v-1241h500v1241h188v-1411h-1556z" />
<glyph unicode="&#x429;" horiz-adv-x="1814" d="M113 0v1411h188v-1241h496v1241h184v-1241h496v1241h192v-1237l117 -2v-477h-187v305h-1486z" />
<glyph unicode="&#x42a;" horiz-adv-x="1527" d="M12 1237v174h637v-582h391q94 0 169 -35.5t127.5 -94t81 -132t28.5 -149.5t-24.5 -150.5t-74 -134t-124 -96.5t-176.5 -37h-586v1237h-449zM649 172h359q111 0 181.5 65.5t70.5 180.5q0 57 -19.5 101t-54.5 75t-82 46t-103 15h-352v-483z" />
<glyph unicode="&#x42b;" horiz-adv-x="1581" d="M123 0v1411h188v-582h391q94 0 169 -35.5t127.5 -94t81 -132t28.5 -149.5t-24.5 -150.5t-73.5 -134t-124 -96.5t-177 -37h-586zM311 172h359q111 0 181.5 65.5t70.5 180.5q0 57 -19.5 101t-54.5 75t-82 46t-102 15h-353v-483zM1270 0v1411h188v-1411h-188z" />
<glyph unicode="&#x42c;" horiz-adv-x="1163" d="M123 0v1411h188v-582h391q94 0 169 -35.5t127.5 -94t81 -132t28.5 -149.5t-24.5 -150.5t-73.5 -134t-124 -96.5t-177 -37h-586zM311 172h359q111 0 181.5 65.5t70.5 180.5q0 57 -19.5 101t-54.5 75t-82 46t-102 15h-353v-483z" />
<glyph unicode="&#x42d;" horiz-adv-x="1073" d="M51 113l90 145q66 -53 149 -75.5t163 -22.5q63 0 120.5 18.5t100.5 57t68.5 101t25.5 148.5v160h-535v168h535v113q0 176 -83 250.5t-224 74.5q-80 0 -158 -26.5t-133 -73.5l-94 147q80 66 179 96.5t214 30.5q113 0 203 -27.5t153.5 -84t98 -143.5t34.5 -205v-516 q0 -109 -40.5 -195t-110.5 -145.5t-163 -91t-195 -31.5q-123 0 -227.5 36.5t-170.5 90.5z" />
<glyph unicode="&#x42e;" horiz-adv-x="1583" d="M125 0v1411h188v-610h197v147q0 106 31.5 194.5t93 151t150.5 97t204 34.5q113 0 202 -34.5t151.5 -97t95 -150.5t32.5 -195v-487q0 -109 -33.5 -197t-96 -149.5t-151.5 -95t-200 -33.5q-231 0 -355 128t-124 347v168h-197v-629h-188zM700 483q0 -174 78 -248.5 t211 -74.5q135 0 213 74.5t78 248.5v443q0 172 -78 248.5t-213 76.5t-212 -76.5t-77 -248.5v-443z" />
<glyph unicode="&#x42f;" horiz-adv-x="1220" d="M88 0l115 408q27 86 57.5 144t97.5 91q-123 37 -178 128t-55 218q0 86 26.5 163t79 134t127 91t172.5 34h582v-1411h-188v608h-281q-35 -2 -71.5 -12t-69.5 -34.5t-61.5 -66.5t-49.5 -108l-110 -387h-193zM305 989q0 -121 75 -172t191 -51h353v473h-357 q-127 0 -194.5 -64.5t-67.5 -185.5z" />
<glyph unicode="&#x430;" horiz-adv-x="1015" d="M78 297q0 84 38 141.5t94 93t120.5 51t115.5 15.5h297v78q0 106 -59 148t-170 42q-53 0 -130 -15t-155 -79l-86 133q98 76 198.5 98.5t186.5 22.5q199 0 294.5 -87t95.5 -267v-672h-154l-21 94l-6 4q-121 -68 -197.5 -87t-138.5 -19q-147 0 -235 82t-88 223zM258 297 q0 -74 50 -110.5t128 -36.5q39 0 81 11t82 27.5t77 36t67 35.5v193h-268q-33 0 -70.5 -5.5t-70.5 -20.5t-54.5 -47t-21.5 -83z" />
<glyph unicode="&#x431;" horiz-adv-x="1036" d="M98 369v290q0 88 9.5 179.5t36 174.5t75.5 154.5t129 120.5q66 41 143.5 72t149.5 59q25 10 42 17.5t35.5 15.5t40 18.5t54.5 24.5l64 -147q-61 -27 -98.5 -42.5t-63 -25.5t-46 -17.5t-46.5 -19.5q-86 -37 -143.5 -67.5t-96.5 -69.5t-59.5 -91t-32.5 -130l4 -8 q27 27 61.5 45t69.5 29.5t66.5 15.5t54.5 4q193 0 292 -98.5t99 -274.5v-229q0 -88 -34 -159t-92 -120t-134 -74.5t-162 -25.5q-197 0 -307.5 100t-110.5 279zM274 393q0 -66 19.5 -111.5t52.5 -74.5t78 -41t96 -12q47 0 91 12t78 41t54.5 75t20.5 111v174 q0 133 -65.5 186.5t-178.5 53.5q-43 0 -86 -14.5t-79 -44t-58.5 -76.5t-22.5 -113v-166z" />
<glyph unicode="&#x432;" horiz-adv-x="987" d="M90 0v1014h490q80 0 137 -22.5t95 -61.5t56.5 -89t18.5 -106q0 -55 -29 -112.5t-92 -92.5q76 -35 107.5 -99.5t31.5 -123.5q0 -55 -20.5 -110.5t-60.5 -99.5t-100 -70.5t-140 -26.5h-494zM268 156h285q92 0 133 39.5t41 111.5q0 68 -48 106t-108 38h-303v-295zM268 608 h295q68 0 108 32t40 93q0 66 -49.5 95.5t-108.5 29.5h-285v-250z" />
<glyph unicode="&#x433;" horiz-adv-x="819" d="M94 0v1016h723v-158h-545v-858h-178z" />
<glyph unicode="&#x434;" horiz-adv-x="1167" d="M29 147l69 5q37 25 63.5 58.5t45 83.5t29 120.5t16.5 169.5l24 430h734v-860l84 -2v-412h-166v260h-733v-260h-166v407zM330 154h504v704h-404l-12 -268q-8 -160 -25.5 -263.5t-62.5 -172.5z" />
<glyph unicode="&#x435;" horiz-adv-x="989" d="M96 360v269q0 90 31 163.5t85 125t129 79t165 27.5t166 -26.5t130 -76t83.5 -120t29.5 -158.5v-201h-643v-67q0 -61 20.5 -103.5t56.5 -70t82 -39.5t95 -12q51 0 119 20t131 80l111 -121q-78 -80 -173.5 -109.5t-191.5 -29.5q-86 0 -163.5 23.5t-136 69.5t-92.5 115.5 t-34 161.5zM274 586h463v39q0 63 -18.5 108t-50 75t-73.5 43t-89 13t-88 -14t-74 -43t-51.5 -73t-18.5 -103v-45z" />
<glyph unicode="&#x436;" horiz-adv-x="1435" d="M51 0l101 330q12 37 24 69.5t30.5 59t44 45t60.5 26.5q-57 16 -92 66.5t-57 124.5l-92 295h180l90 -293q14 -49 35.5 -77t47.5 -42t54.5 -17t57.5 -3h96v432h174v-432h96q29 0 57.5 3t54 17t46 42t37.5 77l90 293h180l-92 -295q-23 -74 -57.5 -124t-92.5 -67 q70 -16 104 -70t56 -130l100 -330h-184l-80 281q-14 49 -33.5 78.5t-44 45t-54.5 20.5t-64 5h-119v-430h-174v430h-119q-35 0 -64.5 -5t-54 -20.5t-44 -45t-34.5 -78.5l-79 -281h-185z" />
<glyph unicode="&#x437;" horiz-adv-x="868" d="M27 119l106 121q53 -47 126 -70t132 -23q66 0 110 13.5t71.5 35t40 49t12.5 56.5q0 72 -54.5 108.5t-136.5 36.5h-139v146h143q82 0 127 40t45 99q0 68 -59 99.5t-135 31.5q-59 0 -124 -17.5t-118 -64.5l-108 121q72 68 168 96.5t192 28.5q88 0 154.5 -22.5t110.5 -61.5 t66.5 -89t22.5 -108q0 -23 -4 -52t-19.5 -60t-43 -58.5t-74.5 -46.5q47 -18 78 -46.5t48 -61.5t23.5 -63.5t6.5 -53.5q0 -68 -25 -124t-74 -98t-122.5 -65.5t-172.5 -23.5q-98 0 -195 27.5t-179 99.5z" />
<glyph unicode="&#x438;" horiz-adv-x="1046" d="M102 0v1014h179v-731h8l151 231l338 500h166v-1014h-180v733h-10l-154 -235l-336 -498h-162z" />
<glyph unicode="&#x439;" horiz-adv-x="1046" d="M102 0v1014h179v-731h8l151 231l338 500h166v-1014h-180v733h-10l-154 -235l-336 -498h-162zM231 1427h150q2 -20 12 -42.5t28.5 -42t45.5 -32t59 -12.5q37 0 64.5 12.5t46 32t28 42t9.5 42.5h145q-4 -41 -18.5 -87t-48 -84.5t-88 -65.5t-138.5 -27t-140 27t-90 65.5 t-49.5 84.5t-15.5 87z" />
<glyph unicode="&#x43a;" horiz-adv-x="991" d="M102 0v1016h174v-432h173q29 0 57.5 3t53 17t46 42t37.5 77l98 293h181l-101 -295q-25 -74 -58.5 -124t-90.5 -67q70 -16 102.5 -70t56.5 -130l109 -330h-184l-88 281q-16 49 -36 78.5t-44.5 45t-53 20.5t-63.5 5h-195v-430h-174z" />
<glyph unicode="&#x43b;" horiz-adv-x="1058" d="M6 113q57 27 100.5 55.5t71 78.5t40.5 132t13 215v420h705v-1014h-176v858h-354v-274q0 -158 -25 -262.5t-68 -172t-103 -108.5t-132 -70z" />
<glyph unicode="&#x43c;" horiz-adv-x="1241" d="M106 0v1014h164l205 -385l141 -275l146 273l213 387h160v-1014h-179v641h-10l-110 -209l-162 -287h-121l-133 240l-127 242h-8v-627h-179z" />
<glyph unicode="&#x43d;" horiz-adv-x="1044" d="M104 0v1014h177v-422h483v422h178v-1014h-178v432h-483v-432h-177z" />
<glyph unicode="&#x43e;" horiz-adv-x="1034" d="M98 358v295q0 88 34 157t90.5 117t133 73.5t162.5 25.5q92 0 169 -25.5t133.5 -73.5t87 -117t30.5 -157v-295q0 -88 -34 -156.5t-92 -115.5t-134 -71.5t-162 -24.5q-88 0 -164 24.5t-132 71.5t-89 115.5t-33 156.5zM274 393q0 -66 19.5 -111.5t52.5 -74.5t78 -41t96 -12 q41 0 84 12t79 41t58.5 75t22.5 111v230q0 66 -22.5 111.5t-58.5 74.5t-79 41t-84 12q-43 0 -86 -12t-79 -41t-58.5 -75t-22.5 -111v-230z" />
<glyph unicode="&#x43f;" horiz-adv-x="1034" d="M100 0v1014h836v-1014h-176v858h-486v-858h-174z" />
<glyph unicode="&#x440;" horiz-adv-x="1030" d="M102 -406v1420h154l20 -107q121 72 194 94.5t128 22.5q150 0 245 -88t95 -274v-312q0 -174 -95 -268t-261 -94q-55 0 -129 11t-177 52v-457h-174zM276 217q94 -39 160 -51t129 -12q41 0 77 9t62.5 32.5t42 63.5t15.5 99v291q0 117 -49 161t-131 44q-29 0 -68 -10 t-81 -26.5t-83 -38t-74 -44.5v-518z" />
<glyph unicode="&#x441;" horiz-adv-x="878" d="M96 350v301q0 86 33 156t88 119t128 74.5t153 25.5q88 0 179 -23.5t163 -101.5l-105 -133q-68 63 -126 78.5t-103 15.5q-39 0 -81 -12t-76 -41t-55.5 -75t-21.5 -111v-230q0 -66 20.5 -111.5t53.5 -74.5t75 -41t85 -12q45 0 109.5 18t111.5 66l109 -123 q-72 -72 -159 -98.5t-175 -26.5q-90 0 -164 26.5t-128 73.5t-84 113.5t-30 146.5z" />
<glyph unicode="&#x442;" horiz-adv-x="854" d="M23 858v158h811v-158h-316v-858h-182v858h-313z" />
<glyph unicode="&#x443;" horiz-adv-x="958" d="M20 1016h191l123 -447l112 -405h7l143 405l154 447h188l-518 -1428h-189l150 430l-86 72z" />
<glyph unicode="&#x444;" horiz-adv-x="1290" d="M96 430v127q0 90 28 174t85 148.5t144 103.5t206 43v385h174v-385q117 -4 204 -40t144.5 -96.5t86 -141t28.5 -170.5v-148q0 -84 -28.5 -160.5t-86 -137t-144.5 -99.5t-204 -45v-396h-174v396q-125 6 -213 44t-143.5 98t-81 138t-25.5 162zM272 461q0 -59 12.5 -113.5 t45 -96.5t88 -69.5t141.5 -34.5v719q-76 0 -130 -27.5t-89 -70.5t-51.5 -99.5t-16.5 -115.5v-92zM733 147q80 0 135.5 28t89 71t48 99t14.5 116v92q0 59 -15.5 115.5t-50 99.5t-89 70.5t-132.5 27.5v-719z" />
<glyph unicode="&#x445;" horiz-adv-x="888" d="M-2 0l344 520l-324 496h211l211 -354l215 354h209l-327 -492l342 -524h-213l-228 381l-233 -381h-207z" />
<glyph unicode="&#x446;" horiz-adv-x="1064" d="M119 0v1016h172v-860h467v860h168v-862l84 -2v-412h-166v260h-725z" />
<glyph unicode="&#x447;" horiz-adv-x="985" d="M57 705v313h176v-291q0 -119 51.5 -166t129.5 -47q63 0 145 30.5t160 82.5v391h176v-1018h-176v453q-59 -35 -108.5 -56.5t-90.5 -34t-74.5 -16.5t-60.5 -4q-166 0 -247 94t-81 269z" />
<glyph unicode="&#x448;" horiz-adv-x="1470" d="M113 0v1014h178v-856h354v856h174v-856h357v856h176v-1014h-1239z" />
<glyph unicode="&#x449;" horiz-adv-x="1476" d="M102 0v1014h179v-858h354v858h174v-858h356v858h176v-862h84v-414h-165v262h-1158z" />
<glyph unicode="&#x44a;" horiz-adv-x="1196" d="M14 858v156h525v-393h268q86 0 152.5 -24t110.5 -64.5t66.5 -97t22.5 -122.5q0 -141 -91 -227t-263 -86h-443v858h-348zM537 156h264q88 0 136 39.5t48 117.5q0 57 -43 105.5t-141 48.5h-264v-311z" />
<glyph unicode="&#x44b;" horiz-adv-x="1271" d="M102 0v1016h177v-395h268q86 0 152.5 -24t110.5 -64.5t66.5 -97t22.5 -122.5q0 -141 -91 -227t-263 -86h-443zM276 156h265q88 0 136 39.5t48 117.5q0 57 -43 105.5t-141 48.5h-265v-311zM999 0v1014h170v-1014h-170z" />
<glyph unicode="&#x44c;" horiz-adv-x="921" d="M102 0v1016h177v-395h268q86 0 152.5 -24t110.5 -64.5t66.5 -97t22.5 -122.5q0 -141 -91 -227t-263 -86h-443zM276 156h265q88 0 136 39.5t48 117.5q0 57 -43 105.5t-141 48.5h-265v-311z" />
<glyph unicode="&#x44d;" horiz-adv-x="878" d="M37 115l104 133q33 -33 65 -51.5t60.5 -27.5t55 -12t49.5 -3q39 0 82 11t77.5 38.5t58 73t23.5 110.5v64h-391v149h391v23q0 133 -59 186t-160 53q-23 0 -52.5 -4t-60 -14t-59 -26.5t-53.5 -39.5l-109 123q72 72 167.5 98.5t183.5 26.5q190 0 284 -100.5t94 -259.5v-301 q0 -86 -30.5 -156t-86 -119t-130 -74.5t-162.5 -25.5t-179 23.5t-163 101.5z" />
<glyph unicode="&#x44e;" horiz-adv-x="1306" d="M92 0v1014h176v-424h150v63q0 88 29.5 157t84 117t127 73.5t158.5 25.5q186 0 293 -98.5t107 -274.5v-295q0 -88 -31 -156.5t-85 -115.5t-127 -71.5t-159 -24.5q-88 0 -160.5 24.5t-125 71.5t-82 115.5t-29.5 156.5v74h-150v-432h-176zM594 393q0 -133 60.5 -186 t164.5 -53q41 0 81 12t72 41t51 75t19 111v230q0 66 -19 111.5t-51 74.5t-72 41t-81 12q-43 0 -83 -12t-71.5 -41t-51 -75t-19.5 -111v-230z" />
<glyph unicode="&#x44f;" horiz-adv-x="978" d="M61 0l66 274q16 61 46 113.5t89 71.5q-86 27 -128 94t-42 147q0 66 22.5 123.5t63.5 99.5t99.5 66.5t130.5 24.5h479v-1014h-176v420h-219q-66 0 -117 -32t-72 -122l-59 -266h-183zM260 705q0 -78 50 -107t124 -29h277v289h-283q-66 0 -117 -36.5t-51 -116.5z" />
<glyph unicode="&#x451;" horiz-adv-x="989" d="M96 360v269q0 90 31 163.5t85 125t129 79t165 27.5t166 -26.5t130 -76t83.5 -120t29.5 -158.5v-201h-643v-67q0 -61 20.5 -103.5t56.5 -70t82 -39.5t95 -12q51 0 119 20t131 80l111 -121q-78 -80 -173.5 -109.5t-191.5 -29.5q-86 0 -163.5 23.5t-136 69.5t-92.5 115.5 t-34 161.5zM215 1323q0 41 28.5 69.5t69.5 28.5t71 -28.5t30 -69.5t-30 -70.5t-71 -29.5t-69.5 29.5t-28.5 70.5zM274 586h463v39q0 63 -18.5 108t-50 75t-73.5 43t-89 13t-88 -14t-74 -43t-51.5 -73t-18.5 -103v-45zM614 1323q0 41 30 69.5t71 28.5t70.5 -28.5t29.5 -69.5 t-29.5 -70.5t-70.5 -29.5t-71 29.5t-30 70.5z" />
<glyph unicode="&#x452;" horiz-adv-x="1017" d="M2 1171v140h94v155h176v-155h447v-140h-447v-270q123 80 201 102.5t133 22.5q166 0 247 -94t81 -268v-459q0 -96 -34 -166t-92 -115t-134 -66.5t-162 -21.5v164q49 0 94 10t79 37t54.5 71t20.5 109l-2 414q0 119 -51.5 166t-128.5 47q-63 0 -145.5 -30.5t-160.5 -82.5 v-741h-176v1171h-94z" />
<glyph unicode="&#x453;" horiz-adv-x="819" d="M94 0v1016h723v-158h-545v-858h-178zM336 1169l147 363l166 -51l-205 -353z" />
<glyph unicode="&#x454;" horiz-adv-x="878" d="M96 350v301q0 86 31 156t84 119t126 74.5t157 25.5q88 0 179 -23.5t163 -101.5l-105 -133q-68 63 -126 78.5t-103 15.5t-86 -12t-73 -41t-51.5 -75t-19.5 -111v-37h361v-148h-361v-45q0 -66 18.5 -111.5t49.5 -74.5t74 -41t92 -12q45 0 109.5 18t111.5 66l109 -123 q-72 -72 -159 -98.5t-175 -26.5q-96 0 -172 26.5t-128 73.5t-79 113.5t-27 146.5z" />
<glyph unicode="&#x455;" horiz-adv-x="929" d="M57 121l97 129q76 -63 155.5 -87t173.5 -24q37 0 75 9.5t67.5 28t48 48t18.5 70.5q0 66 -47 94.5t-119 40.5q-78 12 -154.5 27.5t-138 46.5t-100.5 82t-39 135q0 70 29 127t80 96t117.5 60.5t144.5 21.5q115 0 203 -23.5t170 -82.5l-88 -132q-72 45 -139.5 63.5 t-145.5 18.5q-90 0 -145.5 -42t-55.5 -105q0 -53 45 -80t112.5 -42t145.5 -28.5t145.5 -44t112.5 -86t45 -151.5q0 -72 -30.5 -127t-84 -95t-127 -60.5t-161.5 -20.5q-106 0 -206.5 27.5t-203.5 105.5z" />
<glyph unicode="&#x456;" horiz-adv-x="464" d="M123 1323q0 45 32.5 77t75.5 32q45 0 78 -32t33 -77t-33 -78t-78 -33q-43 0 -75.5 33t-32.5 78zM145 0v1016h174v-1016h-174z" />
<glyph unicode="&#x457;" horiz-adv-x="489" d="M-51 1309q0 41 28.5 69.5t69.5 28.5t70.5 -28.5t29.5 -69.5t-29.5 -71t-70.5 -30t-69.5 30t-28.5 71zM158 0v1016h174v-1016h-174zM348 1309q0 41 30 69.5t71 28.5t70.5 -28.5t29.5 -69.5t-30 -71t-70 -30q-41 0 -71 30t-30 71z" />
<glyph unicode="&#x458;" horiz-adv-x="497" d="M-37 -258h80q82 0 112.5 36t30.5 140v1096h174v-1120q0 -170 -77.5 -241t-219.5 -71h-100v160zM170 1323q0 43 29.5 72.5t72.5 29.5t73 -29.5t30 -72.5t-30 -73.5t-73 -30.5t-72.5 30.5t-29.5 73.5z" />
<glyph unicode="&#x459;" horiz-adv-x="1503" d="M16 109q57 25 102.5 59.5t74 86.5t44 129t15.5 187v445h590v-395h268q86 0 152.5 -24t110.5 -64.5t66.5 -97t22.5 -122.5q0 -141 -91 -227t-263 -86h-442v858h-250v-280q0 -141 -21.5 -241.5t-63.5 -170.5t-103.5 -115t-141.5 -74zM840 156h264q88 0 136 39.5t48 117.5 q0 57 -43 105.5t-141 48.5h-264v-311z" />
<glyph unicode="&#x45a;" horiz-adv-x="1540" d="M125 0v1016h176v-398h404v398h176v-395h268q86 0 152.5 -24t110.5 -64.5t66.5 -97t22.5 -122.5q0 -141 -91 -227t-263 -86h-442v469h-404v-469h-176zM879 156h264q88 0 136 39.5t48 117.5q0 57 -43 105.5t-141 48.5h-264v-311z" />
<glyph unicode="&#x45b;" horiz-adv-x="1017" d="M2 1171v140h94v155h176v-155h447v-140h-447v-270q123 80 201 102.5t133 22.5q166 0 247 -94t81 -268v-664h-176v641q0 119 -51.5 166t-128.5 47q-63 0 -145.5 -30.5t-160.5 -82.5v-741h-176v1171h-94z" />
<glyph unicode="&#x45c;" horiz-adv-x="991" d="M102 0v1016h174v-432h173q29 0 57.5 3t53 17t46 42t37.5 77l98 293h181l-101 -295q-25 -74 -58.5 -124t-90.5 -67q70 -16 102.5 -70t56.5 -130l109 -330h-184l-88 281q-16 49 -36 78.5t-44.5 45t-53 20.5t-63.5 5h-195v-430h-174zM377 1169l147 363l166 -51l-205 -353z " />
<glyph unicode="&#x45e;" horiz-adv-x="958" d="M20 1016h191l123 -447l112 -405h7l143 405l154 447h188l-518 -1428h-189l150 430l-86 72zM195 1427h149q2 -20 12.5 -42.5t28.5 -42t45 -32t59 -12.5q37 0 65 12.5t46 32t27.5 42t9.5 42.5h145q-4 -41 -18 -87t-48 -84.5t-88.5 -65.5t-138.5 -27t-140 27t-90 65.5 t-49 84.5t-15 87z" />
<glyph unicode="&#x45f;" horiz-adv-x="1034" d="M100 0v1014h174v-858h488v858h174v-1014h-326v-287h-174v287h-336z" />
<glyph unicode="&#x490;" horiz-adv-x="1073" d="M125 0v1411h749v244h183v-416h-744v-1239h-188z" />
<glyph unicode="&#x491;" horiz-adv-x="845" d="M94 0v1016h565v211h170v-369h-557v-858h-178z" />
<glyph unicode="&#x4d9;" horiz-adv-x="989" d="M88 373v200h643v68q0 121 -66.5 173t-166.5 52q-51 0 -125 -20.5t-137 -79.5l-105 121q90 84 180 111.5t191 27.5q86 0 159.5 -23.5t129 -69.5t86 -115.5t30.5 -162.5v-268q0 -90 -30.5 -163.5t-85 -125t-129 -79t-164.5 -27.5t-166 26.5t-130.5 75.5t-84 120t-29.5 159z M266 391q0 -127 67.5 -183t164.5 -56q45 0 87 14t74.5 43t51 73t18.5 103v45h-463v-39z" />
<glyph unicode="&#x1e80;" horiz-adv-x="1765" d="M20 1411h205l160 -649l111 -467h10l112 469l164 647h199l168 -668l108 -448h11l106 455l164 661h205l-373 -1411h-213l-166 639l-102 434h-12l-107 -442l-164 -631h-213zM539 1784l120 125l304 -250l-76 -86z" />
<glyph unicode="&#x1e81;" horiz-adv-x="1437" d="M41 1016h182l94 -369l97 -381h8l121 371l96 281h178l107 -320l106 -332h10l88 359l99 391h174l-275 -1016h-168l-124 379l-105 317h-8l-103 -323l-120 -373h-168zM483 1481l166 51l148 -363l-109 -41z" />
<glyph unicode="&#x1e82;" horiz-adv-x="1765" d="M20 1411h205l160 -649l111 -467h10l112 469l164 647h199l168 -668l108 -448h11l106 455l164 661h205l-373 -1411h-213l-166 639l-102 434h-12l-107 -442l-164 -631h-213zM815 1597l303 250l121 -125l-348 -211z" />
<glyph unicode="&#x1e83;" horiz-adv-x="1437" d="M41 1016h182l94 -369l97 -381h8l121 371l96 281h178l107 -320l106 -332h10l88 359l99 391h174l-275 -1016h-168l-124 379l-105 317h-8l-103 -323l-120 -373h-168zM666 1169l147 363l166 -51l-205 -353z" />
<glyph unicode="&#x1e84;" horiz-adv-x="1765" d="M20 1411h205l160 -649l111 -467h10l112 469l164 647h199l168 -668l108 -448h11l106 455l164 661h205l-373 -1411h-213l-166 639l-102 434h-12l-107 -442l-164 -631h-213zM584 1661q0 41 28.5 69.5t69.5 28.5t70.5 -28.5t29.5 -69.5t-29.5 -70.5t-70.5 -29.5t-69.5 29.5 t-28.5 70.5zM983 1661q0 41 29.5 69.5t70.5 28.5t71 -28.5t30 -69.5t-30 -70.5t-71 -29.5t-70.5 29.5t-29.5 70.5z" />
<glyph unicode="&#x1e85;" horiz-adv-x="1437" d="M41 1016h182l94 -369l97 -381h8l121 371l96 281h178l107 -320l106 -332h10l88 359l99 391h174l-275 -1016h-168l-124 379l-105 317h-8l-103 -323l-120 -373h-168zM418 1315q0 41 28.5 69.5t69.5 28.5t70.5 -28.5t29.5 -69.5t-29.5 -71t-70.5 -30t-69.5 30t-28.5 71z M817 1315q0 41 30 69.5t71 28.5t70.5 -28.5t29.5 -69.5t-30 -71t-70 -30q-41 0 -71 30t-30 71z" />
<glyph unicode="&#x1ef2;" horiz-adv-x="1099" d="M25 1411h206l164 -336l148 -330h14l152 340l159 326h205l-428 -868v-543h-190v541zM240 1722l120 125l304 -250l-76 -86z" />
<glyph unicode="&#x1ef3;" horiz-adv-x="958" d="M20 1016h191l123 -447l112 -405h7l143 405l154 447h188l-518 -1428h-189l150 430l-86 72zM240 1481l166 51l147 -363l-109 -41z" />
<glyph unicode="&#x2000;" horiz-adv-x="955" />
<glyph unicode="&#x2001;" horiz-adv-x="1911" />
<glyph unicode="&#x2002;" horiz-adv-x="955" />
<glyph unicode="&#x2003;" horiz-adv-x="1911" />
<glyph unicode="&#x2004;" horiz-adv-x="637" />
<glyph unicode="&#x2005;" horiz-adv-x="477" />
<glyph unicode="&#x2006;" horiz-adv-x="318" />
<glyph unicode="&#x2007;" horiz-adv-x="318" />
<glyph unicode="&#x2008;" horiz-adv-x="238" />
<glyph unicode="&#x2009;" horiz-adv-x="382" />
<glyph unicode="&#x200a;" horiz-adv-x="106" />
<glyph unicode="&#x2010;" horiz-adv-x="802" d="M106 471v154h590v-154h-590z" />
<glyph unicode="&#x2011;" horiz-adv-x="802" d="M106 471v154h590v-154h-590z" />
<glyph unicode="&#x2012;" horiz-adv-x="802" d="M106 471v154h590v-154h-590z" />
<glyph unicode="&#x2013;" horiz-adv-x="1024" d="M41 471v158h942v-158h-942z" />
<glyph unicode="&#x2014;" horiz-adv-x="2048" d="M41 471v158h1966v-158h-1966z" />
<glyph unicode="&#x2015;" horiz-adv-x="2048" d="M41 471v158h1966v-158h-1966z" />
<glyph unicode="&#x2018;" horiz-adv-x="602" d="M166 1155q0 57 18.5 109.5t48 95.5t68.5 76.5t80 52.5l61 -80q-47 -35 -75.5 -77t-32.5 -103q43 -4 68.5 -38t25.5 -81q0 -45 -33 -82t-90 -37q-39 0 -65.5 15.5t-43 39t-23.5 52t-7 57.5z" />
<glyph unicode="&#x2019;" horiz-adv-x="602" d="M168 1073q47 35 75.5 77t32.5 103q-43 4 -68.5 38t-25.5 81q0 45 33 82t90 37q39 0 65.5 -15.5t43 -39t23.5 -53t7 -56.5q0 -57 -18 -109.5t-48 -95.5t-69 -76.5t-80 -52.5z" />
<glyph unicode="&#x201a;" horiz-adv-x="512" d="M117 -193q47 35 75.5 77t32.5 104q-53 4 -73.5 34.5t-20.5 83.5q0 45 33 81t90 36q39 0 65.5 -15t43 -38t23.5 -52.5t7 -56.5q0 -57 -18.5 -109t-48 -95t-68.5 -77t-80 -52z" />
<glyph unicode="&#x201c;" horiz-adv-x="827" d="M125 1155q0 57 18.5 109.5t48 95.5t68.5 76.5t80 52.5l61 -80q-47 -35 -75.5 -77t-32.5 -103q43 -4 68.5 -38t25.5 -81q0 -45 -32.5 -82t-90.5 -37q-39 0 -65.5 15.5t-43 39t-23.5 52t-7 57.5zM436 1155q0 57 18.5 109.5t48 95.5t68.5 76.5t80 52.5l62 -80 q-47 -35 -76 -77t-33 -103q43 -4 68.5 -38t25.5 -81q0 -45 -32.5 -82t-90.5 -37q-39 0 -65.5 15.5t-42.5 39t-23.5 52t-7.5 57.5z" />
<glyph unicode="&#x201d;" horiz-adv-x="827" d="M127 1073q47 35 75.5 77t33.5 103q-43 4 -69 38t-26 81q0 45 33 82t90 37q39 0 65.5 -15.5t43 -39t23.5 -53t7 -56.5q0 -57 -18 -109.5t-48 -95.5t-69 -76.5t-80 -52.5zM438 1073q47 35 76 77t33 103q-43 4 -68.5 38t-25.5 81q0 45 32.5 82t89.5 37q39 0 66 -15.5t43 -39 t23.5 -53t7.5 -56.5q0 -57 -18.5 -109.5t-48.5 -95.5t-68.5 -76.5t-79.5 -52.5z" />
<glyph unicode="&#x201e;" horiz-adv-x="864" d="M117 -193q47 35 75.5 77t32.5 104q-53 4 -73.5 34.5t-20.5 83.5q0 45 33 81t90 36q39 0 65.5 -15t43 -38t23.5 -52.5t7 -56.5q0 -57 -18.5 -109t-48 -95t-68.5 -77t-80 -52zM481 -193q47 35 76 77t33 104q-53 4 -73.5 34.5t-20.5 83.5q0 45 32.5 81t89.5 36q39 0 66 -15 t43 -38t23.5 -52.5t7.5 -56.5q0 -57 -18.5 -109t-48 -95t-68.5 -77t-80 -52z" />
<glyph unicode="&#x2020;" horiz-adv-x="954" d="M47 799v135h348v491h164v-491h348v-135h-348v-1180h-164v1180h-348z" />
<glyph unicode="&#x2021;" horiz-adv-x="954" d="M47 274v136h348v389h-348v135h348v491h164v-491h348v-135h-348v-389h348v-136h-348v-655h-164v655h-348z" />
<glyph unicode="&#x2022;" horiz-adv-x="835" d="M154 561q0 55 20.5 104.5t57 85t86 57t104.5 21.5t104 -21.5t86 -57t58.5 -85t21.5 -104.5t-21.5 -104t-58.5 -85t-86 -57.5t-104 -21.5t-104.5 21.5t-86 57.5t-57 85t-20.5 104z" />
<glyph unicode="&#x2023;" horiz-adv-x="1036" d="M166 135v842l805 -410z" />
<glyph unicode="&#x2026;" horiz-adv-x="1591" d="M129 113q0 43 29.5 79.5t87.5 36.5q59 0 92 -36.5t33 -79.5q0 -51 -33 -87t-92 -36q-57 0 -87 35t-30 88zM666 113q0 43 29.5 79.5t86.5 36.5q59 0 92 -36.5t33 -79.5q0 -51 -32.5 -87t-92.5 -36q-57 0 -86.5 35t-29.5 88zM1212 113q0 43 30 79.5t87 36.5q59 0 92 -36.5 t33 -79.5q0 -51 -32.5 -87t-92.5 -36q-57 0 -87 35t-30 88z" />
<glyph unicode="&#x202f;" horiz-adv-x="382" />
<glyph unicode="&#x2030;" horiz-adv-x="2320" d="M98 791v391q0 55 23.5 99t63.5 74.5t92.5 47t111.5 16.5q57 0 110.5 -16.5t93.5 -47t63.5 -74.5t23.5 -99v-391q0 -55 -23.5 -99.5t-63.5 -75t-92 -47t-112 -16.5q-61 0 -114.5 16.5t-92.5 47t-61.5 74.5t-22.5 100zM248 807q0 -35 13 -58.5t34.5 -38t46.5 -20.5t47 -6 q23 0 48.5 6t47 20.5t36 38t14.5 58.5v354q0 35 -14.5 58.5t-36 39t-47 21.5t-48.5 6t-47.5 -6t-46 -21.5t-34.5 -39t-13 -58.5v-354zM317 -35l871 1495h137l-872 -1495h-136zM956 229v392q0 55 24 99t63.5 74.5t92 47t111.5 16.5q57 0 110.5 -16.5t93.5 -47t63.5 -74.5 t23.5 -99v-392q0 -55 -23.5 -99t-63.5 -74.5t-92 -47t-112 -16.5q-61 0 -114.5 16.5t-92.5 47t-61.5 74.5t-22.5 99zM1106 246q0 -35 13.5 -58.5t35 -38t46 -20.5t46.5 -6q23 0 48.5 6t47 20.5t36 38t14.5 58.5v354q0 35 -14.5 58.5t-36 39t-47 21.5t-48.5 6t-47 -6 t-45.5 -21.5t-35 -39t-13.5 -58.5v-354zM1640 229v392q0 55 24 99t63.5 74.5t92 47t111.5 16.5q57 0 110.5 -16.5t93.5 -47t63.5 -74.5t23.5 -99v-392q0 -55 -23.5 -99t-63.5 -74.5t-92 -47t-112 -16.5q-61 0 -114.5 16.5t-92 47t-61.5 74.5t-23 99zM1790 246 q0 -35 13.5 -58.5t35 -38t46 -20.5t46.5 -6q23 0 48.5 6t47 20.5t36 38t14.5 58.5v354q0 35 -14.5 58.5t-36 39t-47 21.5t-48.5 6t-47 -6t-45.5 -21.5t-35 -39t-13.5 -58.5v-354z" />
<glyph unicode="&#x2039;" horiz-adv-x="614" d="M94 475l260 381h160l-252 -381l252 -381h-160z" />
<glyph unicode="&#x203a;" horiz-adv-x="614" d="M92 94l252 381l-252 381h160l260 -381l-260 -381h-160z" />
<glyph unicode="&#x2044;" horiz-adv-x="307" d="M-350 -35l870 1495h137l-872 -1495h-135z" />
<glyph unicode="&#x205f;" horiz-adv-x="477" />
<glyph unicode="&#x2070;" horiz-adv-x="667" d="M43 975v391q0 55 23.5 99t63.5 75t92 47.5t112 16.5q57 0 110.5 -16.5t93.5 -47.5t63.5 -75t23.5 -99v-391q0 -55 -23.5 -99.5t-63.5 -75t-92.5 -47t-111.5 -16.5q-61 0 -114.5 16.5t-92.5 47t-61.5 75t-22.5 99.5zM193 991q0 -35 13 -58.5t34.5 -37.5t46 -20.5 t47.5 -6.5t48.5 6.5t47 20.5t35.5 37.5t14 58.5v355q0 35 -14 58t-35.5 38.5t-47.5 21.5t-48 6q-23 0 -47.5 -6t-46 -21.5t-34.5 -39t-13 -57.5v-355z" />
<glyph unicode="&#x2074;" horiz-adv-x="667" d="M25 870v111l305 612h155l-297 -598h228v246h149v-246h78v-125h-78v-125h-149v125h-391z" />
<glyph unicode="&#x2075;" horiz-adv-x="667" d="M45 838l86 106q92 -74 184 -74q16 0 43 5.5t51.5 17.5t42 34.5t17.5 57.5v105q0 53 -28.5 76.5t-69.5 23.5q-18 0 -44 -7t-52.5 -17.5t-50 -24t-42.5 -25.5l-121 55v424h529v-131h-381v-194q47 27 91 43t79 16q111 0 174 -62.5t63 -164.5v-131q0 -53 -24.5 -96.5 t-65.5 -74t-94 -47t-113 -16.5q-90 0 -155.5 30t-118.5 71z" />
<glyph unicode="&#x2076;" horiz-adv-x="667" d="M47 969v401q0 55 23.5 98t63.5 73t93.5 46.5t110.5 16.5q90 0 152.5 -29t115.5 -72l-84 -106q-90 72 -180 71q-23 0 -47.5 -6t-47 -20.5t-36.5 -38t-14 -55.5v-115q57 33 106 48t84 15q111 0 172.5 -62.5t61.5 -160.5v-102q0 -55 -26 -98.5t-67 -74t-92 -46t-104 -15.5 t-104.5 15.5t-91.5 45t-64.5 72.5t-24.5 99zM197 991q0 -33 13 -56.5t32.5 -37.5t43 -20.5t46.5 -6.5t47 7.5t44.5 21.5t34 36.5t13.5 55.5v70q0 53 -28.5 77.5t-71.5 24.5q-41 0 -85 -19.5t-89 -43.5v-109z" />
<glyph unicode="&#x2077;" horiz-adv-x="667" d="M49 1343v250h569v-108l-333 -740h-162l323 721h-253v-123h-144z" />
<glyph unicode="&#x2078;" horiz-adv-x="667" d="M45 989q0 57 30.5 106.5t90.5 80.5q-53 23 -82 71.5t-29 106.5q0 61 23.5 107t62.5 78t88.5 47.5t102.5 15.5t103 -15.5t90 -47.5t64.5 -79t24.5 -108q0 -53 -30.5 -101.5t-83.5 -72.5q59 -25 91 -78t32 -105q0 -66 -26 -113.5t-67 -80.5t-93 -48.5t-103 -15.5 q-53 0 -104.5 15.5t-92.5 47t-66.5 79t-25.5 110.5zM197 987q0 -57 38.5 -87t98.5 -30q59 0 98 30t39 89q0 53 -41 85t-96 32q-57 0 -97 -32t-40 -87zM201 1354q0 -53 40 -85t93 -32t93 33t40 86q0 57 -43 84.5t-90 27.5q-51 0 -92 -27.5t-41 -86.5z" />
<glyph unicode="&#x2079;" horiz-adv-x="665" d="M35 1276v94q0 55 25.5 98t65.5 74t91 46.5t105 15.5q53 0 104 -15.5t91 -45.5t64.5 -73t24.5 -98v-401q0 -55 -23.5 -98.5t-63.5 -74t-93 -46t-111 -15.5q-90 0 -155.5 30t-112.5 71l86 106q88 -72 178 -72q20 0 46 6.5t48.5 19.5t37 36.5t14.5 58.5v119 q-53 -31 -103.5 -47t-85.5 -16q-109 0 -171 62.5t-62 164.5zM182 1284q0 -51 29 -76.5t72 -25.5q41 0 85 20.5t89 42.5v105q0 33 -12.5 56.5t-33 37.5t-44 20t-45.5 6q-23 0 -47.5 -6t-45 -20t-34 -38t-13.5 -56v-66z" />
<glyph unicode="&#x207a;" horiz-adv-x="665" d="M29 1057v104h247v225h113v-225h248v-104h-248v-230h-113v230h-247z" />
<glyph unicode="&#x207b;" horiz-adv-x="522" d="M57 1018v121h408v-121h-408z" />
<glyph unicode="&#x207c;" horiz-adv-x="665" d="M29 940v113h608v-113h-608zM29 1167v111h608v-111h-608z" />
<glyph unicode="&#x207d;" horiz-adv-x="411" d="M55 1124q0 78 20.5 152t55.5 139.5t81 124.5t95 111l92 -54q-88 -100 -140 -226t-52 -241q0 -125 52 -249.5t134 -223.5l-80 -61q-53 51 -99 111.5t-82 128t-56.5 139.5t-20.5 149z" />
<glyph unicode="&#x207e;" horiz-adv-x="403" d="M27 1597l90 54q49 -51 95 -110.5t82 -125t56.5 -139.5t20.5 -152t-21.5 -150.5t-57.5 -139t-83 -127t-98 -109.5l-80 59q84 98 135 223.5t51 249.5q0 117 -52 242t-138 225z" />
<glyph unicode="&#x207f;" horiz-adv-x="702" d="M53 561v674h133l11 -61q82 45 134 57t89 12q109 0 169 -63.5t60 -180.5v-438h-147v422q0 70 -30 97.5t-77 25.5q-41 0 -92 -19.5t-102 -48.5v-477h-148z" />
<glyph unicode="&#x2080;" horiz-adv-x="667" d="M43 45v391q0 55 23.5 99.5t63.5 75t92 47t112 16.5q57 0 110.5 -16.5t93.5 -47t63.5 -74.5t23.5 -100v-391q0 -55 -23.5 -99t-63.5 -75t-92.5 -47.5t-111.5 -16.5q-61 0 -114.5 16.5t-92.5 47.5t-61.5 75t-22.5 99zM193 61q0 -35 13 -58t34.5 -37.5t46 -20.5t47.5 -6 t48.5 6t47 20.5t35.5 38t14 57.5v355q0 35 -14 58.5t-35.5 38.5t-47.5 21.5t-48 6.5q-23 0 -47.5 -6.5t-46 -21.5t-34.5 -38.5t-13 -58.5v-355z" />
<glyph unicode="&#x2081;" horiz-adv-x="583" d="M78 510l201 156h131v-850h-146v671l-106 -79z" />
<glyph unicode="&#x2082;" horiz-adv-x="667" d="M45 -70q0 57 20.5 103.5t54.5 83.5t78 68.5t89 62.5q23 14 54.5 34.5t60 45t49 53.5t20.5 59q0 53 -50 78t-106 25q-53 0 -99 -18.5t-87 -49.5l-80 103q53 41 123 69.5t147 28.5q57 0 112.5 -11.5t96.5 -39t67 -71.5t26 -110q0 -43 -19.5 -81.5t-50.5 -74.5t-69 -67 t-74 -55q-29 -18 -66 -42t-69.5 -51.5t-54 -56t-21.5 -59.5v-14h424v-127h-576v114z" />
<glyph unicode="&#x2083;" horiz-adv-x="665" d="M8 -106l80 108q41 -31 94.5 -47t96.5 -16q70 0 114.5 31.5t44.5 90.5t-40 92t-99 33h-109v129h111q20 0 45 7.5t44.5 22.5t32.5 39t13 56q0 27 -13 46.5t-34.5 31.5t-48.5 18.5t-53 6.5q-43 0 -96.5 -15.5t-94.5 -48.5l-71 105q47 41 120.5 64.5t157.5 23.5 q51 0 101.5 -12.5t90.5 -40t63.5 -71.5t23.5 -108q0 -57 -31 -107t-96 -73q78 -35 105.5 -85t27.5 -105q0 -66 -23.5 -115t-64.5 -83t-96.5 -50.5t-116.5 -16.5q-86 0 -158 26t-121 63z" />
<glyph unicode="&#x2084;" horiz-adv-x="667" d="M25 51l305 613h155l-297 -598h228v245h149v-245h78v-125h-78v-125h-149v125h-391v110z" />
<glyph unicode="&#x2085;" horiz-adv-x="667" d="M45 -92l86 106q92 -74 184 -73q16 0 43 5t51.5 17t42 34.5t17.5 57.5v105q0 53 -28.5 76.5t-69.5 23.5q-18 0 -44 -7t-52.5 -17.5t-50 -23.5t-42.5 -26l-121 56v424h529v-131h-381v-195q47 27 91 43t79 16q111 0 174 -62.5t63 -164.5v-131q0 -53 -24.5 -96t-65.5 -74 t-94 -47.5t-113 -16.5q-90 0 -155.5 30t-118.5 71z" />
<glyph unicode="&#x2086;" horiz-adv-x="667" d="M47 39v401q0 55 23.5 98.5t63.5 73t93.5 46t110.5 16.5q90 0 154.5 -29t117.5 -72l-88 -106q-90 72 -180 72q-23 0 -47.5 -6.5t-47 -20.5t-36.5 -37.5t-14 -56.5v-115q57 33 106 48.5t84 15.5q111 0 172.5 -62.5t61.5 -161.5v-102q0 -55 -26 -98t-67 -74t-92 -46.5 t-104 -15.5t-104.5 15.5t-91.5 45.5t-64.5 73t-24.5 98zM197 61q0 -33 13 -56t32.5 -37.5t43 -20.5t46.5 -6t47 7t44.5 21.5t34 37t13.5 54.5v70q0 53 -28.5 77.5t-71.5 24.5q-41 0 -85 -19t-89 -44v-109z" />
<glyph unicode="&#x2087;" horiz-adv-x="667" d="M49 414v250h569v-109l-333 -739h-162l323 721h-253v-123h-144z" />
<glyph unicode="&#x2088;" horiz-adv-x="667" d="M45 59q0 57 30.5 106.5t90.5 80.5q-53 23 -82 72t-29 106q0 61 23.5 107.5t62.5 78t88.5 47t102.5 15.5t103 -15.5t90 -47t64.5 -79t24.5 -108.5q0 -53 -30.5 -101.5t-83.5 -72.5q59 -25 91 -78t32 -104q0 -66 -26 -114t-67 -81t-93 -48.5t-103 -15.5q-53 0 -104.5 15.5 t-92.5 47.5t-66.5 79t-25.5 110zM197 57q0 -57 38.5 -86.5t98.5 -29.5q59 0 98 29.5t39 88.5q0 53 -41 85t-96 32q-57 0 -97 -31.5t-40 -87.5zM201 424q0 -53 40 -85t93 -32t93 33t40 86q0 57 -43 85t-90 28q-51 0 -92 -28t-41 -87z" />
<glyph unicode="&#x2089;" horiz-adv-x="665" d="M35 346v94q0 55 25.5 98.5t65.5 74t91 46t105 15.5q53 0 104 -15.5t91 -45t64.5 -72.5t24.5 -99v-401q0 -55 -23.5 -98t-63.5 -74t-93 -46.5t-111 -15.5q-90 0 -155.5 30t-112.5 71l86 106q88 -72 178 -71q20 0 46 6t48.5 19.5t37 37t14.5 57.5v119q-53 -31 -103.5 -47 t-85.5 -16q-109 0 -171 62.5t-62 164.5zM182 354q0 -51 29 -76.5t72 -25.5q41 0 85 20.5t89 42.5v105q0 33 -12.5 56.5t-33 37.5t-44 20.5t-45.5 6.5q-23 0 -47.5 -6.5t-45 -20.5t-34 -37.5t-13.5 -56.5v-66z" />
<glyph unicode="&#x208a;" horiz-adv-x="665" d="M29 127v104h247v226h113v-226h248v-104h-248v-229h-113v229h-247z" />
<glyph unicode="&#x208b;" horiz-adv-x="522" d="M57 88v121h408v-121h-408z" />
<glyph unicode="&#x208c;" horiz-adv-x="665" d="M29 10v113h608v-113h-608zM29 238v110h608v-110h-608z" />
<glyph unicode="&#x208d;" horiz-adv-x="411" d="M55 246q0 78 20.5 151.5t55.5 139t81 125t95 110.5l92 -53q-88 -100 -140 -226t-52 -241q0 -125 52 -250t134 -223l-80 -62q-53 51 -99 111.5t-82 128.5t-56.5 139.5t-20.5 149.5z" />
<glyph unicode="&#x208e;" horiz-adv-x="403" d="M27 719l90 53q49 -51 95 -110.5t82 -125t56.5 -139t20.5 -151.5t-21.5 -150.5t-57.5 -139.5t-83 -127t-98 -110l-80 60q84 98 135 223t51 250q0 117 -52 241.5t-138 225.5z" />
<glyph unicode="&#x20ab;" horiz-adv-x="1024" d="M156 0v141h743v-141h-743zM162 541v241q0 68 21.5 121t60.5 91t91 57.5t111 19.5q41 0 111 -8t141 -31v121h-174v123h174v151h158v-151h90v-123h-90v-893h-139l-17 78q-90 -53 -158.5 -69.5t-109.5 -16.5q-119 0 -194.5 70.5t-75.5 218.5zM317 549q0 -84 35 -116t94 -32 q20 0 53 6.5t69 18.5t71 28.5t59 34.5v388q-59 23 -126.5 35t-112.5 12q-59 2 -100.5 -35t-41.5 -123v-217z" />
<glyph unicode="&#x20ac;" horiz-adv-x="1024" d="M96 535v129h805v-129h-522v-50q0 -86 24.5 -148.5t67.5 -101t99.5 -57t121.5 -18.5q70 0 142.5 15t132.5 54l84 -147q-66 -41 -158 -68.5t-197 -27.5q-117 0 -211 32.5t-159.5 94t-101.5 148.5t-36 196v78h-92zM96 760v129h92v67q0 106 39 193.5t107.5 149t162 94 t199.5 32.5q102 0 188.5 -21.5t162.5 -70.5l-93 -151q-55 33 -123.5 51t-134.5 18t-124 -18.5t-101 -57t-67.5 -100t-24.5 -149.5v-37h522v-129h-805z" />
<glyph unicode="&#x2103;" horiz-adv-x="1685" d="M41 1163q0 57 21.5 107.5t59.5 87.5t88 58.5t107 21.5t107.5 -21.5t87.5 -58.5t58.5 -87.5t21.5 -107.5t-21.5 -106t-58.5 -86t-87 -58.5t-108 -21.5q-57 0 -107 21.5t-88 58.5t-59.5 86t-21.5 106zM160 1163q0 -66 46 -111.5t111 -45.5q66 0 112 45.5t46 111.5t-46 112 t-112 46t-111.5 -46t-45.5 -112zM717 449v516q0 106 42 191t111.5 145.5t162 92t194.5 31.5q115 0 215 -30.5t180 -96.5l-94 -147q-55 47 -138 73.5t-163 26.5q-59 0 -116.5 -18.5t-102.5 -57t-73 -100t-28 -149.5v-441q0 -86 29 -148.5t74 -101t101 -57t112 -18.5 q80 0 162.5 22.5t148.5 75.5l90 -145q-66 -53 -170 -90t-227 -37q-102 0 -195.5 31.5t-163 91t-110.5 145.5t-41 195z" />
<glyph unicode="&#x2105;" horiz-adv-x="1542" d="M113 942v209q0 61 23.5 111.5t62.5 85t91 53t109 18.5q61 0 128 -18.5t122 -77.5l-88 -106q-47 47 -87 58t-68 11q-27 0 -53.5 -8t-48 -26.5t-36 -48t-14.5 -73.5v-159q0 -84 46 -119t106 -35q29 0 72.5 14.5t78.5 49.5l90 -103q-57 -53 -120.5 -74.5t-123.5 -21.5 q-66 0 -119 19.5t-90.5 53t-59 82t-21.5 105.5zM301 -35l870 1495h138l-873 -1495h-135zM879 256v205q0 63 23.5 112.5t64.5 84t95 53t116 18.5q133 0 217 -70.5t84 -197.5v-205q0 -63 -24.5 -112.5t-65.5 -83t-96.5 -51t-116.5 -17.5t-115.5 17.5t-94.5 51t-63.5 83 t-23.5 112.5zM1020 281q0 -86 46 -120t114 -34q27 0 54.5 8t51 26.5t37.5 47.5t14 72v159q0 43 -14 73t-37.5 48.5t-51.5 26.5t-54 8q-29 0 -57.5 -8t-51 -26.5t-37 -48.5t-14.5 -73v-159z" />
<glyph unicode="&#x2109;" horiz-adv-x="1660" d="M41 1163q0 57 21.5 107.5t59.5 87.5t88 58.5t107 21.5t107.5 -21.5t87.5 -58.5t58.5 -87.5t21.5 -107.5t-21.5 -106t-58.5 -86t-87 -58.5t-108 -21.5q-57 0 -107 21.5t-88 58.5t-59.5 86t-21.5 106zM160 1163q0 -66 46 -111.5t111 -45.5q66 0 112 45.5t46 111.5t-46 112 t-112 46t-111.5 -46t-45.5 -112zM690 0v1411h942v-172h-753v-446h645v-172h-645v-621h-189z" />
<glyph unicode="&#x2113;" horiz-adv-x="1032" d="M61 436q41 23 87.5 51.5t93.5 65.5v453q0 121 24.5 205.5t67.5 138t100.5 77t122.5 23.5q45 0 91 -15.5t82 -47t58.5 -79.5t22.5 -112q0 -170 -107.5 -335t-312.5 -357v-107q0 -80 17.5 -135t45 -89t62.5 -48t70 -14q66 0 129 57t108 162l115 -49q-59 -137 -151.5 -219 t-215.5 -82q-72 0 -132 26.5t-103 73.5t-67.5 108.5t-24.5 133.5v94q-41 -29 -72 -47.5t-66 -36.5zM391 655q137 156 210 282t73 257q0 20 -6 46t-19.5 47.5t-38 35.5t-61.5 14q-29 0 -56.5 -16t-50 -52t-37 -92.5t-14.5 -136.5v-385z" />
<glyph unicode="&#x2116;" horiz-adv-x="1935" d="M143 0v1409h179l458 -764l168 -289h6v1053h179v-1409h-170l-418 702l-215 377h-6v-1079h-181zM1268 997v170q0 57 23.5 105.5t64.5 83.5t95 53t116 18q63 0 118.5 -18t94.5 -53t61.5 -83t22.5 -106v-170q0 -59 -24.5 -107t-65.5 -82t-95.5 -51.5t-113.5 -17.5 q-61 0 -115.5 17.5t-94.5 51.5t-63.5 82t-23.5 107zM1288 481v142h553v-142h-553zM1413 1018q0 -78 45 -112t109 -34q27 0 53.5 8.5t48 26t35.5 45t14 66.5v131q0 39 -14 66.5t-35.5 46t-48.5 26.5t-53 8q-27 0 -53.5 -8t-49 -26.5t-37 -46t-14.5 -66.5v-131z" />
<glyph unicode="&#x2117;" horiz-adv-x="1644" d="M115 698q0 154 54 286t150.5 228.5t226.5 150.5t281 54q152 0 283 -54t227.5 -150.5t150.5 -228.5t54 -286t-54 -283.5t-150.5 -226t-227.5 -150.5t-283 -54q-156 0 -285.5 54t-225 150.5t-148.5 226.5t-53 283zM244 698q0 -127 44 -234.5t122.5 -186t185 -123.5 t231.5 -45t231.5 45t185.5 123.5t123 186t44 234.5t-44 235.5t-123 188.5t-185.5 125t-231.5 45t-231.5 -45t-185 -125t-122.5 -188.5t-44 -235.5zM573 227v889h328q57 0 110.5 -15.5t94.5 -48t66.5 -83.5t25.5 -125q0 -47 -18.5 -94.5t-54 -86t-88 -62t-119.5 -23.5h-213 v-351h-132zM705 698h204q39 0 68 13.5t48 35t28.5 48t9.5 53.5q0 74 -45 110.5t-113 36.5h-200v-297z" />
<glyph unicode="&#x2122;" horiz-adv-x="1751" d="M78 1305v120h631v-120h-252v-721h-125v721h-254zM793 582v839h114l183 -344l114 -223h6l111 223l182 344h111v-839h-121v571h-6l-82 -162l-154 -284h-90l-145 262l-96 184h-7v-571h-120z" />
<glyph unicode="&#x2126;" horiz-adv-x="1271" d="M88 0v168h186q-72 57 -115.5 140t-43.5 192v458q0 106 41 192.5t111.5 148t165.5 94t204 32.5q106 0 201.5 -32.5t166 -94t111.5 -147.5t41 -193v-458q0 -109 -43 -192t-115 -140h189v-168h-447v207q43 12 84 37.5t73 63.5t50.5 90.5t18.5 119.5v410q0 86 -27 146.5 t-72 100t-105.5 58t-125.5 18.5q-68 0 -128 -18.5t-105.5 -58t-72 -100t-26.5 -146.5v-410q0 -68 19.5 -120t51.5 -90t72.5 -63.5t83.5 -37.5v-207h-444z" />
<glyph unicode="&#x212b;" horiz-adv-x="1222" d="M27 0l491 1411h191l493 -1411h-198l-111 317h-561l-109 -317h-196zM393 489h441l-113 336l-105 328h-8l-102 -328zM401 1638q0 43 16.5 82t46.5 67t68.5 44t81.5 16t82 -16t68 -44t45 -67t16 -82t-16 -81.5t-45 -67.5t-68 -45.5t-82 -16.5t-81.5 16.5t-68.5 45.5 t-46.5 67.5t-16.5 81.5zM500 1638q0 -47 33.5 -79.5t80.5 -32.5t80 32.5t33 79.5t-32.5 79t-80.5 32q-47 0 -80.5 -31.5t-33.5 -79.5z" />
<glyph unicode="&#x212e;" horiz-adv-x="1673" d="M125 674q0 141 56.5 265t154.5 216t229 145.5t279 53.5q152 0 280.5 -53.5t224 -146.5t151.5 -223t63 -284h-1164l2 -377q33 -53 82 -96t107.5 -73.5t124 -48t131.5 -17.5q135 0 251.5 59.5t198.5 161.5h127q-104 -129 -255.5 -204t-323.5 -75q-147 0 -278.5 55.5 t-229.5 151t-154.5 222t-56.5 268.5zM399 700h885v367q-31 51 -80 94t-107.5 73t-124 46t-126.5 16q-117 0 -234.5 -64.5t-210.5 -172.5z" />
<glyph unicode="&#x2153;" horiz-adv-x="1638" d="M133 1255l201 156h131v-850h-146v672l-106 -80zM240 -35l870 1495h137l-872 -1495h-135zM926 78l80 108q41 -31 94 -47t96 -16q70 0 115 31.5t45 91.5q0 59 -40 92t-99 33h-109v129h111q20 0 44.5 7t44 22.5t33 39t13.5 56.5q0 27 -13.5 46t-35 31.5t-48 18.5t-53.5 6 q-43 0 -96 -15.5t-94 -47.5l-72 104q47 41 121 64.5t158 23.5q51 0 101 -12.5t90 -40t63.5 -71.5t23.5 -107q0 -57 -30.5 -107.5t-96.5 -73.5q78 -35 105.5 -85t27.5 -105q0 -66 -23.5 -115t-64.5 -82.5t-96 -50t-117 -16.5q-86 0 -157.5 25.5t-120.5 62.5z" />
<glyph unicode="&#x2154;" horiz-adv-x="1638" d="M43 561v115q0 57 20.5 103t54.5 83t78 69t89 62q23 14 54.5 35t60 45.5t49 53t20.5 59.5q0 53 -50 77.5t-106 24.5q-53 0 -99 -18.5t-87 -48.5l-80 102q53 41 123 69.5t147 28.5q57 0 112.5 -11t96.5 -39t66.5 -71.5t25.5 -109.5q0 -43 -19 -82t-50 -75t-69 -66.5 t-74 -55.5q-29 -18 -66 -41.5t-69.5 -51t-54 -56.5t-21.5 -60v-14h423v-127h-575zM328 -35l870 1495h137l-872 -1495h-135zM1014 78l80 108q41 -31 94 -47t96 -16q70 0 115 31.5t45 91.5q0 59 -40 92t-99 33h-109v129h111q20 0 44.5 7t44 22.5t33 39t13.5 56.5 q0 27 -13.5 46t-35 31.5t-48 18.5t-53.5 6q-43 0 -96 -15.5t-94 -47.5l-72 104q47 41 121 64.5t158 23.5q51 0 101 -12.5t90 -40t63.5 -71.5t23.5 -107q0 -57 -30.5 -107.5t-96.5 -73.5q78 -35 105.5 -85t27.5 -105q0 -66 -23.5 -115t-64.5 -82.5t-96 -50t-117 -16.5 q-86 0 -157.5 25.5t-120.5 62.5z" />
<glyph unicode="&#x2155;" horiz-adv-x="1638" d="M131 1255l201 156h131v-850h-146v672l-106 -80zM217 -35l870 1495h138l-873 -1495h-135zM934 92l86 107q92 -74 184 -74q16 0 43 5t51.5 17.5t42 35t17.5 57.5v104q0 53 -29 76.5t-69 23.5q-18 0 -44 -7t-52.5 -17t-50 -23.5t-42.5 -25.5l-121 55v424h529v-131h-381v-195 q47 27 91 43.5t79 16.5q111 0 174 -62.5t63 -165.5v-131q0 -53 -24.5 -96t-65.5 -73.5t-94 -47t-113 -16.5q-90 0 -155.5 29.5t-118.5 70.5z" />
<glyph unicode="&#x2156;" horiz-adv-x="1638" d="M18 561v115q0 57 20.5 103t54.5 83t78 69t89 62q23 14 54.5 35t60 45.5t49 53t20.5 59.5q0 53 -50 77.5t-105 24.5q-53 0 -99.5 -18.5t-87.5 -48.5l-79 102q53 41 122.5 69.5t147.5 28.5q57 0 112.5 -11t96.5 -39t66.5 -71.5t25.5 -109.5q0 -43 -19.5 -82t-50 -75 t-68.5 -66.5t-75 -55.5q-29 -18 -65.5 -41.5t-69.5 -51t-54.5 -56.5t-21.5 -60v-14h424v-127h-576zM322 -35l870 1495h137l-872 -1495h-135zM1047 92l86 107q92 -74 184 -74q16 0 42.5 5t51.5 17.5t42 35t17 57.5v104q0 53 -28.5 76.5t-69.5 23.5q-18 0 -43.5 -7t-52.5 -17 t-50.5 -23.5t-41.5 -25.5l-121 55v424h528v-131h-381v-195q47 27 91.5 43.5t78.5 16.5q111 0 174.5 -62.5t63.5 -165.5v-131q0 -53 -24.5 -96t-65.5 -73.5t-94.5 -47t-112.5 -16.5q-90 0 -155.5 29.5t-118.5 70.5z" />
<glyph unicode="&#x2157;" horiz-adv-x="1638" d="M31 639l80 109q41 -31 94 -47.5t96 -16.5q70 0 115 32t45 91t-40 92t-99 33h-109v129h111q20 0 44.5 7t45 22.5t34 39t13.5 56.5q0 27 -14.5 46t-36 31.5t-49 18.5t-54.5 6q-43 0 -96 -15.5t-94 -47.5l-72 104q47 41 121 64.5t158 23.5q51 0 102 -12t91 -40t64.5 -72 t24.5 -107q0 -57 -31.5 -107.5t-97.5 -72.5q78 -35 105.5 -85.5t27.5 -105.5q0 -66 -23.5 -115t-64.5 -82.5t-96 -50t-117 -16.5q-86 0 -157.5 25.5t-120.5 62.5zM313 -35l871 1495h137l-872 -1495h-136zM1036 92l86 107q92 -74 185 -74q16 0 42.5 5t51 17.5t42 35 t17.5 57.5v104q0 53 -28.5 76.5t-69.5 23.5q-18 0 -44 -7t-52.5 -17t-50 -23.5t-41.5 -25.5l-121 55v424h528v-131h-381v-195q47 27 91 43.5t79 16.5q111 0 174.5 -62.5t63.5 -165.5v-131q0 -53 -24.5 -96t-65.5 -73.5t-94.5 -47t-112.5 -16.5q-90 0 -155.5 29.5 t-119.5 70.5z" />
<glyph unicode="&#x2158;" horiz-adv-x="1638" d="M16 686v111l306 612h155l-297 -598h228v246h149v-246h78v-125h-78v-125h-149v125h-392zM328 -35l870 1495h137l-872 -1495h-135zM1049 92l86 107q92 -74 184 -74q16 0 43 5t51.5 17.5t42 35t17.5 57.5v104q0 53 -29 76.5t-70 23.5q-18 0 -43.5 -7t-52.5 -17t-50.5 -23.5 t-41.5 -25.5l-121 55v424h528v-131h-381v-195q47 27 91.5 43.5t78.5 16.5q111 0 174.5 -62.5t63.5 -165.5v-131q0 -53 -24.5 -96t-65.5 -73.5t-94.5 -47t-112.5 -16.5q-90 0 -155.5 29.5t-118.5 70.5z" />
<glyph unicode="&#x2159;" horiz-adv-x="1638" d="M90 1255l201 156h131v-850h-146v672l-106 -80zM258 -35l870 1495h138l-873 -1495h-135zM975 223v402q0 55 23.5 98t63.5 72.5t93 46t111 16.5q90 0 154.5 -28.5t117.5 -71.5l-88 -107q-90 72 -180 72q-23 0 -47.5 -6t-47 -20.5t-37 -38t-14.5 -56.5v-115 q57 33 106.5 48.5t84.5 15.5q111 0 172 -62.5t61 -160.5v-103q0 -55 -25.5 -98t-66.5 -73.5t-92 -46t-104 -15.5t-104.5 15.5t-91.5 45t-64.5 72.5t-24.5 98zM1124 246q0 -33 13.5 -56.5t33 -38t43 -20.5t46.5 -6t47 7t44.5 21.5t34 37t13.5 55.5v69q0 53 -29 78t-72 25 q-41 0 -85 -19.5t-89 -44.5v-108z" />
<glyph unicode="&#x215a;" horiz-adv-x="1638" d="M45 653l86 107q92 -74 184 -74q16 0 43 5t51.5 17.5t42 35t17.5 57.5v104q0 53 -28.5 77t-69.5 24q-18 0 -44 -7.5t-52.5 -17.5t-50 -23.5t-42.5 -25.5l-121 55v424h529v-131h-381v-195q47 27 91 43.5t79 16.5q111 0 174 -62.5t63 -164.5v-132q0 -53 -24.5 -96 t-65.5 -73.5t-94 -47t-113 -16.5q-90 0 -155.5 29.5t-118.5 70.5zM301 -35l870 1495h138l-873 -1495h-135zM1020 223v402q0 55 23.5 98t63.5 72.5t93 46t111 16.5q90 0 154.5 -28.5t117.5 -71.5l-88 -107q-90 72 -180 72q-23 0 -47.5 -6t-47 -20.5t-37 -38t-14.5 -56.5v-115 q57 33 106.5 48.5t84.5 15.5q111 0 172 -62.5t61 -160.5v-103q0 -55 -25.5 -98t-66.5 -73.5t-92 -46t-104 -15.5t-104.5 15.5t-91.5 45t-64.5 72.5t-24.5 98zM1169 246q0 -33 13.5 -56.5t33 -38t43 -20.5t46.5 -6t47 7t44.5 21.5t34 37t13.5 55.5v69q0 53 -29 78t-72 25 q-41 0 -85 -19.5t-89 -44.5v-108z" />
<glyph unicode="&#x215b;" horiz-adv-x="1638" d="M119 1255l200 156h132v-850h-146v672l-106 -80zM223 -35l871 1495h137l-873 -1495h-135zM940 244q0 57 30.5 106t90.5 80q-53 23 -82 72t-29 106q0 61 23.5 107.5t62.5 78t88.5 47t102.5 15.5t103 -15.5t90 -47t64.5 -78.5t24.5 -109q0 -53 -30.5 -101t-83.5 -73 q59 -25 91 -78t32 -104q0 -66 -26 -114t-67 -80.5t-93 -48t-103 -15.5q-53 0 -104.5 15.5t-92.5 47t-66.5 78.5t-25.5 111zM1092 242q0 -57 38.5 -87t98.5 -30q59 0 98 29.5t39 89.5q0 53 -41 84.5t-96 31.5q-57 0 -97 -31.5t-40 -86.5zM1096 608q0 -53 40 -84.5t93 -31.5 t93 32.5t40 85.5q0 57 -43 85t-90 28q-51 0 -92 -27.5t-41 -87.5z" />
<glyph unicode="&#x215c;" horiz-adv-x="1638" d="M39 639l80 109q41 -31 94 -47.5t96 -16.5q70 0 115 32t45 91t-40 92t-99 33h-109v129h111q20 0 44.5 7t45 22.5t34 39t13.5 56.5q0 27 -14.5 46t-36 31.5t-49 18.5t-54.5 6q-43 0 -96 -15.5t-94 -47.5l-72 104q47 41 121 64.5t158 23.5q51 0 102 -12t91 -40t64.5 -72 t24.5 -107q0 -57 -31.5 -107.5t-97.5 -72.5q78 -35 105.5 -85.5t27.5 -105.5q0 -66 -23.5 -115t-64.5 -82.5t-96 -50t-117 -16.5q-86 0 -157.5 25.5t-120.5 62.5zM305 -35l871 1495h137l-873 -1495h-135zM1022 244q0 57 30.5 106t90.5 80q-53 23 -82 72t-29 106 q0 61 23.5 107.5t62.5 78t88.5 47t102.5 15.5t103 -15.5t90 -47t64.5 -78.5t24.5 -109q0 -53 -30.5 -101t-83.5 -73q59 -25 90.5 -78t31.5 -104q0 -66 -25.5 -114t-66.5 -80.5t-93 -48t-103 -15.5q-53 0 -104.5 15.5t-92.5 47t-66.5 78.5t-25.5 111zM1174 242 q0 -57 38.5 -87t98.5 -30q59 0 98 29.5t39 89.5q0 53 -41 84.5t-96 31.5q-57 0 -97 -31.5t-40 -86.5zM1178 608q0 -53 39.5 -84.5t93.5 -31.5q53 0 93 32.5t40 85.5q0 57 -43 85t-90 28q-51 0 -92 -27.5t-41 -87.5z" />
<glyph unicode="&#x215d;" horiz-adv-x="1638" d="M47 653l86 107q92 -74 184 -74q16 0 43 5t51.5 17.5t42 35t17.5 57.5v104q0 53 -28.5 77t-69.5 24q-18 0 -44 -7.5t-52.5 -17.5t-50 -23.5t-42.5 -25.5l-121 55v424h529v-131h-381v-195q47 27 91 43.5t79 16.5q111 0 174 -62.5t63 -164.5v-132q0 -53 -24.5 -96 t-65.5 -73.5t-94 -47t-112 -16.5q-90 0 -156 29.5t-119 70.5zM313 -35l871 1495h137l-872 -1495h-136zM1014 244q0 57 30.5 106t90.5 80q-53 23 -82 72t-29 106q0 61 23.5 107.5t62.5 78t88 47t102 15.5t103.5 -15.5t90.5 -47t64.5 -78.5t24.5 -109q0 -53 -30.5 -101 t-84.5 -73q59 -25 91 -78t32 -104q0 -66 -25.5 -114t-66.5 -80.5t-93 -48t-103 -15.5q-53 0 -104.5 15.5t-92.5 47t-66.5 78.5t-25.5 111zM1165 242q0 -57 39 -87t99 -30q59 0 98 29.5t39 89.5q0 53 -41 84.5t-96 31.5q-57 0 -97.5 -31.5t-40.5 -86.5zM1169 608 q0 -53 40 -84.5t94 -31.5q53 0 93 32.5t40 85.5q0 57 -43 85t-90 28q-51 0 -92.5 -27.5t-41.5 -87.5z" />
<glyph unicode="&#x215e;" horiz-adv-x="1638" d="M96 1159v250h570v-109l-334 -739h-162l324 721h-254v-123h-144zM248 -35l870 1495h137l-872 -1495h-135zM965 244q0 57 30.5 106t89.5 80q-53 23 -81.5 72t-28.5 106q0 61 23.5 107.5t62.5 78t88 47t102 15.5t103.5 -15.5t90.5 -47t64.5 -78.5t24.5 -109 q0 -53 -30.5 -101t-84.5 -73q59 -25 91 -78t32 -104q0 -66 -25.5 -114t-66.5 -80.5t-93 -48t-104 -15.5q-53 0 -104 15.5t-92 47t-66.5 78.5t-25.5 111zM1116 242q0 -57 39 -87t98 -30t98.5 29.5t39.5 89.5q0 53 -41.5 84.5t-96.5 31.5q-57 0 -97 -31.5t-40 -86.5zM1120 608 q0 -53 40 -84.5t93 -31.5t93 32.5t40 85.5q0 57 -43 85t-90 28q-51 0 -92 -27.5t-41 -87.5z" />
<glyph unicode="&#x215f;" horiz-adv-x="897" d="M76 1255l200 156h132v-850h-146v672l-106 -80zM240 -35l870 1495h137l-872 -1495h-135z" />
<glyph unicode="&#x2190;" horiz-adv-x="1720" d="M168 657l450 455l95 -92l-299 -297h1181v-131l-1181 2l299 -297l-95 -92z" />
<glyph unicode="&#x2191;" horiz-adv-x="993" d="M53 979l453 451l455 -451l-93 -94l-297 291v-1174h-131v1174l-295 -291z" />
<glyph unicode="&#x2192;" horiz-adv-x="1720" d="M170 592v131h1182l-299 297l94 92l450 -455l-450 -452l-94 92l299 297z" />
<glyph unicode="&#x2193;" horiz-adv-x="993" d="M53 455l92 94l297 -299l-2 1182h131v-1182l297 299l93 -94l-455 -451z" />
<glyph unicode="&#x2196;" horiz-adv-x="1720" d="M252 678l2 639l639 2l2 -131l-422 2l1096 -1098l-90 -92l-1096 1098l2 -420h-133z" />
<glyph unicode="&#x2198;" horiz-adv-x="1720" d="M250 1227l90 92l1096 -1098l-2 420h133l-2 -639l-639 -2l-2 131l422 -2z" />
<glyph unicode="&#x21a9;" horiz-adv-x="1720" d="M70 657l450 455l94 -92l-299 -297h994q113 0 158.5 63.5t45.5 157.5v164q0 92 -48 142t-156 50h-152v127h162q90 0 152.5 -24.5t100.5 -68.5t55.5 -104.5t17.5 -129.5v-156q0 -160 -86 -256t-267 -96l-977 2l299 -297l-94 -92z" />
<glyph unicode="&#x21aa;" horiz-adv-x="1695" d="M72 944v156q0 70 17 130t55 104t100.5 68.5t152.5 24.5h162v-127h-151q-109 0 -157 -50t-48 -142v-164q0 -47 10 -87t34.5 -69.5t63.5 -47t97 -17.5h993l-299 297l94 92l451 -455l-451 -452l-94 92l299 297l-977 -2q-180 0 -266 96t-86 256z" />
<glyph unicode="&#x21b3;" horiz-adv-x="1720" d="M229 592v825h133v-694h1047l-299 297l94 92l451 -455l-451 -452l-94 92l299 297z" />
<glyph unicode="&#x21b5;" horiz-adv-x="1720" d="M168 657l450 455l95 -92l-299 -297h1046v694h133v-825l-1179 2l299 -297l-95 -92z" />
<glyph unicode="&#x21de;" horiz-adv-x="993" d="M53 979l453 451l455 -451l-93 -94l-297 291l2 -406h226v-131h-226v-156h226v-131h-226v-352h-133v352h-225v131h225v156h-225v131h225l2 406l-297 -291z" />
<glyph unicode="&#x21df;" horiz-adv-x="993" d="M53 451l92 94l297 -297l-2 411h-225v132h225v155h-225v131h225v353h133v-353h226v-131h-226v-155h226v-132h-226l-2 -411l297 297l93 -94l-455 -451z" />
<glyph unicode="&#x21e0;" horiz-adv-x="1720" d="M129 657l451 455l94 -92l-303 -297h272v-131l-272 2l303 -297l-94 -92zM780 592v131h164v-131h-164zM1083 592v131h166v-131h-166zM1389 592v131h165v-131h-165z" />
<glyph unicode="&#x21e1;" horiz-adv-x="993" d="M49 977l453 450l454 -450l-92 -94l-297 299v-269h-131l2 269l-297 -299zM436 2v166h131v-166h-131zM436 307v166h131v-166h-131zM436 612v164h131v-164h-131z" />
<glyph unicode="&#x21e2;" horiz-adv-x="1720" d="M129 592v131h166v-131h-166zM434 592v131h166v-131h-166zM739 592v131h164v-131h-164zM1010 297l303 297l-273 -2v131h273l-303 297l94 92l450 -455l-450 -452z" />
<glyph unicode="&#x21e3;" horiz-adv-x="993" d="M49 453l92 94l297 -299l-2 268h131v-268l297 299l92 -94l-454 -451zM436 653v164h131v-164h-131zM436 956v166h131v-166h-131zM436 1262v165h131v-165h-131z" />
<glyph unicode="&#x21e4;" horiz-adv-x="1720" d="M154 213v891h133v-891h-133zM416 657l450 455l95 -92l-299 -297h1009v-131l-1009 2l299 -297l-95 -92z" />
<glyph unicode="&#x21e5;" horiz-adv-x="1720" d="M156 592v131h1009l-299 297l95 92l450 -455l-450 -452l-95 92l299 297zM1540 213v891h133v-891h-133z" />
<glyph unicode="&#x21e7;" horiz-adv-x="1720" d="M113 651l757 776l758 -776h-379v-651h-757v651h-379zM367 750h235v-641h539v641h233l-504 522z" />
<glyph unicode="&#x21ea;" horiz-adv-x="1720" d="M92 651l758 776l758 -776h-379v-444h-758v444h-379zM346 750h236v-431h538v431h234l-504 522zM471 0h758v-385h-758v385zM582 -109v-165h538v165h-538z" />
<glyph unicode="&#x2202;" horiz-adv-x="1085" d="M90 442q0 106 32 192.5t88 146t132 92t162 32.5q80 0 154.5 -30.5t162.5 -102.5q-6 119 -33.5 223.5t-78 182t-123 123t-170.5 45.5q-33 0 -68 -3.5t-69 -13.5v129q80 18 153 19q156 0 263.5 -61.5t175 -166t97 -242t29.5 -288.5q0 -184 -35.5 -322.5t-100 -230.5 t-154 -139t-195.5 -47q-90 0 -167 29.5t-134 88t-89 144t-32 200.5zM252 446q0 -86 22.5 -148t59.5 -101t85 -57.5t101 -18.5q82 0 139.5 43t92 111.5t52 153.5t21.5 171q-82 94 -162.5 134t-146.5 40q-61 0 -110.5 -28.5t-83 -74.5t-52 -105t-18.5 -120z" />
<glyph unicode="&#x2207;" horiz-adv-x="1222" d="M27 1413h1175l-491 -1411h-191zM289 1241l164 -487l157 -488h13l151 469l170 506h-655z" />
<glyph unicode="&#x220f;" horiz-adv-x="1247" d="M111 -168v1579h1042v-1579h-192v1407h-662v-1407h-188z" />
<glyph unicode="&#x2211;" horiz-adv-x="1030" d="M63 -4l340 639l-340 618v158h885v-174h-657l332 -602l-344 -635h688v-168h-904v164z" />
<glyph unicode="&#x2212;" horiz-adv-x="1024" d="M59 537v131h904v-131h-904z" />
<glyph unicode="&#x221a;" horiz-adv-x="1150" d="M33 750l284 94l289 -770l357 1558h153l-432 -1798h-139l-324 848l-145 -49z" />
<glyph unicode="&#x221e;" horiz-adv-x="1490" d="M82 557q0 63 25.5 120.5t68.5 100.5t101 68.5t124 25.5q55 0 107.5 -20.5t97.5 -54t82 -74.5t64 -82q37 47 75.5 89t82.5 74t95.5 50t112.5 18q63 0 118.5 -23.5t96.5 -65.5t63.5 -99t22.5 -127q0 -63 -24.5 -120.5t-67.5 -101.5t-101.5 -69.5t-125.5 -25.5 q-53 0 -101.5 20.5t-92.5 53t-83 73.5t-71 82q-37 -45 -76 -86t-83 -72.5t-95.5 -51t-112.5 -19.5q-63 0 -118.5 23.5t-96.5 65.5t-64.5 100t-23.5 128zM209 557q0 -82 56.5 -136t131.5 -54q86 0 156 55t115 133q-18 33 -47 66.5t-64 61.5t-74 45t-82 17q-37 0 -71.5 -15 t-61 -40.5t-43 -59.5t-16.5 -73zM831 557q31 -37 61 -71.5t62.5 -60.5t69.5 -42t80 -16q37 0 71.5 15t60.5 41t41 60.5t15 73.5q0 82 -54 135t-128 53q-86 0 -152.5 -54t-126.5 -134z" />
<glyph unicode="&#x2227;" horiz-adv-x="1085" d="M78 0l403 1071h129l404 -1071h-152l-317 854l-320 -854h-147z" />
<glyph unicode="&#x2228;" horiz-adv-x="1085" d="M78 1071h147l320 -860l317 860h152l-404 -1071h-129z" />
<glyph unicode="&#x2229;" horiz-adv-x="1085" d="M84 0v643q0 84 30.5 162t89 136t143.5 93t194 35t194.5 -31.5t146 -89t93.5 -135.5t33 -170v-643h-148v643q0 55 -21.5 108.5t-62.5 94.5t-100.5 65.5t-134.5 24.5q-74 0 -133.5 -22.5t-99.5 -62.5t-61.5 -93t-21.5 -115v-643h-141z" />
<glyph unicode="&#x222a;" horiz-adv-x="1085" d="M84 426v643h141v-643q0 -61 21.5 -114.5t61.5 -92.5t99.5 -61.5t133.5 -22.5q76 0 135 24.5t100 65.5t62.5 93.5t21.5 107.5v643h148v-643q0 -92 -33 -170t-93.5 -135.5t-146.5 -89t-194 -31.5q-109 0 -194 35t-143.5 93t-89 136t-30.5 162z" />
<glyph unicode="&#x222b;" horiz-adv-x="647" d="M-76 -287l33 115q43 -10 63.5 -9t36.5 1q35 0 64 14t50.5 53t35.5 105t22 170q10 123 14.5 303t4.5 438q0 86 4 165t12 140q12 94 31.5 165t55.5 118t88.5 71.5t129.5 24.5q29 0 74 -7t76 -19l-33 -117q-35 10 -59.5 11t-40.5 1q-43 0 -72 -14.5t-49.5 -53t-31.5 -104 t-19 -170.5q-4 -57 -5 -151.5t-1 -200t-1 -209.5t-6 -182q-4 -86 -8 -162t-14 -141q-27 -203 -102.5 -291t-219.5 -88q-29 0 -65.5 6t-67.5 18z" />
<glyph unicode="&#x2248;" horiz-adv-x="1024" d="M53 395q55 94 126 133t151 39q47 0 96 -19.5t97 -43t94.5 -43t89.5 -19.5q51 0 85.5 28t75.5 83l109 -80q-57 -92 -119.5 -136t-157.5 -44q-41 0 -89 19.5t-97 44t-97 44t-91 19.5q-55 0 -89 -25.5t-75 -79.5zM53 719q55 94 126 133t151 39q47 0 96 -19.5t97 -43 t94.5 -43t89.5 -19.5q51 0 85.5 27.5t75.5 83.5l109 -80q-57 -92 -119.5 -136.5t-157.5 -44.5q-41 0 -89 19.5t-97 44.5t-97 44t-91 19q-55 0 -89 -25.5t-75 -78.5z" />
<glyph unicode="&#x2260;" horiz-adv-x="1024" d="M59 117l166 221h-166v137h271l192 256h-463v137h566l192 254h148l-193 -254h191v-137h-295l-193 -256h488v-137h-592l-166 -221h-146z" />
<glyph unicode="&#x2264;" horiz-adv-x="1085" d="M90 6v131h903v-131h-903zM90 547v123l901 334v-146l-735 -250l735 -248v-145z" />
<glyph unicode="&#x2265;" horiz-adv-x="1085" d="M90 2v131h903v-131h-903zM92 211v145l735 248l-735 250v145l901 -333v-123z" />
<glyph unicode="&#x2303;" horiz-adv-x="1628" d="M221 848l592 592l594 -592l-104 -107l-490 490l-485 -490z" />
<glyph unicode="&#x2318;" horiz-adv-x="1732" d="M133 276q0 57 19.5 110.5t57.5 92.5t92 62.5t124 23.5h145v297h-145q-59 0 -112.5 23.5t-93.5 62.5t-63.5 91.5t-23.5 111.5t21.5 112.5t60.5 93.5t92 62.5t119 22.5q72 0 126 -22.5t90 -62.5t54.5 -93.5t18.5 -112.5v-147h295v147q0 59 21.5 112.5t59 93.5t91 62.5 t118.5 22.5q70 0 124.5 -23.5t91 -63.5t55 -92.5t18.5 -111.5q0 -57 -22.5 -109.5t-61.5 -92.5t-92 -63.5t-113 -23.5h-147v-297h147q74 0 128.5 -23.5t90 -63.5t53 -92t17.5 -110q0 -59 -17.5 -111t-53 -92t-90 -63.5t-128.5 -23.5q-70 0 -124 23.5t-90.5 63.5t-56 92 t-19.5 111v148h-295v-148q0 -57 -18.5 -109t-54.5 -92t-90 -64.5t-126 -24.5q-68 0 -122 22.5t-92 62.5t-58.5 92t-20.5 113zM276 276q0 -63 42 -106t108 -43q61 0 103 43t42 106v148h-145q-66 0 -108 -44t-42 -104zM276 1151q0 -63 42 -105t108 -42h145v147q0 61 -43 104 t-102 43q-63 0 -106.5 -42t-43.5 -105zM715 565h295v297h-295v-297zM1153 276q0 -63 43 -106t104 -43t104.5 43t43.5 106q0 59 -43 103.5t-105 44.5h-147v-148zM1153 1004h147q61 0 104.5 43t43.5 104t-43 104t-105 43q-61 0 -104 -42t-43 -105v-147z" />
<glyph unicode="&#x2324;" horiz-adv-x="1628" d="M221 610l592 623l594 -623l-104 -106l-490 520l-485 -520zM221 1276v149h1188v-149h-1188z" />
<glyph unicode="&#x2325;" horiz-adv-x="2433" d="M90 1243v150h580l583 -1246h1074v-147h-1194l-584 1243h-459zM1081 1243v150h1246v-150h-1246z" />
<glyph unicode="&#x2326;" horiz-adv-x="2328" d="M197 0v1423h1343l690 -712l-690 -711h-1343zM338 141h1124l561 570l-561 569h-1124v-1139zM522 393l318 318l-318 319l101 100l315 -317l319 317l101 -100l-318 -319l318 -318l-101 -100l-319 319l-315 -319z" />
<glyph unicode="&#x232b;" horiz-adv-x="2385" d="M158 711l690 712h1343v-1423h-1343zM365 711l561 -570h1124v1139h-1124zM1010 393l317 318l-317 319l100 100l320 -317l315 317l100 -100l-317 -319l317 -318l-100 -100l-315 319l-320 -319z" />
<glyph unicode="&#x235f;" horiz-adv-x="1646" d="M94 711q0 150 56.5 281.5t154.5 230t230.5 155t283.5 56.5q150 0 282 -57.5t230.5 -156t154.5 -230.5t56 -281h-2q0 -150 -57.5 -282t-155.5 -230.5t-230 -154.5t-282 -56t-281 56t-229 154.5t-154.5 230.5t-56.5 284zM211 709q0 -125 47 -234.5t129 -191.5t192.5 -129.5 t235.5 -47.5t235.5 47.5t192.5 129.5t129 191.5t47 234.5t-47 235.5t-129 192.5t-192.5 129t-235.5 47t-235.5 -47t-192.5 -129t-129 -192.5t-47 -235.5zM311 848l334 65l154 304l164 -299l335 -70l-231 -232l53 -346l-321 156l-289 -156l43 338z" />
<glyph unicode="&#x23cf;" horiz-adv-x="1748" d="M135 186v279h1438v-279h-1438zM135 643l719 719l719 -719h-1438z" />
<glyph unicode="&#x25a0;" horiz-adv-x="1792" d="M252 82v1296h1296v-1296h-1296z" />
<glyph unicode="&#x25a1;" horiz-adv-x="1722" d="M170 0v1419h1407v-1419h-1407zM293 121h1163v1175h-1163v-1175z" />
<glyph unicode="&#x25b2;" horiz-adv-x="1679" d="M162 360l719 719l718 -719h-1437z" />
<glyph unicode="&#x25b6;" horiz-adv-x="1218" d="M283 0v1436l718 -717z" />
</font>
</defs>
</svg>
