<svg xmlns="http://www.w3.org/2000/svg" width="41.719" height="37.406" viewBox="0 0 41.719 37.406" class="svg-icon menu_icon9 menu_icon">
    <path d="M41.569 11.027c-.738 1.856-3.128 3.318-4.589 3.763l-.188.06a15.691 15.691 0 0 1-1.9.51 5.012 5.012 0 0 0-.041.258 6.287 6.287 0 0 0 1.738 3.111 16.7 16.7 0 0 1 1.369 1.861c1.753 2.907 1.21 6.988-.233 9.517-.061.117-.15.271-.244.423a11.074 11.074 0 0 1-4 3.635c-.029.017-.06.033-.091.048a23.13 23.13 0 0 1-.486.229 33.9 33.9 0 0 1-10.386 2.806 25.143 25.143 0 0 1-2.722.153 20.758 20.758 0 0 1-4.441-.464c-3.3-.723-14.143-3.789-15.257-12.868a12.976 12.976 0 0 1 .136-3.7c.03-.2.063-.4.1-.6.346-1.911 1.265-5.241 3.527-6.067a2.632 2.632 0 0 1 .912-.164 3.865 3.865 0 0 1 2.683 1.443c.076.077.2.2.251.248 1.219.782 3.969 1.348 6.555 1.348a9.863 9.863 0 0 0 4.042-.671l-.07-.073a9.749 9.749 0 0 1-.947-1.089l-.213-.3a8.367 8.367 0 0 1-1.238-6.8 10.072 10.072 0 0 1 4.921-6.464l.037-.019c.166-.08.314-.146.463-.212a10.426 10.426 0 0 1 4.7-.949h.147a9.613 9.613 0 0 1 8.048 4.6 41.555 41.555 0 0 1 1.449 2.547 9.853 9.853 0 0 0 1.3.75 3.16 3.16 0 0 0 .408.02c.4 0 .9-.038 1.345-.071.422-.031.786-.058 1.082-.058a2.149 2.149 0 0 1 .85.142c1.325.56 1.292 2.32.983 3.097zm-9.521 4.676a3.407 3.407 0 0 1 .076-.795 1.93 1.93 0 0 1-.211-.233l-.006-.007-.1-.136a2.183 2.183 0 0 1-.078-.132 1.751 1.751 0 0 1-.077-.165 1.437 1.437 0 0 1-.041-.121c0-.012-.009-.024-.012-.036a1.281 1.281 0 0 1-.034-.161 3.981 3.981 0 0 1 .633-2.946c.051-.087.1-.172.148-.258l.047-.088c.026-.048.052-.1.077-.15l.038-.146.522-2.037a39.568 39.568 0 0 0-1.257-2.199 6.793 6.793 0 0 0-5.665-3.274h-.113a7.972 7.972 0 0 0-3.514.664l-.1.047c-.123.055-.231.1-.336.153a7.2 7.2 0 0 0-3.486 4.614 5.577 5.577 0 0 0 .805 4.535l.19.272a7.278 7.278 0 0 0 .677.766 3.3 3.3 0 0 1 .979 1.509 2.6 2.6 0 0 1-.686 2.439c-1.606 1.3-4.294 1.577-6.266 1.577a22.44 22.44 0 0 1-2.845-.183c.051.041.1.079.152.125a1.4 1.4 0 0 1 .286.37 2.263 2.263 0 0 0 1.628 1.01 15.994 15.994 0 0 0 2.617.163h1.463c.5 0 1.162.006 1.824.055a11.561 11.561 0 0 1 6.692 2.322 4.784 4.784 0 0 1 1.88 4.645c-.348 3.363-3.206 5.371-7.648 5.371a14.731 14.731 0 0 1-2.359-.192 13.875 13.875 0 0 1-5.445-2.095 11.753 11.753 0 0 1-4.636-7.121c-.231-1.167-.771-3.9 1.076-4.975a2.078 2.078 0 0 1 .2-.1 10.254 10.254 0 0 1-2.985-1.2 4.3 4.3 0 0 1-.705-.624 3.557 3.557 0 0 0-.677-.59c-.377.192-1.223 1.335-1.689 3.911-.032.172-.06.345-.086.517a10.333 10.333 0 0 0-.125 2.928c.889 7.244 10.232 9.842 13.075 10.465a19.433 19.433 0 0 0 6.259.263 31.116 31.116 0 0 0 9.531-2.571c.131-.06.261-.12.387-.181a8.3 8.3 0 0 0 2.971-2.66c.059-.1.116-.193.168-.293l.014-.025c1.028-1.8 1.411-4.791.275-6.676a14.651 14.651 0 0 0-1.147-1.545c-1.06-1.322-2.265-2.812-2.365-4.806zm-21.589 6.635c.031.262.081.583.159.973a8.8 8.8 0 0 0 3.456 5.339 11.051 11.051 0 0 0 4.329 1.65 11.974 11.974 0 0 0 1.906.155c2.083 0 4.617-.5 4.86-2.848a2 2 0 0 0-.888-2.2 8.984 8.984 0 0 0-5.1-1.676 22.634 22.634 0 0 0-1.618-.048H16.1a18.408 18.408 0 0 1-3.084-.2 5.418 5.418 0 0 1-2.557-1.145zm26.855-11.607a4.475 4.475 0 0 1-1.12-.113 3.392 3.392 0 0 1-.722-.288v.022c-.025.1-.05.188-.076.279l-.032.113-.075.247-.029.088a7.336 7.336 0 0 1-.055.16l-.028.075a3.123 3.123 0 0 1-.078.191l-.012.024-.01.02-.007.015a.036.036 0 0 0 0 .009 3.942 3.942 0 0 1-.1.195l-.021.044-.049.092-.066.124c-.075.136-.146.258-.21.366l-.087.151a.254.254 0 0 0-.016.028c.528-.113 1.111-.3 1.418-.4l.234-.075a6.353 6.353 0 0 0 2.273-1.415c-.38.026-.771.048-1.132.048zm-9.818 1.818h-.187a3.154 3.154 0 0 1-.185-6.3 3.156 3.156 0 0 1 2.531 5.244 3.115 3.115 0 0 1-2.159 1.057zm-.184-3.49a.352.352 0 0 0-.256.115.341.341 0 0 0 .252.568.345.345 0 0 0 .256-.115.333.333 0 0 0 .085-.247.339.339 0 0 0-.337-.321z"/>
</svg>
