<?xml version="1.0" encoding="UTF-8"?>
<!DOCTYPE svg PUBLIC "-//W3C//DTD SVG 1.1//EN" "http://www.w3.org/Graphics/SVG/1.1/DTD/svg11.dtd">
<!-- Creator: CorelDRAW 2017 -->
<svg xmlns="http://www.w3.org/2000/svg" xml:space="preserve" width="156px" height="139px" version="1.1" style="shape-rendering:geometricPrecision; text-rendering:geometricPrecision; image-rendering:optimizeQuality; fill-rule:evenodd; clip-rule:evenodd"
viewBox="0 0 107.94 96.31"
 xmlns:xlink="http://www.w3.org/1999/xlink">
 <defs>
  <style type="text/css">
   <![CDATA[
    .fil0 {fill:#2B2A29;fill-rule:nonzero}
   ]]>
  </style>
 </defs>
 <g id="Слой_x0020_1">
  <metadata id="CorelCorpID_0Corel-Layer"/>
  <path class="fil0" d="M21.99 13.16l-5.07 11.98c-1.67,-11.6 -7.96,-21.24 -8.5,-3.65 -0.44,13.96 14.22,27.87 14.22,49.96 0,6.44 -1.53,24.03 -10.69,24.03 -6.35,0 -11.01,-12.61 -11.95,-17.62l5.77 -9.3c1.71,18.35 8.94,22.66 10.16,3.65 0.67,-10.39 -9.69,-24.89 -12.51,-36.33 -1.14,-4.65 -1.72,-9.27 -1.72,-13.89 0,-5.57 2.22,-21.99 9.89,-21.99 1.79,0 3.51,1.12 5.13,3.33 1.63,2.23 3.38,3.93 5.27,9.83zm18.16 -13.09l6.9 0 13.84 96.24 -7.12 0 -2.81 -19.84 -14.74 0 -2.87 19.84 -7.12 0 13.92 -96.24zm3.46 25.58l-6.27 42.77 12.61 0.04 -6.34 -42.81zm22.55 -25.58l6.81 0 0 89.81 10.07 0 0 6.43 -16.88 0 0 -96.24zm22.14 0l19.64 0 0 7.15 -12.82 0 0 28.1 12.82 0 0 7.61 -12.82 0 0 46.41 12.82 0 0 6.97 -19.64 0 0 -96.24z"/>
 </g>
</svg>
