<svg xmlns="http://www.w3.org/2000/svg" xml:space="preserve" width="72px" height="72px" version="1.1" style="shape-rendering:geometricPrecision; text-rendering:geometricPrecision; image-rendering:optimizeQuality; fill-rule:evenodd; clip-rule:evenodd"
viewBox="0 0 72 72"
 xmlns:xlink="http://www.w3.org/1999/xlink">
 <defs>
  <style type="text/css">
   <![CDATA[
    .fil0 {fill:none}
    .fil1 {fill:red;fill-rule:nonzero}
   ]]>
  </style>
 </defs>
 <g id="Слой_x0020_1ws2">
  <metadata id="CorelCorpID_0Corel-Layerws2"/>
  <polygon class="fil0" points="0.05,-0.05 72.05,-0.05 72.05,71.95 0.05,71.95 "/>
  <path class="fil1" d="M18.99 60.97l0 -10.13 -2.41 0 0 -5.61 2.41 0 0 -34.88 19.11 0c3.35,0 5.92,0.17 7.7,0.49 2.49,0.41 4.57,1.2 6.26,2.35 1.68,1.17 3.04,2.8 4.06,4.88 1.03,2.09 1.53,4.38 1.53,6.89 0,4.29 -1.36,7.93 -4.11,10.9 -2.73,2.98 -7.69,4.47 -14.85,4.47l-12.99 0 0 4.9 18.68 0 0 5.61 -18.68 0 0 10.13 -6.71 0zm6.71 -26.58l13.08 0c4.34,0 7.4,-0.8 9.22,-2.42 1.82,-1.61 2.73,-3.87 2.73,-6.81 0,-2.11 -0.53,-3.92 -1.61,-5.43 -1.07,-1.51 -2.48,-2.51 -4.23,-2.99 -1.13,-0.29 -3.21,-0.45 -6.24,-0.45l-12.95 0 0 18.1z"/>
 </g>
</svg>
