<?xml version="1.0" encoding="utf-8"?>
<!-- Generator: Adobe Illustrator 18.1.1, SVG Export Plug-In . SVG Version: 6.00 Build 0)  -->
<svg version="1.1" id="Слой_1" xmlns="http://www.w3.org/2000/svg" xmlns:xlink="http://www.w3.org/1999/xlink" x="0px" y="0px"
	 viewBox="-520 531 159 139" enable-background="new -520 531 159 139" xml:space="preserve">
<path d="M-487.2,560l-7.4,14.3c-2.5-13.8-11.7-25.3-12.5-4.3c-0.6,16.6,20.9,33.2,20.9,59.5c0,7.7-2.2,28.6-15.7,28.6
	c-9.3,0-16.2-15-17.5-21l8.5-11.1c2.5,21.8,13.1,27,14.9,4.3c1-12.4-14.2-29.6-18.4-43.3c-1.7-5.5-2.5-11-2.5-16.5
	c0-6.6,3.3-26.2,14.5-26.2c2.6,0,5.2,1.3,7.5,4C-492.5,551-490,553-487.2,560z M-460.5,544.4h10.1l20.3,114.6h-10.5l-4.1-23.6h-21.6
	l-4.2,23.6H-481L-460.5,544.4z M-455.4,574.9l-9.2,50.9l18.5,0C-446.1,625.8-455.4,574.9-455.4,574.9z M-422.3,544.4h10v106.9h14.8
	v7.7h-24.8V544.4z M-389.8,544.4h28.8v8.5h-18.8v33.5h18.8v9.1h-18.8v55.3h18.8v8.3h-28.8V544.4z"/>
</svg>
