<svg xmlns="http://www.w3.org/2000/svg" width="43.219" height="51.781" viewBox="0 0 43.219 51.781" class="svg-icon menu_icon20 menu_icon">
    <path d="M43.171 28.012a1.32 1.32 0 0 1-1.616.929l-3.148-.839a1.315 1.315 0 0 1 .684-2.54l3.147.839a1.312 1.312 0 0 1 .8.612 1.3 1.3 0 0 1 .133.999zm-1.33-11.65l-3.062 1.109a1.323 1.323 0 0 1-1.691-.785 1.313 1.313 0 0 1 .789-1.684l3.061-1.108a1.32 1.32 0 0 1 1.692.785 1.311 1.311 0 0 1-.789 1.683zM28.91 39.492a1.49 1.49 0 0 1-1.46 1.195H15.985a1.492 1.492 0 0 1-1.461-1.195c-.5-2.546-1.763-5.265-4.209-9.093a13.876 13.876 0 0 1-2.706-8.266 14.109 14.109 0 0 1 28.217 0 13.883 13.883 0 0 1-2.706 8.266c-2.447 3.825-3.706 6.544-4.21 9.09zm-7.193-28.566a11.248 11.248 0 0 0-11.264 11.207 11.08 11.08 0 0 0 2.164 6.605l.092.133a32.505 32.505 0 0 1 4.354 8.986h9.308a32.513 32.513 0 0 1 4.355-8.986l.091-.133a11.081 11.081 0 0 0 2.165-6.605 11.249 11.249 0 0 0-11.265-11.21zm11.237-2.378a1.324 1.324 0 0 1-1.839.322 1.311 1.311 0 0 1-.324-1.829l1.869-2.655a1.324 1.324 0 0 1 1.839-.323 1.311 1.311 0 0 1 .324 1.829zM21.717 5.876a1.318 1.318 0 0 1-1.32-1.313V1.321a1.32 1.32 0 0 1 2.64 0v3.241a1.318 1.318 0 0 1-1.32 1.311zM12.3 8.762a1.324 1.324 0 0 1-1.839-.322L8.592 5.784a1.308 1.308 0 0 1 .324-1.829 1.324 1.324 0 0 1 1.839.323l1.869 2.655a1.311 1.311 0 0 1-.324 1.829zm-7.292 8.6a1.319 1.319 0 0 1-.451-.08l-3.062-1.108a1.311 1.311 0 0 1-.789-1.683 1.324 1.324 0 0 1 1.692-.786l3.062 1.109a1.313 1.313 0 0 1-.452 2.548zm-.871 8a1.322 1.322 0 0 1 1.617.928 1.313 1.313 0 0 1-.933 1.609l-3.148.839a1.32 1.32 0 0 1-1.616-.929 1.3 1.3 0 0 1 .131-1 1.311 1.311 0 0 1 .8-.611zm12.246 15.709h10.669a1.486 1.486 0 0 1 1.489 1.481v.343a1.487 1.487 0 0 1-1.489 1.482H16.383a1.488 1.488 0 0 1-1.49-1.482v-.343a1.487 1.487 0 0 1 1.49-1.482zm1.343 3.7h7.983a1.541 1.541 0 0 1 1.59 1.482v.342a1.541 1.541 0 0 1-1.59 1.482h-7.978a1.54 1.54 0 0 1-1.59-1.482v-.342a1.541 1.541 0 0 1 1.59-1.482zm1.657 3.708h4.669a1.612 1.612 0 0 1 1.715 1.482v.342a1.613 1.613 0 0 1-1.715 1.482h-4.669a1.614 1.614 0 0 1-1.716-1.482v-.341a1.613 1.613 0 0 1 1.716-1.483z"/>
</svg>
