<svg xmlns="http://www.w3.org/2000/svg" width="50.34" height="46.031" viewBox="0 0 50.34 46.031" class="svg-icon menu_icon23 menu_icon">
    <path d="M49.42 41.989L38 45.96a.248.248 0 0 0-.04.009c-.05.015-.1.027-.14.036l-.07.014a1.522 1.522 0 0 1-.19.016.016.016 0 0 0-.01 0 .117.117 0 0 1-.02 0 1.556 1.556 0 0 1-.18-.013l-.07-.015c-.04-.008-.08-.016-.12-.028a.349.349 0 0 1-.07-.025.629.629 0 0 1-.11-.045.328.328 0 0 1-.07-.033l-.05-.022-2.74-1.579a1.379 1.379 0 0 1-.63-.817 1.3 1.3 0 0 1 .15-1.016 1.36 1.36 0 0 1 1.85-.482l.7.4V12.275l-6.33-1.822v7.669a1.355 1.355 0 0 1-2.71 0V8.57c.01-.009 0-.018 0-.026a.147.147 0 0 1 .01-.013.807.807 0 0 1 .04-.216c.01-.021.01-.042.02-.063a1.318 1.318 0 0 1 .08-.19l.03-.057a.987.987 0 0 1 .1-.151l.03-.038a1.351 1.351 0 0 1 .16-.161c.01-.006.01-.013.02-.018l3.77-3.089-.14-2.467A1.342 1.342 0 0 1 32.54.667L44.09.005a1.383 1.383 0 0 1 1.01.363 1.343 1.343 0 0 1 .43.975v2.58l4.39 4.2s0 .007.01.011c.03.035.07.073.1.112a.187.187 0 0 0 .04.049c.02.027.03.055.05.084s.03.036.04.054l.06.133c.01.015.01.031.02.047.01.034.03.069.04.1s.01.041.01.063a.342.342 0 0 1 .02.1c0 .02.01.039.01.059a.717.717 0 0 1 .01.147v31.643a1.335 1.335 0 0 1-.91 1.264zM32.58 7.067l-1.24 1.021 2.62.754zm10.24-4.3l-8.77.5.03.467 8.74-.5v-.472zm.84 3.1l-8.23.475.9 1.167 1.78 2.293 8.05-1.541zm3.96 4.844L38.9 12.38v30.43l8.72-3.029v-29.07zM33.27 29.775v14.926a1.351 1.351 0 0 1-1.36 1.339H1.35a1.351 1.351 0 0 1-1.36-1.339v-6.449a1.342 1.342 0 0 1 .46-1.007 1.386 1.386 0 0 1 1.08-.321 1.812 1.812 0 1 0 .23-3.605 2.118 2.118 0 0 0-.24.018 1.36 1.36 0 0 1-1.53-1.328V29.77a.985.985 0 0 1 .02-.172v-.009a1.32 1.32 0 0 1 .25-.61v-.007a1.274 1.274 0 0 1 .15-.162.011.011 0 0 1 .01-.012 1.14 1.14 0 0 1 .16-.131s.01 0 .01-.006a1.151 1.151 0 0 1 .19-.1.081.081 0 0 1 .01-.009l24.15-10.748a1.357 1.357 0 0 1 1.72.541l6.37 10.657a1.321 1.321 0 0 1 .24.768zM18.18 40.784a.194.194 0 1 0 0-.387.194.194 0 0 0 0 .382zm-8.48.431a.944.944 0 1 0-.96-.944.951.951 0 0 0 .96.941zm15.25-20.473L7.66 28.436h21.88zm-8.84 13.1a.52.52 0 1 0 .52-.513.516.516 0 0 0-.52.503zm14.45-2.722H18.31a3.176 3.176 0 0 1 1.55 2.722 3.23 3.23 0 0 1-6.46 0 3.176 3.176 0 0 1 1.55-2.722H3.79a4.474 4.474 0 0 1-1.09 8.415v3.831h5.09a3.665 3.665 0 1 1 3.81 0h5.83a2.905 2.905 0 1 1 1.51 0h11.62V31.112zm-5.13 1.382a4.118 4.118 0 1 1-4.16 4.118 4.148 4.148 0 0 1 4.16-4.128zm0 5.556a1.439 1.439 0 1 0-1.45-1.438 1.448 1.448 0 0 0 1.45 1.428z"/>
</svg>
