<svg xmlns="http://www.w3.org/2000/svg" width="41.69" height="48.969" viewBox="0 0 41.69 48.969" class="svg-icon menu_icon22 menu_icon">
    <path d="M40.09.012H27.33a1.6 1.6 0 0 0-1.58 1.409l-1.92 15.615H1.61a1.6 1.6 0 0 0-1.59 1.608v4.088a1.755 1.755 0 0 0-.01.23A13.232 13.232 0 0 0 13.17 36.24a13.058 13.058 0 0 0 1.61-.1c1.56 2.731.12 8.551-.61 10.684a1.621 1.621 0 0 0 .21 1.462 1.571 1.571 0 0 0 1.29.677h17.3a1.607 1.607 0 0 0 1.6-1.607v-10.5a5.547 5.547 0 0 1 5.52-5.569 1.6 1.6 0 0 0 1.59-1.608V1.62A1.6 1.6 0 0 0 40.09.012zm-8.71 36.837v8.9H17.81c.7-2.777 1.43-7.187.11-10.407a13.3 13.3 0 0 0 8.4-12.376v-.1l1.95-15.83h10.22v21.178a8.777 8.777 0 0 0-7.11 8.635zm7.11-33.621v.591h-9.82l.07-.591h9.75zM23.14 21.139H3.2v-.887h19.94v.887zm-.1 3.216a9.959 9.959 0 0 1-19.75 0h19.75z"/>
</svg>
