<?xml version="1.0" encoding="UTF-8"?>
<!DOCTYPE svg PUBLIC "-//W3C//DTD SVG 1.1//EN" "http://www.w3.org/Graphics/SVG/1.1/DTD/svg11.dtd">
<!-- Creator: CorelDRAW X8 -->
<svg xmlns="http://www.w3.org/2000/svg" xml:space="preserve" width="14mm" height="23mm" version="1.1" style="shape-rendering:geometricPrecision; text-rendering:geometricPrecision; image-rendering:optimizeQuality; fill-rule:evenodd; clip-rule:evenodd"
viewBox="0 0 1400 2300"
 xmlns:xlink="http://www.w3.org/1999/xlink">
 <defs>
  <style type="text/css">
   <![CDATA[
    .fil0 {fill:#f95319;fill-rule:nonzero}
   ]]>
  </style>
 </defs>
 <g id="Слой_x0020_1">
  <metadata id="CorelCorpID_0Corel-Layer"/>
  <path class="fil0" d="M270 14l860 0c67,0 128,27 172,71 43,44 71,104 71,171l0 1788c0,67 -28,127 -71,171 -44,44 -105,71 -172,71l-860 0c-67,0 -128,-27 -172,-71 -43,-44 -71,-104 -71,-171l0 -1788c0,-67 28,-127 71,-171 44,-44 105,-71 172,-71zm766 110l0 76c0,20 -8,37 -21,50 -12,13 -30,21 -50,21l-530 0c-20,0 -38,-8 -50,-21 -13,-13 -21,-30 -21,-50l0 -76 -94 0c-37,0 -70,14 -94,39 -24,24 -39,57 -39,93l0 1631c0,37 15,70 39,94 24,24 57,39 94,39l860 0c37,0 70,-15 94,-39 24,-24 39,-57 39,-94l0 -1631c0,-36 -15,-69 -39,-93 -24,-25 -57,-39 -94,-39l-94 0z"/>
 </g>
</svg>
