<svg xmlns="http://www.w3.org/2000/svg" width="25.85" height="40.281" viewBox="0 0 25.85 40.281" class="svg-icon menu_icon24 menu_icon">
    <path d="M25.66 12.568l-4.35-8V1.322a1.311 1.311 0 0 0-1.3-1.323H5.83a1.32 1.32 0 0 0-1.31 1.323v3.257L.15 12.615a1.344 1.344 0 0 0-.13.391 1.08 1.08 0 0 0-.03.253v25.687a1.311 1.311 0 0 0 1.3 1.323h23.26a1.311 1.311 0 0 0 1.3-1.323V13.262a1.381 1.381 0 0 0-.19-.694zM6.6 6.239h11.2l-3.11 5.712H3.49zm10.17 31.388V13.602l3.24-5.955 3.24 5.955v24.025h-6.48zM18.71 3.59H7.13v-.945h11.58v.945zM2.59 37.627v-23.03h11.58v23.03H2.59z"/>
</svg>
