<svg xmlns="http://www.w3.org/2000/svg" width="23.06" height="47.813" viewBox="0 0 23.06 47.813" class="svg-icon menu_icon5 menu_icon">
    <path d="M23.03 14.019l-2.69 31.48a2.581 2.581 0 0 1-2.55 2.328H5.26a2.567 2.567 0 0 1-2.55-2.328L.02 14.019a7.2 7.2 0 0 1 1.99-5.681V3.915c0-.028.01-.054.01-.081A4 4 0 0 1 6.03.002h10.99a4.012 4.012 0 0 1 4.01 3.832c0 .027.01.053.01.081v4.423a7.2 7.2 0 0 1 1.99 5.681zM7.47 5.353H4.9v2.152h5.67a4.308 4.308 0 0 1-3.1-2.157zm10.67 1.036V5.353h-2.57a4.308 4.308 0 0 1-3.09 2.152h5.66V6.389zm.86 3.993H4.05a4.349 4.349 0 0 0-1.15 3.393L5.57 44.95h11.91l2.66-31.175A4.344 4.344 0 0 0 19 10.377zm-7.59 21.28a6.306 6.306 0 1 1 6.34-6.306 6.328 6.328 0 0 1-6.34 6.301zm0-9.735a3.429 3.429 0 1 0 3.45 3.429 3.445 3.445 0 0 0-3.45-3.437z"/>
</svg>
