<svg xmlns="http://www.w3.org/2000/svg" width="41.16" height="41.125" viewBox="0 0 41.16 41.125" class="svg-icon menu_icon18 menu_icon">
    <path d="M37.65 9.08a1.057 1.057 0 0 0-.15-.222A20.534 20.534 0 0 0 25.1.495c-.03-.007-.05-.013-.08-.018A20.554 20.554 0 0 0 2.21 11.319a.9.9 0 0 0-.1.21 20.214 20.214 0 0 0-2.1 9.036 20.42 20.42 0 0 0 8.08 16.33.484.484 0 0 0 .08.075l.1.076c.02.014.05.028.06.038a20.548 20.548 0 0 0 20.99 2.108 1.559 1.559 0 0 0 .15-.066l.06-.035A20.549 20.549 0 0 0 41.14 21.5v-.032c.02-.3.03-.6.03-.9A20.438 20.438 0 0 0 37.65 9.08zm-8.82 24.938l-.03.111c-.1.359-.21.718-.34 1.084l-.01.046c-.06.154-.11.309-.17.462l-.06.143-.15.377-.08.186c-.05.109-.09.217-.14.326l-.04.091a17.772 17.772 0 0 1-17.33-1.625 17.77 17.77 0 0 1 13.14-15.656c.2-.053.4-.1.61-.149l.11-.024.09.137.03.051a3 3 0 0 0 .29.336c.02.021.04.04.06.063a3.615 3.615 0 0 0 .33.289l.06.043a3.754 3.754 0 0 0 .35.221l.07.034a3.046 3.046 0 0 0 .42.181l.08.025a3.084 3.084 0 0 0 .45.111l.07.01a3.071 3.071 0 0 0 .67.033.061.061 0 0 1 .02.034c.04.078.08.157.13.235s.08.174.13.263a2.557 2.557 0 0 1 .11.24c.05.088.09.176.13.265s.07.161.11.243.07.178.11.267.07.165.1.248.07.179.11.27l.09.25c.03.09.06.182.1.273a2.446 2.446 0 0 0 .08.252l.09.277c.03.094.05.17.08.254s.05.184.07.275a2.5 2.5 0 0 1 .07.26 2.757 2.757 0 0 1 .07.278 2.487 2.487 0 0 1 .07.259l.06.283c.02.086.03.173.05.259a2.768 2.768 0 0 1 .05.284 2.4 2.4 0 0 1 .05.261c.02.094.03.189.05.309l.03.238c.01.1.03.191.04.288l.03.263c.01.087.01.176.02.287l.01.045c0 .073.01.145.01.217a2.389 2.389 0 0 1 .02.291v.045c.01.072.01.144.02.217v.25l.01.082v.772c0 .081-.01.162-.01.242l-.01.311c-.01.086-.01.171-.02.258l-.01.116a1.051 1.051 0 0 1-.01.177 1.926 1.926 0 0 1-.02.239l-.03.311-.03.243-.04.306c-.01.089-.03.178-.04.266l-.05.28a2.612 2.612 0 0 1-.05.273l-.05.271c-.03.111-.05.222-.08.332l-.04.209c-.04.142-.08.285-.11.426zM8.64 30.424l-.07.225a30.5 30.5 0 0 0-.09.277 2.7 2.7 0 0 0-.07.275l-.07.232c-.02.093-.05.186-.07.28a2.85 2.85 0 0 0-.07.283l-.05.23c-.02.1-.05.189-.07.284s-.03.192-.05.289l-.05.234c0 .03-.01.06-.01.09a17.758 17.758 0 0 1-3.55-20.031 17.887 17.887 0 0 1 5.84-1.476c.4-.03.8-.048 1.19-.052h.3c.34 0 .65.011.95.028l.12.009c.35.022.66.051.96.088h.05a17.581 17.581 0 0 1 2.2.413l.1.068h.16a17.674 17.674 0 0 1 4.55 1.948 15.939 15.939 0 0 1 1.42.956c.21.153.43.323.69.536.38.312.73.629 1.06.944l-.03.076-.18.039-.14.032a16.885 16.885 0 0 0-1.56.417c-.05.013-.09.028-.13.042l-.06.021c-.2.065-.41.13-.61.2-.04.016-.08.033-.13.049l-.11.042c-.18.065-.35.131-.53.2l-.15.065-.14.057c-.16.065-.31.131-.47.2l-.18.083-.19.09c-.12.058-.25.116-.37.177l-.18.093-.18.093c-.12.063-.25.126-.36.191-.06.031-.12.063-.17.1l-.18.1c-.12.068-.24.136-.36.208-.06.034-.11.068-.17.1l-.17.108c-.12.072-.23.144-.35.219-.06.038-.11.077-.17.115l-.16.112q-.165.111-.33.228c-.06.04-.12.081-.17.122l-.18.136c-.1.073-.2.146-.3.222-.06.043-.11.087-.16.13l-.18.139c-.09.077-.19.155-.29.234-.05.047-.11.1-.16.142l-.16.136c-.09.083-.19.165-.28.249-.05.048-.11.1-.16.147l-.15.144-.27.258c-.06.055-.11.11-.17.166l-.14.145c-.08.086-.17.172-.25.259a2.337 2.337 0 0 0-.16.176l-.15.16c-.07.084-.15.169-.23.255-.05.062-.1.125-.16.189l-.15.179c-.07.081-.13.161-.2.244l-.15.189-.15.19c-.06.083-.13.167-.19.253-.05.065-.09.131-.14.2l-.13.187c-.07.088-.13.176-.19.266l-.15.217-.11.177-.18.273c-.05.074-.09.149-.14.224l-.11.194c-.06.089-.11.177-.16.267a2.52 2.52 0 0 0-.13.238l-.11.193-.15.271-.12.249-.1.2c-.05.091-.09.181-.14.272s-.08.171-.11.256l-.1.218-.12.261a2.67 2.67 0 0 0-.1.26l-.09.214c-.04.09-.08.182-.11.272s-.07.182-.1.274l-.08.216-.09.272zM20.59 2.755A17.8 17.8 0 0 1 23.53 3l1.72 10.945c-.43-.379-.88-.742-1.34-1.083a21.3 21.3 0 0 0-2.48-1.589 20.633 20.633 0 0 0-4.55-1.8 20.425 20.425 0 0 0-2.7-.519l-.12-.014c-.38-.044-.76-.078-1.15-.1h-.05c-.35-.02-.71-.031-1.12-.033a.382.382 0 0 0-.09 0h-.23c-.45 0-.91.026-1.37.061a20.691 20.691 0 0 0-3.32.535 17.9 17.9 0 0 1 13.86-6.648zM34.9 9.987c-.69 1.044-3.29 3.09-6.12 4.789a3.476 3.476 0 0 0-.65-.283L26.45 3.747a17.853 17.853 0 0 1 8.45 6.24zm3.45 9.946l.04-.068zm-11.28-2.838h.06a.525.525 0 0 1 .41.2.506.506 0 0 1 .08.558.506.506 0 0 1-.25.262.531.531 0 0 1-.77-.424.1.1 0 0 1-.01-.053.5.5 0 0 1 .15-.361.54.54 0 0 1 .33-.177zm11.2 1.646h-.15c-.05-.03-.11-.06-.16-.089l-.18-.094c-.06-.031-.12-.062-.17-.093l-.02-.007-.03-.018-.2-.1-.28-.133-.14-.064-.18-.089c-.2-.089-.4-.173-.59-.254l-.23-.095c-.21-.088-.43-.169-.64-.247l-.19-.069q-.345-.123-.69-.232l-.15-.047c-.24-.076-.49-.147-.73-.21l-.12-.032c-.26-.069-.52-.131-.78-.189h-.02.01l-.07-.014h-.01l-.04-.01c-.26-.054-.51-.1-.77-.147l-.08-.024h-.05l-.27-.043a28.126 28.126 0 0 0 5.09-4 17.688 17.688 0 0 1 1.88 6.352zM31.53 34.61l.01-.061a2.7 2.7 0 0 0 .07-.271 1.612 1.612 0 0 0 .05-.211l.03-.145a1.31 1.31 0 0 0 .06-.27c.02-.071.03-.143.05-.215l.02-.134.06-.279.03-.233.02-.122c.02-.092.03-.184.05-.277l.03-.236.01-.112a2.751 2.751 0 0 0 .04-.287l.03-.243.01-.105a2.806 2.806 0 0 1 .02-.287 2.31 2.31 0 0 0 .02-.263l.01-.07c0-.1.01-.2.02-.3s0-.189.01-.306.01-.221.01-.332V28.9c-.01-.111-.01-.221-.01-.33s-.01-.205-.02-.307-.01-.221-.02-.332-.01-.2-.02-.306l-.03-.331c-.01-.112-.02-.2-.04-.3s-.02-.221-.04-.331-.02-.2-.04-.3-.03-.22-.05-.33-.03-.2-.05-.3l-.06-.327-.06-.3c-.03-.109-.05-.218-.07-.326s-.05-.2-.07-.3-.06-.216-.09-.322-.05-.2-.08-.3-.06-.216-.09-.322-.05-.2-.08-.293-.07-.214-.11-.32-.06-.2-.09-.29l-.12-.319c-.03-.1-.07-.191-.1-.286s-.08-.21-.13-.316c-.03-.094-.07-.189-.11-.284s-.09-.208-.13-.31-.09-.188-.13-.283-.09-.2-.14-.3l-.02-.035c-.04-.082-.07-.164-.11-.243l-.15-.284-.02-.039c-.04-.085-.09-.17-.13-.254a.1.1 0 0 1-.02-.046c.05-.074.11-.151.16-.234l.03-.048a2.382 2.382 0 0 0 .15-.284c.13.013.25.028.38.044.25.032.5.069.74.111l.12.02c.21.039.43.08.65.13l.05.011c.23.05.46.1.67.161l.11.028c.21.058.43.118.63.181l.13.042c.21.065.41.131.59.2l.17.064c.19.069.38.139.55.209l.21.087c.17.072.34.144.51.224.04.018.08.038.13.059l.14.076.04.009c.13.061.25.122.38.188.06.027.11.055.19.1l.17.093c.11.056.22.113.32.174.08.04.15.083.22.127l.24.142c.07.04.14.081.21.125l.3.2.22.14c.04.028.08.056.13.087l.03.023a17.727 17.727 0 0 1-6.8 12.487z"/>
</svg>
