<svg xmlns="http://www.w3.org/2000/svg" width="44.594" height="41.687" viewBox="0 0 44.594 41.687" class="svg-icon menu_icon1 menu_icon">
    <path d="M43.469 17.013l-5.6-4.895v-6.6a2.557 2.557 0 0 0-2.581-2.526h-3.27a2.577 2.577 0 0 0-2.486 1.85l-4.309-3.764a4.542 4.542 0 0 0-5.847 0L1.119 17.013c-1.4 1.226-1.169 2.352-1 2.779s.756 1.421 2.637 1.421H5.89v16.484a4.038 4.038 0 0 0 4.075 3.99h6.827a1.446 1.446 0 0 0 1.459-1.429V29.481a.037.037 0 0 1 .036-.035h8.017a.037.037 0 0 1 .035.035v10.777a1.446 1.446 0 0 0 1.459 1.429h6.827a4.038 4.038 0 0 0 4.075-3.99V21.213h3.134c1.881 0 2.471-.993 2.637-1.42s.402-1.556-1.002-2.78zm-7.687 2.771v17.913a1.146 1.146 0 0 1-1.157 1.132h-5.367v-9.348a2.928 2.928 0 0 0-2.954-2.893h-8.017a2.927 2.927 0 0 0-2.954 2.893v9.348H9.965a1.145 1.145 0 0 1-1.156-1.132V19.784a1.447 1.447 0 0 0-1.46-1.429h-3.38l17.35-15.148a1.623 1.623 0 0 1 1.961 0l6.645 5.8a1.482 1.482 0 0 0 1.569.238 1.43 1.43 0 0 0 .863-1.3v-2.1h2.593v6.913a1.419 1.419 0 0 0 .488 1.067l5.187 4.53h-3.38a1.446 1.446 0 0 0-1.463 1.429z"/>
</svg>
