<?xml version="1.0" encoding="UTF-8"?>
<!DOCTYPE svg PUBLIC "-//W3C//DTD SVG 1.1//EN" "http://www.w3.org/Graphics/SVG/1.1/DTD/svg11.dtd">
<!-- Creator: CorelDRAW X7 -->
<svg xmlns="http://www.w3.org/2000/svg" xml:space="preserve" width="119.063mm" height="73.025mm" version="1.1" style="shape-rendering:geometricPrecision; text-rendering:geometricPrecision; image-rendering:optimizeQuality; fill-rule:evenodd; clip-rule:evenodd"
viewBox="0 0 6253 3835"
 xmlns:xlink="http://www.w3.org/1999/xlink">
 <defs>
  <style type="text/css">
   <![CDATA[
    .fil3 {fill:none}
    .fil2 {fill:#FEFEFE}
    .fil0 {fill:#FAB62A}
    .fil1 {fill:#E41D2C}
   ]]>
  </style>
 </defs>
 <g id="Layer_x0020_1">
  <metadata id="CorelCorpID_0Corel-Layer"/>
  <g id="_838317264">
   <polygon class="fil0" points="4062,3316 4134,3315 4206,3309 4275,3300 4345,3288 4412,3273 4479,3254 4544,3232 4608,3206 4670,3178 4730,3148 4789,3114 4846,3077 4901,3038 4954,2997 5005,2953 5053,2906 5100,2857 5144,2806 5185,2753 5224,2699 5261,2642 5295,2583 5325,2523 5354,2460 5379,2397 5401,2332 5420,2265 5435,2198 5448,2128 5457,2058 5462,1987 5464,1915 5462,1843 5457,1772 5448,1703 5435,1634 5420,1567 5401,1501 5379,1435 5354,1372 5325,1310 5295,1250 5261,1192 5224,1135 5185,1080 5144,1028 5100,977 5053,928 5005,882 4954,838 4901,797 4846,757 4789,721 4730,687 4670,657 4608,629 4544,604 4479,581 4412,562 4345,547 4275,535 4206,526 4134,520 4062,519 3990,520 3919,526 3849,535 3780,547 3713,562 3646,581 3582,604 3518,629 3456,657 3396,687 3338,721 3281,757 3226,797 3174,838 3123,882 3074,928 3028,977 2984,1028 2943,1080 2904,1135 2868,1192 2834,1250 2803,1310 2775,1372 2750,1435 2729,1501 2710,1567 2694,1634 2682,1703 2673,1772 2668,1843 2666,1915 2668,1987 2673,2058 2682,2128 2694,2198 2710,2265 2729,2332 2750,2397 2775,2460 2803,2523 2834,2583 2868,2642 2904,2699 2943,2753 2984,2806 3028,2857 3074,2906 3123,2953 3174,2997 3226,3038 3281,3077 3338,3114 3396,3148 3456,3178 3518,3206 3582,3232 3646,3254 3713,3273 3780,3288 3849,3300 3919,3309 3990,3315 "/>
   <polygon class="fil1" points="2191,3316 2262,3315 2334,3309 2403,3300 2472,3288 2540,3273 2606,3254 2671,3232 2735,3206 2796,3178 2856,3148 2915,3114 2972,3077 3026,3038 3079,2997 3130,2953 3178,2906 3225,2857 3268,2806 3310,2753 3349,2699 3385,2642 3418,2583 3450,2523 3477,2460 3502,2397 3524,2332 3543,2265 3559,2198 3571,2128 3580,2058 3585,1987 3587,1915 3585,1843 3580,1772 3571,1703 3559,1634 3543,1567 3524,1501 3502,1435 3477,1372 3450,1310 3418,1250 3385,1192 3349,1135 3310,1080 3268,1028 3225,977 3178,928 3130,882 3079,838 3026,797 2972,757 2915,721 2856,687 2796,657 2735,629 2671,604 2606,581 2540,562 2472,547 2403,535 2334,526 2262,520 2191,519 2118,520 2047,526 1977,535 1908,547 1840,562 1774,581 1709,604 1645,629 1583,657 1522,687 1464,721 1407,757 1352,797 1299,838 1248,882 1200,928 1153,977 1109,1028 1067,1080 1028,1135 992,1192 958,1250 927,1310 899,1372 874,1435 852,1501 833,1567 817,1634 805,1703 796,1772 791,1843 789,1915 791,1987 796,2058 805,2128 817,2198 833,2265 852,2332 874,2397 899,2460 927,2523 958,2583 992,2642 1028,2699 1067,2753 1109,2806 1153,2857 1200,2906 1248,2953 1299,2997 1352,3038 1407,3077 1464,3114 1522,3148 1583,3178 1645,3206 1709,3232 1774,3254 1840,3273 1908,3288 1977,3300 2047,3309 2118,3315 "/>
   <polygon class="fil0" points="2963,1055 3706,1055 3706,979 3027,979 "/>
   <polygon class="fil0" points="2851,1224 3706,1224 3706,1148 2896,1148 "/>
   <polygon class="fil0" points="2768,1393 3706,1393 3706,1317 2801,1317 "/>
   <polygon class="fil0" points="2711,1561 3706,1561 3706,1485 2735,1485 "/>
   <polygon class="fil0" points="2744,2378 3708,2378 3708,2302 2721,2302 "/>
   <polygon class="fil0" points="2815,2547 3708,2547 3708,2471 2780,2471 "/>
   <polygon class="fil0" points="2915,2715 3708,2715 3708,2639 2868,2639 "/>
   <polygon class="fil0" points="3053,2884 3708,2884 3708,2808 2987,2808 "/>
   <polygon class="fil0" points="2678,1730 3706,1730 3706,1654 2692,1654 "/>
   <polygon class="fil0" points="3304,2209 3696,2209 3696,2133 3318,2133 "/>
   <polygon class="fil0" points="3335,2041 3696,2041 3696,1964 3350,1964 "/>
   <polygon class="fil0" points="2652,1964 2754,1964 2754,2041 2656,2041 "/>
   <polygon class="fil2" points="2461,1872 2455,1872 2448,1871 2442,1870 2436,1869 2430,1868 2424,1867 2418,1866 2411,1865 2405,1864 2397,1864 2389,1863 2380,1863 2370,1863 2359,1863 2347,1864 2333,1865 2324,1867 2315,1868 2307,1871 2300,1874 2293,1877 2287,1881 2282,1886 2278,1890 2275,1895 2273,1900 2272,1906 2272,1912 2273,1918 2275,1924 2279,1930 2284,1936 2293,1945 2304,1952 2318,1958 2332,1964 2347,1968 2362,1973 2378,1979 2393,1985 2407,1993 2420,2003 2432,2015 2442,2030 2450,2047 2454,2069 2456,2094 2454,2124 2451,2146 2445,2165 2438,2183 2428,2199 2418,2213 2405,2224 2392,2235 2377,2244 2362,2251 2347,2257 2331,2262 2314,2266 2298,2268 2283,2270 2267,2271 2252,2271 2232,2271 2213,2271 2197,2271 2181,2270 2167,2270 2154,2269 2143,2268 2132,2266 2122,2266 2113,2264 2104,2262 2096,2260 2088,2258 2081,2255 2073,2252 2065,2249 2086,2145 2091,2146 2096,2148 2102,2149 2110,2151 2119,2153 2128,2155 2139,2157 2150,2159 2162,2161 2174,2163 2187,2165 2200,2166 2214,2166 2227,2167 2241,2167 2255,2166 2268,2164 2279,2160 2288,2155 2294,2148 2299,2141 2303,2134 2305,2126 2307,2119 2308,2106 2304,2094 2296,2084 2284,2076 2270,2069 2253,2062 2235,2056 2217,2048 2198,2040 2180,2030 2163,2017 2148,2003 2136,1985 2128,1964 2124,1938 2124,1908 2126,1889 2130,1872 2134,1856 2140,1841 2148,1827 2156,1814 2166,1803 2178,1792 2192,1783 2207,1776 2224,1769 2242,1763 2264,1759 2287,1756 2312,1754 2340,1754 2358,1754 2374,1754 2388,1754 2402,1755 2413,1756 2424,1757 2434,1758 2442,1759 2450,1760 2457,1761 2463,1762 2469,1763 2473,1764 2477,1764 2482,1765 2486,1766 "/>
   <polyline class="fil3" points="2461,1872 2461,1872 2455,1872 2448,1871 2442,1870 2436,1869 2430,1868 2424,1867 2418,1866 2411,1865 2405,1864 2397,1864 2389,1863 2380,1863 2370,1863 2359,1863 2347,1864 2333,1865 2324,1867 2315,1868 2307,1871 2300,1874 2293,1877 2287,1881 2282,1886 2278,1890 2275,1895 2273,1900 2272,1906 2272,1912 2273,1918 2275,1924 2279,1930 2284,1936 2293,1945 2304,1952 2318,1958 2332,1964 2347,1968 2362,1973 2378,1979 2393,1985 2407,1993 2420,2003 2432,2015 2442,2030 2450,2047 2454,2069 2456,2094 2454,2124 2451,2146 2445,2165 2438,2183 2428,2199 2418,2213 2405,2224 2392,2235 2377,2244 2362,2251 2347,2257 2331,2262 2314,2266 2298,2268 2283,2270 2267,2271 2252,2271 2232,2271 2213,2271 2197,2271 2181,2270 2167,2270 2154,2269 2143,2268 2132,2266 2122,2266 2113,2264 2104,2262 2096,2260 2088,2258 2081,2255 2073,2252 2065,2249 2086,2145 2091,2146 2096,2148 2102,2149 2110,2151 2119,2153 2128,2155 2139,2157 2150,2159 2162,2161 2174,2163 2187,2165 2200,2166 2214,2166 2227,2167 2241,2167 2255,2166 2268,2164 2279,2160 2288,2155 2294,2148 2299,2141 2303,2134 2305,2126 2307,2119 2308,2106 2304,2094 2296,2084 2284,2076 2270,2069 2253,2062 2235,2056 2217,2048 2198,2040 2180,2030 2163,2017 2148,2003 2136,1985 2128,1964 2124,1938 2124,1908 2126,1889 2130,1872 2134,1856 2140,1841 2148,1827 2156,1814 2166,1803 2178,1792 2192,1783 2207,1776 2224,1769 2242,1763 2264,1759 2287,1756 2312,1754 2340,1754 2358,1754 2374,1754 2388,1754 2402,1755 2413,1756 2424,1757 2434,1758 2442,1759 2450,1760 2457,1761 2463,1762 2469,1763 2473,1764 2477,1764 2482,1765 2486,1766 2461,1872 "/>
   <polygon class="fil2" points="2573,1649 2704,1649 2685,1763 2763,1763 2746,1870 2663,1868 2618,2131 2618,2140 2620,2148 2625,2155 2631,2160 2639,2163 2649,2166 2659,2168 2670,2169 2681,2168 2690,2167 2699,2166 2706,2164 2712,2162 2717,2161 2720,2160 2721,2159 2704,2247 2701,2249 2697,2251 2694,2253 2691,2255 2687,2257 2684,2258 2679,2259 2675,2261 2670,2262 2666,2263 2660,2264 2654,2265 2648,2266 2641,2267 2634,2268 2626,2269 2590,2269 2571,2267 2554,2266 2539,2263 2527,2259 2516,2255 2507,2250 2499,2245 2493,2239 2488,2232 2485,2224 2482,2216 2481,2207 2480,2197 2480,2187 2482,2176 2483,2164 "/>
   <polyline class="fil3" points="2573,1649 2704,1649 2685,1763 2763,1763 2746,1870 2663,1868 2618,2131 2618,2140 2620,2148 2625,2155 2631,2160 2639,2163 2649,2166 2659,2168 2670,2169 2681,2168 2690,2167 2699,2166 2706,2164 2712,2162 2717,2161 2720,2160 2721,2159 2704,2247 2701,2249 2697,2251 2694,2253 2691,2255 2687,2257 2684,2258 2679,2259 2675,2261 2670,2262 2666,2263 2660,2264 2654,2265 2648,2266 2641,2267 2634,2268 2626,2269 2590,2269 2571,2267 2554,2266 2539,2263 2527,2259 2516,2255 2507,2250 2499,2245 2493,2239 2488,2232 2485,2224 2482,2216 2481,2207 2480,2197 2480,2187 2482,2176 2483,2164 2573,1649 "/>
   <polygon class="fil2" points="2868,2048 2866,2056 2866,2064 2867,2073 2869,2082 2872,2091 2876,2100 2881,2109 2887,2117 2893,2125 2900,2132 2908,2139 2916,2145 2925,2150 2934,2154 2944,2157 2953,2159 2965,2161 2977,2163 2990,2164 3002,2165 3014,2165 3027,2165 3039,2165 3052,2164 3065,2162 3077,2160 3090,2157 3103,2153 3116,2148 3130,2142 3143,2134 3157,2126 3138,2242 3131,2246 3123,2250 3115,2253 3108,2256 3101,2258 3094,2260 3086,2262 3078,2264 3070,2265 3060,2266 3050,2267 3040,2268 3027,2268 3015,2268 3000,2269 2984,2269 2961,2268 2938,2266 2914,2263 2890,2257 2867,2250 2845,2241 2824,2229 2804,2216 2786,2199 2770,2180 2756,2158 2745,2133 2737,2106 2731,2074 2730,2039 2732,2000 2734,1985 2737,1968 2741,1949 2746,1930 2753,1909 2762,1889 2772,1868 2786,1848 2801,1829 2819,1812 2840,1796 2864,1781 2891,1770 2922,1761 2956,1755 2994,1754 3012,1754 3031,1756 3051,1759 3070,1764 3089,1771 3107,1779 3124,1791 3140,1804 3154,1820 3166,1839 3175,1861 3182,1886 3186,1914 3186,1946 3183,1982 3176,2022 3174,2050 2830,2050 2851,1957 3058,1957 3059,1946 3058,1934 3057,1924 3056,1914 3052,1905 3049,1897 3044,1890 3040,1884 3034,1878 3028,1873 3021,1869 3014,1865 3006,1863 2998,1861 2990,1859 2982,1858 2973,1859 2965,1860 2956,1862 2948,1865 2940,1869 2933,1873 2926,1878 2920,1884 2914,1890 2908,1897 2903,1905 2899,1913 2895,1922 2891,1931 2889,1940 2887,1950 "/>
   <polyline class="fil3" points="2868,2048 2868,2048 2866,2056 2866,2064 2867,2073 2869,2082 2872,2091 2876,2100 2881,2109 2887,2117 2893,2125 2900,2132 2908,2139 2916,2145 2925,2150 2934,2154 2944,2157 2953,2159 2965,2161 2977,2163 2990,2164 3002,2165 3014,2165 3027,2165 3039,2165 3052,2164 3065,2162 3077,2160 3090,2157 3103,2153 3116,2148 3130,2142 3143,2134 3157,2126 3138,2242 3131,2246 3123,2250 3115,2253 3108,2256 3101,2258 3094,2260 3086,2262 3078,2264 3070,2265 3060,2266 3050,2267 3040,2268 3027,2268 3015,2268 3000,2269 2984,2269 2961,2268 2938,2266 2914,2263 2890,2257 2867,2250 2845,2241 2824,2229 2804,2216 2786,2199 2770,2180 2756,2158 2745,2133 2737,2106 2731,2074 2730,2039 2732,2000 2734,1985 2737,1968 2741,1949 2746,1930 2753,1909 2762,1889 2772,1868 2786,1848 2801,1829 2819,1812 2840,1796 2864,1781 2891,1770 2922,1761 2956,1755 2994,1754 3012,1754 3031,1756 3051,1759 3070,1764 3089,1771 3107,1779 3124,1791 3140,1804 3154,1820 3166,1839 3175,1861 3182,1886 3186,1914 3186,1946 3183,1982 3176,2022 3174,2050 2830,2050 2851,1957 3058,1957 3059,1946 3058,1934 3057,1924 3056,1914 3052,1905 3049,1897 3044,1890 3040,1884 3034,1878 3028,1873 3021,1869 3014,1865 3006,1863 2998,1861 2990,1859 2982,1858 2973,1859 2965,1860 2956,1862 2948,1865 2940,1869 2933,1873 2926,1878 2920,1884 2914,1890 2908,1897 2903,1905 2899,1913 2895,1922 2891,1931 2889,1940 2887,1950 2868,2048 "/>
   <polygon class="fil2" points="3993,1792 3987,1788 3981,1786 3974,1782 3967,1779 3960,1776 3952,1773 3944,1770 3936,1768 3927,1765 3918,1763 3908,1762 3898,1760 3887,1759 3876,1758 3865,1758 3853,1758 3841,1758 3829,1759 3816,1761 3803,1763 3790,1767 3777,1772 3763,1779 3750,1787 3737,1797 3725,1810 3713,1825 3702,1842 3692,1863 3682,1887 3673,1913 3665,1943 3662,1960 3661,1977 3660,1993 3660,2009 3661,2025 3665,2040 3669,2055 3674,2069 3681,2081 3690,2094 3700,2105 3711,2115 3724,2123 3738,2130 3754,2136 3772,2140 3779,2142 3786,2143 3794,2144 3804,2145 3814,2146 3825,2146 3837,2146 3848,2145 3861,2144 3873,2141 3885,2138 3896,2134 3908,2129 3919,2123 3929,2115 3938,2107 3917,2233 3914,2235 3912,2238 3908,2241 3904,2244 3898,2248 3892,2251 3884,2255 3876,2257 3865,2261 3853,2263 3838,2265 3822,2267 3804,2268 3782,2268 3758,2268 3732,2266 3710,2264 3688,2259 3667,2252 3645,2243 3624,2232 3604,2217 3586,2201 3568,2182 3552,2161 3539,2137 3528,2111 3519,2082 3514,2050 3512,2017 3513,1980 3518,1941 3522,1922 3526,1903 3531,1884 3535,1867 3541,1850 3547,1834 3553,1818 3560,1804 3567,1789 3574,1775 3582,1762 3590,1750 3599,1738 3608,1727 3618,1716 3627,1706 3638,1697 3649,1688 3661,1680 3672,1672 3685,1665 3698,1659 3711,1653 3725,1648 3739,1644 3754,1640 3769,1636 3785,1634 3801,1631 3818,1629 3835,1628 3853,1628 3868,1628 3883,1629 3897,1631 3911,1633 3924,1635 3937,1637 3949,1640 3961,1643 3972,1645 3981,1648 3990,1651 3997,1654 4004,1656 4010,1658 4014,1660 4017,1661 "/>
   <polyline class="fil3" points="3993,1792 3993,1792 3987,1788 3981,1786 3974,1782 3967,1779 3960,1776 3952,1773 3944,1770 3936,1768 3927,1765 3918,1763 3908,1762 3898,1760 3887,1759 3876,1758 3865,1758 3853,1758 3841,1758 3829,1759 3816,1761 3803,1763 3790,1767 3777,1772 3763,1779 3750,1787 3737,1797 3725,1810 3713,1825 3702,1842 3692,1863 3682,1887 3673,1913 3665,1943 3662,1960 3661,1977 3660,1993 3660,2009 3661,2025 3665,2040 3669,2055 3674,2069 3681,2081 3690,2094 3700,2105 3711,2115 3724,2123 3738,2130 3754,2136 3772,2140 3779,2142 3786,2143 3794,2144 3804,2145 3814,2146 3825,2146 3837,2146 3848,2145 3861,2144 3873,2141 3885,2138 3896,2134 3908,2129 3919,2123 3929,2115 3938,2107 3917,2233 3914,2235 3912,2238 3908,2241 3904,2244 3898,2248 3892,2251 3884,2255 3876,2257 3865,2261 3853,2263 3838,2265 3822,2267 3804,2268 3782,2268 3758,2268 3732,2266 3710,2264 3688,2259 3667,2252 3645,2243 3624,2232 3604,2217 3586,2201 3568,2182 3552,2161 3539,2137 3528,2111 3519,2082 3514,2050 3512,2017 3513,1980 3518,1941 3522,1922 3526,1903 3531,1884 3535,1867 3541,1850 3547,1834 3553,1818 3560,1804 3567,1789 3574,1775 3582,1762 3590,1750 3599,1738 3608,1727 3618,1716 3627,1706 3638,1697 3649,1688 3661,1680 3672,1672 3685,1665 3698,1659 3711,1653 3725,1648 3739,1644 3754,1640 3769,1636 3785,1634 3801,1631 3818,1629 3835,1628 3853,1628 3868,1628 3883,1629 3897,1631 3911,1633 3924,1635 3937,1637 3949,1640 3961,1643 3972,1645 3981,1648 3990,1651 3997,1654 4004,1656 4010,1658 4014,1660 4017,1661 3993,1792 "/>
   <polygon class="fil2" points="5155,2269 5024,2269 5034,2216 5034,2212 5026,2221 5018,2230 5010,2237 5002,2244 4993,2250 4985,2255 4976,2259 4967,2264 4958,2267 4949,2269 4940,2272 4931,2273 4921,2275 4912,2275 4903,2276 4894,2276 4869,2274 4846,2269 4826,2261 4807,2250 4790,2236 4775,2220 4761,2203 4750,2183 4741,2162 4733,2140 4728,2116 4724,2092 4723,2068 4723,2044 4726,2020 4730,1996 4737,1968 4745,1941 4755,1917 4767,1895 4779,1873 4794,1855 4808,1838 4824,1822 4840,1808 4858,1796 4876,1786 4894,1778 4912,1771 4931,1767 4950,1764 4970,1763 4983,1764 4996,1765 5009,1768 5020,1771 5031,1775 5040,1779 5050,1784 5058,1789 5066,1795 5073,1801 5079,1807 5085,1813 5089,1820 5094,1826 5097,1831 5100,1837 5133,1652 5262,1652 "/>
   <polyline class="fil3" points="5155,2269 5024,2269 5034,2216 5034,2212 5026,2221 5018,2230 5010,2237 5002,2244 4993,2250 4985,2255 4976,2259 4967,2264 4958,2267 4949,2269 4940,2272 4931,2273 4921,2275 4912,2275 4903,2276 4894,2276 4869,2274 4846,2269 4826,2261 4807,2250 4790,2236 4775,2220 4761,2203 4750,2183 4741,2162 4733,2140 4728,2116 4724,2092 4723,2068 4723,2044 4726,2020 4730,1996 4737,1968 4745,1941 4755,1917 4767,1895 4779,1873 4794,1855 4808,1838 4824,1822 4840,1808 4858,1796 4876,1786 4894,1778 4912,1771 4931,1767 4950,1764 4970,1763 4983,1764 4996,1765 5009,1768 5020,1771 5031,1775 5040,1779 5050,1784 5058,1789 5066,1795 5073,1801 5079,1807 5085,1813 5089,1820 5094,1826 5097,1831 5100,1837 5133,1652 5262,1652 5155,2269 "/>
   <polygon class="fil0" points="4941,2155 4954,2154 4967,2151 4978,2148 4989,2142 4999,2137 5008,2130 5017,2122 5025,2113 5032,2104 5039,2093 5045,2082 5050,2071 5055,2059 5059,2047 5062,2034 5064,2022 5067,2008 5068,1995 5068,1982 5068,1969 5066,1956 5064,1945 5061,1933 5057,1922 5053,1913 5047,1904 5041,1896 5034,1890 5026,1884 5017,1880 5008,1878 4998,1877 4986,1878 4974,1880 4963,1884 4952,1888 4943,1895 4933,1902 4925,1910 4917,1919 4910,1930 4904,1940 4897,1952 4892,1964 4887,1977 4884,1989 4880,2003 4877,2017 4875,2038 4876,2060 4879,2083 4885,2106 4895,2125 4907,2140 4922,2151 "/>
   <polygon class="fil2" points="2043,2164 2024,2269 1906,2269 1909,2249 1911,2232 1913,2219 1915,2212 1908,2219 1901,2227 1892,2234 1882,2241 1871,2247 1859,2253 1847,2258 1834,2263 1820,2267 1806,2271 1793,2274 1779,2275 1765,2276 1751,2277 1738,2275 1725,2274 1709,2269 1694,2265 1680,2258 1669,2251 1658,2244 1649,2235 1641,2226 1635,2217 1629,2207 1624,2197 1621,2186 1618,2176 1616,2165 1614,2154 1613,2144 1613,2133 1615,2115 1618,2098 1622,2081 1629,2065 1636,2050 1645,2036 1654,2023 1666,2011 1678,2000 1691,1990 1705,1981 1719,1974 1734,1967 1749,1962 1765,1958 1782,1955 1783,1955 1785,1955 1789,1954 1794,1954 1799,1953 1806,1952 1813,1951 1821,1950 1829,1949 1837,1948 1846,1948 1853,1947 1861,1947 1868,1946 1874,1946 1880,1946 1890,1946 1902,1946 1912,1947 1923,1947 1931,1947 1938,1947 1942,1948 1944,1948 1945,1945 1948,1936 1950,1926 1951,1917 1949,1907 1945,1897 1939,1889 1932,1882 1923,1876 1913,1871 1901,1869 1889,1868 1876,1867 1862,1867 1847,1867 1832,1867 1816,1868 1801,1870 1786,1871 1772,1873 1757,1875 1744,1877 1731,1880 1720,1882 1710,1885 1701,1888 1695,1891 1689,1894 1723,1780 1733,1776 1744,1772 1755,1769 1766,1766 1778,1764 1790,1762 1802,1760 1815,1759 1828,1758 1842,1758 1856,1757 1871,1757 1886,1757 1901,1757 1918,1758 1934,1758 1948,1759 1962,1762 1976,1765 1991,1769 2006,1775 2020,1781 2034,1789 2048,1798 2059,1809 2070,1820 2079,1833 2086,1847 2091,1862 2094,1878 2094,1896 2091,1915 "/>
   <polyline class="fil3" points="2043,2164 2024,2269 1906,2269 1909,2249 1911,2232 1913,2219 1915,2212 1908,2219 1901,2227 1892,2234 1882,2241 1871,2247 1859,2253 1847,2258 1834,2263 1820,2267 1806,2271 1793,2274 1779,2275 1765,2276 1751,2277 1738,2275 1725,2274 1709,2269 1694,2265 1680,2258 1669,2251 1658,2244 1649,2235 1641,2226 1635,2217 1629,2207 1624,2197 1621,2186 1618,2176 1616,2165 1614,2154 1613,2144 1613,2133 1615,2115 1618,2098 1622,2081 1629,2065 1636,2050 1645,2036 1654,2023 1666,2011 1678,2000 1691,1990 1705,1981 1719,1974 1734,1967 1749,1962 1765,1958 1782,1955 1783,1955 1785,1955 1789,1954 1794,1954 1799,1953 1806,1952 1813,1951 1821,1950 1829,1949 1837,1948 1846,1948 1853,1947 1861,1947 1868,1946 1874,1946 1880,1946 1890,1946 1902,1946 1912,1947 1923,1947 1931,1947 1938,1947 1942,1948 1944,1948 1945,1945 1948,1936 1950,1926 1951,1917 1949,1907 1945,1897 1939,1889 1932,1882 1923,1876 1913,1871 1901,1869 1889,1868 1876,1867 1862,1867 1847,1867 1832,1867 1816,1868 1801,1870 1786,1871 1772,1873 1757,1875 1744,1877 1731,1880 1720,1882 1710,1885 1701,1888 1695,1891 1689,1894 1723,1780 1733,1776 1744,1772 1755,1769 1766,1766 1778,1764 1790,1762 1802,1760 1815,1759 1828,1758 1842,1758 1856,1757 1871,1757 1886,1757 1901,1757 1918,1758 1934,1758 1948,1759 1962,1762 1976,1765 1991,1769 2006,1775 2020,1781 2034,1789 2048,1798 2059,1809 2070,1820 2079,1833 2086,1847 2091,1862 2094,1878 2094,1896 2091,1915 2043,2164 "/>
   <polygon class="fil1" points="1930,2041 1929,2039 1927,2036 1924,2035 1920,2034 1915,2033 1908,2032 1901,2032 1894,2032 1887,2033 1879,2034 1871,2035 1864,2036 1856,2037 1850,2038 1844,2040 1839,2041 1836,2042 1832,2043 1827,2045 1822,2047 1815,2050 1809,2054 1803,2057 1797,2061 1790,2065 1784,2070 1778,2076 1773,2081 1768,2088 1765,2094 1762,2102 1761,2109 1760,2125 1763,2138 1767,2148 1773,2155 1780,2159 1789,2162 1796,2164 1804,2164 1818,2164 1831,2162 1843,2160 1854,2157 1863,2154 1872,2150 1880,2146 1887,2140 1893,2136 1899,2130 1904,2125 1907,2119 1911,2114 1914,2108 1916,2103 1917,2098 1921,2084 1924,2068 1927,2053 "/>
   <polygon class="fil2" points="1050,2269 922,2269 1029,1649 1252,1649 1274,2017 1428,1649 1661,1649 1552,2269 1423,2269 1504,1806 1499,1806 1307,2269 1162,2269 1161,2249 1158,2198 1154,2125 1149,2041 1144,1956 1140,1882 1137,1829 1136,1806 1134,1806 1132,1806 1129,1806 "/>
   <polyline class="fil3" points="1050,2269 922,2269 1029,1649 1252,1649 1274,2017 1428,1649 1661,1649 1552,2269 1423,2269 1504,1806 1499,1806 1307,2269 1162,2269 1161,2249 1158,2198 1154,2125 1149,2041 1144,1956 1140,1882 1137,1829 1136,1806 1134,1806 1132,1806 1129,1806 1050,2269 "/>
   <polygon class="fil2" points="4385,2164 4366,2269 4248,2269 4249,2249 4249,2232 4249,2220 4250,2214 4244,2221 4237,2228 4228,2235 4219,2241 4209,2248 4198,2253 4186,2259 4174,2264 4161,2267 4148,2271 4135,2274 4122,2275 4108,2276 4095,2277 4082,2275 4069,2274 4052,2269 4037,2265 4024,2258 4012,2251 4001,2244 3992,2235 3985,2226 3978,2217 3972,2207 3968,2197 3964,2186 3962,2176 3960,2165 3959,2154 3958,2144 3958,2133 3959,2115 3962,2098 3966,2081 3972,2065 3979,2050 3988,2036 3998,2023 4009,2011 4021,2000 4034,1990 4047,1981 4062,1974 4077,1967 4092,1962 4108,1958 4124,1955 4125,1955 4127,1955 4131,1954 4135,1954 4141,1953 4148,1952 4155,1951 4163,1950 4171,1949 4179,1948 4187,1948 4195,1947 4203,1947 4209,1946 4216,1946 4221,1946 4232,1946 4244,1946 4255,1947 4265,1947 4274,1947 4282,1947 4286,1948 4288,1948 4289,1945 4290,1936 4291,1926 4292,1917 4291,1907 4287,1897 4281,1889 4274,1882 4265,1876 4255,1871 4245,1869 4233,1868 4220,1867 4206,1867 4191,1867 4176,1867 4161,1868 4146,1870 4131,1871 4116,1873 4102,1875 4088,1877 4076,1880 4064,1882 4054,1885 4046,1888 4039,1891 4034,1894 4067,1780 4077,1776 4088,1772 4099,1769 4110,1766 4122,1764 4134,1762 4146,1760 4159,1759 4172,1758 4186,1758 4199,1757 4214,1757 4229,1757 4244,1757 4260,1758 4276,1758 4289,1759 4303,1762 4318,1765 4333,1769 4348,1775 4362,1781 4376,1789 4390,1798 4401,1809 4412,1820 4422,1833 4429,1847 4434,1862 4437,1878 4437,1896 4435,1915 "/>
   <polygon class="fil2" points="4366,2272 4369,2269 4388,2165 4383,2164 4363,2268 4366,2266 4366,2272 4368,2272 4369,2269 "/>
   <polygon class="fil2" points="4245,2269 4248,2272 4366,2272 4366,2266 4248,2266 4250,2269 4245,2269 4244,2272 4248,2272 "/>
   <polygon class="fil2" points="4252,2216 4248,2212 4246,2220 4246,2232 4246,2249 4245,2269 4250,2269 4251,2249 4252,2232 4252,2220 4252,2216 4248,2212 "/>
   <polygon class="fil2" points="4069,2276 4069,2276 4082,2278 4095,2280 4108,2279 4122,2278 4135,2276 4148,2274 4162,2270 4175,2266 4187,2262 4199,2256 4210,2250 4220,2244 4230,2237 4239,2231 4246,2223 4252,2216 4248,2212 4241,2219 4235,2226 4226,2232 4217,2239 4207,2245 4196,2250 4185,2256 4173,2261 4161,2265 4148,2268 4134,2271 4122,2273 4108,2274 4095,2274 4082,2273 4070,2271 "/>
   <polygon class="fil2" points="3955,2133 3955,2133 3955,2144 3956,2154 3957,2165 3959,2176 3962,2187 3965,2198 3970,2208 3976,2218 3982,2228 3990,2237 3999,2246 4010,2254 4023,2261 4036,2267 4052,2272 4069,2276 4070,2271 4053,2266 4038,2262 4025,2256 4013,2249 4003,2241 3995,2233 3987,2224 3980,2216 3975,2206 3971,2196 3967,2186 3965,2175 3963,2165 3962,2154 3961,2144 3961,2133 "/>
   <polygon class="fil2" points="4124,1952 4124,1952 4107,1955 4091,1959 4076,1964 4061,1971 4046,1979 4032,1988 4019,1998 4007,2009 3996,2021 3986,2034 3976,2048 3969,2064 3963,2080 3959,2097 3956,2115 3955,2133 3961,2133 3962,2115 3964,2098 3969,2082 3975,2066 3982,2051 3990,2038 4000,2025 4011,2013 4023,2003 4036,1993 4049,1984 4064,1977 4078,1970 4093,1965 4108,1961 4124,1958 "/>
   <polygon class="fil2" points="4221,1942 4221,1942 4216,1942 4209,1943 4203,1944 4195,1944 4187,1945 4179,1946 4171,1947 4163,1947 4155,1948 4148,1949 4141,1950 4135,1951 4131,1951 4127,1952 4125,1952 4124,1952 4124,1958 4125,1958 4128,1957 4131,1957 4135,1956 4141,1955 4148,1955 4155,1954 4163,1953 4171,1952 4179,1951 4187,1951 4195,1950 4203,1949 4209,1949 4216,1949 4221,1949 "/>
   <polygon class="fil2" points="4285,1947 4288,1945 4286,1945 4282,1945 4274,1944 4265,1943 4255,1943 4244,1943 4232,1942 4221,1942 4221,1949 4232,1949 4244,1949 4255,1950 4265,1950 4274,1950 4282,1950 4286,1951 4288,1951 4291,1948 4288,1951 4290,1951 4291,1948 "/>
   <polygon class="fil2" points="4290,1917 4289,1917 4289,1926 4287,1936 4286,1944 4285,1947 4291,1948 4291,1945 4293,1937 4294,1926 4296,1917 4295,1917 "/>
   <polygon class="fil2" points="4233,1871 4233,1871 4244,1871 4254,1874 4264,1879 4272,1884 4278,1891 4284,1899 4288,1907 4290,1917 4295,1917 4293,1906 4290,1896 4283,1887 4275,1880 4266,1873 4256,1869 4245,1866 4233,1864 4233,1865 "/>
   <polygon class="fil2" points="4031,1893 4036,1896 4040,1894 4047,1890 4055,1888 4065,1885 4076,1882 4089,1880 4102,1878 4116,1876 4131,1874 4146,1872 4161,1871 4176,1870 4191,1870 4206,1870 4220,1870 4233,1871 4233,1865 4220,1864 4206,1863 4191,1863 4176,1864 4161,1865 4146,1867 4131,1868 4116,1870 4101,1872 4088,1874 4075,1877 4064,1879 4054,1882 4045,1885 4038,1888 4032,1891 4037,1894 "/>
   <polygon class="fil2" points="4066,1777 4064,1779 4031,1893 4037,1894 4070,1780 4068,1783 4066,1777 4064,1778 4064,1779 "/>
   <polygon class="fil2" points="4276,1755 4276,1755 4260,1754 4244,1754 4229,1754 4214,1754 4199,1754 4186,1755 4172,1755 4159,1756 4146,1757 4133,1759 4122,1761 4110,1763 4098,1766 4087,1769 4076,1773 4066,1777 4068,1783 4078,1779 4089,1775 4099,1771 4111,1769 4123,1767 4134,1765 4146,1763 4159,1762 4172,1761 4186,1761 4199,1761 4214,1761 4229,1761 4244,1761 4260,1761 4276,1761 "/>
   <polygon class="fil2" points="4438,1915 4438,1915 4440,1896 4440,1878 4437,1862 4432,1846 4424,1831 4415,1818 4403,1806 4392,1796 4378,1787 4364,1779 4349,1772 4334,1766 4318,1762 4304,1759 4289,1756 4276,1755 4276,1761 4289,1762 4303,1764 4317,1768 4332,1772 4347,1778 4361,1784 4375,1792 4388,1801 4400,1811 4410,1822 4419,1834 4426,1848 4431,1863 4434,1878 4434,1896 4432,1914 "/>
   <polygon class="fil2" points="4388,2165 4388,2165 4438,1915 4432,1914 4383,2164 "/>
   <polygon class="fil0" points="4271,2041 4270,2038 4268,2036 4265,2034 4260,2033 4255,2032 4249,2032 4242,2032 4235,2032 4227,2033 4220,2034 4212,2035 4205,2036 4198,2038 4192,2039 4186,2040 4181,2041 4178,2041 4174,2043 4169,2044 4164,2046 4158,2049 4152,2052 4146,2055 4140,2059 4133,2064 4127,2069 4122,2074 4117,2080 4113,2087 4109,2094 4106,2101 4105,2109 4105,2125 4107,2138 4111,2148 4116,2155 4123,2159 4131,2162 4140,2164 4148,2164 4162,2164 4175,2162 4187,2160 4198,2157 4208,2153 4217,2148 4226,2144 4233,2138 4240,2133 4246,2127 4251,2121 4255,2115 4258,2109 4261,2104 4263,2098 4264,2093 4266,2080 4268,2066 4270,2053 "/>
   <polygon class="fil2" points="5243,2204 5244,2193 5248,2181 5255,2169 5263,2159 5273,2151 5284,2146 5296,2142 5309,2140 5323,2142 5335,2146 5346,2151 5356,2159 5364,2169 5371,2181 5374,2193 5375,2204 5361,2204 5361,2196 5358,2185 5353,2176 5347,2168 5340,2161 5331,2157 5320,2153 5309,2152 5299,2153 5288,2157 5279,2161 5272,2168 5265,2176 5261,2185 5258,2196 5257,2204 "/>
   <polygon class="fil2" points="5286,2204 5286,2176 5312,2176 5317,2176 5323,2177 5326,2179 5330,2181 5332,2183 5334,2186 5335,2190 5335,2193 5335,2197 5334,2200 5332,2203 5332,2204 5312,2204 5314,2204 5317,2203 5320,2202 5322,2201 5324,2200 5325,2199 5326,2196 5326,2193 5325,2190 5324,2189 5323,2188 5322,2187 5319,2186 5317,2186 5315,2186 5312,2186 5298,2186 5298,2204 "/>
   <polygon class="fil2" points="5243,2204 5243,2207 5244,2221 5248,2233 5255,2245 5263,2254 5273,2262 5284,2268 5296,2272 5309,2274 5323,2272 5335,2268 5346,2262 5356,2254 5364,2245 5371,2233 5374,2221 5376,2207 5375,2204 5361,2204 5362,2207 5361,2218 5358,2229 5353,2238 5347,2246 5340,2252 5331,2257 5320,2261 5309,2262 5299,2261 5288,2257 5279,2252 5272,2246 5265,2238 5261,2229 5258,2218 5257,2207 5257,2204 "/>
   <polygon class="fil2" points="5286,2204 5286,2233 5298,2233 5298,2209 5309,2209 5324,2233 5333,2233 5319,2209 5322,2209 5325,2208 5328,2207 5331,2206 5332,2204 5312,2204 5309,2205 5298,2205 5298,2204 "/>
   <path class="fil3" d="M5309 2262l0 0 11 -1 11 -4 9 -5 7 -6 6 -8 5 -9 3 -11 1 -11 -1 -11 -3 -11 -5 -9 -6 -8 -7 -7 -9 -4 -11 -4 -11 -1 -10 1 -11 4 -9 4 -7 7 -7 8 -4 9 -3 11 -1 11 1 11 3 11 4 9 7 8 7 6 9 5 11 4 10 1m0 -57l0 0 5 -1 3 -1 3 -1 2 -1 2 -1 1 -1 1 -3 0 -3 -1 -3 -1 -1 -1 -1 -1 -1 -3 -1 -2 0 -2 0 -3 0 -14 0 0 19 11 0m-11 28l-12 0 0 -57 26 0 5 0 6 1 3 2 4 2 2 2 2 3 1 4 0 3 0 4 -1 3 -2 3 -1 3 -3 1 -3 1 -3 1 -3 0 14 24 -9 0 -15 -24 -11 0 0 24m-55 -26l0 0 1 -14 4 -12 7 -12 8 -10 10 -8 11 -5 12 -4 13 -2 14 2 12 4 11 5 10 8 8 10 7 12 3 12 2 14 -2 14 -3 12 -7 12 -8 9 -10 8 -11 6 -12 4 -14 2 -13 -2 -12 -4 -11 -6 -10 -8 -8 -9 -7 -12 -4 -12 -1 -14"/>
   <polygon class="fil2" points="4421,2269 4554,2269 4602,2000 4603,1990 4606,1980 4609,1969 4613,1959 4618,1948 4623,1939 4629,1929 4637,1920 4645,1912 4655,1905 4666,1897 4678,1892 4692,1887 4707,1883 4723,1880 4742,1880 4748,1880 4752,1880 4753,1880 4775,1758 4761,1759 4749,1761 4737,1763 4726,1766 4715,1770 4705,1775 4696,1780 4687,1786 4678,1792 4670,1799 4663,1806 4655,1814 4648,1822 4641,1831 4634,1839 4627,1849 4642,1763 4509,1763 "/>
   <polyline class="fil3" points="4421,2269 4554,2269 4602,2000 4603,1990 4606,1980 4609,1969 4613,1959 4618,1948 4623,1939 4629,1929 4637,1920 4645,1912 4655,1905 4666,1897 4678,1892 4692,1887 4707,1883 4723,1880 4742,1880 4748,1880 4752,1880 4753,1880 4775,1758 4761,1759 4749,1761 4737,1763 4726,1766 4715,1770 4705,1775 4696,1780 4687,1786 4678,1792 4670,1799 4663,1806 4655,1814 4648,1822 4641,1831 4634,1839 4627,1849 4642,1763 4509,1763 4421,2269 "/>
   <polygon class="fil2" points="3171,2269 3304,2269 3307,2269 3352,2000 3354,1990 3356,1980 3359,1970 3362,1961 3366,1951 3370,1942 3376,1934 3383,1926 3390,1919 3399,1912 3409,1906 3420,1901 3434,1896 3448,1893 3464,1890 3483,1889 3484,1889 3486,1889 3488,1890 3491,1890 3493,1890 3495,1891 3496,1891 3497,1891 3497,1889 3499,1884 3501,1875 3503,1865 3506,1853 3510,1839 3514,1826 3518,1813 3522,1804 3527,1795 3531,1786 3536,1778 3540,1771 3544,1765 3546,1762 3547,1761 3546,1761 3544,1760 3542,1760 3539,1759 3535,1759 3532,1759 3528,1758 3525,1758 3510,1759 3497,1761 3485,1763 3474,1766 3463,1770 3453,1774 3444,1779 3435,1785 3427,1791 3420,1798 3413,1805 3406,1813 3399,1821 3392,1830 3385,1839 3378,1849 3395,1763 3259,1763 "/>
   <polyline class="fil3" points="3171,2269 3304,2269 3307,2269 3352,2000 3354,1990 3356,1980 3359,1970 3362,1961 3366,1951 3370,1942 3376,1934 3383,1926 3390,1919 3399,1912 3409,1906 3420,1901 3434,1896 3448,1893 3464,1890 3483,1889 3484,1889 3486,1889 3488,1890 3491,1890 3493,1890 3495,1891 3496,1891 3497,1891 3497,1889 3499,1884 3501,1875 3503,1865 3506,1853 3510,1839 3514,1826 3518,1813 3522,1804 3527,1795 3531,1786 3536,1778 3540,1771 3544,1765 3546,1762 3547,1761 3546,1761 3544,1760 3542,1760 3539,1759 3535,1759 3532,1759 3528,1758 3525,1758 3510,1759 3497,1761 3485,1763 3474,1766 3463,1770 3453,1774 3444,1779 3435,1785 3427,1791 3420,1798 3413,1805 3406,1813 3399,1821 3392,1830 3385,1839 3378,1849 3395,1763 3259,1763 3171,2269 "/>
   <polygon class="fil0" points="5244,2765 5244,2763 5248,2751 5255,2740 5263,2731 5273,2723 5284,2718 5296,2714 5309,2713 5323,2714 5335,2718 5346,2723 5356,2731 5364,2740 5371,2751 5374,2763 5374,2765 5361,2765 5358,2755 5353,2746 5347,2738 5340,2732 5331,2727 5320,2723 5309,2722 5299,2723 5288,2727 5279,2732 5272,2738 5265,2746 5261,2755 5258,2765 "/>
   <polygon class="fil0" points="5286,2765 5286,2749 5312,2749 5317,2749 5323,2750 5326,2751 5330,2753 5332,2755 5334,2758 5335,2761 5335,2765 5326,2765 5326,2763 5325,2761 5324,2759 5323,2758 5322,2757 5319,2756 5317,2756 5315,2756 5312,2756 5298,2756 5298,2765 "/>
   <polygon class="fil0" points="5243,2776 5244,2765 5258,2765 5258,2766 5257,2776 "/>
   <polygon class="fil0" points="5286,2776 5286,2765 5298,2765 5298,2775 5309,2775 5314,2774 5317,2773 5320,2772 5322,2771 5324,2770 5325,2769 5326,2766 5326,2765 5335,2765 5335,2769 5334,2771 5332,2774 5331,2776 "/>
   <polygon class="fil0" points="5362,2776 5361,2766 5361,2765 5374,2765 5376,2776 "/>
   <polygon class="fil0" points="5243,2776 5243,2777 5244,2791 5248,2803 5255,2815 5263,2825 5273,2833 5284,2838 5296,2842 5309,2844 5323,2842 5335,2838 5346,2833 5356,2825 5364,2815 5371,2803 5374,2791 5376,2777 5376,2776 5362,2776 5362,2777 5361,2788 5358,2799 5353,2808 5347,2816 5340,2822 5331,2828 5320,2831 5309,2832 5299,2831 5288,2828 5279,2822 5272,2816 5265,2808 5261,2799 5258,2788 5257,2777 5257,2776 "/>
   <polygon class="fil0" points="5286,2776 5286,2803 5298,2803 5298,2779 5309,2779 5324,2803 5333,2803 5319,2779 5322,2779 5325,2778 5328,2778 5331,2776 "/>
  </g>
  <rect class="fil3" width="6253" height="3835"/>
 </g>
</svg>
