<svg xmlns="http://www.w3.org/2000/svg" width="35.97" height="41.719" viewBox="0 0 35.97 41.719" class="svg-icon menu_icon10 menu_icon">
    <path d="M34.6 11.034h-4.33a7.142 7.142 0 0 0 .57-8.374 6.239 6.239 0 0 0-5.25-2.667 8.185 8.185 0 0 0-4.77 1.617 11.187 11.187 0 0 0-2.9 3.777A13.348 13.348 0 0 0 14.9 1.61a8.132 8.132 0 0 0-4.76-1.617A6.257 6.257 0 0 0 4.88 2.66a7.128 7.128 0 0 0 .58 8.374H1.35a1.382 1.382 0 0 0-1.36 1.4v6.529a1.379 1.379 0 0 0 1.31 1.4v19.941a1.383 1.383 0 0 0 1.36 1.4h30.63a1.381 1.381 0 0 0 1.35-1.4V20.363a1.387 1.387 0 0 0 1.32-1.4v-6.529a1.382 1.382 0 0 0-1.36-1.4zm-20.74 9.33v18.539H4.02V20.369h9.84zm19.38-6.529v3.728H22.08v-3.728h11.16zm-13.87 0v25.066h-2.79V13.837h2.79zM16.65 8.08l-.24.577a25.528 25.528 0 0 0-1.26-2.555c.28.445.55.9.76 1.317a1.361 1.361 0 0 0 .74.663zM8.13 9.986a5.752 5.752 0 0 0 .64.541 4.361 4.361 0 0 0 .95.5H8.25a1.234 1.234 0 0 0 .05-.331 1.356 1.356 0 0 0-.17-.708zm1.12-3.193a1.068 1.068 0 0 1 .02-.923 1.1 1.1 0 0 1 .87-.328 2.859 2.859 0 0 1 1.65.592 3.91 3.91 0 0 1 .84 1.091 18.507 18.507 0 0 1 .96 1.808 9.873 9.873 0 0 1-3.1-.7 1.2 1.2 0 0 1-.15-.087 2.994 2.994 0 0 1-1.09-1.451zm17.7 3.734a5.888 5.888 0 0 0 .65-.544 1.469 1.469 0 0 0-.12 1.049H26a4.139 4.139 0 0 0 .95-.503zm-3.02-4.393a2.888 2.888 0 0 1 1.66-.592.828.828 0 0 1 .89 1.251 3.079 3.079 0 0 1-1.1 1.45 8.586 8.586 0 0 1-3.24.789 9.854 9.854 0 0 1 1.79-2.896zm-5.51 4.9c.07-.168.13-.356.21-.56a1.33 1.33 0 0 0 .06.56h-.27zm-4.56 2.8v3.728H2.7v-3.728h11.16zm18.07 6.529v18.539h-9.85V20.369h9.85z"/>
</svg>
