<svg xmlns="http://www.w3.org/2000/svg" width="51.781" height="51.782" viewBox="0 0 51.781 51.782" class="svg-icon menu_icon15 menu_icon">
    <path d="M49.363 26.002a1.447 1.447 0 0 1 2.384 1.353l-.239 1.216c0 .022-.009.045-.015.067l-.172.692c-.092.407-.218.815-.318 1.143l-.062.2c-.109.374-.2.632-.214.66a1.45 1.45 0 0 1-.676.772l-1.837.978c-.482.262-.886.5-1.191.705a1.9 1.9 0 0 0-.155.118l-.24.843a3.325 3.325 0 0 0 .65-.111c.237-.065.391-.125.393-.125a1.447 1.447 0 0 1 1.766 2.092l-.315.523-.036.057-.148.222c-.184.277-.4.6-.622.916a29.54 29.54 0 0 1-1.263 1.623 1.437 1.437 0 0 1-.932.5l-.635.076c-.388.043-.891.1-1.4.17a11.792 11.792 0 0 0-1.352.219l-.037.009a2.307 2.307 0 0 0-.189.05l-.537.7a4.394 4.394 0 0 0 1.072.156 1.447 1.447 0 0 1 .867 2.6l-.488.368c-.243.192-.566.41-.908.641l-.241.164c-.3.2-.6.383-.86.54-.113.068-.219.132-.313.191l-.044.027c-.344.2-.579.321-.579.321a1.454 1.454 0 0 1-1.026.12l-2.079-.528a10.83 10.83 0 0 0-1.484-.285l-.746.461a3.826 3.826 0 0 0 .586.374c.1.053.179.09.236.113l.133.054a1.447 1.447 0 0 1-.078 2.714c-.029.009-.3.1-.695.2l-.177.047c-.337.09-.757.2-1.2.287l-.67.141-.068.012-1.043.166a3.832 3.832 0 0 1-.232.033 1.472 1.472 0 0 1-1.008-.268l-1.734-1.243a10.922 10.922 0 0 0-1.277-.806l-.871.159a4.26 4.26 0 0 0 .683.834 1.447 1.447 0 0 1-.972 2.517 1.185 1.185 0 0 1-.133-.007l-.59-.054c-.316-.022-.66-.073-1.025-.127l-.38-.055c-.364-.049-.7-.119-1.007-.18a11.174 11.174 0 0 0-.357-.071 6.732 6.732 0 0 1-.5-.112l-.175-.044a1.438 1.438 0 0 1-.858-.608l-1.144-1.738a16.82 16.82 0 0 0-.412-.589 7.024 7.024 0 0 0-.383-.512 2.045 2.045 0 0 0-.154-.165l-.856-.153a3.375 3.375 0 0 0 .171.644 3.872 3.872 0 0 0 .158.369 1.448 1.448 0 0 1-1.884 1.974s-.247-.112-.609-.3l-.042-.023-.329-.176a18.49 18.49 0 0 1-.888-.493l-.31-.187c-.331-.2-.643-.386-.91-.575l-.469-.316a1.442 1.442 0 0 1-.607-.9l-.132-.629a64.634 64.634 0 0 0-.3-1.38 12.123 12.123 0 0 0-.347-1.338 2.199 2.199 0 0 0-.074-.2l-.749-.47a3.7 3.7 0 0 0-.068.685c0 .226.011.393.011.4a1.446 1.446 0 0 1-2.49 1.124c-.029-.031-.721-.765-1.354-1.562a26.926 26.926 0 0 1-.6-.789c-.079-.106-.152-.2-.22-.294a.923.923 0 0 1-.045-.064l-.337-.5a1.445 1.445 0 0 1-.232-1.038l.332-2.109a10.975 10.975 0 0 0 .149-1.514l-.528-.7a3.757 3.757 0 0 0-.315.616 3.565 3.565 0 0 0-.127.353 1.452 1.452 0 0 1-2.7.242s-.046-.1-.111-.269l-.372-1c-.064-.18-.116-.346-.169-.513l-.071-.223c-.15-.448-.272-.917-.36-1.258l-.136-.524-.015-.062-.035-.165a1.447 1.447 0 0 1 .167-1.026l1.049-1.8c.272-.475.49-.891.643-1.226a1.789 1.789 0 0 0 .07-.182l-.238-.844a3.119 3.119 0 0 0-.5.44c-.168.179-.268.311-.269.312a1.446 1.446 0 0 1-2.6-.856l-.006-.611c0-.288.017-.61.032-.949l.02-.454v-.079l.124-1.321q0-.036.009-.072l.085-.594a1.451 1.451 0 0 1 .528-.923l1.655-1.326a11.054 11.054 0 0 0 1.14-1.03l.08-.873A3.9 3.9 0 0 0 3 21.03c-.182.089-.317.175-.318.175a1.447 1.447 0 0 1-2.139-1.7l.058-.161c.034-.1.1-.281.193-.494.047-.108.093-.221.142-.341.11-.272.247-.61.415-.946.212-.451.434-.915.637-1.273l.27-.5a1.444 1.444 0 0 1 .85-.7l1.971-.617a13.3 13.3 0 0 0 1.3-.472 1.625 1.625 0 0 0 .175-.085l.4-.789a3.453 3.453 0 0 0-.68-.006c-.231.018-.395.048-.4.048a1.447 1.447 0 0 1-1.338-2.391l.41-.453c.182-.205.408-.43.647-.668l.329-.329a.625.625 0 0 1 .045-.044c.366-.342.734-.678 1.014-.923l.032-.027.463-.384a1.456 1.456 0 0 1 1.014-.328l2.28.144a10.457 10.457 0 0 0 1.122.02c.117-.007.2-.014.251-.021l.649-.589a4.564 4.564 0 0 0-1.033-.356 1.446 1.446 0 0 1-.362-2.719l1.116-.542.06-.027.655-.281c.342-.155.711-.29 1.007-.4l.284-.105c.22-.083.4-.146.523-.183l.123-.039a1.449 1.449 0 0 1 1.046.067l1.887.877c.211.1.437.2.656.284l.036.015c.224.1.408.169.562.22a2.221 2.221 0 0 0 .218.06l.811-.315a3.427 3.427 0 0 0-.48-.455c-.191-.147-.331-.233-.332-.234a1.448 1.448 0 0 1 .57-2.67s.266-.034.664-.068h.052c.114-.006.24-.014.374-.023.309-.02.657-.042 1-.048 1.008-.03 2 .029 2.04.031a1.447 1.447 0 0 1 .956.441l.442.46c.271.288.619.657.981 1.019l.133.108a10.9 10.9 0 0 0 .867.823c.091.073.156.122.2.153h.872a3.853 3.853 0 0 0-.3-.626 2.79 2.79 0 0 0-.194-.3 1.449 1.449 0 0 1 1.482-2.3l.162.041.063.017.588.177c.344.1.772.231 1.207.4l.645.233.063.025.975.407c.135.055.216.094.216.094a1.471 1.471 0 0 1 .715.759l.815 1.949a10.794 10.794 0 0 0 .673 1.379l.82.32a3.219 3.219 0 0 0-.053-.665 4.517 4.517 0 0 0-.086-.4 1.447 1.447 0 0 1 2.251-1.56l.489.364c.245.188.521.416.81.655l.281.233.058.05c.115.106.231.21.343.311.254.228.491.443.677.628l.428.428a1.444 1.444 0 0 1 .423.982l.018.637c.007.4.016.9.039 1.416a12 12 0 0 0 .093 1.353c0 .014 0 .028.007.043.012.09.024.156.034.2l.648.6a4.442 4.442 0 0 0 .257-1.059 1.445 1.445 0 0 1 2.671-.617l.319.521c.214.332.474.81.7 1.229.17.3.327.628.454.894.056.118.108.229.158.327.084.169.148.316.2.43l.088.207a1.45 1.45 0 0 1 .032 1.051l-.76 2.148c-.131.394-.266.8-.336 1.109-.021.1-.033.175-.04.226l.387.778a3.938 3.938 0 0 0 .43-.552c.108-.171.178-.314.179-.316a1.446 1.446 0 0 1 2.715.326l.036.168c.024.1.061.292.095.522.017.116.037.237.059.365.049.289.109.649.143 1.024.058.515.112 1.011.126 1.418l.033.567a1.447 1.447 0 0 1-.355 1.035l-.424.485c-.257.291-.585.673-.919 1.069a11.485 11.485 0 0 0-.851 1.074c-.058.083-.1.144-.121.187l.077.88a4.429 4.429 0 0 0 .9-.613zm-3.25-2.086a13.74 13.74 0 0 1 1.043-1.325c.334-.4.678-.8.942-1.1l.03-.035v-.009c0-.062-.006-.128-.01-.2a2.558 2.558 0 0 1-1.288.238 2.411 2.411 0 0 1-1.756-1.026 1.419 1.419 0 0 1-.135-.221l-.739-1.489a2.9 2.9 0 0 1-.14-2.01c.107-.474.266-.95.419-1.411l.071-.212.514-1.446-.09-.185a2.7 2.7 0 0 1-.6.468 2.4 2.4 0 0 1-2.492-.079 1.534 1.534 0 0 1-.243-.181l-1.216-1.12a2.844 2.844 0 0 1-.862-1.851 13.679 13.679 0 0 1-.126-1.665 49.59 49.59 0 0 1-.041-1.491l-.02-.063a5.542 5.542 0 0 0-.131-.127 2.555 2.555 0 0 1-.8 1.05 2.408 2.408 0 0 1-1.983.42 1.4 1.4 0 0 1-.252-.073l-1.552-.606c-1.07-.377-1.6-1.59-2.158-2.872l-.616-1.46-.188-.079a2.543 2.543 0 0 1-.354 1.247 2.422 2.422 0 0 1-1.7 1.129c-.09.017-.192.016-.271.025h-1.651a2.827 2.827 0 0 1-1.884-.782 12.844 12.844 0 0 1-1.124-1.054l-.107-.108a54.523 54.523 0 0 1-1.023-1.064l-.03-.03-.208-.006a2.542 2.542 0 0 1 .116 1.313 2.4 2.4 0 0 1-1.191 1.646 1.539 1.539 0 0 1-.223.11l-1.555.6a2.231 2.231 0 0 1-1.163.141 4.214 4.214 0 0 1-.873-.2 9.342 9.342 0 0 1-.8-.308c-.251-.1-.509-.214-.765-.33l-1.371-.638-.192.072a2.718 2.718 0 0 1 .409.639 2.423 2.423 0 0 1-.316 2.486 1.454 1.454 0 0 1-.194.214L14 9.967a2.849 2.849 0 0 1-1.927.691 12.417 12.417 0 0 1-1.449-.017l-.225-.011-1.526-.1-.149.132a2.55 2.55 0 0 1 .968.885 2.421 2.421 0 0 1 .241 2.013 1.413 1.413 0 0 1-.1.253l-.753 1.5a2.843 2.843 0 0 1-1.558 1.329 15.805 15.805 0 0 1-1.584.576l-1.424.455c-.03.055-.062.113-.1.175a2.539 2.539 0 0 1 1.22.474 2.413 2.413 0 0 1 .955 1.8 1.4 1.4 0 0 1 0 .259l-.153 1.663c-.071 1.13-1.088 1.972-2.163 2.863l-.051.042-1.2.957-.019.2a2.558 2.558 0 0 1 1.315 0 2.411 2.411 0 0 1 1.529 1.333 1.417 1.417 0 0 1 .092.242l.458 1.621a2.947 2.947 0 0 1-.252 2.009c-.2.437-.458.933-.78 1.5l-.76 1.3.025.1.027.1a2.551 2.551 0 0 1 1.205-.468 2.419 2.419 0 0 1 1.922.672 1.488 1.488 0 0 1 .186.2l1 1.332c.711.882.526 2.185.331 3.563l-.011.078-.219 1.531.123.163a2.54 2.54 0 0 1 .965-.881 2.427 2.427 0 0 1 2.023-.06 1.545 1.545 0 0 1 .251.125l1.406.882a2.857 2.857 0 0 1 1.189 1.681 14.415 14.415 0 0 1 .428 1.633c.115.5.226 1.019.306 1.411l.019.046c.05.035.1.071.16.108a2.545 2.545 0 0 1 .591-1.179 2.413 2.413 0 0 1 1.877-.776 1.479 1.479 0 0 1 .249.024l1.64.3a2.252 2.252 0 0 1 1.063.493 4.206 4.206 0 0 1 .638.627c.164.193.336.422.528.7.142.194.306.429.465.667l.833 1.265.2.04a2.547 2.547 0 0 1 .119-1.3 2.429 2.429 0 0 1 1.452-1.411 1.432 1.432 0 0 1 .272-.078l1.636-.3c1.106-.246 2.187.5 3.329 1.292l1.31.932.2-.032a2.563 2.563 0 0 1-.354-1.249 2.423 2.423 0 0 1 .851-1.85 1.36 1.36 0 0 1 .215-.162l1.418-.875c.94-.624 2.214-.323 3.561 0l.088.021 1.482.377.174-.106a2.7 2.7 0 0 1-.522-.554 2.393 2.393 0 0 1-.152-2.483 1.4 1.4 0 0 1 .162-.267l1-1.313a2.828 2.828 0 0 1 1.769-1.032 13.886 13.886 0 0 1 1.676-.28 50.689 50.689 0 0 1 1.438-.175h.045l.129-.163a2.541 2.541 0 0 1-1.117-.7 2.406 2.406 0 0 1-.6-1.941 1.446 1.446 0 0 1 .048-.246l.461-1.62a2.943 2.943 0 0 1 1.268-1.577c.4-.268.88-.554 1.45-.863l1.331-.708.061-.2a2.722 2.722 0 0 1-.756-.058 2.421 2.421 0 0 1-1.794-1.751 1.484 1.484 0 0 1-.055-.287l-.143-1.647a2.846 2.846 0 0 1 .636-1.963zm-20.232 8.387a6.41 6.41 0 1 1 6.406-6.41 6.414 6.414 0 0 1-6.406 6.41zm0-9.927a3.518 3.518 0 1 0 3.515 3.517 3.52 3.52 0 0 0-3.515-3.517z"/>
</svg>
