<svg xmlns="http://www.w3.org/2000/svg" width="17.282" height="47.469" viewBox="0 0 17.282 47.469" class="svg-icon menu_icon3 menu_icon">
    <path d="M17.294 20.178v-4.17c-.125-4.567-.35-5.785-.553-6.375a9.433 9.433 0 0 0-2.87-4.052l-1.226-2.232a1.5 1.5 0 0 0-1.973-.651L9.638.817a1.548 1.548 0 0 0-.925-.748 1.47 1.47 0 0 0-1.17.152l-2.7 1.6a1.583 1.583 0 0 0-.721.965 1.635 1.635 0 0 0 .148 1.209l1.033 1.882a1.578 1.578 0 0 0-.613.885 1.64 1.64 0 0 0 .147 1.209l1.39 2.531c0 .007.009.012.013.019l.012.024C.795 14.785.016 19.807.016 24.627v19.177a3.61 3.61 0 0 0 3.537 3.671h10.201a3.61 3.61 0 0 0 3.537-3.671V20.178zM7.964 4.284l-.266-.486.032-.019.266.486-.016.009zM3.087 27.503l11.136-4.913v7.445L3.087 34.947v-7.444zm6.162-15.239a1.6 1.6 0 0 0 .684-1.052 1.646 1.646 0 0 0-.134-.991l2.725-1.611a5.825 5.825 0 0 1 1.325 2.095 28.865 28.865 0 0 1 .374 5.349v3.073l-11.132 4.91c.048-4.008.733-8.176 6.154-11.773zM3.087 38.411l11.136-4.912v10.3a.474.474 0 0 1-.465.483H3.548a.475.475 0 0 1-.465-.483v-5.39z"/>
</svg>
