<svg xmlns="http://www.w3.org/2000/svg" width="47.687" height="47.125" viewBox="0 0 47.687 47.125" class="svg-icon menu_icon19 menu_icon">
    <path d="M47.565 45.1L32.591 10.4l1.34-5a4.268 4.268 0 0 0-.65-3.776A4.214 4.214 0 0 0 29.827.009H16.96a6.5 6.5 0 0 0-6.02 4.639L.04 45.292a1.46 1.46 0 0 0 .245 1.254 1.44 1.44 0 0 0 1.14.566h20.22a1.437 1.437 0 0 0 1.385-1.067l.613-2.284 1.071 2.483a1.433 1.433 0 0 0 1.316.868h20.221a1.427 1.427 0 0 0 1.2-.651 1.448 1.448 0 0 0 .114-1.361zm-44.269-.868l1.111-4.142h17.25l-1.111 4.142H3.296zm1.885-7.028l1.111-4.142h17.25l-1.111 4.142H5.181zm1.885-7.029l1.11-4.135h17.249l-1.109 4.135H7.066zm1.884-7.021l1.112-4.149h17.25l-1.113 4.149H8.95zm1.887-7.035l1.111-4.142h17.249l-1.111 4.142H10.837zM31.161 4.654l-1.19 4.437H12.722l.988-3.685a3.662 3.662 0 0 1 3.25-2.5h12.867a1.424 1.424 0 0 1 1.176.483 1.444 1.444 0 0 1 .158 1.265zm-.651 13.5a1.44 1.44 0 0 0 .116-.43l.766-2.858 12.671 29.361H26.97l-.949-2.2a1.421 1.421 0 0 0-1.7-.813z"/>
</svg>
