<svg xmlns="http://www.w3.org/2000/svg" width="46.062" height="38.406" viewBox="0 0 46.062 38.406" class="svg-icon menu_icon2 menu_icon">
    <path d="M45.605 15.337a2.734 2.734 0 0 0-3.8-.815l-2.039 1.335v-2.386a1.518 1.518 0 0 0-.76-1.311 1.5 1.5 0 0 0 .71-.869 1.517 1.517 0 0 0-.1-1.157c-2.22-4.312-8.174-7.3-15.091-7.684v-.934a1.507 1.507 0 1 0-3.013 0v.934c-6.917.382-12.871 3.372-15.091 7.683a1.518 1.518 0 0 0 .611 2.027 1.515 1.515 0 0 0-.76 1.311v2.386l-2.039-1.334a2.732 2.732 0 0 0-3.8.814 2.779 2.779 0 0 0 .419 3.519l5.418 5.151v5.776a8.59 8.59 0 0 0 8.546 8.613h16.4a8.59 8.59 0 0 0 8.547-8.613v-5.776l5.417-5.15a2.781 2.781 0 0 0 .425-3.52zm-36.508-3.8c1.846-3.584 7.572-6.088 13.924-6.088s12.078 2.5 13.924 6.088a1.512 1.512 0 0 0 .324.42h-28.5a1.493 1.493 0 0 0 .328-.42zm27.658 3.457v14.794a5.562 5.562 0 0 1-5.534 5.577h-16.4a5.561 5.561 0 0 1-5.533-5.577V14.992h27.467zm-30.48 4.844l-1.2-1.14 1.2.785v.354zm33.493-.355l1.2-.785-1.2 1.14v-.355z"/>
</svg>
