<svg xmlns="http://www.w3.org/2000/svg" width="34.5" height="40.281" viewBox="0 0 34.5 40.281" class="svg-icon menu_icon14 menu_icon">
    <path d="M33.977 33.996V23.052a5.686 5.686 0 0 0-1.217-3.5v-8.795a4.469 4.469 0 0 0-1.686-3.5L23.3 1.017A4.616 4.616 0 0 0 20.423.009h-3a4.583 4.583 0 0 0-3.466 1.574l-2.284 2.633h-.213v-1.5A2.725 2.725 0 0 0 8.722.011H5.071a2.725 2.725 0 0 0-2.739 2.705v1.865A3.3 3.3 0 0 0 .507 7.522v26.475a2.687 2.687 0 0 0-.485 2.033l.336 1.992a2.719 2.719 0 0 0 2.7 2.26h28.363a2.719 2.719 0 0 0 2.7-2.26l.337-1.994a2.688 2.688 0 0 0-.481-2.032zM12.525 7.221a1.521 1.521 0 0 0 1.445-1.032l2.3-2.651a1.528 1.528 0 0 1 1.155-.525h3a1.542 1.542 0 0 1 .959.336l7.773 6.24a1.486 1.486 0 0 1 .563 1.166v6.312l-.609-.442v-4.652a3.28 3.28 0 0 0-1.2-2.54l-6.144-5.052a3.381 3.381 0 0 0-2.142-.766h-.8a3.354 3.354 0 0 0-2.785 1.472l-.675 1a1.492 1.492 0 0 0-.255.833v1.5H7.504a1.5 1.5 0 1 0 0 3h8.228a3.357 3.357 0 0 1 1.985.644l12.1 8.8c.063.045.123.093.181.143a1.508 1.508 0 0 0 .31.318 2.693 2.693 0 0 1 .624 1.716v10.016H3.552V7.521a.3.3 0 0 1 .3-.3h8.668zm13.542 7.19l-6.542-4.758a6.408 6.408 0 0 0-1.369-.76V7.375l.42-.621a.3.3 0 0 1 .253-.134h.8a.3.3 0 0 1 .194.07l6.139 5.052a.3.3 0 0 1 .109.231v2.438zM5.378 3.011H8.42v1.2H5.378v-1.2zM3.32 37.281l-.2-1.2h28.253l-.2 1.2H3.32z"/>
</svg>
