<svg xmlns="http://www.w3.org/2000/svg" width="51.82" height="44.562" viewBox="0 0 51.82 44.562" class="svg-icon menu_icon4 menu_icon">
    <path d="M47.28 30.016a1.709 1.709 0 0 1-2.04 1.307 1.669 1.669 0 0 1-1.07-.754 1.693 1.693 0 0 1-.23-1.3l3.9-17.688-25.39 6.138 2.96 10.567 14.65 2.533a1.721 1.721 0 0 1 1.4 1.987 1.708 1.708 0 0 1-1.69 1.427 1.758 1.758 0 0 1-.29-.025l-15.71-2.716a1.711 1.711 0 0 1-1.36-1.229l-3.75-13.327a1.737 1.737 0 0 1 .18-1.336 1.7 1.7 0 0 1 1.07-.8l.69-.168c.91-3.218 4.21-12.777 11.87-14.424 7.55-1.619 13.36 5.266 15.25 7.871l1.99-.481a1.713 1.713 0 0 1 2.07 2.043zM33.19 3.569c-4.71 1.014-7.44 6.689-8.67 10.115l19.53-4.72c-2.07-2.487-6.18-6.401-10.86-5.395zm6.73 32.088a6.257 6.257 0 1 1-.55 3.4l-19.03-4.119a1.711 1.711 0 0 1-1.27-1.17l-5.96-19.231h-1.65a1.726 1.726 0 0 1-1.69 1.429H1.73a1.713 1.713 0 0 1-1.71-1.72v-2.857a1.713 1.713 0 0 1 1.71-1.72h8.04a1.726 1.726 0 0 1 1.69 1.429h2.91a1.71 1.71 0 0 1 1.64 1.209l6.03 19.481zm5.65 5.478a2.83 2.83 0 1 0-2.1-4.708l.92.2a1.721 1.721 0 0 1-.37 3.4 1.7 1.7 0 0 1-.36-.039l-.41-.09a2.812 2.812 0 0 0 2.32 1.237z"/>
</svg>
