<svg xmlns="http://www.w3.org/2000/svg" width="56.813" height="41.875" viewBox="0 0 56.813 41.875" class="svg-icon menu_icon21 menu_icon">
    <path d="M56.513 17.212a2.713 2.713 0 0 1-1.946 1.418l-3.944.743a13.273 13.273 0 0 1 .351 2.749v7.7a6.3 6.3 0 0 1-3.915 5.847 1.515 1.515 0 0 1 .293.892v1.388a3.909 3.909 0 0 1-3.89 3.92H40.92a3.909 3.909 0 0 1-3.89-3.92v-1.388a1.508 1.508 0 0 1 .065-.417H19.714a1.473 1.473 0 0 1 .066.417v1.388a3.909 3.909 0 0 1-3.89 3.92h-2.546a3.909 3.909 0 0 1-3.89-3.92v-1.388a1.515 1.515 0 0 1 .293-.892 6.3 6.3 0 0 1-3.915-5.847v-7.7a13.206 13.206 0 0 1 .351-2.749l-3.945-.743a2.713 2.713 0 0 1-1.945-1.418 2.743 2.743 0 0 1 0-2.419L.941 13.4a4.179 4.179 0 0 1 3.571-2.286h2.972a3.015 3.015 0 0 1 1.287.286l2.917-8.866A3.8 3.8 0 0 1 15.154.013h26.5a3.793 3.793 0 0 1 3.466 2.522l2.917 8.865a3.012 3.012 0 0 1 1.287-.286h2.972a4.179 4.179 0 0 1 3.571 2.286l.648 1.393a2.747 2.747 0 0 1-.002 2.419zM7.527 15.423v-1.23a.045.045 0 0 0-.044-.044H4.511a1.2 1.2 0 0 0-.845.541l-.48 1.03 4.582.864a1.487 1.487 0 0 1 .241-.046 1.513 1.513 0 0 1-.482-1.115zm32.517 21.134v1.388a.883.883 0 0 0 .879.885h2.542a.883.883 0 0 0 .879-.885v-1.388a1.473 1.473 0 0 1 .066-.417h-4.43a1.472 1.472 0 0 1 .064.417zm-27.572 0v1.388a.883.883 0 0 0 .879.885h2.542a.883.883 0 0 0 .878-.885v-1.388a1.508 1.508 0 0 1 .065-.417h-4.432a1.508 1.508 0 0 1 .065.417zm-1.128-3.549a3.179 3.179 0 0 0 .763.1h32.59a3.194 3.194 0 0 0 .764-.1 3.272 3.272 0 0 0 2.069-1.561c-.017.011-.035.019-.052.029a3.187 3.187 0 0 1-.281.155c-.029.014-.058.029-.088.042a3.138 3.138 0 0 1-.368.141l-.063.016a3.142 3.142 0 0 1-.336.075c-.036.006-.072.012-.108.016a3.137 3.137 0 0 1-.413.031h-6.006a3.1 3.1 0 0 1-.336-.019c-.037 0-.073-.012-.11-.017-.072-.011-.144-.02-.214-.036-.043-.009-.084-.023-.126-.035-.061-.016-.123-.031-.183-.052-.044-.015-.086-.034-.13-.052s-.109-.042-.162-.067-.084-.045-.127-.068-.1-.053-.146-.083-.08-.056-.12-.084-.09-.063-.133-.1-.073-.065-.11-.1-.081-.072-.118-.112l-.1-.112c-.034-.038-.055-.059-.08-.091 0 .008-.011.015-.017.023l-.033.046a2.252 2.252 0 0 1-.215.262c-.017.018-.033.037-.051.054a2.175 2.175 0 0 1-.286.238c-.021.015-.044.028-.065.042a2.143 2.143 0 0 1-.3.165l-.047.023a2.2 2.2 0 0 1-.364.114l-.087.017a2.185 2.185 0 0 1-.4.041H21.051a2.185 2.185 0 0 1-.4-.041l-.087-.017a2.2 2.2 0 0 1-.364-.114l-.047-.023a2.143 2.143 0 0 1-.3-.165c-.022-.014-.044-.027-.065-.042a2.235 2.235 0 0 1-.286-.237l-.052-.056a2.2 2.2 0 0 1-.212-.259c-.012-.017-.025-.032-.036-.049s-.011-.014-.016-.022c-.026.033-.056.063-.083.1s-.062.073-.1.107-.081.078-.122.116l-.107.1c-.037.034-.09.067-.136.1s-.076.056-.116.081-.1.058-.15.085-.081.046-.124.067-.109.046-.165.068-.084.036-.127.051c-.06.021-.122.036-.184.053-.042.011-.083.025-.125.034a2.605 2.605 0 0 1-.215.036c-.037 0-.072.013-.109.017a3.1 3.1 0 0 1-.336.019h-6.006a3.137 3.137 0 0 1-.413-.031c-.036 0-.072-.01-.108-.016a3.142 3.142 0 0 1-.336-.075l-.063-.016a3.223 3.223 0 0 1-.369-.141l-.087-.042a2.973 2.973 0 0 1-.282-.156c-.017-.01-.035-.017-.051-.028a3.272 3.272 0 0 0 2.072 1.555zm34.64-4.255v-1.478a.166.166 0 0 0-.163-.164h-4.457a.993.993 0 0 0-.7.451.558.558 0 0 0-.045.1l-.4 1.26h5.608a.166.166 0 0 0 .16-.169zm-11.019.164v-1.809H21.844v1.809H34.97zm-18.375 0l-.4-1.261a.965.965 0 0 0-.747-.548h-4.457a.166.166 0 0 0-.163.164v1.481a.166.166 0 0 0 .163.164h5.607zm31.369-6.8a10.192 10.192 0 0 0-.411-2.566l-.34-1.032a1.519 1.519 0 0 1 .353-1.538 1.35 1.35 0 0 1 .054-.053 1.5 1.5 0 0 1-1.269-1.032L42.262 3.484a.82.82 0 0 0-.608-.442h-26.5a.817.817 0 0 0-.608.442l-4.083 12.412a1.507 1.507 0 0 1-1.271 1.032l.055.053a1.519 1.519 0 0 1 .352 1.538l-.339 1.033a10.177 10.177 0 0 0-.411 2.565v2.788c.021-.019.044-.036.066-.055l.1-.086a2.73 2.73 0 0 1 .131-.1l.11-.077a4.04 4.04 0 0 1 .257-.152c.04-.021.1-.05.15-.073s.08-.038.121-.055.107-.041.161-.06.082-.03.124-.043.116-.031.174-.045c.041-.01.081-.021.122-.03.066-.013.133-.021.2-.03.035 0 .069-.012.105-.016.1-.01.208-.016.314-.016h4.46a3.415 3.415 0 0 1 .474.037c.022 0 .045 0 .067.009a3.765 3.765 0 0 1 .442.1l.08.025a3.83 3.83 0 0 1 .425.162l.064.031a4.151 4.151 0 0 1 .42.228l.009.007a4.01 4.01 0 0 1 .386.278l.051.04a4.333 4.333 0 0 1 .335.315l.058.063a3.715 3.715 0 0 1 .288.352l.043.061a4.054 4.054 0 0 1 .246.4v.005c0-.061.018-.119.026-.179s.016-.134.03-.2.045-.151.07-.226.039-.123.065-.182a2.181 2.181 0 0 1 .112-.208c.031-.054.059-.111.1-.162a2.2 2.2 0 0 1 .151-.184c.04-.046.076-.1.12-.138a2.176 2.176 0 0 1 .187-.156c.046-.036.089-.077.138-.11a2.313 2.313 0 0 1 .224-.123c.05-.025.1-.056.149-.078a2.26 2.26 0 0 1 .272-.085c.046-.013.09-.032.138-.042a2.2 2.2 0 0 1 .44-.045h14.708a2.211 2.211 0 0 1 .44.045c.048.01.092.029.139.042a2.244 2.244 0 0 1 .271.085c.052.022.1.053.149.079a2.3 2.3 0 0 1 .224.122c.049.033.092.074.138.111a2.135 2.135 0 0 1 .187.155c.044.043.081.092.121.139s.105.118.15.183.064.108.095.163a2.165 2.165 0 0 1 .112.207c.026.059.044.121.065.183a2.166 2.166 0 0 1 .069.225c.015.065.021.133.03.2s.024.117.027.178a3.65 3.65 0 0 1 .247-.405l.041-.059a3.774 3.774 0 0 1 .29-.355l.056-.059a3.886 3.886 0 0 1 .337-.317l.049-.039a4.13 4.13 0 0 1 .389-.281h.006a3.9 3.9 0 0 1 .421-.229l.064-.031a4.039 4.039 0 0 1 .425-.162c.027-.009.053-.017.08-.024a3.552 3.552 0 0 1 .443-.1l.065-.009a3.442 3.442 0 0 1 .475-.037h4.457c.106 0 .211.006.314.016.036 0 .07.011.105.015.067.009.135.018.2.032.04.008.079.019.118.028.06.015.12.029.178.047.041.012.081.027.121.042s.11.038.163.06.081.036.121.055.1.047.15.073.078.044.117.066.094.056.14.086l.111.078c.044.031.087.063.129.1s.071.058.105.088.044.035.064.054v-2.788zm5.182-7.433a1.2 1.2 0 0 0-.845-.54h-2.972a.045.045 0 0 0-.044.044v1.23a.607.607 0 1 0-.241 1.161l4.582-.864zm-8.527 4.288H12.193a1.508 1.508 0 0 1-1.221-.628 1.535 1.535 0 0 1-.209-1.366l3.752-11.4a2.4 2.4 0 0 1 2.224-1.619h23.332a2.4 2.4 0 0 1 2.224 1.618l3.751 11.4a1.529 1.529 0 0 1-.208 1.365 1.507 1.507 0 0 1-1.221.633zM39.586 6.993H17.221l-2.943 8.945h28.254z"/>
</svg>
