<svg xmlns="http://www.w3.org/2000/svg" width="56.97" height="33.219" viewBox="0 0 56.97 33.219" class="svg-icon menu_icon16 menu_icon">
    <path d="M55.47 12.848a3.727 3.727 0 0 1-1.57-.349 2.953 2.953 0 0 1 .46 1.716 3.033 3.033 0 0 1-.97 2.048l-7.66 11.13a5.408 5.408 0 0 1-4.02 1.983H2.65a1.515 1.515 0 0 1-1.3-2.3s.22-.381.65-1.043a2.64 2.64 0 0 1 .18-.361 66.216 66.216 0 0 1 9.28-11.791 1.5 1.5 0 0 1-.61-1.207V9.031a1.518 1.518 0 0 1 1.51-1.518h3.15a1.518 1.518 0 0 1 1.51 1.518v.075a29.416 29.416 0 0 1 6.46-3.586c.29-.112.58-.219.87-.324l.26-.092c.22-.075.43-.148.64-.218l.27-.089c.24-.08.49-.157.73-.23l.14-.044c.3-.09.6-.174.89-.254l.2-.052c.22-.061.46-.121.69-.179l.24-.059c.25-.058.48-.112.72-.165l.16-.036a36.74 36.74 0 0 1 1.79-.339l.19-.029c.25-.039.5-.076.74-.11l.15-.02q.915-.121 1.8-.192l.09-.008c.26-.02.53-.037.8-.052l.11-.006c.88-.044 1.77-.052 2.64-.025h.05c.31.011.6.024.87.042a26.8 26.8 0 0 1 3.98.546l1.67-1.948a1.518 1.518 0 0 1 1.97-.282l.16.1a4.838 4.838 0 0 1 3.5-1.477 4.945 4.945 0 0 1 4.93 4.951v4.126a.743.743 0 0 0 .74.746 1.524 1.524 0 0 1 0 3.047zm-41.25-2.294h-.35v1.069q.375-.322.75-.639a1.464 1.464 0 0 1-.4-.43zm15.5-.139l-.1.039c-.42.161-.85.327-1.3.49a15.007 15.007 0 0 0-4.83 2.769 2.748 2.748 0 0 0-1.1 1.586 3.2 3.2 0 0 0 2.18.487 15.454 15.454 0 0 0 5.14-1.04c.45-.165.89-.322 1.32-.474l.08-.031c2.07-.735 4.21-1.5 4.65-2.427a1.906 1.906 0 0 0-.11-1.417c-.46-1.267-1.03-1.267-1.49-1.267a15.2 15.2 0 0 0-4.44 1.285zm14.5-3.192a21.531 21.531 0 0 0-5.89-1.148q-.375-.024-.75-.037h-.08a29.03 29.03 0 0 0-2.39.023l-.09.006c-.2.01-.4.024-.6.038a4.382 4.382 0 0 1 4.07 3.248 4.7 4.7 0 0 1 0 3.755c-.97 2.078-3.47 2.967-6.36 4l-.08.026c-.42.15-.85.3-1.29.467a18.629 18.629 0 0 1-6.19 1.227c-3.58 0-4.68-1.556-5.02-2.483-.55-1.5.13-3.231 1.9-4.864A17.936 17.936 0 0 1 27.28 8.1c.45-.165.89-.332 1.31-.5l.05-.019a29.535 29.535 0 0 1 3.83-1.275l-.05.008c-.22.031-.45.065-.68.1l-.17.027q-.39.063-.78.136c-.3.058-.58.114-.86.174l-.16.034-.65.151-.23.056c-.21.052-.43.107-.64.164l-.18.049q-.4.109-.81.231l-.13.041c-.23.069-.45.138-.68.211l-.26.085c-.19.064-.38.132-.58.2l-.24.088c-.27.094-.53.193-.8.3-9.42 3.655-17.14 14.753-19.23 17.983h36.37a2.4 2.4 0 0 0 1.56-.715l7.74-11.247a1.486 1.486 0 0 1 .29-.308zm7.49 1.843V4.94a1.917 1.917 0 0 0-1.91-1.915 1.868 1.868 0 0 0-.85.21 1.493 1.493 0 0 1 .41.846 1.549 1.549 0 0 1-.35 1.209L47.9 6.576l4.1 3.962a3.789 3.789 0 0 1-.29-1.472zm-8.58 21.109a1.518 1.518 0 0 1 0 3.035H1.52a1.518 1.518 0 0 1 0-3.035h41.61z"/>
</svg>
