<svg xmlns="http://www.w3.org/2000/svg" width="52.44" height="49.718" viewBox="0 0 52.44 49.718" class="svg-icon menu_icon12 menu_icon">
    <path d="M52.43 42.319v-.116a9.113 9.113 0 0 0-1.74-4.728 5 5 0 0 0-2.65-1.557 3.828 3.828 0 0 1-1.21-.517c-.71-.578-.69-1.7-.67-3a12.778 12.778 0 0 0-.05-1.953 47.448 47.448 0 0 0-.92-4.97c-.36-1.5-.8-2.986-1.24-4.445-.22-.735-.44-1.47-.65-2.21a.932.932 0 0 1 .52-1.231h1.36a5.8 5.8 0 0 0 5.8-5.793V5.786a5.8 5.8 0 0 0-5.8-5.793H22.07a5.768 5.768 0 0 0-3.94 1.554l-6.76.805c-.03 0-.06.012-.1.016a.052.052 0 0 1-.02 0 5.152 5.152 0 0 0-4.31 4.965v.104H1.36a1.357 1.357 0 1 0 0 2.714h5.58v.1a5.154 5.154 0 0 0 4.31 4.966.042.042 0 0 1 .02 0c.04 0 .07.012.1.016l6.76.806a5.768 5.768 0 0 0 3.94 1.554h2.96v2.644a3.14 3.14 0 0 0 3.14 3.132h1.31a1.342 1.342 0 0 0 1.21.837 1.85 1.85 0 0 1 2.09 1.769 39.2 39.2 0 0 0 1.25 8.035 1.659 1.659 0 0 1 .08 1.2.653.653 0 0 1-.36.229h-5.04c-.09 0-.19 0-.32-.011a7.173 7.173 0 0 0-5.6 1.936 6.361 6.361 0 0 0-2.4 5.052v4.164a3.14 3.14 0 0 0 3.14 3.132H49.3a3.14 3.14 0 0 0 3.14-3.132v-4.177c0-.031-.01-.057-.01-.084zm-3.13 4.674H23.53a.42.42 0 0 1-.42-.417v-2.82h26.61v2.82a.42.42 0 0 1-.42.417zm-21.04-8.858c.17.008.32.015.45.015h5.18a1.267 1.267 0 0 0 .17-.011 3.424 3.424 0 0 0 2.34-1.471 4.01 4.01 0 0 0 .22-3.5 37.406 37.406 0 0 1-1.12-7.318 4.529 4.529 0 0 0-3.41-4.186v-4.067h8.52a3.921 3.921 0 0 0 .07 1.969c.22.761.45 1.518.67 2.275.42 1.395.86 2.837 1.19 4.266a44.694 44.694 0 0 1 .87 4.682 11.286 11.286 0 0 1 .04 1.571c-.03 1.665-.07 3.737 1.67 5.149a5.964 5.964 0 0 0 2.11 1 2.619 2.619 0 0 1 1.33.661 5.078 5.078 0 0 1 .88 1.835H23.38a4.833 4.833 0 0 1 1.23-1.626 4.456 4.456 0 0 1 3.65-1.242zm-.51-20.538h1.62v3.052h-1.2a.42.42 0 0 1-.42-.417v-2.635zM9.65 7.343a2.265 2.265 0 0 1 .52-1.39v5.684a2.265 2.265 0 0 1-.52-1.39V7.339zm3.24-2.434l3.53-.421a5.6 5.6 0 0 0-.15 1.3v6.013a5.6 5.6 0 0 0 .15 1.3l-3.53-.421V4.904zm6.1 6.9V5.796a3.082 3.082 0 0 1 3.08-3.079h.27v12.17h-.27a3.082 3.082 0 0 1-3.08-3.083zm24.48-8.192a4.745 4.745 0 0 1-1.36 3.906 1.347 1.347 0 0 1 0 2.548 1.348 1.348 0 0 1 0 2.549 1.36 1.36 0 0 0 1.36 1.357h3.89a3.077 3.077 0 0 1-2.18.9H25.06V2.707h20.12a3.077 3.077 0 0 1 2.18.905h-3.89z"/>
</svg>
