<svg xmlns="http://www.w3.org/2000/svg" width="37.437" height="34.562" viewBox="0 0 37.437 34.562" class="svg-icon menu_icon8 menu_icon">
    <path d="M36.812.628a2.13 2.13 0 0 0-1.554-.615c-3.847 0-13.956 10.112-15.1 11.265a107.9 107.9 0 0 0-5.254 5.7l-.027.033-.014.016-.121.143-.009.014-.27.323-.028.028-.181.217c-.009.011-.015.023-.023.034l-.241.29a.068.068 0 0 0-.012.012l-.15.182a46.63 46.63 0 0 0-.383.475l-.148.185-.008.012-.237.3-.008.009-.13.167-.021.026q-.156.2-.306.4l-.128.167a31.86 31.86 0 0 0-.276.367v.006l-.123.165s0 .009-.007.013l-.214.292v.006l-.087.12-.025.033c-.1.145-.205.287-.3.43l-.067.1a4.834 4.834 0 0 0-.976-.11 4.523 4.523 0 0 0-2.349.649 6.722 6.722 0 0 0-2.641 3.441 6.922 6.922 0 0 1-.933 1.69 1.177 1.177 0 0 1-.1.1 20.957 20.957 0 0 1-2.605 1.743c-.393.217-.7.376-.832.443l-.071.036a1.507 1.507 0 0 0-.23.144.9.9 0 0 0-.06.048 1.457 1.457 0 0 0-.162.152l-.034.036a1.593 1.593 0 0 0-.155.218l-.028.052a1.444 1.444 0 0 0-.1.223c0 .008-.009.016-.012.025s0 .008 0 .012a1.582 1.582 0 0 0-.062.266c0 .025 0 .05-.007.075s-.009.071-.01.108 0 .059 0 .088v.09a1.455 1.455 0 0 0 .042.256c0 .014.009.027.012.04a1.568 1.568 0 0 0 .083.223c.006.012.008.024.014.035a.33.33 0 0 0 .023.041 1.571 1.571 0 0 0 .159.245 1.484 1.484 0 0 0 .111.127l.019.017a1.524 1.524 0 0 0 .149.13l.009.007a1.541 1.541 0 0 0 .161.106l.017.011c1.274.723 1.427.8 1.484.825a14.19 14.19 0 0 0 3.743 1.281c.176.031.353.056.554.08l.126.011c.129.013.258.023.4.031h.007l.147.006h.544c.133 0 .266-.011.436-.024l.088-.007c.159-.015.319-.035.484-.059h.046c.18-.028.358-.062.554-.106l.066-.016.03-.007c.132-.031.262-.064.411-.107l.026-.008.132-.039a9.95 9.95 0 0 0 .333-.11l.024-.009h.008l.035-.013c.063-.023.131-.047.22-.082h.013a.017.017 0 0 0 .006 0 6.812 6.812 0 0 0 1.408-.723l.013-.007a.388.388 0 0 1 .033-.023l.033-.022h.006a8.088 8.088 0 0 0 3.17-3.914 5.78 5.78 0 0 0 .349-2.591l.9-.622-.01-.014.017-.012.151-.112.011-.009.273-.2.015-.01.18-.136.353-.271.185-.144.02-.02.306-.243c.017-.013.035-.022.052-.035l.194-.156a.8.8 0 0 0 .061-.055l.226-.18.025-.016.188-.154c.152-.123.3-.249.468-.385l.179-.15a.052.052 0 0 0 .01-.011l.294-.249c.01-.009.022-.015.032-.023l.209-.178c.009-.008.015-.018.024-.026l.326-.277a.121.121 0 0 1 .014-.01l.121-.1.038-.033.03-.025c1.839-1.6 3.735-3.388 5.636-5.31a87 87 0 0 0 8.418-9.7c2.775-3.855 3.389-5.927 2.145-7.183zM9.589 24.783a1.706 1.706 0 0 1 1.678.019 2.6 2.6 0 0 1 .865.725 2.567 2.567 0 0 1 .419.842 2.714 2.714 0 0 1-.046 1.743 5.046 5.046 0 0 1-1.394 2 5.218 5.218 0 0 1-.621.462q-.22.141-.45.258l-.053.025a5.46 5.46 0 0 1-.419.189l-.18.066a7.06 7.06 0 0 1-.206.068h-.006l-.113.035a4.766 4.766 0 0 1-.263.067l-.066.017a5.56 5.56 0 0 1-.664.104l-.1.007a5.022 5.022 0 0 1-.25.014h-.471c-.084 0-.169-.012-.258-.021h-.09a5.71 5.71 0 0 1-.341-.049 9.739 9.739 0 0 1-1.726-.488l.053-.036c.12-.079.237-.157.348-.234l.083-.058c.11-.077.215-.152.315-.227l.1-.074q.144-.109.273-.216l.1-.078c.114-.1.222-.19.318-.282a4.865 4.865 0 0 0 .376-.392 9.68 9.68 0 0 0 1.4-2.441 3.93 3.93 0 0 1 1.389-2.045zm7.373-2.966l-1.208.963-.325.25-.018.014-.58.434-.222.162-.03-.039-.007-.009a5.654 5.654 0 0 0-.446-.507c-.013-.013-.023-.029-.036-.042l.127-.178.01-.014.81-1.092.283-.367.02-.027.494-.625.014-.017c.1-.127.2-.254.3-.378l1.168 1.181-.354.291zm2.716-2.339l-1.5-1.522a105.055 105.055 0 0 1 4.174-4.468 68.709 68.709 0 0 1 11.17-9.529 67.308 67.308 0 0 1-9.421 11.3 109.747 109.747 0 0 1-4.423 4.219z"/>
</svg>
