<svg xmlns="http://www.w3.org/2000/svg" width="23" height="51.813" viewBox="0 0 23 51.813" class="svg-icon menu_icon6 menu_icon">
    <path d="M22.98 17.58l-2.65 31.786a2.645 2.645 0 0 1-2.6 2.447H5.44a2.661 2.661 0 0 1-2.61-2.447L.19 17.58a7.466 7.466 0 0 1 1.86-5.691 7.108 7.108 0 0 1 3.88-2.227V6.727a1.548 1.548 0 0 1 1.53-1.558h.1V3.116H1.52A1.558 1.558 0 0 1 1.52 0h12.56a1.548 1.548 0 0 1 1.53 1.558v3.611h.1a1.54 1.54 0 0 1 1.52 1.558v2.935a7.04 7.04 0 0 1 3.88 2.227 7.512 7.512 0 0 1 1.87 5.691zM12.56 3.116h-1.95v2.053h1.95V3.116zm1.63 5.169H8.98V9.51h5.21V8.285zm4.68 5.712a4.155 4.155 0 0 0-3.14-1.37H7.44a4.155 4.155 0 0 0-3.14 1.37 4.316 4.316 0 0 0-1.07 3.319l2.6 31.38h11.5l2.61-31.38a4.394 4.394 0 0 0-1.07-3.319zM5.26 29.019a6.327 6.327 0 1 1 6.32 6.472 6.4 6.4 0 0 1-6.32-6.472zm9.6 0a3.281 3.281 0 1 0-3.28 3.356 3.322 3.322 0 0 0 3.28-3.356z"/>
</svg>
