<svg xmlns="http://www.w3.org/2000/svg" width="23" height="40.25" viewBox="0 0 23 40.25" class="svg-icon menu_icon17 menu_icon">
    <path d="M20.52 5.345V1.258a1.291 1.291 0 0 0-1.31-1.265H3.8a1.285 1.285 0 0 0-1.31 1.265v4.087a2.651 2.651 0 0 0 .26 5.295h2.61v5.278a2.8 2.8 0 0 0-1.21 2.242A2.484 2.484 0 0 0 5 20.047a2.28 2.28 0 0 0 .36.269v2.964a2.8 2.8 0 0 0-1.21 2.242A2.484 2.484 0 0 0 5 27.409a2.22 2.22 0 0 0 .36.269v3.182a2.8 2.8 0 0 0-1.21 2.243A2.484 2.484 0 0 0 5 34.989a2.343 2.343 0 0 0 .36.269v2.533a2.5 2.5 0 0 0 2.54 2.448h7.21a2.5 2.5 0 0 0 2.53-2.448v-3.358a2.776 2.776 0 0 0 1.21-2.242 2.513 2.513 0 0 0-.84-1.887 2.9 2.9 0 0 0-.37-.263v-3.188a2.776 2.776 0 0 0 1.21-2.242 2.51 2.51 0 0 0-.84-1.887 3 3 0 0 0-.37-.263v-2.97a2.776 2.776 0 0 0 1.21-2.242 2.506 2.506 0 0 0-.84-1.886 2.812 2.812 0 0 0-.37-.264V10.64h2.62a2.651 2.651 0 0 0 .26-5.295zM7.98 25.435v-.233l7.04-.5v.233zm8.25 6.756a.278.278 0 0 1-.24.251l-9.22.661a.279.279 0 0 1 .25-.252zm-8.25 3.392l7.04-.531v2.657H7.98v-2.126zm7.04-6.854v.981l-7.04.531v-2.238l7.04-.531v1.257zm-7.04-6.068v-2.02l7.04-.531v2.02zM16.33 8.11H2.75a.13.13 0 1 1 0-.26h17.51a.13.13 0 0 1 0 .26h-3.93zM14 5.32H9v-2.8h5v2.8zm3.9 0h-1.28v-2.8h1.28v2.8zM5.11 2.52h1.27v2.8H5.11v-2.8zm10 15.04l-7.48.536a1.31 1.31 0 0 0-.27-.215l7.87-.563a1.114 1.114 0 0 0-.12.245zm-.09-2.795l-7.04.531v-4.659h7.04v4.128z"/>
</svg>
