<svg xmlns="http://www.w3.org/2000/svg" width="38.812" height="37.437" viewBox="0 0 38.812 37.437" class="svg-icon menu_icon7 menu_icon">
    <path d="M38.691 15.942l-5.2-12.084a1.544 1.544 0 0 0-1-1.053L26.172.138a1.569 1.569 0 0 0-.613-.124H13.258a1.569 1.569 0 0 0-.611.123L6.23 2.846a1.529 1.529 0 0 0-.818.808L.123 15.942a1.51 1.51 0 0 0 .688 1.937l5.378 2.877a1.57 1.57 0 0 0 2.051-.522v15.664a1.541 1.541 0 0 0 1.552 1.527h19.239a1.541 1.541 0 0 0 1.552-1.527v-15.65a1.57 1.57 0 0 0 2.042.508l5.378-2.877a1.51 1.51 0 0 0 .688-1.937zm-10.179-3.583v.535a1.527 1.527 0 0 0-1.035 1.439v20.038H11.344V14.315a1.527 1.527 0 0 0-1.035-1.439v-.536l-.263.469a1.56 1.56 0 0 0-1.613.768l-2.116 3.772-2.787-1.491L8.03 5.41l4.154-1.753a7.544 7.544 0 0 0 14.452 0l4.152 1.749 4.5 10.451-2.788 1.491-2.106-3.753a1.561 1.561 0 0 0-1.614-.769zm-9.107-6.381a4.437 4.437 0 0 1-4.157-2.91h8.314a4.437 4.437 0 0 1-4.15 2.91z"/>
</svg>
