<svg xmlns="http://www.w3.org/2000/svg" width="53.219" height="46" viewBox="0 0 53.219 46" class="svg-icon menu_icon13 menu_icon">
    <path d="M52.712 18.351L49.4 15.07a1.745 1.745 0 0 0-1.236-.507 1.787 1.787 0 0 0-.451.065 5.616 5.616 0 0 1-2.091-2.212 6.848 6.848 0 0 1-.542-1.4l-.089-.341a7.326 7.326 0 0 0-1.133-2.688A19.218 19.218 0 0 0 33.704.76a20.618 20.618 0 0 0-5.74-.767 30.335 30.335 0 0 0-10.013 1.8 1.744 1.744 0 0 0-1.1 1.478l-.143 1.823a1.719 1.719 0 0 0 .534 1.386 1.743 1.743 0 0 0 1.421.468 38.826 38.826 0 0 1 4.618-.307c3.381 0 5.719.594 6.971 1.765a48.647 48.647 0 0 1-4.289 4.092c-.016.014-.028.032-.044.047s-.032.023-.046.037l-24.77 24.54a3.733 3.733 0 0 0 0 5.306l2.51 2.487a3.818 3.818 0 0 0 5.357 0l24.769-24.54c.025-.024.043-.053.066-.079s.045-.04.064-.064c1.118-1.385 2.718-2.47 3.642-2.47.888 0 2.042.971 2.826 1.878.19.221.68.879 1.006 1.36a1.718 1.718 0 0 0 .475 1.578l3.312 3.281a1.758 1.758 0 0 0 2.472 0l5.11-5.062a1.721 1.721 0 0 0 0-2.446zM3.576 39.575L27.109 16.26l2.922 2.894L6.497 42.469a.343.343 0 0 1-.412 0l-2.509-2.486a.292.292 0 0 1 0-.408zM29.66 13.888c4.6-4.117 4.981-5.487 4.062-6.73l-.057-.083c-.525-.778-1.916-2.84-6.52-3.6q.406-.015.819-.015a17.169 17.169 0 0 1 4.758.626 15.739 15.739 0 0 1 8.279 5.9 4.127 4.127 0 0 1 .6 1.548l.094.36a10.254 10.254 0 0 0 .822 2.121 9.087 9.087 0 0 0 2.48 2.969l-1.293 1.28q-.315-.408-.712-.868c-1-1.154-3.033-3.09-5.483-3.091a7.994 7.994 0 0 0-5.046 2.365zm18.5 4.856l.839.832-2.637 2.613-.839-.832z"/>
</svg>
