<svg xmlns="http://www.w3.org/2000/svg" width="46.15" height="45.5" viewBox="0 0 46.15 45.5" class="svg-icon menu_icon11 menu_icon">
    <path d="M45.78 12.701l-.06-.109a3.64 3.64 0 0 1-.25-.644 4.32 4.32 0 0 0-.13-.393 1.169 1.169 0 0 1-.02-.422 15.425 15.425 0 0 0-.08-1.666c-.18-1.847-1.95-3.457-3.85-4.93-.04-.319-.06-.922-.07-1.148-.04-1.284-.1-3.042-1.67-3.356-1.34-.27-2.51.922-3.87 2.3-.32.32-.64.651-.82.8a.55.55 0 0 1-.29.119 6.6 6.6 0 0 0-2.81 1.6c-1.67 1.414-2.82 4.169-3.35 5.685a7.878 7.878 0 0 0-3.71 1.926l-.14-.008a9.63 9.63 0 0 0-6.03 1.624c-4.3 2.546-8.91 9.424-9.4 17.644a24.312 24.312 0 0 0 .72 8.232 4.932 4.932 0 0 1-3.29-1.373c-.74-1.032-.45-3.135.83-5.921 3.12-6.772 3.55-11.477 1.27-13.985-1.09-1.19-3.17-2.327-6.95-.976a2.733 2.733 0 0 0-.25 5.04 2.668 2.668 0 0 0 2.07.108 5.279 5.279 0 0 1 1.12-.286c.09.826-.11 3.265-2.2 7.807-2.21 4.8-2.3 8.65-.28 11.434 2.33 3.219 6.72 3.7 9.13 3.7.44 0 .86-.017 1.24-.047h13.58a3.278 3.278 0 0 0 2.89-1.61 2.5 2.5 0 0 0 1.75 1.249 12.276 12.276 0 0 0 2.69.363c2.74 0 3.55-1.531 3.79-2.444a2.425 2.425 0 0 0-1.04-2.76 1.529 1.529 0 0 1-.53-.559c-.17-.335-.55-1.5-.39-5.057a15.242 15.242 0 0 1 2.1-6.652c2.03-3.553 3.34-6.46 3.17-9.1l-.03-.434a5.522 5.522 0 0 0 3.57-1.658c.21-.182.41-.354.57-.468a2.543 2.543 0 0 0 1.02-3.625zM26.22 39.638h-.45a11 11 0 0 0 1.75-7.737c-.43-3.875-4.42-6.414-4.87-6.691a1.517 1.517 0 0 0-1.58 2.591c.04.019 3.17 1.986 3.44 4.434.18 1.6.21 5.474-3.19 7.4h-.71a1.516 1.516 0 0 0-.83 2.781h-6.16l-.02-.13-.17.022a2.4 2.4 0 0 0 .14-.288 1.551 1.551 0 0 0-.06-1.159 18.794 18.794 0 0 1-1.27-8.961c.43-7.163 4.32-13.076 7.93-15.215a6.663 6.663 0 0 1 4.32-1.209 2.538 2.538 0 0 0 2.21-.652 5.334 5.334 0 0 1 3.05-1.434 1.509 1.509 0 0 0 1.35-1.086c.32-1.056 1.41-4.039 2.71-5.138a3.769 3.769 0 0 1 1.65-.992 3.4 3.4 0 0 0 1.4-.691 13.581 13.581 0 0 0 1.07-1.021c.1-.1.24-.241.39-.394a3.364 3.364 0 0 0 .97 2.671l.23.176c2.45 1.887 2.7 2.652 2.71 2.842a11.759 11.759 0 0 1 .07 1.361 3.691 3.691 0 0 0 .18 1.393c.05.141.08.254.12.365a5.786 5.786 0 0 0 .39.994 8.537 8.537 0 0 0-.78.631c-.81.7-1.3 1.129-2.47.819a1.576 1.576 0 0 0-1.4.261c-.68.528-.85 1.347-.7 3.5.12 1.876-1.02 4.309-2.78 7.384a18.267 18.267 0 0 0-2.5 8.026c-.14 3.236.09 5.326.72 6.576a4.232 4.232 0 0 0 1.03 1.3 6.379 6.379 0 0 1-2.4-.2 8.738 8.738 0 0 1 .25-1.905 10.529 10.529 0 0 0 .26-1.9 11.641 11.641 0 0 0-.68-4.946l-.06-.218a21.367 21.367 0 0 1-.22-4.777 1.514 1.514 0 1 0-2.96-.635 23.665 23.665 0 0 0 .2 5.946 1.635 1.635 0 0 0 .05.225l.1.332a9.39 9.39 0 0 1 .34 5.383c-.06.315-.13.7-.19 1.119a3.368 3.368 0 0 0-2.58-1.153z"/>
</svg>
