<svg xmlns="http://www.w3.org/2000/svg" width="61.625" height="36.82" viewBox="0 0 61.625 36.82" class="svg-icon extra2 ">
    <path d="M50.223 13.24a.971.971 0 0 1 .746.35l4.86 5.9a.929.929 0 0 1 .124 1 .966.966 0 0 1-.87.54h-9.342a.952.952 0 0 1-.962-.95v-5.89a.959.959 0 0 1 .962-.95h4.482zm-3.519 5.9h6.355l-3.294-4h-3.061v4zM35.54 5.22a.95.95 0 1 1 0 1.9h-6.112a.95.95 0 1 1 0-1.9h6.112zm-10.4 0a.95.95 0 1 1 0 1.9H7.271a.95.95 0 1 1 0-1.9h17.873zM1.654 20.18a.956.956 0 0 1 0 1.35 1 1 0 0 1-1.367 0 .956.956 0 0 1 0-1.35 1.021 1.021 0 0 1 1.371 0zm58.991 11.84h-5.8a5.8 5.8 0 0 1-11.431 0H18.206a5.806 5.806 0 0 1-11.433 0h-5.8a.952.952 0 0 1-.962-.95v-6.5a.963.963 0 0 1 1.925 0v5.56h4.835a5.806 5.806 0 0 1 11.433 0h25.213a5.8 5.8 0 0 1 11.431 0h4.837v-9.71l-7.147-8.93h-10.7a.953.953 0 0 1-.963-.95V1.91H1.938v15.23a.963.963 0 0 1-1.925 0V.96A.952.952 0 0 1 .975.01h40.861a.952.952 0 0 1 .962.95v8.63h10.208a.964.964 0 0 1 .756.36l7.643 9.55a.911.911 0 0 1 .207.58v10.99a.953.953 0 0 1-.963.95zm-48.159-4.78a3.835 3.835 0 1 0 3.888 3.83 3.866 3.866 0 0 0-3.884-3.83zm36.644 0a3.835 3.835 0 1 0 3.889 3.83 3.864 3.864 0 0 0-3.885-3.83z"/>
</svg>
