<?xml version="1.0" encoding="UTF-8" standalone="no"?>
<svg
   xmlns:dc="http://purl.org/dc/elements/1.1/"
   xmlns:cc="http://creativecommons.org/ns#"
   xmlns:rdf="http://www.w3.org/1999/02/22-rdf-syntax-ns#"
   xmlns:svg="http://www.w3.org/2000/svg"
   xmlns="http://www.w3.org/2000/svg"
   id="svg7383"
   version="1.1"
   viewBox="0 0 13.229166 13.229167"
   height="50"
   width="50">
  <defs
     id="defs7377">
    <style
       type="text/css"
       id="style7391">
   <![CDATA[
    .fil0 {fill:black}
   ]]>
  </style>
  </defs>
  <metadata
     id="metadata7380">
    <rdf:RDF>
      <cc:Work
         rdf:about="">
        <dc:format>image/svg+xml</dc:format>
        <dc:type
           rdf:resource="http://purl.org/dc/dcmitype/StillImage" />
        <dc:title></dc:title>
      </cc:Work>
    </rdf:RDF>
  </metadata>
  <g
     transform="translate(0,-283.77081)"
     id="layer1">
    <circle
       r="6.6145835"
       cy="290.32602"
       cx="6.6622686"
       id="path7385"
       style="fill:#000000;stroke-width:0.05322079" />
    <circle
       r="6.082376"
       cy="290.35641"
       cx="6.6774788"
       id="path7387"
       style="fill:#ffffff;stroke-width:0.05322079" />
    <path
       style="clip-rule:evenodd;fill:#000000;fill-rule:evenodd;stroke-width:0.05435352;image-rendering:optimizeQuality;shape-rendering:geometricPrecision;text-rendering:geometricPrecision"
       class="fil0"
       d="m 104.85324,147.8045 v -23.86119 h 7.98998 l 1.19577,-9.29444 h -9.18575 v -5.92454 c 0,-2.71766 0.70661,-4.51135 4.56572,-4.51135 h 4.94615 v -8.316099 c -0.86966,-0.10863 -3.80475,-0.38048 -7.17469,-0.38048 -7.12029,0 -11.957753,4.34829 -11.957753,12.283899 v 6.84857 h -8.04432 v 9.29444 h 8.04432 v 23.86119 z"
       id="path7408-5" />
    <path
       style="clip-rule:evenodd;fill:#000000;fill-rule:evenodd;stroke-width:0.01038413;image-rendering:optimizeQuality;shape-rendering:geometricPrecision;text-rendering:geometricPrecision"
       class="fil0"
       d="m 10.076649,293.30418 -0.5192231,0.51921 c -0.9553292,0 -1.9106735,0 -2.8660178,0 -0.9553293,0 -1.9106735,0 -2.8660133,0 l -0.5192126,-0.51921 c 0,-1.05919 0.010492,-2.12875 -0.010342,-3.18793 l 0.3634457,-0.36344 0.3634443,0.40497 c -0.1557685,1.36032 0.7787958,2.66873 2.1183523,2.92834 1.3707048,0.26998 2.7517974,-0.56075 3.1360097,-1.87954 0.1142204,-0.41537 0.1350558,-0.84111 0.051864,-1.25648 l 0.1453986,-0.18692 c 0.6022812,-0.0416 0.6022812,-0.0519 0.6022812,0.57112 0,0.98651 0,1.98338 0,2.96988 z m -3.3748531,-4.55864 c 0.9138082,0 1.6926054,0.7892 1.6822327,1.70301 -0.010492,0.93456 -0.7892,1.71337 -1.7133811,1.69261 -0.9241959,-0.0208 -1.7030081,-0.79958 -1.6822326,-1.72377 0.020684,-0.91381 0.7892,-1.67185 1.713381,-1.67185 z m 2.5129688,-1.69262 c 0.8618843,0 0.8618843,0 0.8618843,0.88265 0,0.84111 0,0.84111 -0.8515115,0.84111 -0.8618844,0 -0.8618844,0 -0.8618844,-0.86187 0,-0.86189 0,-0.86189 0.8515116,-0.86189 z m 0.7061127,-0.98648 c -2.1495169,0 -4.3094067,0 -6.4589283,0 -0.7580488,0 -1.1526458,0.39458 -1.1526458,1.1734 0,1.05919 0,2.12874 0,3.20871 0,1.06955 0,2.14952 0,3.22946 0,0.73727 0.4049832,1.15263 1.1318718,1.15263 2.1599078,0 4.3197977,0 6.4797023,0 0.7476656,0 1.1526366,-0.41536 1.1526366,-1.16302 0,-2.14952 0,-4.29904 0,-6.44855 0,-0.75805 -0.404971,-1.15263 -1.1526366,-1.15263 z"
       id="path7468" />
    <path
       style="clip-rule:evenodd;display:none;fill:#000000;fill-rule:evenodd;stroke-width:0.01156654;image-rendering:optimizeQuality;shape-rendering:geometricPrecision;text-rendering:geometricPrecision"
       class="fil0"
       d="m 7.4117199,296.12077 v -5.07771 h 1.7002807 l 0.254465,-1.97788 H 7.4117199 v -1.26075 c 0,-0.57834 0.1503651,-0.96003 0.9715893,-0.96003 h 1.0525554 v -1.76967 c -0.185065,-0.0232 -0.8096581,-0.081 -1.5267836,-0.081 -1.5152169,0 -2.544639,0.92533 -2.544639,2.61403 v 1.45739 H 3.6525938 v 1.97788 H 5.364442 v 5.07771 z"
       id="path7472" />
    <path
       style="clip-rule:evenodd;display:none;fill:#000000;fill-rule:evenodd;stroke-width:0.01045686;image-rendering:optimizeQuality;shape-rendering:geometricPrecision;text-rendering:geometricPrecision"
       class="fil0"
       d="M 6.3734336,293.30963 H 7.000845 c 0,0 0.188224,-0.0209 0.292792,-0.12548 0.08366,-0.0941 0.08366,-0.27188 0.08366,-0.27188 0,0 -0.01046,-0.847 0.376448,-0.97249 0.386903,-0.12548 0.888833,0.81564 1.411676,1.18163 0.39736,0.27188 0.700609,0.20914 0.700609,0.20914 l 1.411676,-0.0209 c 0,0 0.73198,-0.0418 0.386904,-0.62741 -0.03137,-0.0418 -0.209137,-0.41827 -1.045686,-1.20254 -0.888833,-0.82609 -0.763351,-0.69015 0.292792,-2.10183 0.648325,-0.86792 0.909747,-1.39076 0.826092,-1.62081 -0.0732,-0.20914 -0.554213,-0.15685 -0.554213,-0.15685 l -1.578986,0.0104 c 0,0 -0.125483,-0.0209 -0.209137,0.0314 -0.08366,0.0523 -0.13594,0.17777 -0.13594,0.17777 0,0 -0.250964,0.65878 -0.585584,1.23391 -0.711066,1.19208 -0.993402,1.25482 -1.108427,1.18163 -0.261421,-0.16731 -0.19868,-0.69016 -0.19868,-1.0666 0,-1.16072 0.177766,-1.64173 -0.345077,-1.76721 -0.167309,-0.0418 -0.2927917,-0.0732 -0.7319799,-0.0732 -0.5751272,-0.0105 -1.045686,0 -1.3175642,0.13594 -0.1777666,0.0836 -0.3241627,0.28233 -0.2405078,0.29279 0.1045686,0.0105 0.3450765,0.0627 0.4705588,0.23005 0.1673095,0.23005 0.1568527,0.72152 0.1568527,0.72152 0,0 0.094112,1.36985 -0.2195939,1.53716 -0.2091372,0.11503 -0.5019294,-0.12548 -1.1293409,-1.21299 -0.3241627,-0.55422 -0.5646705,-1.17117 -0.5646705,-1.17117 0,0 -0.052284,-0.11503 -0.1359392,-0.17777 -0.1045686,-0.0732 -0.2405077,-0.0941 -0.2405077,-0.0941 l -1.5057879,0.0105 c 0,0 -0.2300509,0.0104 -0.3137058,0.10457 -0.073198,0.0837 0,0.27187 0,0.27187 0,0 1.1711684,2.75016 2.5096464,4.14092 1.2234527,1.27574 2.6142149,1.19208 2.6142149,1.19208 z"
       id="path7474" />
    <path
       style="clip-rule:evenodd;display:none;fill:#000000;fill-rule:evenodd;stroke-width:0.01158189;image-rendering:optimizeQuality;shape-rendering:geometricPrecision;text-rendering:geometricPrecision"
       class="fil0"
       d="m 6.6240753,286.23449 c 0.6601678,0 1.1929341,0.53276 1.1929341,1.19293 0,0.67175 -0.5327663,1.20452 -1.1929341,1.20452 -0.6601677,0 -1.2045172,-0.53277 -1.2045172,-1.20452 0,-0.66017 0.5443495,-1.19293 1.2045172,-1.19293 z m 1.1697711,6.4627 c 0.5906766,-0.13899 1.1581891,-0.37062 1.6909555,-0.69493 0.393784,-0.2548 0.5096033,-0.77598 0.2663837,-1.16976 -0.2548017,-0.40537 -0.7759871,-0.52119 -1.1813532,-0.26639 -1.1813531,0.74124 -2.7101621,0.74124 -3.9030974,0 -0.393784,-0.2548 -0.9149694,-0.13898 -1.16977,0.26639 -0.2548017,0.39378 -0.1274014,0.91496 0.2663826,1.16976 0.5211855,0.32431 1.088698,0.55594 1.6793745,0.69493 l -1.6214642,1.62146 c -0.3242929,0.33588 -0.3242929,0.86864 0,1.20451 0.1737285,0.16216 0.393784,0.24322 0.6022575,0.24322 0.2200567,0 0.4401122,-0.0811 0.6022586,-0.24322 l 1.5983013,-1.5983 1.5867192,1.5983 c 0.3358738,0.32429 0.8686413,0.32429 1.2045162,0 0.3358749,-0.33587 0.3358749,-0.86863 0,-1.20451 z m -1.1697711,-2.36271 c 1.5983002,0 2.8954727,-1.30876 2.8954727,-2.90706 0,-1.5983 -1.2971725,-2.89547 -2.8954727,-2.89547 -1.5983013,0 -2.9070547,1.29717 -2.9070547,2.89547 0,1.5983 1.3087534,2.90706 2.9070547,2.90706 z"
       id="path7470" />
  </g>
</svg>
