<svg xmlns="http://www.w3.org/2000/svg" width="28.82" height="28.82" viewBox="0 0 28.82 28.82" class="svg-icon ok ">
    <path d="M14.41 28.81a14.4 14.4 0 1 1 14.4-14.4 14.365 14.365 0 0 1-14.4 14.4zm0-25.8a11.4 11.4 0 1 0 11.4 11.4 11.395 11.395 0 0 0-11.4-11.4zm4.8 13.62c-.72.42-3 1.38-3 1.38l2.52 3.24a2.3 2.3 0 0 1 .48.96 1.2 1.2 0 0 1-1.2 1.2 1.143 1.143 0 0 1-.9-.42l-2.7-3.18-2.76 3.18a1.143 1.143 0 0 1-.9.42 1.2 1.2 0 0 1-1.2-1.2 1.944 1.944 0 0 1 .48-.96l2.58-3.24s-2.28-.96-3-1.38a1.091 1.091 0 0 1-.6-1.02 1.2 1.2 0 0 1 1.2-1.2c.6 0 1.8 1.2 4.2 1.2s3.6-1.2 4.2-1.2a1.2 1.2 0 0 1 1.2 1.2 1.168 1.168 0 0 1-.6 1.02zm-4.8-2.82a4.2 4.2 0 1 1 4.2-4.2 4.174 4.174 0 0 1-4.2 4.2zm0-6.3a2.1 2.1 0 1 0 2.1 2.1 2.126 2.126 0 0 0-2.1-2.1z"/>
</svg>
